<svg width="512" height="512" viewBox="0 0 512 512" fill="none" xmlns="http://www.w3.org/2000/svg">
<g id="trophy">
<path id="base" d="M148 434h216c11.05 0 20 8.95 20 20v18c0 11.05-8.95 20-20 20H148c-11.05 0-20-8.95-20-20v-18c0-11.05 8.95-20 20-20z" fill="#7B7B7B"/>
<path id="pedestal" d="M214 350h84c11.05 0 20 8.95 20 20v64c0 11.05-8.95 20-20 20h-84c-11.05 0-20-8.95-20-20v-64c0-11.05 8.95-20 20-20z" fill="#FFD93D"/>
<path id="trophy_main" d="M173 58h166c22.09 0 40 17.91 40 40v140c0 66.27-53.73 120-120 120s-120-53.73-120-120V98c0-22.09 17.91-40 40-40z" fill="#FFD93D"/>
<path id="trophy_shadow" d="M173 58h83v300c-66.27 0-120-53.73-120-120V98c0-22.09 17.91-40 40-40z" fill="#FFCA28"/>
<path id="handle_left" d="M139 98H89c-22.09 0-40 17.91-40 40v40c0 33.14 26.86 60 60 60h30V98z" fill="#FFD93D"/>
<path id="handle_right" d="M373 98h50c22.09 0 40 17.91 40 40v40c0 33.14-26.86 60-60 60h-30V98z" fill="#FFD93D"/>
<path id="handle_left_shadow" d="M139 98H89c-22.09 0-40 17.91-40 40v40c0 33.14 26.86 60 60 60h30V138z" fill="#FFCA28"/>
<path id="handle_right_shadow" d="M373 138v100h30c33.14 0 60-26.86 60-60v-40c0-22.09-17.91-40-40-40h-50z" fill="#FFCA28"/>
<path id="center_circle" d="M256 130c-44.18 0-80 35.82-80 80s35.82 80 80 80 80-35.82 80-80-35.82-80-80-80z" fill="#FFF8E1"/>
<path id="star" d="M256 150l12.12 24.57 27.13 3.94-19.63 19.14 4.63 26.98L256 213.43l-24.25 12.75 4.63-26.98-19.63-19.14 27.13-3.94L256 150z" fill="#FF6B9D"/>
<path id="diamond_top" d="M256 18l16 16-16 16-16-16 16-16z" fill="#FFD93D" transform="rotate(45 256 34)"/>
</g>
<g id="outlines" stroke="#000" stroke-width="12" fill="none">
<path d="M148 434h216c11.05 0 20 8.95 20 20v18c0 11.05-8.95 20-20 20H148c-11.05 0-20-8.95-20-20v-18c0-11.05 8.95-20 20-20z"/>
<path d="M214 350h84c11.05 0 20 8.95 20 20v64c0 11.05-8.95 20-20 20h-84c-11.05 0-20-8.95-20-20v-64c0-11.05 8.95-20 20-20z"/>
<path d="M173 58h166c22.09 0 40 17.91 40 40v140c0 66.27-53.73 120-120 120s-120-53.73-120-120V98c0-22.09 17.91-40 40-40z"/>
<path d="M139 98H89c-22.09 0-40 17.91-40 40v40c0 33.14 26.86 60 60 60h30"/>
<path d="M373 98h50c22.09 0 40 17.91 40 40v40c0 33.14-26.86 60-60 60h-30"/>
<circle cx="256" cy="210" r="80"/>
<path d="M256 150l12.12 24.57 27.13 3.94-19.63 19.14 4.63 26.98L256 213.43l-24.25 12.75 4.63-26.98-19.63-19.14 27.13-3.94L256 150z"/>
<path d="M256 18l16 16-16 16-16-16 16-16z" transform="rotate(45 256 34)"/>
<line x1="256" y1="290" x2="256" y2="350"/>
</g>
</svg>
