<?xml version="1.0" encoding="iso-8859-1"?>
<!-- Generator: Adobe Illustrator 25.2.0, SVG Export Plug-In . SVG Version: 6.00 Build 0)  -->
<svg version="1.1" xmlns="http://www.w3.org/2000/svg" xmlns:xlink="http://www.w3.org/1999/xlink" x="0px" y="0px"
	 viewBox="0 0 2048 2048" style="enable-background:new 0 0 2048 2048;" xml:space="preserve">
<g id="_x32_623.S2_-_Shuttlecock">
	<g>
		<g id="XMLID_1_">
			<g>
				<g>
					<polygon style="fill:#E1E6E9;" points="1648.57,787.06 1634.43,954.43 1634.41,954.44 880.65,1374.68 813.05,1307.08 
						813.04,1307.07 1490.18,756.14 					"/>
				</g>
				<g>
					<polygon style="fill:#E1E6E9;" points="1260.94,399.44 1291.87,557.81 740.93,1234.96 673.32,1167.35 1093.55,413.58 
						1093.57,413.58 					"/>
				</g>
				<g>
					<polygon style="fill:#E1E6E9;" points="1768,992.14 1747.72,1129.61 946.69,1440.72 880.65,1374.68 1634.41,954.44 
						1634.42,954.45 					"/>
				</g>
				<g>
					<polygon style="fill:#E1E6E9;" points="1472.78,575.22 1490.19,756.13 1490.18,756.14 813.04,1307.07 740.93,1234.96 
						1291.87,557.81 					"/>
				</g>
				<g>
					<polygon style="fill:#E1E6E9;" points="1093.57,413.57 1093.57,413.58 1093.55,413.58 673.32,1167.35 670.39,1164.42 
						607.28,1101.31 918.4,300.27 1055.85,280 					"/>
				</g>
				<g>
					<polygon style="fill:#898890;" points="946.69,1440.72 878.81,1508.6 539.4,1169.19 607.28,1101.31 670.39,1164.42 
						673.32,1167.35 740.93,1234.96 813.04,1307.07 813.05,1307.08 880.65,1374.68 					"/>
				</g>
				<g>
					<path style="fill:#FFE577;" d="M436.13,1206.23l70.15-70.16l33.12,33.12l339.41,339.41l33.12,33.12l-142.27,142.27
						l-405.65-405.65L436.13,1206.23z M811.78,1557.88c0-0.78-0.04-1.58-0.12-2.36c-0.08-0.78-0.19-1.56-0.35-2.33
						c-0.15-0.76-0.35-1.53-0.57-2.28c-0.23-0.74-0.5-1.49-0.8-2.21c-0.3-0.72-0.63-1.43-1-2.12c-0.37-0.69-0.77-1.37-1.2-2.02
						c-0.44-0.66-0.91-1.29-1.4-1.9c-0.5-0.61-1.03-1.2-1.59-1.75c-0.55-0.56-1.14-1.09-1.75-1.59c-0.61-0.49-1.24-0.96-1.9-1.39
						c-0.65-0.44-1.33-0.84-2.02-1.21c-0.68-0.37-1.4-0.7-2.12-1c-0.72-0.3-1.46-0.57-2.21-0.79c-0.75-0.23-1.52-0.43-2.28-0.58
						c-0.77-0.16-1.55-0.27-2.33-0.35c-1.56-0.16-3.15-0.16-4.72,0c-0.78,0.08-1.56,0.19-2.33,0.35c-0.76,0.15-1.53,0.35-2.28,0.58
						c-0.74,0.22-1.49,0.49-2.21,0.79c-0.72,0.3-1.43,0.63-2.12,1s-1.37,0.77-2.02,1.21c-0.65,0.43-1.29,0.9-1.9,1.39
						c-0.61,0.5-1.2,1.03-1.75,1.59c-0.55,0.55-1.09,1.14-1.58,1.75c-0.5,0.61-0.97,1.24-1.4,1.9c-0.43,0.65-0.84,1.33-1.21,2.02
						c-0.36,0.69-0.7,1.4-1,2.12c-0.3,0.72-0.57,1.47-0.79,2.21c-0.23,0.75-0.43,1.52-0.58,2.28c-0.15,0.77-0.27,1.55-0.35,2.33
						c-0.08,0.78-0.12,1.58-0.12,2.36s0.04,1.58,0.12,2.36c0.08,0.78,0.2,1.56,0.35,2.33c0.16,0.76,0.35,1.53,0.58,2.28
						c0.22,0.74,0.49,1.49,0.79,2.21c0.3,0.72,0.64,1.43,1,2.12c0.37,0.69,0.78,1.37,1.21,2.02c0.43,0.65,0.9,1.29,1.4,1.9
						c0.49,0.61,1.03,1.2,1.58,1.75c0.55,0.55,1.14,1.09,1.75,1.59c0.61,0.49,1.25,0.96,1.9,1.39c0.65,0.44,1.33,0.84,2.02,1.21
						c0.69,0.36,1.4,0.7,2.12,1c0.72,0.3,1.47,0.57,2.21,0.79c0.75,0.23,1.52,0.43,2.28,0.58c0.77,0.15,1.55,0.27,2.33,0.35
						c0.78,0.08,1.58,0.12,2.36,0.12c0.78,0,1.58-0.04,2.36-0.12c0.78-0.08,1.56-0.2,2.33-0.35c0.76-0.15,1.53-0.35,2.28-0.58
						c0.75-0.22,1.49-0.49,2.21-0.79c0.72-0.3,1.44-0.64,2.12-1c0.69-0.37,1.37-0.77,2.02-1.21c0.66-0.43,1.29-0.9,1.9-1.39
						c0.61-0.5,1.2-1.04,1.75-1.59c0.55-0.55,1.09-1.14,1.59-1.75c0.49-0.61,0.96-1.25,1.39-1.9c0.44-0.65,0.84-1.33,1.21-2.02
						c0.37-0.69,0.7-1.4,1-2.12c0.3-0.72,0.57-1.47,0.8-2.21c0.22-0.75,0.42-1.52,0.57-2.28c0.16-0.77,0.27-1.55,0.35-2.33
						C811.74,1559.46,811.78,1558.66,811.78,1557.88z"/>
				</g>
				<g>
					<path style="fill:#212121;" d="M811.66,1555.52c0.08,0.78,0.12,1.58,0.12,2.36s-0.04,1.58-0.12,2.36
						c-0.08,0.78-0.19,1.56-0.35,2.33c-0.15,0.76-0.35,1.53-0.57,2.28c-0.23,0.74-0.5,1.49-0.8,2.21c-0.3,0.72-0.63,1.43-1,2.12
						c-0.37,0.69-0.77,1.37-1.21,2.02c-0.43,0.65-0.9,1.29-1.39,1.9c-0.5,0.61-1.04,1.2-1.59,1.75c-0.55,0.55-1.14,1.09-1.75,1.59
						c-0.61,0.49-1.24,0.96-1.9,1.39c-0.65,0.44-1.33,0.84-2.02,1.21c-0.68,0.36-1.4,0.7-2.12,1c-0.72,0.3-1.46,0.57-2.21,0.79
						c-0.75,0.23-1.52,0.43-2.28,0.58c-0.77,0.15-1.55,0.27-2.33,0.35c-0.78,0.08-1.58,0.12-2.36,0.12c-0.78,0-1.58-0.04-2.36-0.12
						c-0.78-0.08-1.56-0.2-2.33-0.35c-0.76-0.15-1.53-0.35-2.28-0.58c-0.74-0.22-1.49-0.49-2.21-0.79c-0.72-0.3-1.43-0.64-2.12-1
						c-0.69-0.37-1.37-0.77-2.02-1.21c-0.65-0.43-1.29-0.9-1.9-1.39c-0.61-0.5-1.2-1.04-1.75-1.59c-0.55-0.55-1.09-1.14-1.58-1.75
						c-0.5-0.61-0.97-1.25-1.4-1.9c-0.43-0.65-0.84-1.33-1.21-2.02c-0.36-0.69-0.7-1.4-1-2.12c-0.3-0.72-0.57-1.47-0.79-2.21
						c-0.23-0.75-0.42-1.52-0.58-2.28c-0.15-0.77-0.27-1.55-0.35-2.33c-0.08-0.78-0.12-1.58-0.12-2.36s0.04-1.58,0.12-2.36
						c0.08-0.78,0.2-1.56,0.35-2.33c0.15-0.76,0.35-1.53,0.58-2.28c0.22-0.74,0.49-1.49,0.79-2.21c0.3-0.72,0.64-1.43,1-2.12
						c0.37-0.69,0.78-1.37,1.21-2.02c0.43-0.66,0.9-1.29,1.4-1.9c0.49-0.61,1.03-1.2,1.58-1.75c0.55-0.56,1.14-1.09,1.75-1.59
						c0.61-0.49,1.25-0.96,1.9-1.39c0.65-0.44,1.33-0.84,2.02-1.21s1.4-0.7,2.12-1c0.72-0.3,1.47-0.57,2.21-0.79
						c0.75-0.23,1.52-0.43,2.28-0.58c0.77-0.16,1.55-0.27,2.33-0.35c1.57-0.16,3.16-0.16,4.72,0c0.78,0.08,1.56,0.19,2.33,0.35
						c0.76,0.15,1.53,0.35,2.28,0.58c0.75,0.22,1.49,0.49,2.21,0.79c0.72,0.3,1.44,0.63,2.12,1c0.69,0.37,1.37,0.77,2.02,1.21
						c0.66,0.43,1.29,0.9,1.9,1.39c0.61,0.5,1.2,1.03,1.75,1.59c0.56,0.55,1.09,1.14,1.59,1.75c0.49,0.61,0.96,1.24,1.4,1.9
						c0.43,0.65,0.83,1.33,1.2,2.02c0.37,0.69,0.7,1.4,1,2.12c0.3,0.72,0.57,1.47,0.8,2.21c0.22,0.75,0.42,1.52,0.57,2.28
						C811.47,1553.96,811.58,1554.74,811.66,1555.52z"/>
				</g>
				<g>
					<path style="fill:#C9CFD1;" d="M364.01,1278.34l405.65,405.65c-112.02,112.01-293.63,112.01-405.65,0
						C252,1571.97,252,1390.36,364.01,1278.34z"/>
				</g>
			</g>
			<g>
				<g>
					<path style="fill:#212121;" d="M946.696,1464.727c-9.614,0-18.688-5.817-22.378-15.318
						c-4.799-12.355,1.328-26.262,13.683-31.061l788.014-306.054l15.163-102.785l-113.275-31.961
						c-12.757-3.6-20.18-16.858-16.581-29.615c3.601-12.757,16.86-20.183,29.616-16.581l133.58,37.69
						c11.611,3.276,18.986,14.665,17.226,26.601l-20.28,137.471c-1.26,8.539-7.008,15.744-15.054,18.869l-801.03,311.109
						C952.524,1464.2,949.585,1464.727,946.696,1464.727z"/>
				</g>
				<g>
					<path style="fill:#212121;" d="M880.672,1398.684c-8.422,0.001-16.592-4.439-20.984-12.317
						c-6.455-11.577-2.302-26.194,9.275-32.648l742.627-414.033l11.253-133.194l-137.262-26.795
						c-13.009-2.54-21.496-15.144-18.957-28.153c2.539-13.01,15.14-21.498,28.154-18.957l158.391,30.919
						c12.021,2.347,20.348,13.371,19.316,25.576l-14.141,167.37c-0.681,8.052-5.363,15.201-12.426,19.051l-753.582,420.14
						C888.638,1397.704,884.626,1398.684,880.672,1398.684z"/>
				</g>
				<g>
					<path style="fill:#212121;" d="M607.274,1125.316c-2.89,0-5.828-0.525-8.683-1.635c-12.356-4.799-18.481-18.705-13.683-31.062
						l311.12-801.039c3.125-8.046,10.331-13.795,18.87-15.054l137.449-20.27c11.949-1.763,23.32,5.612,26.599,17.221l37.721,133.57
						c3.603,12.756-3.818,26.017-16.574,29.619c-12.751,3.602-26.018-3.817-29.619-16.574l-31.988-113.272l-102.769,15.156
						l-306.064,788.023C625.962,1119.498,616.887,1125.316,607.274,1125.316z"/>
				</g>
				<g>
					<path style="fill:#212121;" d="M673.298,1191.354c-3.955,0.001-7.965-0.979-11.665-3.041
						c-11.577-6.455-15.73-21.072-9.276-32.649l420.229-753.77c3.959-7.1,11.216-11.679,19.248-12.252l167.085-14.116
						c12.206-1.042,23.229,7.293,25.575,19.314l30.93,158.37c2.541,13.009-5.945,25.614-18.954,28.155
						c-13.017,2.539-25.615-5.946-28.155-18.955l-26.804-137.243l-133.219,11.255l-414.011,742.614
						C689.891,1186.914,681.719,1191.354,673.298,1191.354z"/>
				</g>
				<g>
					<path style="fill:#212121;" d="M704.3,1498.4c-6.142,0-12.284-2.343-16.971-7.029l-268.17-268.17
						c-9.373-9.373-9.373-24.568,0-33.941c9.373-9.373,24.568-9.373,33.941,0l268.17,268.17c9.373,9.373,9.373,24.568,0,33.941
						C716.584,1496.058,710.442,1498.4,704.3,1498.4z"/>
				</g>
				<g>
					<path style="fill:#212121;" d="M769.66,1707.99c-6.142,0-12.284-2.343-16.971-7.029l-405.65-405.65
						c-9.373-9.373-9.373-24.568,0-33.941c9.373-9.373,24.568-9.373,33.941,0l405.65,405.65c9.373,9.373,9.373,24.568,0,33.941
						C781.944,1705.647,775.802,1707.99,769.66,1707.99z"/>
				</g>
				<g>
					<path style="fill:#212121;" d="M813.054,1331.071c-6.973,0-13.887-3.023-18.631-8.854c-8.365-10.281-6.812-25.397,3.47-33.763
						l667.176-542.824l-14.283-148.416l-148.415-14.283l-542.824,667.175c-8.366,10.281-23.482,11.834-33.763,3.47
						c-10.282-8.365-11.835-23.481-3.47-33.763l550.94-677.15c5.069-6.231,12.918-9.518,20.915-8.743l180.91,17.41
						c11.438,1.101,20.49,10.153,21.591,21.591l17.41,180.91c0.705,7.329-1.992,14.576-7.318,19.659
						c-0.458,0.438-0.944,0.867-1.436,1.267l-677.14,550.93C823.735,1329.309,818.377,1331.071,813.054,1331.071z"/>
				</g>
				<g>
					<path style="fill:#212121;" d="M566.835,1791.998c-83.026,0-161.084-32.331-219.795-91.036
						c-58.707-58.713-91.038-136.771-91.038-219.797c0-83.026,32.331-161.084,91.036-219.795l72.122-72.111l70.147-70.158
						c4.5-4.501,10.605-7.03,16.971-7.03c6.366,0,12.471,2.528,16.972,7.029l33.12,33.12c9.373,9.373,9.373,24.568,0,33.941
						c-9.373,9.373-24.568,9.373-33.941,0l-16.148-16.148l-53.179,53.188l-72.123,72.111
						c-102.469,102.479-102.469,269.228,0.002,371.709c102.479,102.469,269.229,102.471,371.709-0.002l125.299-125.299
						l-16.15-16.149c-9.373-9.373-9.373-24.568,0-33.941c9.373-9.373,24.568-9.373,33.941,0l33.12,33.12
						c9.373,9.373,9.373,24.568,0,33.941l-142.27,142.271C727.919,1759.667,649.861,1791.998,566.835,1791.998z"/>
				</g>
				<g>
					<path style="fill:#212121;" d="M878.81,1532.6c-6.142,0-12.284-2.343-16.971-7.029l-339.41-339.409
						c-9.373-9.373-9.373-24.568,0-33.941l67.88-67.881c4.501-4.5,10.605-7.029,16.971-7.029s12.47,2.528,16.971,7.029
						l339.41,339.41c9.373,9.373,9.373,24.568,0,33.941l-67.88,67.88C891.094,1530.257,884.952,1532.6,878.81,1532.6z
						 M573.341,1169.19l305.469,305.468l33.939-33.938L607.28,1135.251L573.341,1169.19z"/>
				</g>
			</g>
		</g>
	</g>
</g>
<g id="Layer_1">
</g>
</svg>
