<?xml version="1.0" encoding="iso-8859-1"?>
<!-- Generator: Adobe Illustrator 25.2.0, SVG Export Plug-In . SVG Version: 6.00 Build 0)  -->
<svg version="1.1" xmlns="http://www.w3.org/2000/svg" xmlns:xlink="http://www.w3.org/1999/xlink" x="0px" y="0px"
	 viewBox="0 0 2048 2048" style="enable-background:new 0 0 2048 2048;" xml:space="preserve">
<g id="_x32_624.S2_-_Table_Tennis">
	<g>
		<g id="XMLID_2_">
			<g>
				<g>
					<circle style="fill:#FFDC4A;" cx="1024" cy="1647.4" r="124.71"/>
				</g>
				<g>
					<path style="fill:#F0C894;" d="M1522.25,1614.89l17.88,48.07c9.33,25.1-3.45,53.01-28.54,62.34l-96.15,35.75
						c-25.09,9.34-53-3.44-62.34-28.54l-17.87-48.07l-34.78-93.51l-43.46-116.89h-0.01l-34.77-93.52l187.02-69.55l34.78,93.51
						l43.47,116.89L1522.25,1614.89z"/>
				</g>
				<g>
					<path style="fill:#F0C894;" d="M791.01,1474.04l-43.46,116.89l-34.78,93.51l-17.87,48.07c-9.34,25.1-37.25,37.88-62.34,28.54
						l-96.15-35.75c-25.09-9.33-37.87-37.24-28.54-62.34l17.88-48.07l34.77-93.52l43.47-116.89l34.78-93.51l187.02,69.55v0.01
						l-34.77,93.51H791.01z"/>
				</g>
				<g>
					<path style="fill:#F5D3A6;" d="M1002.04,1301.73c7.34,1.12,14.66,2.38,21.95,3.77c-69.87,13.31-136.93,38.68-198.2,75.03v-0.01
						l-187.02-69.55c-24.99-74.59-64.1-143.68-115.18-203.5l-65.35-76.52l235.5,87.58c54.53,74.2,127.01,131.5,208.83,167.97h0.01
						L1002.04,1301.73z"/>
				</g>
				<g>
					<path style="fill:#F5D3A6;" d="M1589.75,1030.95l-65.34,76.52c-51.08,59.82-90.19,128.91-115.18,203.5l-187.02,69.55h-0.01
						c-61.26-36.35-128.34-61.72-198.2-75.02c-0.01,0-0.01,0-0.01,0c-7.29-1.39-14.61-2.65-21.95-3.77l-99.46-15.23L1589.75,1030.95
						z"/>
				</g>
				<g>
					<path style="fill:#57565C;" d="M1023.94,292.27c-30.42,5.45-60.78,13.68-90.76,24.83
						c-271.14,100.84-409.2,402.38-308.37,673.52c17.4,46.78,40.77,89.6,68.93,127.91l-235.5-87.58
						c-57.79-122.93-68.03-268.1-16.94-405.47C530.96,384.35,779.36,248.48,1023.94,292.27z"/>
				</g>
				<g>
					<g>
						<path style="fill:#FF4B58;" d="M1023.94,292.27c244.62-43.84,493.08,92.04,582.76,333.2
							c51.09,137.38,40.85,282.54-16.94,405.47l-0.01,0.01L902.58,1286.5h-0.01c-81.82-36.47-154.3-93.77-208.83-167.97
							c-28.16-38.31-51.53-81.13-68.93-127.91C523.98,719.48,662.04,417.94,933.18,317.1
							C963.16,305.95,993.52,297.72,1023.94,292.27z"/>
					</g>
				</g>
			</g>
			<g>
				<g>
					<path style="fill:#212121;" d="M638.767,1334.977c-10.035,0-19.39-6.343-22.754-16.383
						c-24.121-71.993-61.357-137.782-110.675-195.539l-65.349-76.518c-1.391-1.629-2.558-3.437-3.469-5.376
						c-30.668-65.237-48.013-134.663-51.551-206.347c-3.664-74.234,7.72-147.479,33.836-217.7
						c22.925-61.655,56.168-117.935,98.804-167.274c41.19-47.667,90.016-87.607,145.118-118.71
						c110.83-62.557,240.453-84.769,365.047-62.554c11.461,1.811,20.226,11.734,20.226,23.705c0,13.255-10.745,24-24,24
						c-1.312,0-2.635-0.11-3.936-0.325c-0.118-0.02-0.236-0.04-0.354-0.061c-237.783-42.575-471.582,91.144-555.916,317.95
						c-46.83,125.916-41.544,262.159,14.816,384.003l63.229,74.037c53.334,62.46,93.602,133.605,119.687,211.462
						c4.211,12.568-2.564,26.17-15.132,30.381C643.866,1334.573,641.294,1334.977,638.767,1334.977z"/>
				</g>
				<g>
					<path style="fill:#212121;" d="M825.812,1404.534c-8.195,0-16.179-4.199-20.663-11.758
						c-6.763-11.399-3.005-26.124,8.395-32.887c63.808-37.856,133.101-64.088,205.955-77.966
						c13.029-2.479,25.587,6.065,28.067,19.085c2.48,13.021-6.064,25.587-19.085,28.067
						c-67.367,12.833-131.442,37.089-190.446,72.095C834.195,1403.449,829.977,1404.534,825.812,1404.534z"/>
				</g>
				<g>
					<path style="fill:#212121;" d="M649.499,1788.133c-8.53,0-17.079-1.526-25.312-4.591l-96.142-35.747
						c-37.455-13.928-56.597-55.735-42.672-93.197l130.901-351.994c4.621-12.424,18.437-18.749,30.86-14.129l187.02,69.55
						c9.399,3.496,15.635,12.467,15.635,22.495c0,2.855-0.51,5.699-1.505,8.375l-34.77,93.51c-0.08,0.215-0.162,0.427-0.247,0.638
						l-43.223,116.252l-52.65,141.579c-6.754,18.153-20.167,32.585-37.769,40.644
						C670.009,1785.92,659.769,1788.133,649.499,1788.133z M652.898,1341.83l-122.534,329.497
						c-4.703,12.65,1.761,26.773,14.411,31.478l96.149,35.75c6.132,2.283,12.778,2.039,18.721-0.682
						c5.947-2.723,10.479-7.6,12.761-13.733l96.107-258.464c0.08-0.215,0.163-0.428,0.249-0.64l26.171-70.386L652.898,1341.83z"/>
				</g>
				<g>
					<path style="fill:#212121;" d="M693.737,1142.537c-2.779,0-5.605-0.486-8.363-1.512l-235.5-87.581
						c-12.423-4.62-18.75-18.437-14.129-30.86c4.62-12.424,18.438-18.75,30.86-14.129l235.5,87.58
						c12.423,4.62,18.75,18.438,14.129,30.86C712.641,1136.562,703.478,1142.537,693.737,1142.537z"/>
				</g>
				<g>
					<path style="fill:#212121;" d="M650.747,1445.877c-2.779,0-5.605-0.486-8.363-1.512l-46.76-17.39
						c-12.423-4.62-18.75-18.438-14.129-30.86c4.62-12.424,18.437-18.751,30.86-14.13l46.76,17.39
						c12.423,4.62,18.75,18.438,14.129,30.86C669.65,1439.901,660.488,1445.877,650.747,1445.877z"/>
				</g>
				<g>
					<path style="fill:#212121;" d="M712.767,1708.447c-2.78,0-5.606-0.486-8.365-1.513l-46.75-17.391
						c-12.423-4.621-18.748-18.438-14.126-30.861c4.622-12.424,18.439-18.748,30.862-14.127l46.75,17.391
						c12.423,4.621,18.748,18.438,14.126,30.861C731.669,1702.473,722.507,1708.447,712.767,1708.447z"/>
				</g>
				<g>
					<path style="fill:#212121;" d="M791.02,1498.04h-0.01c-2.856,0-5.69-0.51-8.367-1.506l-46.75-17.39
						c-12.423-4.621-18.748-18.438-14.127-30.861c4.621-12.424,18.44-18.749,30.861-14.127l46.217,17.191
						c9.409,3.247,16.171,12.181,16.171,22.692C815.015,1487.295,804.275,1498.04,791.02,1498.04z"/>
				</g>
				<g>
					<path style="fill:#212121;" d="M572.497,1656.287c-2.78,0-5.606-0.486-8.365-1.513l-46.75-17.391
						c-12.423-4.621-18.748-18.438-14.126-30.861c4.622-12.424,18.438-18.748,30.862-14.127l46.75,17.391
						c12.423,4.621,18.748,18.438,14.126,30.861C591.399,1650.312,582.237,1656.287,572.497,1656.287z"/>
				</g>
				<g>
					<path style="fill:#212121;" d="M747.547,1614.937c-2.779,0-5.605-0.486-8.363-1.512l-46.76-17.39
						c-12.423-4.62-18.75-18.438-14.129-30.86c4.619-12.424,18.436-18.75,30.86-14.13l46.76,17.39
						c12.423,4.62,18.75,18.438,14.129,30.86C766.45,1608.961,757.288,1614.937,747.547,1614.937z"/>
				</g>
				<g>
					<path style="fill:#212121;" d="M607.277,1562.767c-2.779,0-5.605-0.486-8.363-1.512l-46.76-17.39
						c-12.423-4.62-18.75-18.438-14.129-30.86c4.62-12.424,18.436-18.75,30.86-14.13l46.76,17.39
						c12.423,4.62,18.75,18.438,14.129,30.86C626.18,1556.791,617.018,1562.767,607.277,1562.767z"/>
				</g>
				<g>
					<path style="fill:#212121;" d="M1409.233,1334.977c-2.527,0-5.098-0.402-7.627-1.25c-12.568-4.211-19.344-17.812-15.133-30.381
						c26.083-77.855,66.352-149.001,119.686-211.461l65.34-76.52c8.607-10.079,23.756-11.275,33.836-2.667
						c10.08,8.607,11.273,23.756,2.666,33.836l-65.34,76.52c-49.318,57.758-86.555,123.547-110.674,195.539
						C1428.624,1328.633,1419.268,1334.977,1409.233,1334.977z"/>
				</g>
				<g>
					<path style="fill:#212121;" d="M902.556,1310.506c-3.265,0-6.582-0.67-9.757-2.085
						c-86.872-38.722-162.393-99.47-218.398-175.679c-30-40.813-54.254-85.816-72.085-133.755
						c-25.773-69.305-37.201-141.597-33.966-214.869c3.124-70.76,19.722-139.433,49.335-204.111
						c29.613-64.679,70.753-122.115,122.279-170.715c53.354-50.326,115.547-88.911,184.851-114.686
						c30.838-11.469,62.766-20.203,94.894-25.959c124.732-22.355,254.539-0.176,365.51,62.447
						c55.114,31.103,103.95,71.044,145.15,118.716c42.646,49.345,75.896,105.631,98.827,167.295
						c26.115,70.225,37.5,143.471,33.836,217.702c-3.539,71.682-20.883,141.106-51.552,206.343
						c-5.64,11.996-19.934,17.149-31.931,11.509c-11.995-5.639-17.147-19.935-11.509-31.93
						c57.623-122.575,63.364-259.977,16.165-386.894c-84.359-226.851-318.199-360.564-556.031-317.942
						c-29.319,5.253-58.465,13.227-86.627,23.701c-258.3,96.064-390.296,384.361-294.241,642.66
						c16.278,43.765,38.408,84.833,65.773,122.061c51.083,69.51,119.986,124.928,199.263,160.264
						c12.106,5.396,17.546,19.585,12.15,31.691C920.51,1305.202,911.742,1310.506,902.556,1310.506z"/>
				</g>
				<g>
					<path style="fill:#212121;" d="M1222.21,1404.52h-0.01c-4.311,0-8.54-1.161-12.247-3.36
						c-58.913-34.957-122.895-59.19-190.171-72.031c-0.096-0.017-0.19-0.034-0.286-0.053c-7.062-1.346-14.152-2.563-21.073-3.619
						l-99.476-15.232c-13.102-2.007-22.097-14.254-20.091-27.356c2.006-13.102,14.25-22.097,27.356-20.091l99.46,15.23
						c7.397,1.128,14.981,2.429,22.53,3.864c0.095,0.017,0.19,0.034,0.285,0.053c72.706,13.841,141.858,39.985,205.54,77.707
						c7.271,4.125,12.177,11.934,12.177,20.889C1246.205,1393.774,1235.465,1404.52,1222.21,1404.52z"/>
				</g>
				<g>
					<path style="fill:#212121;" d="M1398.503,1788.133c-10.271,0-20.511-2.212-30.13-6.616
						c-17.602-8.059-31.014-22.49-37.767-40.637l-95.88-257.854c-0.083-0.205-0.164-0.413-0.241-0.623l-34.771-93.521
						c-4.619-12.423,1.707-26.238,14.13-30.858l187.021-69.55c12.424-4.621,26.239,1.706,30.859,14.129l78.251,210.4l52.648,141.589
						c13.927,37.466-5.215,79.274-42.669,93.202l-96.15,35.75C1415.577,1786.607,1407.029,1788.133,1398.503,1788.133z
						 M1279.245,1465.055c0.083,0.205,0.163,0.412,0.24,0.621l43.46,116.89l52.65,141.582c2.279,6.126,6.812,11.003,12.759,13.726
						c5.943,2.721,12.588,2.965,18.714,0.685l96.157-35.753c12.648-4.704,19.112-18.827,14.408-31.482l-122.532-329.492
						l-142.033,52.819L1279.245,1465.055z"/>
				</g>
				<g>
					<path style="fill:#212121;" d="M902.58,1310.5c-13.255,0-24.005-10.745-24.005-24c0-10.555,6.81-19.518,16.276-22.731
						l686.019-255.122c8.438-3.354,18.429-1.754,25.437,4.919c9.599,9.141,9.974,24.327,0.832,33.926l-0.01,0.01
						c-2.514,2.64-5.597,4.672-9.014,5.943l-687.169,255.55C908.269,1309.99,905.436,1310.5,902.58,1310.5z"/>
				</g>
				<g>
					<path style="fill:#212121;" d="M1397.253,1445.877c-9.741,0-18.903-5.975-22.498-15.642c-4.62-12.423,1.706-26.24,14.13-30.86
						l46.76-17.39c12.422-4.62,26.24,1.706,30.86,14.13c4.62,12.423-1.706,26.24-14.13,30.86l-46.76,17.39
						C1402.858,1445.391,1400.031,1445.877,1397.253,1445.877z"/>
				</g>
				<g>
					<path style="fill:#212121;" d="M1335.233,1708.447c-9.74,0-18.901-5.974-22.497-15.64c-4.621-12.423,1.703-26.24,14.127-30.861
						l46.75-17.391c12.425-4.618,26.24,1.703,30.861,14.127c4.621,12.423-1.703,26.24-14.127,30.861l-46.75,17.391
						C1340.84,1707.96,1338.013,1708.447,1335.233,1708.447z"/>
				</g>
				<g>
					<path style="fill:#212121;" d="M1256.99,1498.04c-13.255,0-24.005-10.745-24.005-24c0-10.552,6.808-19.514,16.271-22.729
						l46.117-17.154c12.425-4.623,26.241,1.704,30.861,14.127c4.621,12.423-1.704,26.24-14.127,30.861l-46.75,17.39
						C1262.681,1497.53,1259.847,1498.04,1256.99,1498.04z"/>
				</g>
				<g>
					<path style="fill:#212121;" d="M1475.503,1656.287c-9.74,0-18.901-5.974-22.497-15.64c-4.621-12.423,1.703-26.24,14.127-30.861
						l46.75-17.391c12.424-4.617,26.24,1.703,30.861,14.127c4.621,12.423-1.703,26.24-14.127,30.861l-46.75,17.391
						C1481.109,1655.8,1478.282,1656.287,1475.503,1656.287z"/>
				</g>
				<g>
					<path style="fill:#212121;" d="M1300.453,1614.937c-9.741,0-18.903-5.975-22.498-15.642c-4.62-12.423,1.706-26.24,14.13-30.86
						l46.76-17.39c12.423-4.62,26.24,1.705,30.86,14.13c4.62,12.423-1.706,26.24-14.13,30.86l-46.76,17.39
						C1306.059,1614.45,1303.231,1614.937,1300.453,1614.937z"/>
				</g>
				<g>
					<path style="fill:#212121;" d="M1440.723,1562.767c-9.741,0-18.903-5.975-22.498-15.642c-4.62-12.423,1.706-26.24,14.13-30.86
						l46.761-17.39c12.422-4.621,26.24,1.706,30.86,14.13c4.62,12.423-1.706,26.24-14.13,30.86l-46.761,17.39
						C1446.328,1562.28,1443.501,1562.767,1440.723,1562.767z"/>
				</g>
				<g>
					<path style="fill:#212121;" d="M1024,1796.11c-81.999,0-148.71-66.711-148.71-148.71s66.711-148.71,148.71-148.71
						s148.71,66.711,148.71,148.71S1105.999,1796.11,1024,1796.11z M1024,1546.69c-55.532,0-100.71,45.179-100.71,100.71
						s45.178,100.71,100.71,100.71c55.531,0,100.71-45.179,100.71-100.71S1079.531,1546.69,1024,1546.69z"/>
				</g>
			</g>
		</g>
	</g>
</g>
<g id="Layer_1">
</g>
</svg>
