<?xml version="1.0" encoding="iso-8859-1"?>
<!-- Generator: Adobe Illustrator 25.2.0, SVG Export Plug-In . SVG Version: 6.00 Build 0)  -->
<svg version="1.1" xmlns="http://www.w3.org/2000/svg" xmlns:xlink="http://www.w3.org/1999/xlink" x="0px" y="0px"
	 viewBox="0 0 2048 2048" style="enable-background:new 0 0 2048 2048;" xml:space="preserve">
<g id="_x32_625.S2_-_Weighing_Machine">
	<g>
		<g id="XMLID_3_">
			<g>
				<g>
					<path style="fill:#C9CFD1;" d="M1299.41,889.72c51.06,25.92,79.32,82.1,71.22,138.78l-46.91,328.37
						c-2,14-3.47,28.05-4.98,42.11c-5.81,54.36-52.03,96.63-108.02,96.22c-59.46-0.44-107.01-49.72-107.01-109.18v-374.57
						c0-74.5,59.81-135.99,134.3-136.25C1260.11,875.12,1280.98,880.37,1299.41,889.72z"/>
				</g>
				<g>
					<path style="fill:#C9CFD1;" d="M896.29,1011.45v374.57c0,59.46-47.55,108.74-107.01,109.18
						c-55.99,0.41-102.21-41.86-108.02-96.22c-1.51-14.06-2.98-28.11-4.98-42.11l-46.91-328.37
						c-8.1-56.68,20.16-112.86,71.22-138.78c18.43-9.35,39.3-14.6,61.4-14.52C836.48,875.46,896.29,936.95,896.29,1011.45z"/>
				</g>
				<g>
					<path style="fill:#FF9911;" d="M1471.2,657.36v876.68c0,71.45-57.92,129.37-129.36,129.37H658.16
						c-71.44,0-129.36-57.92-129.36-129.37V657.36c0-71.44,57.92-129.36,129.36-129.36h48.36c23.6,140.75,146.01,248,293.48,248
						s269.88-107.25,293.48-248h48.36C1413.28,528,1471.2,585.92,1471.2,657.36z M1370.63,1028.5
						c8.1-56.68-20.16-112.86-71.22-138.78c-18.43-9.35-39.3-14.6-61.4-14.52c-74.49,0.26-134.3,61.75-134.3,136.25v374.57
						c0,59.46,47.55,108.74,107.01,109.18c55.99,0.41,102.21-41.86,108.02-96.22c1.51-14.06,2.98-28.11,4.98-42.11L1370.63,1028.5z
						 M896.29,1386.02v-374.57c0-74.5-59.81-135.99-134.3-136.25c-22.1-0.08-42.97,5.17-61.4,14.52
						c-51.06,25.92-79.32,82.1-71.22,138.78l46.91,328.37c2,14,3.47,28.05,4.98,42.11c5.81,54.36,52.03,96.63,108.02,96.22
						C848.74,1494.76,896.29,1445.48,896.29,1386.02z"/>
				</g>
				<g>
					<path style="fill:#FFDC4A;" d="M1570.4,606.52v983.76c0,98.15-79.57,177.72-177.72,177.72H607.32
						c-98.15,0-177.72-79.57-177.72-177.72V606.52c0-98.15,79.57-177.72,177.72-177.72h200.53c-4.08,15.85-6.25,32.47-6.25,49.6
						c0,54.78,22.21,104.38,58.11,140.29c35.91,35.9,85.51,58.11,140.29,58.11s104.38-22.21,140.29-58.11
						c35.9-35.91,58.11-85.51,58.11-140.29c0-17.13-2.17-33.75-6.25-49.6h200.53C1490.83,428.8,1570.4,508.37,1570.4,606.52z
						 M1471.2,1534.04V657.36c0-71.44-57.92-129.36-129.36-129.36h-48.36c-23.6,140.75-146.01,248-293.48,248
						S730.12,668.75,706.52,528h-48.36c-71.44,0-129.36,57.92-129.36,129.36v876.68c0,71.45,57.92,129.37,129.36,129.37h683.68
						C1413.28,1663.41,1471.2,1605.49,1471.2,1534.04z"/>
				</g>
				<g>
					<path style="fill:#6ABFD3;" d="M1140.29,338.11c24.68,24.68,42.88,55.83,51.86,90.69c4.08,15.85,6.25,32.47,6.25,49.6
						c0,54.78-22.21,104.38-58.11,140.29c-35.91,35.9-85.51,58.11-140.29,58.11s-104.38-22.21-140.29-58.11
						c-35.9-35.91-58.11-85.51-58.11-140.29c0-17.13,2.17-33.75,6.25-49.6c8.98-34.86,27.18-66.01,51.86-90.69
						C895.62,302.21,945.22,280,1000,280S1104.38,302.21,1140.29,338.11z"/>
				</g>
			</g>
			<g>
				<g>
					<path style="fill:#212121;" d="M1392.68,1792H607.32c-111.229,0-201.72-90.491-201.72-201.72V606.52
						c0-111.229,90.491-201.72,201.72-201.72h200.53c13.255,0,24,10.745,24,24s-10.745,24-24,24H607.32
						c-84.761,0-153.72,68.958-153.72,153.72v983.76c0,84.762,68.958,153.72,153.72,153.72h785.36
						c84.762,0,153.721-68.958,153.721-153.72V606.52c0-84.762-68.959-153.72-153.721-153.72H1192.15c-13.255,0-24-10.745-24-24
						s10.745-24,24-24h200.529c111.229,0,201.721,90.491,201.721,201.72v983.76C1594.4,1701.509,1503.909,1792,1392.68,1792z"/>
				</g>
				<g>
					<path style="fill:#212121;" d="M1000,700.8c-59.394,0-115.242-23.133-157.258-65.137
						C800.733,593.642,777.6,537.793,777.6,478.4c0-18.818,2.358-37.519,7.008-55.583c9.885-38.375,29.986-73.533,58.131-101.678
						C884.758,279.133,940.606,256,1000,256s115.242,23.133,157.258,65.137c28.147,28.148,48.249,63.306,58.134,101.676
						c4.651,18.068,7.009,36.769,7.009,55.587c0,59.394-23.133,115.242-65.138,157.258C1115.242,677.667,1059.394,700.8,1000,700.8z
						 M1000,304c-46.575,0-90.371,18.142-123.322,51.083c-22.078,22.078-37.842,49.64-45.587,79.704
						c-3.643,14.154-5.491,28.829-5.491,43.613c0,46.575,18.142,90.371,51.083,123.322C909.629,634.658,953.425,652.8,1000,652.8
						c46.574,0,90.371-18.142,123.322-51.083c32.937-32.946,51.078-76.742,51.078-123.317c0-14.785-1.848-29.459-5.492-43.617
						c-7.744-30.06-23.509-57.622-45.589-79.703C1090.371,322.142,1046.574,304,1000,304z"/>
				</g>
				<g>
					<path style="fill:#212121;" d="M1341.84,1687.41H658.16c-84.563,0-153.36-68.802-153.36-153.37V657.36
						c0-84.563,68.797-153.36,153.36-153.36h48.36c11.723,0,21.731,8.469,23.669,20.031C752.338,656.125,865.81,752,1000,752
						c134.189,0,247.662-95.875,269.811-227.969c1.939-11.562,11.946-20.031,23.67-20.031h48.359
						c84.563,0,153.36,68.797,153.36,153.36v876.68C1495.2,1618.608,1426.403,1687.41,1341.84,1687.41z M658.16,552
						c-58.096,0-105.36,47.264-105.36,105.36v876.68c0,58.102,47.264,105.37,105.36,105.37h683.68
						c58.096,0,105.36-47.269,105.36-105.37V657.36c0-58.096-47.265-105.36-105.36-105.36h-28.716
						c-15.551,66.268-52.109,126.411-104.345,171.03C1150.672,772.665,1076.525,800,1000,800
						c-76.526,0-150.672-27.335-208.779-76.97c-52.236-44.62-88.793-104.762-104.345-171.03H658.16z"/>
				</g>
				<g>
					<path style="fill:#212121;" d="M1000,378.4c-13.255,0-24-10.745-24-24V280c0-13.255,10.745-24,24-24s24,10.745,24,24v74.4
						C1024,367.655,1013.255,378.4,1000,378.4z"/>
				</g>
				<g>
					<path style="fill:#212121;" d="M1000,700.8c-13.255,0-24-10.745-24-24v-74.4c0-13.255,10.745-24,24-24s24,10.745,24,24v74.4
						C1024,690.055,1013.255,700.8,1000,700.8z"/>
				</g>
				<g>
					<path style="fill:#212121;" d="M912.32,414.72c-6.143,0-12.284-2.343-16.971-7.029l-52.61-52.61
						c-9.373-9.373-9.373-24.569,0-33.941c9.373-9.373,24.568-9.373,33.941,0l52.61,52.61c9.373,9.373,9.373,24.569,0,33.941
						C924.604,412.376,918.461,414.72,912.32,414.72z"/>
				</g>
				<g>
					<path style="fill:#212121;" d="M1140.29,642.69c-6.143,0-12.284-2.343-16.971-7.029l-52.61-52.61
						c-9.372-9.373-9.372-24.568,0-33.941c9.373-9.372,24.568-9.372,33.941,0l52.61,52.61c9.372,9.373,9.372,24.568,0,33.941
						C1152.574,640.347,1146.433,642.69,1140.29,642.69z"/>
				</g>
				<g>
					<path style="fill:#212121;" d="M876,502.4h-74.4c-13.255,0-24-10.745-24-24s10.745-24,24-24H876c13.255,0,24,10.745,24,24
						S889.255,502.4,876,502.4z"/>
				</g>
				<g>
					<path style="fill:#212121;" d="M1198.4,502.4H1124c-13.255,0-24-10.745-24-24s10.745-24,24-24h74.4c13.255,0,24,10.745,24,24
						S1211.655,502.4,1198.4,502.4z"/>
				</g>
				<g>
					<path style="fill:#212121;" d="M859.71,642.69c-6.142,0-12.284-2.343-16.971-7.029c-9.373-9.373-9.373-24.569,0-33.941
						l52.61-52.61c9.373-9.372,24.568-9.372,33.941,0c9.373,9.373,9.373,24.569,0,33.941l-52.61,52.61
						C871.994,640.347,865.852,642.69,859.71,642.69z"/>
				</g>
				<g>
					<path style="fill:#212121;" d="M1087.68,414.72c-6.143,0-12.284-2.343-16.971-7.029c-9.372-9.373-9.372-24.569,0-33.941
						l52.61-52.61c9.373-9.372,24.568-9.372,33.941,0c9.372,9.373,9.372,24.569,0,33.941l-52.61,52.61
						C1099.964,412.377,1093.822,414.72,1087.68,414.72z"/>
				</g>
				<g>
					<path style="fill:#212121;" d="M1000,527.2c-13.255,0-24-10.745-24-24v-74.4c0-13.255,10.745-24,24-24s24,10.745,24,24v74.4
						C1024,516.455,1013.255,527.2,1000,527.2z"/>
				</g>
				<g>
					<path style="fill:#212121;" d="M788.481,1519.203c-32.585,0-63.824-11.952-88.063-33.717
						c-24.285-21.805-39.563-51.616-43.021-83.943l-0.303-2.828c-1.36-12.687-2.766-25.805-4.573-38.45l-46.91-328.371
						c-9.633-67.408,24.17-133.144,84.115-163.574c22.088-11.206,46.896-17.121,71.783-17.121c0.189,0,0.378,0,0.568,0.001
						c87.237,0.304,158.213,72.192,158.213,160.25v374.569c0,72.901-58.691,132.646-130.833,133.18
						C789.132,1519.202,788.806,1519.203,788.481,1519.203z M761.486,899.199c-17.609,0-34.439,4.011-50.038,11.924
						c-41.605,21.12-65.044,66.927-58.319,113.981l46.91,328.371c1.926,13.48,3.377,27.024,4.782,40.123l0.302,2.819
						c0,0.004,0.001,0.008,0.001,0.012c4.567,42.731,40.344,74.771,83.345,74.773c0.214,0,0.421-0.001,0.635-0.002
						c45.868-0.34,83.186-38.552,83.186-85.182V1011.45c0-61.683-49.518-112.038-110.383-112.25
						C761.767,899.2,761.625,899.199,761.486,899.199z"/>
				</g>
				<g>
					<path style="fill:#212121;" d="M1211.521,1519.203c-0.327,0-0.649-0.001-0.977-0.004
						c-72.143-0.534-130.834-60.278-130.834-133.18V1011.45c0-88.058,70.976-159.946,158.216-160.25
						c0.188,0,0.381-0.001,0.568-0.001c24.886,0,49.69,5.914,71.774,17.118c59.951,30.434,93.754,96.169,84.12,163.579
						l-46.91,328.369c-1.805,12.635-3.21,25.742-4.568,38.419l-0.307,2.859c-3.459,32.327-18.737,62.139-43.021,83.943
						C1275.344,1507.249,1244.103,1519.203,1211.521,1519.203z M1238.518,899.199c-0.141,0-0.28,0-0.421,0.001
						c-60.869,0.212-110.387,50.567-110.387,112.25v374.569c0,46.63,37.317,84.842,83.188,85.182
						c0.211,0.001,0.424,0.002,0.635,0.002c43.003,0.001,78.776-32.04,83.344-74.773c0.001-0.004,0.001-0.008,0.001-0.012
						l0.306-2.851c1.403-13.088,2.854-26.622,4.778-40.092l46.91-328.37c6.725-47.055-16.714-92.862-58.324-113.985
						C1272.955,903.21,1256.122,899.199,1238.518,899.199z"/>
				</g>
			</g>
		</g>
	</g>
</g>
<g id="Layer_1">
</g>
</svg>
