<?xml version="1.0" encoding="iso-8859-1"?>
<!-- Generator: Adobe Illustrator 25.2.0, SVG Export Plug-In . SVG Version: 6.00 Build 0)  -->
<svg version="1.1" xmlns="http://www.w3.org/2000/svg" xmlns:xlink="http://www.w3.org/1999/xlink" x="0px" y="0px"
	 viewBox="0 0 2048 2048" style="enable-background:new 0 0 2048 2048;" xml:space="preserve">
<g id="_x32_626.S2_-Water_Bottle">
	<g>
		<g id="XMLID_4_">
			<g>
				<g>
					<path style="fill:#9FE8FF;" d="M1316.72,1282.69v3.02c0,50.81-41.19,91.99-92,91.99H823.28c-50.81,0-92-41.18-92-91.99v-3.02
						c0-50.81,41.19-92,92-92h401.44C1275.53,1190.69,1316.72,1231.88,1316.72,1282.69z"/>
				</g>
				<g>
					<path style="fill:#9FE8FF;" d="M1316.72,908.66v3.01c0,50.81-41.19,92-92,92H823.28c-50.81,0-92-41.19-92-92v-3.01
						c0-50.81,41.19-92,92-92h401.44C1275.53,816.66,1316.72,857.85,1316.72,908.66z"/>
				</g>
				<g>
					<path style="fill:#6ABFD3;" d="M1316.72,1095.67v3.02c0,50.81-41.19,92-92,92H823.28c-50.81,0-92-41.19-92-92v-3.02
						c0-50.81,41.19-92,92-92h401.44C1275.53,1003.67,1316.72,1044.86,1316.72,1095.67z"/>
				</g>
				<g>
					<path style="fill:#6ABFD3;" d="M1076.74,1743.61c-14.51,15.27-32.82,24.39-52.74,24.39c-19.92,0-38.23-9.12-52.74-24.39h-85.57
						c-85.28,0-154.41-92.18-154.41-205.88v-78.19c0-45.19,27.48-81.84,61.38-81.84h30.62h401.44h30.62
						c33.9,0,61.38,36.65,61.38,81.84v78.19c0,113.7-69.13,205.88-154.41,205.88H1076.74z"/>
				</g>
				<g>
					<path style="fill:#6ABFD3;" d="M1316.72,645.9v55.01c0,63.92-38.86,115.75-86.81,115.75h-5.19H823.28h-5.19
						c-47.95,0-86.81-51.83-86.81-115.75V645.9l170.75-243.93h243.94L1316.72,645.9z"/>
				</g>
				<g>
					<g>
						<rect x="902.03" y="280" style="fill:#FF4B58;" width="243.94" height="121.97"/>
					</g>
				</g>
			</g>
			<g>
				<g>
					<path style="fill:#212121;" d="M1224.72,1401.7c-13.255,0-24-10.745-24-24s10.745-24,24-24c37.495,0,68-30.5,68-67.99v-3.02
						c0-37.495-30.505-68-68-68c-13.255,0-24-10.745-24-24s10.745-24,24-24c63.963,0,116,52.037,116,116v3.02
						C1340.72,1349.667,1288.683,1401.7,1224.72,1401.7z"/>
				</g>
				<g>
					<path style="fill:#212121;" d="M823.28,1401.7c-63.962,0-116-52.033-116-115.99v-3.02c0-63.963,52.038-116,116-116
						c13.255,0,24,10.745,24,24s-10.745,24-24,24c-37.495,0-68,30.505-68,68v3.02c0,37.49,30.505,67.99,68,67.99
						c13.255,0,24,10.745,24,24S836.535,1401.7,823.28,1401.7z"/>
				</g>
				<g>
					<path style="fill:#212121;" d="M1224.72,1214.69H823.28c-63.962,0-116-52.037-116-116v-3.021c0-63.962,52.038-116,116-116
						c13.255,0,24,10.745,24,24s-10.745,24-24,24c-37.496,0-68,30.505-68,68v3.021c0,37.495,30.504,68,68,68h401.44
						c37.495,0,68-30.505,68-68v-3.021c0-37.495-30.505-68-68-68c-13.255,0-24-10.745-24-24s10.745-24,24-24
						c63.963,0,116,52.038,116,116v3.021C1340.72,1162.653,1288.683,1214.69,1224.72,1214.69z"/>
				</g>
				<g>
					<path style="fill:#212121;" d="M1224.72,1027.67H823.28c-63.962,0-116-52.038-116-116v-3.01c0-63.962,52.038-116,116-116
						c13.255,0,24,10.745,24,24s-10.745,24-24,24c-37.496,0-68,30.504-68,68v3.01c0,37.496,30.504,68,68,68h401.44
						c37.495,0,68-30.504,68-68v-3.01c0-37.496-30.505-68-68-68c-13.255,0-24-10.745-24-24s10.745-24,24-24
						c63.963,0,116,52.038,116,116v3.01C1340.72,975.632,1288.683,1027.67,1224.72,1027.67z"/>
				</g>
				<g>
					<path style="fill:#212121;" d="M1162.31,1767.61h-85.569c-13.255,0-24-10.745-24-24s10.745-24,24-24h85.569
						c33.506,0,65.464-18.007,89.985-50.702c26.068-34.76,40.425-81.346,40.425-131.178v-78.19c0-16.457-4.803-32.3-13.178-43.467
						c-4.025-5.368-12.522-14.373-24.202-14.373H792.66c-11.68,0-20.177,9.005-24.202,14.373
						c-8.375,11.167-13.178,27.01-13.178,43.467v78.19c0,49.832,14.356,96.418,40.425,131.178
						c24.521,32.695,56.479,50.702,89.985,50.702h85.57c13.255,0,24,10.745,24,24s-10.745,24-24,24h-85.57
						c-48.983,0-94.578-24.825-128.385-69.903c-32.259-43.013-50.025-99.827-50.025-159.977v-78.19
						c0-27.016,8.089-52.681,22.777-72.266c16.001-21.337,38.82-33.574,62.604-33.574h462.68c23.784,0,46.602,12.237,62.604,33.574
						c14.688,19.585,22.776,45.25,22.776,72.266v78.19c0,60.149-17.766,116.964-50.024,159.977
						C1256.888,1742.785,1211.293,1767.61,1162.31,1767.61z"/>
				</g>
				<g>
					<path style="fill:#212121;" d="M1024,1792c-25.707,0-50.616-11.313-70.138-31.857c-3.276-3.452-6.397-7.152-9.288-11.009
						c-19.173-25.569-29.735-59.197-29.735-94.684c0-13.255,10.745-24,24-24s24,10.745,24,24c0,25.17,7.153,48.571,20.141,65.892
						c1.785,2.382,3.698,4.65,5.688,6.749c7.324,7.707,19.411,16.909,35.331,16.909c15.921,0,28.007-9.202,35.343-16.922
						c16.163-17.023,25.817-44.177,25.817-72.628c0-13.255,10.745-24,24-24s24,10.745,24,24c0,41.051-14.221,79.572-39.016,105.686
						C1074.617,1780.687,1049.708,1792,1024,1792z"/>
				</g>
				<g>
					<path style="fill:#212121;" d="M1229.91,840.66H818.09c-30.928,0-59.548-15.451-80.587-43.506
						c-19.49-25.99-30.223-60.169-30.223-96.244V645.9c0-4.924,1.515-9.729,4.338-13.763l170.75-243.93
						c7.602-10.858,22.566-13.499,33.425-5.898c10.858,7.601,13.5,22.566,5.898,33.425L755.28,653.465v47.445
						c0,49.734,28.764,91.75,62.81,91.75h411.82c34.046,0,62.81-42.016,62.81-91.75v-47.445l-166.411-237.732
						c-7.602-10.859-4.961-25.824,5.898-33.425c10.856-7.602,25.822-4.961,33.424,5.898l170.75,243.93
						c2.824,4.034,4.339,8.839,4.339,13.763v55.01c0,36.075-10.733,70.255-30.223,96.244
						C1289.458,825.209,1260.839,840.66,1229.91,840.66z"/>
				</g>
				<g>
					<path style="fill:#212121;" d="M1145.97,425.97H902.03c-13.255,0-24-10.745-24-24V280c0-13.255,10.745-24,24-24h243.94
						c13.255,0,24,10.745,24,24v121.97C1169.97,415.225,1159.225,425.97,1145.97,425.97z M926.03,377.97h195.94V304H926.03V377.97z"
						/>
				</g>
			</g>
		</g>
	</g>
</g>
<g id="Layer_1">
</g>
</svg>
