<?xml version="1.0" encoding="iso-8859-1"?>
<!-- Generator: Adobe Illustrator 25.2.0, SVG Export Plug-In . SVG Version: 6.00 Build 0)  -->
<svg version="1.1" xmlns="http://www.w3.org/2000/svg" xmlns:xlink="http://www.w3.org/1999/xlink" x="0px" y="0px"
	 viewBox="0 0 2048 2048" style="enable-background:new 0 0 2048 2048;" xml:space="preserve">
<g id="_x32_627.S2_-_Batting">
	<g>
		<g id="XMLID_5_">
			<g>
				<g>
					<circle style="fill:#C9CFD1;" cx="1552.49" cy="1550.89" r="89.63"/>
				</g>
				<g>
					<path style="fill:#005ECF;" d="M1322.79,549.77c0.4,7.12-5.05,13.21-12.16,13.61l-74.7,0.85l-26.49,0.3
						c-105.13-2.89-190.96-17.98-248.69-31.63c-28.7-6.79-50.46-13.23-64.19-17.63c-1.79-0.57-3.43-1.52-4.81-2.79
						c-5.22-4.82-5.56-12.96-0.74-18.19c11.05-12.16,24.98-21.36,40.52-26.73c21.08-217.26,202.99-186,202.99-186
						c195.86,30.43,158.38,223.08,158.38,223.08c14.8,10.12,25.33,25.37,29.54,42.8C1322.63,548.21,1322.74,548.99,1322.79,549.77z"
						/>
				</g>
				<g>
					<path style="fill:#F5D3A6;" d="M1096.97,667.41l-5.04,110.74c-2.96-0.04-1.2,0.05-4.61-0.16c-2.27-0.13-4.5-0.3-6.7-0.49
						c-49.69-4.75-91.12-36.06-110.5-79.26c-7.02-15.65-11.15-32.85-11.73-50.92c-0.06-2.43-0.11-4.85-0.16-7.28L1096.97,667.41z"/>
				</g>
				<g>
					<path style="fill:#F5D3A6;" d="M1096.97,667.41l130.47-3.32c-10.8,65.98-68.18,114.66-135.51,114.06L1096.97,667.41z"/>
				</g>
				<g>
					<path style="fill:#F0C894;" d="M1209.44,564.53l26.49-0.3c-0.81,31.71-3.4,63.36-7.75,94.8c-0.01,0.08-0.02,0.17-0.03,0.25
						c-0.21,1.61-0.44,3.22-0.71,4.81l-130.47,3.32l-138.74-27.37c-0.67-35.73,0.17-71.48,2.52-107.14
						C1018.48,546.55,1104.31,561.64,1209.44,564.53z"/>
				</g>
				<g>
					<path style="fill:#9FE8FF;" d="M1030.6,1014.7c-93.7-5.56-173.23,42.77-173.23,42.77c-25.27-107.11-13.85-165,4.89-196.21
						c0.2-0.34,0.41-0.67,0.62-1.01c19.91-31.87,61.9-41.56,93.77-21.64C1026.98,882.32,1030.6,1014.7,1030.6,1014.7z"/>
				</g>
				<g>
					<path style="fill:#9FE8FF;" d="M1272.88,1768H999.66c-47.89-106.28-148.03-206.12-148.03-206.12L626.3,1767.99H357.44
						l210.79-351.76l28.68-85.13c13.06-30.48,66.4-72.93,66.4-72.93c0.16-0.01,0.32-0.02,0.48-0.03
						c118.48-8.39,239.21-8.47,357.21,5.01c35.64,34.73,69.46,92,102.18,152.67l-125.27,175.1c-12.2,17.06-4.36,37.55,13.61,48.37
						l61.6,43.5c16.21,13.32,38.14,13.86,50.14-3.35l74.49-106.87C1243.04,1678.66,1272.88,1768,1272.88,1768z"/>
				</g>
				<g>
					<path style="fill:#6ABFD3;" d="M1006.32,1258.49c4.82,1.21,9.79,2.21,14.93,2.96l-0.25,1.7c-118-13.48-238.73-13.4-357.21-5.01
						c-9.8-10.4-17.64-22.46-23.18-35.63c-10.7-26.82-4-57.45,16.93-77.35l16.69-16.03c7.14-6.85,12.77-15.11,16.52-24.26
						c16.77-40.9,67.52-165.08,110.97-276.03c42.78-109.25,134.75-127.59,168.4-130.6c19.38,43.2,60.81,74.51,110.5,79.26
						c2.2,0.19,4.43,0.36,6.7,0.49c3.41,0.21,1.65,0.12,4.61,0.16c67.33,0.6,124.71-48.08,135.51-114.06
						c0.27-1.59,0.5-3.2,0.71-4.81c0.01-0.08,0.02-0.17,0.03-0.25l118.3-18.62c24.84,25.6,29.86,77.32,29.86,114.7l-4.43,37.67
						l-0.74,6.28c-50.39,43.83-97.99,90.78-142.52,140.56c-23.92,28.82-45.98,59.14-66.04,90.77
						c-15.17,23.08-30.95,47.34-46.29,71.07c-8.54,0.12-16.68,0.09-24.32-0.1c-21.84-0.52-41.18-14.27-48.84-34.73
						c-6.22-16.75-10.43-34.19-12.56-51.93c0,0-3.62-132.38-73.95-176.09c-31.87-19.92-73.86-10.23-93.77,21.64
						c-0.21,0.34-0.42,0.67-0.62,1.01c-18.74,31.21-30.16,89.1-4.89,196.21c0,0,27.54,170.48,148.94,201.02H1006.32z"/>
				</g>
				<g>
					<path style="fill:#F0C894;" d="M1369.08,1081.85c-22.73,20.75-38.05,43.45-46.14,54.76l-55.04,76.94
						c-56.15,17.82-121.23,35.09-189.97,46.73c-20.78,3.52-39.61,3.67-56.68,1.17c-5.14-0.75-10.11-1.75-14.93-2.96h-0.01
						c-121.4-30.54-148.94-201.02-148.94-201.02s79.53-48.33,173.23-42.77c2.13,17.74,6.34,35.18,12.56,51.93
						c7.66,20.46,27,34.21,48.84,34.73c7.64,0.19,15.78,0.22,24.32,0.1C1185.93,1100.46,1299.89,1090.51,1369.08,1081.85z"/>
				</g>
				<g>
					<path style="fill:#F0C894;" d="M1579.23,748.41l-71.71,58.27l-55.97-54.72l-80.38,47.1l0.74-6.28l4.43-37.67
						c0-37.38-5.02-89.1-29.86-114.7c38.72-10.11,85.27-16.9,114.38-21.35c18.89-2.93,37.88,4.68,49.52,19.84
						C1542.89,681.45,1578.68,747.37,1579.23,748.41z"/>
				</g>
				<g>
					<path style="fill:#898890;" d="M1676.35,833.97c12.68,13.05,17.31,31.93,12.12,49.37c-5.74,18.21-16.47,35.51-33.16,44.78
						c-16.4,9.11-35.32,7.04-53.57-0.25c-22.79-9.1-44.53-26.35-58.99-40.19c-9.37-8.95-15.69-16.48-17.27-19.43
						c-10.36-18.99-16.49-39.99-17.96-61.57l71.71-58.27C1613.25,770.42,1654.32,811.06,1676.35,833.97z"/>
				</g>
				<g>
					<path style="fill:#F0C894;" d="M1267.9,1213.55l55.04-76.94c8.09-11.31,23.41-34.01,46.14-54.76h0.01
						c12.93-11.81,28.26-22.97,46.01-31.04c17.3-7.87,31.39-21.44,41.92-37.27l85.73-125.86c14.46,13.84,36.2,31.09,58.99,40.19
						l-89.3,133.14c-11.39,15.22-19.47,33.04-21.1,51.98c-4.61,53.61-36.17,90.29-48.65,108.19l-244.94,351.39l-74.49,106.87
						c-12,17.21-33.93,16.67-50.14,3.35l-61.6-43.5c-17.97-10.82-25.81-31.31-13.61-48.37l125.27-175.1L1267.9,1213.55z"/>
				</g>
			</g>
			<g>
				<g>
					<path style="fill:#212121;" d="M1272.88,1792H999.66c-9.44,0-18.003-5.534-21.881-14.141
						c-34.333-76.192-97.885-150.255-127.349-182.356l-207.932,190.196c-4.424,4.047-10.203,6.291-16.199,6.291H357.44
						c-8.644,0-16.621-4.648-20.881-12.17c-4.261-7.521-4.148-16.752,0.294-24.167l209.459-349.538l27.854-82.678
						c0.204-0.605,0.432-1.203,0.684-1.79c15.009-35.028,67.571-77.526,73.515-82.256c3.856-3.069,8.564-4.877,13.484-5.177
						l0.334-0.021c129.739-9.188,251.41-7.47,361.541,5.112c5.283,0.604,10.217,2.944,14.025,6.656
						c39.068,38.07,74.3,98.661,106.554,158.466c6.292,11.667,1.935,26.225-9.731,32.517c-11.667,6.29-26.224,1.935-32.517-9.731
						c-27.405-50.816-59.551-106.759-92.167-141.151c-102.98-11.173-216.371-12.677-337.3-4.475
						c-18.804,15.762-45.761,41.778-53.282,58.207l-28.333,84.099c-0.55,1.631-1.273,3.198-2.157,4.675L399.801,1743.99h217.178
						l218.453-199.819c9.462-8.656,24.061-8.343,33.143,0.713c4.034,4.021,95.363,95.707,146.295,199.116h224.208
						c-12.533-35.027-34.978-95.426-63.4-162.007c-5.205-12.19,0.459-26.291,12.649-31.496c12.193-5.203,26.292,0.461,31.496,12.65
						c45.149,105.763,75.519,196.347,75.82,197.249c2.445,7.32,1.221,15.369-3.29,21.631
						C1287.844,1788.289,1280.597,1792,1272.88,1792z"/>
				</g>
				<g>
					<path style="fill:#212121;" d="M1579.251,772.415c-8.604,0-16.923-4.64-21.229-12.773c-0.3-0.556-35.534-65.364-66.712-106.171
						c-6.271-8.166-16.536-12.283-26.771-10.694l-5.951,0.907c-28.294,4.305-71.051,10.811-106.044,19.948
						c-12.822,3.349-25.936-4.332-29.285-17.158c-3.349-12.825,4.333-25.936,17.158-29.285c37.42-9.771,81.669-16.504,110.95-20.959
						l5.867-0.894c27.507-4.269,55.192,6.821,72.182,28.948c33.895,44.363,70.68,112.245,71.023,112.895
						c6.204,11.713,1.736,26.238-9.977,32.441C1586.882,771.516,1583.039,772.415,1579.251,772.415z"/>
				</g>
				<g>
					<path style="fill:#212121;" d="M1116.298,1125.463c-4.464,0-8.979-1.244-13.007-3.848
						c-11.132-7.195-14.322-22.053-7.126-33.185c16.699-25.833,32.271-49.741,46.284-71.062c20.5-32.31,43.287-63.623,67.733-93.077
						c0.189-0.228,0.383-0.452,0.58-0.673c42.978-48.045,89.25-93.942,137.652-136.539l3.923-33.356
						c-0.137-38.653-5.966-69.484-16.284-87.377l-104.143,16.391c-13.101,2.062-25.378-6.884-27.439-19.977
						c-2.061-13.094,6.883-25.379,19.977-27.439l118.301-18.62c7.713-1.218,15.522,1.396,20.956,6.995
						c24.309,25.053,36.635,69.266,36.635,131.413c0,0.937-0.055,1.873-0.164,2.803l-5.171,43.957
						c-0.698,5.927-3.581,11.382-8.084,15.299c-49.325,42.904-96.454,89.372-140.086,138.121
						c-23.081,27.839-44.599,57.43-63.957,87.955c-0.069,0.11-0.141,0.22-0.212,0.329c-13.974,21.26-29.515,45.12-46.19,70.917
						C1131.884,1121.593,1124.171,1125.463,1116.298,1125.463z"/>
				</g>
				<g>
					<path style="fill:#212121;" d="M663.794,1282.14c-6.382,0-12.749-2.529-17.471-7.54
						c-11.792-12.515-21.158-26.909-27.836-42.784c-0.058-0.137-0.114-0.274-0.169-0.412
						c-14.413-36.128-5.525-76.784,22.643-103.597l16.644-15.986c4.77-4.575,8.446-9.973,10.938-16.052
						c19.212-46.856,68.467-167.508,110.83-275.68c20.469-52.272,53.459-91.711,98.055-117.221
						c36.838-21.073,72.548-26.921,90.555-28.532c13.201-1.179,24.862,8.564,26.042,21.767s-8.564,24.862-21.766,26.042
						c-32.088,2.87-110.763,19.865-148.19,115.446c-42.488,108.493-91.858,229.426-111.112,276.385
						c-5.047,12.313-12.487,23.241-22.111,32.474l-16.679,16.021c-0.029,0.027-0.059,0.056-0.088,0.084
						c-13.842,13.161-18.248,33.104-11.254,50.864c4.44,10.484,10.642,19.993,18.435,28.262c9.09,9.646,8.639,24.836-1.007,33.927
						C675.614,1279.975,669.698,1282.14,663.794,1282.14z"/>
				</g>
				<g>
					<path style="fill:#212121;" d="M1093.141,802.155c-0.477,0-0.948-0.002-1.425-0.006c-0.037,0-0.074,0-0.11-0.001
						c-0.723-0.01-1.099-0.01-1.347-0.01c-1.331,0-1.9-0.036-3.421-0.131l-0.992-0.062c-2.186-0.125-4.603-0.302-7.29-0.534
						c-0.073-0.006-0.146-0.013-0.22-0.02c-56.87-5.437-106.727-41.197-130.113-93.328c-8.501-18.953-13.151-39.13-13.82-59.974
						c-0.002-0.059-0.003-0.118-0.005-0.177c-0.061-2.464-0.112-4.917-0.163-7.381c-0.681-36.309,0.183-73.038,2.567-109.21
						c0.872-13.226,12.309-23.227,25.526-22.37c13.226,0.872,23.242,12.3,22.37,25.526c-2.295,34.828-3.127,70.192-2.473,105.112
						c0.048,2.323,0.097,4.677,0.155,7.041c0.477,14.533,3.72,28.593,9.638,41.787c16.321,36.38,51.098,61.348,90.777,65.181
						c2.18,0.187,4.11,0.328,5.901,0.431l1.753,0.108c0.355,0,0.876,0.002,1.754,0.014c0.323,0.003,0.655,0.004,0.978,0.004
						c55.229,0,101.639-39.354,110.575-93.942c0.007-0.045,0.015-0.09,0.022-0.135c0.184-1.087,0.366-2.323,0.557-3.775l0.021-0.179
						c0.016-0.128,0.032-0.256,0.05-0.384c4.214-30.455,6.748-61.45,7.531-92.123c0.333-13.042,11.01-23.388,23.98-23.388
						c0.208,0,0.416,0.002,0.624,0.008c13.251,0.338,23.718,11.354,23.38,24.604c-0.826,32.379-3.497,65.093-7.937,97.241
						l-0.014,0.12c-0.007,0.06-0.015,0.12-0.022,0.18c-0.273,2.092-0.546,3.941-0.835,5.65
						c-6.168,37.576-25.612,71.811-54.755,96.397C1167.49,788.788,1130.884,802.154,1093.141,802.155z"/>
				</g>
				<g>
					<path style="fill:#212121;" d="M1106.416,1125.531c-5.209,0-10.229-0.06-15.011-0.179
						c-31.795-0.757-59.563-20.505-70.722-50.308c-6.881-18.532-11.555-37.852-13.913-57.482c-1.58-13.16,7.807-25.11,20.967-26.691
						c13.146-1.577,25.109,7.805,26.691,20.966c1.907,15.882,5.686,31.506,11.23,46.438c4.226,11.285,14.798,18.803,26.913,19.092
						c7.255,0.18,15.125,0.212,23.41,0.095c67.104-0.964,179.868-10.634,250.117-19.426c13.151-1.648,25.148,7.681,26.795,20.833
						c1.646,13.152-7.682,25.149-20.834,26.794c-71.539,8.954-186.629,18.806-255.396,19.793
						C1113.181,1125.507,1109.76,1125.531,1106.416,1125.531z"/>
				</g>
				<g>
					<path style="fill:#212121;" d="M1045.06,1287.14c-9.329,0-18.44-0.647-27.287-1.942c-5.642-0.823-11.343-1.947-16.941-3.341
						c-0.126-0.029-0.251-0.06-0.377-0.092c-56.813-14.292-103.779-57.495-135.817-124.938
						c-23.261-48.967-30.656-93.65-30.959-95.528c-2.114-13.085,6.78-25.407,19.865-27.521c13.092-2.112,25.406,6.781,27.521,19.865
						c0.25,1.518,26.615,155,130.796,181.495c0.102,0.024,0.203,0.05,0.305,0.075c4.15,1.042,8.373,1.879,12.552,2.489
						c15.233,2.229,31.787,1.866,49.206-1.085c59.627-10.098,122.376-25.532,186.515-45.878c0.391-0.131,0.781-0.254,1.173-0.374
						c12.669-3.909,26.1,3.197,30.005,15.864s-3.198,26.101-15.864,30.005l-0.149,0.047c-0.146,0.05-0.293,0.098-0.44,0.145
						c-66.33,21.051-131.34,37.038-193.224,47.518C1069.361,1286.073,1057.031,1287.14,1045.06,1287.14z"/>
				</g>
				<g>
					<path style="fill:#212121;" d="M857.369,1081.47c-3.141,0-6.291-0.616-9.268-1.862c-7.087-2.967-12.325-9.148-14.09-16.627
						c-22.611-95.84-20.046-167.836,7.625-213.997c0.228-0.383,0.46-0.761,0.696-1.14l0.129-0.208
						c0.021-0.034,0.042-0.068,0.063-0.102c13.027-20.852,33.397-35.381,57.358-40.911c23.96-5.53,48.637-1.397,69.487,11.635
						c34.584,21.493,59.466,61.52,73.904,118.935c10.222,40.65,11.276,75.392,11.316,76.851c0.184,6.724-2.462,13.216-7.294,17.895
						s-11.409,7.116-18.119,6.719c-85.231-5.061-158.612,38.878-159.344,39.322C866.025,1080.294,861.707,1081.47,857.369,1081.47z
						 M883.245,872.95l-0.329,0.53c-0.034,0.058-0.045,0.077-0.08,0.134c-13.002,21.653-24.1,64.619-8.466,148.369
						c28.738-12.825,75.914-29.501,130.161-31.526c-5.264-41.763-21.38-107.12-60.55-131.463c-10.03-6.269-21.839-8.245-33.305-5.6
						C899.218,856.038,889.477,862.983,883.245,872.95z"/>
				</g>
				<g>
					<path style="fill:#212121;" d="M1631.06,958.132c-11.001,0-23.745-2.191-38.223-7.975
						c-29.142-11.636-54.287-33.276-66.682-45.139c-5.015-4.79-17.166-16.839-21.759-25.303
						c-10.586-19.412-17.272-40.231-19.93-62.009l-36.593-35.776l-64.57,37.836c-11.437,6.701-26.139,2.863-32.841-8.573
						c-6.701-11.437-2.862-26.14,8.573-32.841l80.38-47.1c9.335-5.469,21.175-4.018,28.912,3.546l40.666,39.759l55.102-44.773
						c8.07-6.557,19.442-7.171,28.172-1.524c36.199,23.42,79.02,65.821,101.346,89.038c18.67,19.251,25.513,47.173,17.859,72.888
						c-0.037,0.123-0.074,0.246-0.113,0.368c-8.349,26.49-24.116,47.283-44.396,58.547
						C1658.421,953.846,1646.444,958.132,1631.06,958.132z M1546.312,856.319c0.987,1.366,5.106,6.451,13.016,14.006
						c7.972,7.63,28.894,26.304,51.313,35.256c13.827,5.522,24.932,6.047,33.015,1.558c12.715-7.062,19.137-22.248,21.861-30.814
						c2.63-9.06,0.194-18.865-6.379-25.63c-0.029-0.03-0.059-0.061-0.088-0.091c-17.907-18.624-49.759-50.359-78.75-72.139
						l-47.45,38.556C1535.106,830.76,1539.614,843.93,1546.312,856.319z"/>
				</g>
				<g>
					<path style="fill:#212121;" d="M1552.49,1664.52c-62.655,0-113.63-50.975-113.63-113.63s50.975-113.63,113.63-113.63
						s113.63,50.975,113.63,113.63S1615.146,1664.52,1552.49,1664.52z M1552.49,1485.26c-36.188,0-65.63,29.441-65.63,65.63
						s29.441,65.63,65.63,65.63s65.63-29.441,65.63-65.63S1588.679,1485.26,1552.49,1485.26z"/>
				</g>
				<g>
					<path style="fill:#212121;" d="M1209.439,588.53c-0.22,0-0.439-0.003-0.658-0.009c-109.51-3.01-198.328-19.207-253.554-32.265
						c-29.729-7.034-52.295-13.742-65.992-18.131c-5.047-1.606-9.813-4.373-13.739-7.986c-14.931-13.786-15.899-37.095-2.207-52.036
						c10.208-11.222,22.467-20.454,36.001-27.185c9.386-70.095,36.333-122.548,80.21-156.039
						c64.991-49.604,142.89-37.991,148.829-37.015c64.724,10.083,113.31,37.644,144.402,81.917
						c40.067,57.053,38.712,125.263,35.743,154.767c13.391,12.719,22.899,29.067,27.293,47.257c0.505,2.077,0.832,4.241,0.972,6.435
						c0.004,0.061,0.008,0.122,0.011,0.182c1.143,20.318-14.457,37.777-34.774,38.919c-0.357,0.021-0.716,0.032-1.074,0.037
						l-74.7,0.85c-0.001,0-0.001,0-0.002,0l-26.489,0.3C1209.621,588.529,1209.53,588.53,1209.439,588.53z M1235.93,564.23h0.01
						H1235.93z M1299.128,553.142c0,0.001,0,0.003,0.001,0.005C1299.128,553.145,1299.128,553.143,1299.128,553.142z
						 M923.071,498.244c11.667,3.371,26.171,7.271,43.204,11.301c52.956,12.521,138.138,28.05,243.361,30.981l83.959-0.954
						c-3.564-5.958-8.399-11.125-14.242-15.121c-7.905-5.406-11.841-14.994-10.012-24.395c0.132-0.696,13.853-76.424-26.096-132.982
						c-23.341-33.044-61.161-53.837-112.411-61.799c-0.127-0.02-0.254-0.041-0.38-0.062c-0.534-0.087-62.979-9.774-112.237,28.134
						c-35.534,27.348-56.664,73.283-62.8,136.531c-0.906,9.343-7.177,17.3-16.049,20.366
						C933.624,492.229,928.146,494.925,923.071,498.244z M903.84,492.401c0.013,0.004,0.026,0.008,0.039,0.012
						C903.866,492.409,903.853,492.405,903.84,492.401z"/>
				</g>
				<g>
					<path style="fill:#212121;" d="M1091.948,802.15c-0.368,0-0.738-0.008-1.109-0.025c-13.241-0.603-23.487-11.825-22.885-25.066
						l4.102-90.101l-118.339-23.345c-13.041-2.371-21.69-14.865-19.319-27.906c2.371-13.041,14.858-21.691,27.906-19.319l0.22,0.04
						c0.117,0.021,0.234,0.043,0.352,0.066l138.74,27.37c11.651,2.299,19.869,12.773,19.33,24.638l-5.04,110.74
						C1115.319,792.11,1104.701,802.15,1091.948,802.15z"/>
				</g>
				<g>
					<path style="fill:#212121;" d="M1096.958,691.41c-12.972,0-23.648-10.347-23.98-23.39
						c-0.337-13.25,10.131-24.265,23.382-24.603l130.471-3.32c13.27-0.356,24.266,10.13,24.603,23.382
						c0.337,13.25-10.131,24.265-23.382,24.603l-130.471,3.32C1097.372,691.408,1097.165,691.41,1096.958,691.41z"/>
				</g>
				<g>
					<path style="fill:#212121;" d="M1098.582,1716.583c-13.89,0-28.07-5.146-39.95-14.643l-60.315-42.593
						c-15.258-9.47-25.872-23.994-29.18-39.986c-3.049-14.736,0.237-29.795,9.252-42.401l125.272-175.104l144.722-202.271
						l55.039-76.938c0.688-0.962,1.431-2.01,2.227-3.134c9.202-12.982,24.603-34.712,47.252-55.388
						c0.146-0.133,0.293-0.264,0.441-0.393c16.372-14.88,33.807-26.577,51.826-34.77c11.978-5.449,22.999-15.378,31.869-28.713
						c0.049-0.074,0.098-0.147,0.147-0.22l85.73-125.86c7.464-10.956,22.395-13.785,33.347-6.324
						c10.955,7.462,13.787,22.392,6.325,33.347l-85.663,125.761c-13.831,20.75-31.771,36.553-51.886,45.704
						c-13.603,6.185-26.979,15.239-39.762,26.915c-0.132,0.121-0.266,0.24-0.4,0.357c-18.635,17.102-32.036,36.012-40.065,47.341
						c-0.84,1.185-1.622,2.289-2.349,3.304l-55.041,76.941l-144.722,202.271l-125.269,175.099c-1.553,2.171-1.523,3.621-1.289,4.753
						c0.505,2.441,2.809,6.112,7.759,9.093c0.5,0.301,0.988,0.62,1.464,0.956l61.601,43.5c0.478,0.337,0.942,0.691,1.394,1.062
						c4.467,3.671,8.698,4.615,11.166,4.275c1.144-0.157,2.52-0.615,4.05-2.81l74.487-106.866l244.941-351.392
						c1.648-2.364,3.53-4.933,5.522-7.652c13.247-18.082,35.42-48.347,38.903-88.868c1.882-21.864,10.664-43.905,25.411-63.786
						l88.97-132.647c7.384-11.009,22.294-13.945,33.301-6.563c11.008,7.383,13.946,22.292,6.562,33.3l-89.3,133.14
						c-0.23,0.343-0.469,0.681-0.717,1.011c-9.603,12.832-15.275,26.545-16.404,39.658c-4.636,53.924-32.849,92.434-48.006,113.123
						c-1.9,2.594-3.542,4.833-4.867,6.734l-244.939,351.39l-74.489,106.869c-8.868,12.719-21.961,20.853-36.869,22.908
						C1103.601,1716.415,1101.096,1716.583,1098.582,1716.583z"/>
				</g>
			</g>
		</g>
	</g>
</g>
<g id="Layer_1">
</g>
</svg>
