<?xml version="1.0" encoding="iso-8859-1"?>
<!-- Generator: Adobe Illustrator 25.2.0, SVG Export Plug-In . SVG Version: 6.00 Build 0)  -->
<svg version="1.1" xmlns="http://www.w3.org/2000/svg" xmlns:xlink="http://www.w3.org/1999/xlink" x="0px" y="0px"
	 viewBox="0 0 2048 2048" style="enable-background:new 0 0 2048 2048;" xml:space="preserve">
<g id="_x32_629.S2_-_Glasses">
	<g>
		<g id="XMLID_7_">
			<g>
				<g>
					<path style="fill:#005ECF;" d="M1768,280v822.62c0,367.48-297.9,665.38-665.38,665.38H1024v-77.6c0-7.43-0.84-14.66-2.44-21.6
						h79.94c313.31,0,567.3-253.99,567.3-567.3V924.8V751.2V280H1768z"/>
				</g>
				<g>
					<rect x="1569.6" y="751.2" style="fill:#6ABFD3;" width="99.2" height="173.6"/>
				</g>
				<g>
					<path style="fill:#E1E6E9;" d="M1569.6,924.8v37.39c0,143.71-116.5,260.21-260.21,260.21h-4.32h-51.44
						c-44.69,0-86.38-15.52-119.33-41.95c-32.94-26.43-57.14-63.76-66.83-107.39c-7.43-33.44-25.97-62.04-51.22-82.3
						c-25.25-20.25-57.2-32.14-91.45-32.14s-66.2,11.89-91.45,32.14c-25.25,20.26-43.79,48.86-51.22,82.3
						c-19.39,87.26-96.78,149.34-186.16,149.34h-51.44h-4.32C396.5,1222.4,280,1105.9,280,962.19V744.52
						c0-17.3,2.63-33.99,7.51-49.68h0.01h1274.56h0.01c4.88,15.69,7.51,32.38,7.51,49.68v6.68V924.8z"/>
				</g>
				<g>
					<path style="fill:#6ABFD3;" d="M1562.09,694.84h-0.01H287.52h-0.01c8.34-26.78,23.24-50.67,42.82-69.78
						c30.09-29.37,71.22-47.46,116.59-47.46H924.8h477.88c45.37,0,86.5,18.09,116.59,47.46
						C1538.85,644.17,1553.75,668.06,1562.09,694.84z"/>
				</g>
				<g>
					<path style="fill:#005ECF;" d="M1440.8,519.48c35.61,25.66,63.47,62.09,78.47,105.58c-30.09-29.37-71.22-47.46-116.59-47.46
						H924.8H446.92c-45.37,0-86.5,18.09-116.59,47.46c30.24-87.69,112.8-146.66,205.72-146.66h777.5
						C1360.39,478.4,1404.6,493.38,1440.8,519.48z"/>
				</g>
				<g>
					<path style="fill:#6ABFD3;" d="M1305.07,1222.4l-132.27,272.8h-496l-132.27-272.8h51.44c89.38,0,166.77-62.08,186.16-149.34
						c7.43-33.44,25.97-62.04,51.22-82.3c25.25-20.25,57.2-32.14,91.45-32.14s66.2,11.89,91.45,32.14
						c25.25,20.26,43.79,48.86,51.22,82.3c9.69,43.63,33.89,80.96,66.83,107.39c32.95,26.43,74.64,41.95,119.33,41.95H1305.07z
						 M1024,1346.4l-74.4-171.99H900l-74.4,171.99H1024z"/>
				</g>
				<g>
					<path style="fill:#6ABFD3;" d="M828.04,1668.8c9.8-42.62,47.97-74.4,93.56-74.4h6.4c45.59,0,83.76,31.78,93.56,74.4
						c1.6,6.94,2.44,14.17,2.44,21.6v77.6H825.6v-77.6C825.6,1682.97,826.44,1675.74,828.04,1668.8z"/>
				</g>
				<g>
					<polygon style="fill:#C9CFD1;" points="949.6,1174.41 1024,1346.4 825.6,1346.4 900,1174.41 					"/>
				</g>
				<g>
					<path style="fill:#005ECF;" d="M701.6,1668.8h126.44c-1.6,6.94-2.44,14.17-2.44,21.6v77.6h-124V1668.8z"/>
				</g>
			</g>
			<g>
				<g>
					<path style="fill:#212121;" d="M1309.39,1246.4h-55.76c-48.665,0-96.377-16.772-134.347-47.229
						c-37.972-30.469-64.692-73.407-75.242-120.908c-6.004-27.022-21.208-51.451-42.811-68.785
						c-21.595-17.319-48.74-26.859-76.431-26.859c-27.69,0-54.835,9.54-76.435,26.862c-21.598,17.33-36.802,41.759-42.807,68.784
						c-10.558,47.513-37.28,90.453-75.245,120.908c-37.963,30.454-85.675,47.227-134.344,47.227h-55.76
						c-75.915,0-147.287-29.563-200.967-83.243C285.563,1109.477,256,1038.105,256,962.19V744.52
						c0-19.363,2.891-38.476,8.593-56.808c9.376-30.107,26.311-57.708,48.974-79.828C349.431,572.879,396.79,553.6,446.92,553.6
						h955.76c50.13,0,97.489,19.279,133.354,54.285c22.664,22.119,39.598,49.72,48.971,79.818
						c5.705,18.34,8.596,37.454,8.596,56.816v6.68c0,13.255-10.745,24-24,24s-24-10.745-24-24v-6.68
						c0-14.524-2.162-28.841-6.427-42.552c-7.008-22.504-19.688-43.162-36.666-59.732c-26.847-26.205-62.299-40.636-99.827-40.636
						H446.92c-37.528,0-72.98,14.431-99.826,40.635c-16.979,16.571-29.658,37.229-36.669,59.741
						c-4.262,13.703-6.424,28.02-6.424,42.544v217.67c0,130.247,105.963,236.21,236.21,236.21h55.76
						c78.734,0,145.651-53.683,162.731-130.546c8.365-37.644,29.541-71.671,59.629-95.813c30.091-24.132,67.901-37.42,106.47-37.42
						s76.379,13.288,106.466,37.417c30.093,24.146,51.269,58.173,59.633,95.817c8.191,36.882,28.939,70.22,58.421,93.877
						c29.479,23.646,66.525,36.669,104.311,36.669h55.76c130.247,0,236.21-105.964,236.21-236.21V924.8c0-13.255,10.745-24,24-24
						s24,10.745,24,24v37.39c0,75.916-29.563,147.287-83.243,200.967C1456.677,1216.837,1385.305,1246.4,1309.39,1246.4z"/>
				</g>
				<g>
					<path style="fill:#212121;" d="M1562.08,718.84H287.52c-13.255,0-24-10.745-24-24s10.745-24,24-24h1274.56
						c13.255,0,24,10.745,24,24S1575.335,718.84,1562.08,718.84z"/>
				</g>
				<g>
					<path style="fill:#212121;" d="M1101.5,1692.8h-80.62c-13.255,0-24-10.745-24-24s10.745-24,24-24h80.62
						c299.576,0,543.3-243.724,543.3-543.3V924.8c0-13.255,10.745-24,24-24s24,10.745,24,24v176.7
						c0,79.813-15.637,157.254-46.478,230.167c-29.783,70.415-72.414,133.648-126.711,187.944
						c-54.296,54.297-117.529,96.928-187.944,126.711C1258.754,1677.162,1181.314,1692.8,1101.5,1692.8z"/>
				</g>
				<g>
					<path style="fill:#212121;" d="M1102.62,1792H1024c-13.255,0-24-10.745-24-24s10.745-24,24-24h78.62
						c353.658,0,641.38-287.722,641.38-641.38V304h-51.2v447.2c0,13.255-10.745,24-24,24s-24-10.745-24-24V280
						c0-13.255,10.745-24,24-24h99.2c13.255,0,24,10.745,24,24v822.62c0,93.055-18.23,183.34-54.185,268.346
						c-34.723,82.093-84.427,155.815-147.729,219.12c-63.305,63.303-137.027,113.007-219.12,147.729
						C1285.96,1773.77,1195.675,1792,1102.62,1792z"/>
				</g>
				<g>
					<path style="fill:#212121;" d="M1024,1792H825.6c-13.255,0-24-10.745-24-24v-77.6c0-9.122,1.027-18.204,3.053-26.992
						c5.983-26.021,20.788-49.634,41.684-66.477c21.226-17.108,47.955-26.531,75.263-26.531h6.4
						c27.308,0,54.036,9.423,75.263,26.531c20.896,16.843,35.7,40.456,41.687,66.49c2.023,8.772,3.051,17.854,3.051,26.979v77.6
						C1048,1781.255,1037.255,1792,1024,1792z M849.6,1744H1000v-53.6c0-5.499-0.614-10.952-1.826-16.207
						c-7.555-32.856-36.41-55.793-70.174-55.793h-6.4c-33.764,0-62.619,22.937-70.17,55.777c-1.215,5.271-1.83,10.724-1.83,16.223
						V1744z"/>
				</g>
				<g>
					<path style="fill:#212121;" d="M825.6,1792h-124c-13.255,0-24-10.745-24-24v-99.2c0-13.255,10.745-24,24-24h127.12
						c13.255,0,24,10.745,24,24s-10.745,24-24,24H725.6v51.2h100c13.255,0,24,10.745,24,24S838.855,1792,825.6,1792z"/>
				</g>
				<g>
					<path style="fill:#212121;" d="M1668.8,948.8h-99.2c-13.255,0-24-10.745-24-24V751.2c0-13.255,10.745-24,24-24h99.2
						c13.255,0,24,10.745,24,24v173.6C1692.8,938.055,1682.055,948.8,1668.8,948.8z M1593.6,900.8h51.2V775.2h-51.2V900.8z"/>
				</g>
				<g>
					<path style="fill:#212121;" d="M330.332,649.066c-2.596,0-5.234-0.424-7.826-1.317c-12.531-4.321-19.186-17.982-14.865-30.513
						C341.229,519.839,433.019,454.4,536.05,454.4h777.5c51.043,0,99.898,15.772,141.286,45.612
						c40.646,29.289,70.774,69.825,87.122,117.223c4.322,12.53-2.333,26.192-14.863,30.514
						c-12.532,4.322-26.192-2.333-30.514-14.863c-13.1-37.982-37.24-70.463-69.812-93.934
						c-33.167-23.914-72.315-36.552-113.219-36.552h-777.5c-82.562,0-156.117,52.438-183.031,130.484
						C349.591,642.824,340.287,649.066,330.332,649.066z"/>
				</g>
				<g>
					<path style="fill:#212121;" d="M1172.8,1519.2h-496c-9.196,0-17.583-5.255-21.595-13.529l-132.27-272.8
						c-5.783-11.927-0.802-26.283,11.125-32.066c11.927-5.78,26.283-0.802,32.066,11.125l125.71,259.271h465.929l125.71-259.271
						c5.782-11.927,20.14-16.908,32.066-11.125s16.907,20.14,11.125,32.066l-132.271,272.8
						C1190.383,1513.945,1181.996,1519.2,1172.8,1519.2z"/>
				</g>
				<g>
					<path style="fill:#212121;" d="M1024,1370.4H825.6c-8.082,0-15.621-4.067-20.059-10.822s-5.177-15.289-1.969-22.706
						l74.4-171.99c3.8-8.785,12.456-14.472,22.027-14.472h49.6c9.571,0,18.228,5.687,22.027,14.472l74.4,171.99
						c3.209,7.417,2.469,15.951-1.969,22.706S1032.082,1370.4,1024,1370.4z M862.131,1322.4h125.337l-53.636-123.99h-18.066
						L862.131,1322.4z"/>
				</g>
			</g>
		</g>
	</g>
</g>
<g id="Layer_1">
</g>
</svg>
