<?xml version="1.0" encoding="iso-8859-1"?>
<!-- Generator: Adobe Illustrator 25.2.0, SVG Export Plug-In . SVG Version: 6.00 Build 0)  -->
<svg version="1.1" xmlns="http://www.w3.org/2000/svg" xmlns:xlink="http://www.w3.org/1999/xlink" x="0px" y="0px"
	 viewBox="0 0 2048 2048" style="enable-background:new 0 0 2048 2048;" xml:space="preserve">
<g id="_x32_630.S2_-_Billiard_Ball">
	<g>
		<g id="XMLID_8_">
			<g>
				<g>
					<path style="fill:#C9CFD1;" d="M410.9,1445.6h1226.2C1502.93,1640.34,1278.37,1768,1024,1768S545.07,1640.34,410.9,1445.6z"/>
				</g>
				<g>
					<path style="fill:#C9CFD1;" d="M1637.1,602.4H410.9C545.07,407.66,769.63,280,1024,280S1502.93,407.66,1637.1,602.4z"/>
				</g>
				<g>
					<ellipse style="fill:#6ABFD3;" cx="1110.8" cy="1024" rx="111.6" ry="198.4"/>
				</g>
				<g>
					<path style="fill:#6ABFD3;" d="M1024,676.8c191.75,0,347.2,155.45,347.2,347.2s-155.45,347.2-347.2,347.2
						S676.8,1215.75,676.8,1024S832.25,676.8,1024,676.8z M1222.4,1024c0-109.57-49.97-198.4-111.6-198.4S999.2,914.43,999.2,1024
						s49.97,198.4,111.6,198.4S1222.4,1133.57,1222.4,1024z"/>
				</g>
				<g>
					<path style="fill:#005ECF;" d="M1637.1,602.4C1719.66,722.23,1768,867.47,1768,1024s-48.34,301.77-130.9,421.6H410.9
						C328.34,1325.77,280,1180.53,280,1024s48.34-301.77,130.9-421.6H1637.1z M1371.2,1024c0-191.75-155.45-347.2-347.2-347.2
						S676.8,832.25,676.8,1024s155.45,347.2,347.2,347.2S1371.2,1215.75,1371.2,1024z"/>
				</g>
			</g>
			<g>
				<g>
					<path style="fill:#212121;" d="M1110.8,1246.4c-38.858,0-74.312-24.982-99.829-70.345
						C987.904,1135.048,975.2,1081.047,975.2,1024c0-57.046,12.704-111.047,35.771-152.055
						c25.518-45.362,60.971-70.345,99.829-70.345s74.312,24.982,99.829,70.345c23.067,41.008,35.771,95.009,35.771,152.055
						c0,57.047-12.704,111.048-35.771,152.056C1185.112,1221.418,1149.658,1246.4,1110.8,1246.4z M1110.8,849.6
						c-20.455,0-41.593,16.722-57.993,45.877c-19.092,33.941-29.606,79.584-29.606,128.522c0,48.938,10.515,94.582,29.606,128.522
						c16.4,29.156,37.538,45.878,57.993,45.878s41.593-16.722,57.994-45.878c19.092-33.94,29.606-79.584,29.606-128.522
						s-10.515-94.582-29.606-128.522C1152.393,866.322,1131.255,849.6,1110.8,849.6z"/>
				</g>
				<g>
					<path style="fill:#212121;" d="M900,1246.4c-13.255,0-24-10.745-24-24V883.541l-33.429,33.43
						c-9.373,9.372-24.568,9.372-33.941,0c-9.373-9.373-9.373-24.569,0-33.941l74.4-74.4c6.864-6.863,17.188-8.917,26.155-5.203
						C918.152,807.142,924,815.893,924,825.6v396.8C924,1235.655,913.255,1246.4,900,1246.4z"/>
				</g>
				<g>
					<path style="fill:#212121;" d="M1024,1792c-64.374,0-128.355-7.984-190.167-23.732
						c-60.019-15.291-118.163-37.934-172.817-67.299c-107.318-57.66-200.641-141.257-269.879-241.753
						C302.729,1330.899,256,1180.404,256,1024s46.729-306.9,135.136-435.217c69.239-100.496,162.562-184.092,269.879-241.752
						c54.655-29.365,112.799-52.007,172.817-67.298C895.645,263.985,959.626,256,1024,256c64.374,0,128.354,7.985,190.167,23.732
						c60.019,15.291,118.162,37.934,172.817,67.298c107.317,57.66,200.64,141.257,269.879,241.753
						C1745.271,717.1,1792,867.595,1792,1024c0,156.404-46.729,306.899-135.137,435.216
						c-69.239,100.496-162.562,184.093-269.879,241.753c-54.655,29.365-112.799,52.008-172.817,67.299
						C1152.354,1784.016,1088.374,1792,1024,1792z M1024,304c-236.921,0-458.729,116.642-593.336,312.017
						C347.799,736.288,304,877.366,304,1024c0,146.634,43.799,287.712,126.664,407.983C565.271,1627.358,787.079,1744,1024,1744
						c236.921,0,458.729-116.642,593.336-312.017C1700.2,1311.712,1744,1170.634,1744,1024c0-146.635-43.8-287.713-126.664-407.983
						C1482.729,420.642,1260.921,304,1024,304z"/>
				</g>
				<g>
					<path style="fill:#212121;" d="M1637.1,1469.6H410.9c-13.255,0-24-10.745-24-24s10.745-24,24-24h1226.2
						c13.255,0,24,10.745,24,24S1650.354,1469.6,1637.1,1469.6z"/>
				</g>
				<g>
					<path style="fill:#212121;" d="M1637.1,626.4H410.9c-13.255,0-24-10.745-24-24s10.745-24,24-24h1226.2
						c13.255,0,24,10.745,24,24S1650.354,626.4,1637.1,626.4z"/>
				</g>
				<g>
					<path style="fill:#212121;" d="M1024,1395.2c-50.1,0-98.715-9.818-144.494-29.182c-44.205-18.697-83.9-45.459-117.983-79.542
						c-34.083-34.083-60.845-73.777-79.542-117.982C662.618,1122.715,652.8,1074.1,652.8,1024s9.818-98.715,29.181-144.494
						c18.697-44.205,45.459-83.9,79.542-117.983c34.083-34.083,73.778-60.845,117.983-79.542
						C925.285,662.618,973.9,652.8,1024,652.8c50.101,0,98.715,9.818,144.494,29.181c44.205,18.697,83.899,45.459,117.982,79.542
						c34.083,34.083,60.845,73.778,79.542,117.983C1385.382,925.285,1395.2,973.9,1395.2,1024s-9.818,98.715-29.182,144.494
						c-18.697,44.205-45.459,83.899-79.542,117.982s-73.777,60.845-117.982,79.542C1122.715,1385.382,1074.101,1395.2,1024,1395.2z
						 M1024,700.8c-178.213,0-323.2,144.987-323.2,323.2c0,178.213,144.987,323.2,323.2,323.2c178.213,0,323.2-144.987,323.2-323.2
						C1347.2,845.787,1202.213,700.8,1024,700.8z"/>
				</g>
			</g>
		</g>
	</g>
</g>
<g id="Layer_1">
</g>
</svg>
