<?xml version="1.0" encoding="iso-8859-1"?>
<!-- Generator: Adobe Illustrator 25.2.0, SVG Export Plug-In . SVG Version: 6.00 Build 0)  -->
<svg version="1.1" id="Layer_1" xmlns="http://www.w3.org/2000/svg" xmlns:xlink="http://www.w3.org/1999/xlink" x="0px" y="0px"
	 viewBox="0 0 2048 2048" style="enable-background:new 0 0 2048 2048;" xml:space="preserve">
<g>
	<g>
		<path style="fill:#57565C;" d="M1649.201,924.268c-135.715-283.449-478.14,90.4-613.855-193.049
			c39.6-125.919,81.583-259.419,121.183-385.338c135.715,283.449,475.756-82.819,611.471,200.63
			C1728.4,672.43,1688.801,798.349,1649.201,924.268z"/>
	</g>
	<g>
		<path style="fill:#57565C;" d="M898.436,836.574c-2.537,0.732-5.105,1.402-7.683,2.011
			c-56.295,13.499-120.655,1.33-185.025-10.838c-119.531-22.594-239.073-45.199-306.929,96.524
			c-11.674-37.114-23.347-74.239-35.021-111.354c-14.85-47.221-29.7-94.441-44.55-141.662
			c-13.076-41.58-26.152-83.17-39.228-124.749c104.393-218.036,329.678-51.634,489.881-92.224v-0.01
			c48.056-12.169,90.265-42.982,121.583-108.394l39.228,124.749l41.415,131.69L898.436,836.574z"/>
	</g>
	<g>
		<path style="fill:#E1E6E9;" d="M1107.96,626.783c-3.25-5.21-6.4-10.75-9.41-16.55c-0.01,0,0-0.01,0-0.01l0.23-0.73
			c0,0,0-0.01,0-0.02c0.01-0.02,0.02-0.05,0.03-0.09c0,0,0.01-0.01,0.01-0.02c0.94-2.98,1.87-5.95,2.8-8.93l0.96-3.04
			c6.68-21.23,13.38-42.52,20.07-63.8c0.51-1.62,1.02-3.24,1.53-4.86c23.15,30.93,51.19,52.72,84.66,65.83l-30.11,95.73
			c-28.58-11.95-51.34-32.42-70.55-63.13C1108.11,627.033,1108.04,626.913,1107.96,626.783z"/>
	</g>
	<g>
		<path style="fill:#FFDC4A;" d="M1134.82,331.003c0,2.59-0.4,5.16-1.2,7.68l-39.14,124.52c-0.03,0.08-0.06,0.16-0.08,0.24
			c-0.01,0.03-0.03,0.07-0.03,0.11c-0.01,0.01-0.02,0.02-0.02,0.04l-0.53,1.71l-1.14,3.63c-0.18,0.55-0.36,1.11-0.54,1.68
			c-0.06,0.18-0.12,0.37-0.17,0.55l-22.7,72.18l-12.47,39.65l-0.48,1.52l-3.22,10.24c-0.05,0.12-0.09,0.24-0.12,0.36
			c-0.03,0.08-0.06,0.16-0.07,0.24c-0.01,0.01-0.01,0.01-0.01,0.02l-3,9.55l-48.66,154.75c-0.05,0.13-0.09,0.27-0.13,0.41
			c-0.03,0.09-0.06,0.17-0.08,0.26c-0.07,0.21-0.13,0.42-0.18,0.64c-0.04,0.1-0.07,0.21-0.09,0.31l-90.08,312.97h-53.34
			l62.83-207.25l70.68-233.12l7.67-24.38c0.38-1.21,0.66-2.44,0.84-3.68l48.72-160.7l36.94-121.85c2.05-6.45,6.49-11.73,12.5-14.86
			c6.04-3.15,12.94-3.76,19.43-1.72C1127.64,310.073,1134.82,319.833,1134.82,331.003z"/>
	</g>
	<g>
		<path style="fill:#E1E6E9;" d="M1742.2,548.543l-20.32,64.6c-23.76-31.74-52.67-53.85-87.31-66.84l24.79-78.84
			C1694.14,481.253,1720.92,507.533,1742.2,548.543z"/>
	</g>
	<path style="fill:#FF4B58;" d="M1694.5,1221.263v422.25H356.51v-422.25H1694.5z M1581.63,1568.513v-148.5v-123.75
		c0-13.25-10.75-24-24-24s-24,10.75-24,24v99.75h-125.25v-99.75c0-13.25-10.75-24-24-24s-24,10.75-24,24v123.75v148.5
		c0,13.25,10.75,24,24,24s24-10.75,24-24v-124.5h125.25v124.5c0,13.25,10.75,24,24,24S1581.63,1581.763,1581.63,1568.513z
		 M1309.38,1568.513v-136.13c0-13.25-10.75-24-24-24h-99.75v-88.12h99.75c13.25,0,24-10.75,24-24s-10.75-24-24-24h-123.75
		c-13.25,0-24,10.75-24,24v136.12c0,13.25,10.75,24,24,24h99.75v88.13h-99.75c-13.25,0-24,10.75-24,24s10.75,24,24,24h123.75
		C1298.63,1592.513,1309.38,1581.763,1309.38,1568.513z M1086.63,1568.513v-272.25c0-13.25-10.75-24-24-24s-24,10.75-24,24v272.25
		c0,13.25,10.75,24,24,24S1086.63,1581.763,1086.63,1568.513z M987.63,1568.513v-272.25c0-13.25-10.75-24-24-24s-24,10.75-24,24
		v189.83l-129-202.71c-5.73-9.01-16.72-13.14-26.96-10.16c-10.25,2.98-17.29,12.37-17.29,23.04v272.25c0,13.25,10.75,24,24,24
		s24-10.75,24-24v-189.83l129,202.71c4.49,7.06,12.2,11.12,20.25,11.12c2.23,0,4.49-0.31,6.71-0.96
		C980.58,1588.573,987.63,1579.183,987.63,1568.513z M715.38,1568.513v-272.25c0-13.25-10.75-24-24-24s-24,10.75-24,24v272.25
		c0,13.25,10.75,24,24,24S715.38,1581.763,715.38,1568.513z M616.38,1296.263c0-13.25-10.75-24-24-24h-99c-13.25,0-24,10.75-24,24
		v123.75v148.5c0,13.25,10.75,24,24,24s24-10.75,24-24v-124.5h75c13.25,0,24-10.75,24-24s-10.75-24-24-24h-75v-75.75h75
		C605.63,1320.263,616.38,1309.513,616.38,1296.263z"/>
	<g>
		<path style="fill:#E1E6E9;" d="M1658.42,814.943l-16.13,51.28c-23.79-31.62-52.78-53.5-87.54-66.12l20.84-66.25
			C1610.37,747.653,1637.13,773.933,1658.42,814.943z"/>
	</g>
	<g>
		<path style="fill:#E1E6E9;" d="M1573.25,581.313l-29.9,95.08c-41.85-5.74-86.15-0.99-130.22,6.01l28.4-90.31
			C1488.33,584.043,1532.93,577.293,1573.25,581.313z"/>
	</g>
	<g>
		<path style="fill:#E1E6E9;" d="M1427.61,476.393l-23.08,73.39c-47.9,8.24-93.53,15.12-134.59,10.48l24.61-78.27
			C1337.24,488.353,1382.54,483.543,1427.61,476.393z"/>
	</g>
	<g>
		<path style="fill:#E1E6E9;" d="M1343.83,742.793l-20.14,64.04c-48.15,9.01-94.03,16.64-135.27,12.64l22.35-71.08
			C1253.46,754.753,1298.76,749.943,1343.83,742.793z"/>
	</g>
	<g>
		<path style="fill:#FFDC4A;" d="M1129.93,855.443l61.42,218.82h-54.04l-75.48-262.32
			C1081.51,831.683,1104.13,846.103,1129.93,855.443z"/>
	</g>
	<g>
		<path style="fill:#FFDC4A;" d="M963.02,323.383l36.56,116.26l-25.46,83.97l-20.54-60.23l-0.04-0.11l-0.19-0.61l-38.8-123.34
			l-0.19-0.62c-0.02-0.06-0.04-0.11-0.05-0.17c-0.75-2.45-1.13-4.97-1.13-7.51c0-11.18,7.18-20.96,17.86-24.32
			C944.46,302.493,958.8,309.973,963.02,323.383z"/>
	</g>
	<g>
		<path style="fill:#C9CFD1;" d="M914.02,721.853l-17.1,56.39l-13.18-41.9C894.36,732.303,904.46,727.463,914.02,721.853z"/>
	</g>
	<g>
		<path style="fill:#C9CFD1;" d="M884.58,403.993l20.31,64.6c-20.76,40.01-46.69,65.96-80.18,80.02l-24.78-78.81
			C833.4,456.703,861.44,434.923,884.58,403.993z"/>
	</g>
	<g>
		<path style="fill:#C9CFD1;" d="M792.67,606.733l29.94,95.2c-41.06,4.64-86.69-2.23-134.59-10.48l-28.41-90.33
			C704.68,608.293,749.98,613.103,792.67,606.733z"/>
	</g>
	<g>
		<path style="fill:#C9CFD1;" d="M651.01,733.753l19.87,63.18c-44.27-7.68-88.75-13.08-130.78-7.86l-20.8-66.11
			C559.63,718.953,604.22,725.703,651.01,733.753z"/>
	</g>
	<g>
		<path style="fill:#C9CFD1;" d="M567.22,467.343l23.09,73.4c-44.07-7-88.36-11.76-130.21-6l-24.59-78.19
			C475.84,452.543,520.43,459.283,567.22,467.343z"/>
	</g>
	<g>
		<path style="fill:#C9CFD1;" d="M427.86,592.193l30.11,95.76c-34.64,13-63.55,35.12-87.31,66.85l-25.63-81.51
			C366.31,632.283,393.08,605.993,427.86,592.193z"/>
	</g>
	<g>
		<g>
			<g>
				<path style="fill:#212121;" d="M493.385,1592.509c-13.255,0-24-10.745-24-24v-272.248c0-13.255,10.745-24,24-24h98.999
					c13.255,0,24,10.745,24,24s-10.745,24-24,24h-74.999v248.248C517.385,1581.764,506.64,1592.509,493.385,1592.509z"/>
			</g>
			<g>
				<path style="fill:#212121;" d="M592.384,1444.01h-98.999c-13.255,0-24-10.745-24-24s10.745-24,24-24h98.999
					c13.255,0,24,10.745,24,24S605.639,1444.01,592.384,1444.01z"/>
			</g>
			<g>
				<path style="fill:#212121;" d="M691.383,1592.509c-13.255,0-24-10.745-24-24v-272.248c0-13.255,10.745-24,24-24s24,10.745,24,24
					v272.248C715.383,1581.764,704.638,1592.509,691.383,1592.509z"/>
			</g>
			<g>
				<path style="fill:#212121;" d="M1062.63,1592.509c-13.255,0-24-10.745-24-24v-272.248c0-13.255,10.745-24,24-24s24,10.745,24,24
					v272.248C1086.63,1581.764,1075.885,1592.509,1062.63,1592.509z"/>
			</g>
			<g>
				<path style="fill:#212121;" d="M963.631,1592.511c-8.054,0-15.762-4.067-20.249-11.117l-129-202.716v189.831
					c0,13.255-10.745,24-24,24s-24-10.745-24-24v-272.248c0-10.671,7.045-20.06,17.29-23.043
					c10.244-2.98,21.229,1.156,26.958,10.158l129,202.715v-189.83c0-13.255,10.745-24,24-24s24,10.745,24,24v272.248
					c0,10.671-7.045,20.06-17.29,23.043C968.119,1592.198,965.861,1592.511,963.631,1592.511z"/>
			</g>
			<g>
				<path style="fill:#212121;" d="M1557.627,1592.509c-13.255,0-24-10.745-24-24v-272.248c0-13.255,10.745-24,24-24
					s24,10.745,24,24v272.248C1581.627,1581.764,1570.882,1592.509,1557.627,1592.509z"/>
			</g>
			<g>
				<path style="fill:#212121;" d="M1384.378,1592.509c-13.255,0-24-10.745-24-24v-272.248c0-13.255,10.745-24,24-24
					s24,10.745,24,24v272.248C1408.378,1581.764,1397.633,1592.509,1384.378,1592.509z"/>
			</g>
			<g>
				<path style="fill:#212121;" d="M1285.379,1456.385H1161.63c-13.255,0-24-10.745-24-24v-136.124c0-13.255,10.745-24,24-24
					h123.749c13.255,0,24,10.745,24,24s-10.745,24-24,24h-99.749v88.124h99.749c13.255,0,24,10.745,24,24
					S1298.634,1456.385,1285.379,1456.385z"/>
			</g>
			<g>
				<path style="fill:#212121;" d="M1285.379,1592.509H1161.63c-13.255,0-24-10.745-24-24s10.745-24,24-24h99.749v-88.124h-99.749
					c-13.255,0-24-10.745-24-24s10.745-24,24-24h123.749c13.255,0,24,10.745,24,24v136.124
					C1309.379,1581.764,1298.634,1592.509,1285.379,1592.509z"/>
			</g>
			<g>
				<path style="fill:#212121;" d="M1557.627,1444.01h-173.249c-13.255,0-24-10.745-24-24s10.745-24,24-24h173.249
					c13.255,0,24,10.745,24,24S1570.882,1444.01,1557.627,1444.01z"/>
			</g>
		</g>
		<g>
			<path style="fill:#212121;" d="M1718.5,1691.508H332.511c-13.255,0-24-10.745-24-24v-470.246c0-13.255,10.745-24,24-24H1718.5
				c13.255,0,24,10.745,24,24v470.246C1742.5,1680.763,1731.755,1691.508,1718.5,1691.508z M356.511,1643.508H1694.5v-422.246
				H356.511V1643.508z"/>
		</g>
		<g>
			<path style="fill:#212121;" d="M1669.001,1790.507H382.01c-13.255,0-24-10.745-24-24s10.745-24,24-24h1286.991
				c13.255,0,24,10.745,24,24S1682.256,1790.507,1669.001,1790.507z"/>
		</g>
		<g>
			<path style="fill:#212121;" d="M1669.001,1122.262H382.01c-13.255,0-24-10.745-24-24s10.745-24,24-24h1286.991
				c13.255,0,24,10.745,24,24S1682.256,1122.262,1669.001,1122.262z"/>
		</g>
		<g>
			<g>
				<path style="fill:#212121;" d="M824.989,1122.268c-2.306,0.001-4.651-0.335-6.972-1.038
					c-12.685-3.846-19.85-17.246-16.004-29.931l237.113-782.084c0.023-0.078,0.048-0.156,0.072-0.234
					c5.888-18.729,18.717-34.043,36.126-43.123c17.407-9.078,37.307-10.834,56.029-4.945c30.788,9.687,51.471,37.855,51.471,70.095
					c0,7.479-1.147,14.91-3.411,22.088l-132.396,421L951.808,1104.9c-3.666,12.738-16.959,20.095-29.702,16.426
					c-12.738-3.666-20.092-16.964-16.426-29.701l95.162-330.639c0.082-0.302,0.17-0.602,0.264-0.899l132.524-421.407
					c0.794-2.52,1.194-5.095,1.194-7.671c0-11.175-7.183-20.943-17.873-24.307c-6.492-2.042-13.395-1.432-19.432,1.717
					c-6.009,3.134-10.444,8.409-12.5,14.861l-237.071,781.945C844.806,1115.589,835.286,1122.268,824.989,1122.268z"/>
			</g>
			<g>
				<path style="fill:#212121;" d="M1728.786,695.261c-8.951,0.001-17.54-5.028-21.663-13.641
					c-60.006-125.326-161.942-107.582-279.973-87.035c-60.575,10.545-123.211,21.45-180.562,10.698
					c-67.586-12.67-116.958-53.326-150.937-124.293c-5.725-11.955-0.673-26.287,11.282-32.011
					c11.954-5.723,26.287-0.673,32.011,11.283c60.006,125.326,161.94,107.58,279.973,87.034
					c60.574-10.545,123.211-21.448,180.562-10.698c67.586,12.67,116.958,53.327,150.937,124.293
					c5.725,11.955,0.673,26.287-11.282,32.011C1735.791,694.503,1732.261,695.261,1728.786,695.261z"/>
			</g>
			<g>
				<path style="fill:#212121;" d="M1684.236,836.92c-8.951,0.001-17.54-5.028-21.663-13.641
					c-60.007-125.327-161.942-107.581-279.973-87.034c-60.575,10.545-123.211,21.448-180.562,10.698
					c-67.586-12.67-116.958-53.327-150.937-124.293c-5.725-11.955-0.673-26.287,11.282-32.011
					c11.954-5.724,26.287-0.674,32.011,11.282c60.006,125.325,161.943,107.582,279.973,87.035
					c60.575-10.545,123.211-21.449,180.562-10.698c67.586,12.67,116.958,53.326,150.937,124.293
					c5.725,11.955,0.673,26.287-11.282,32.011C1691.241,836.161,1687.711,836.92,1684.236,836.92z"/>
			</g>
			<g>
				<path style="fill:#212121;" d="M1157.254,862.601c-2.386,0-4.811-0.358-7.207-1.112c-12.645-3.977-19.671-17.45-15.694-30.095
					l120.862-384.318c3.977-12.644,17.452-19.668,30.095-15.694c12.645,3.977,19.671,17.45,15.694,30.095l-120.862,384.318
					C1176.919,856.043,1167.456,862.601,1157.254,862.601z"/>
			</g>
			<g>
				<path style="fill:#212121;" d="M1524.524,840.259c-2.386,0-4.811-0.358-7.207-1.112c-12.645-3.977-19.671-17.45-15.694-30.095
					l119.13-378.81c3.977-12.644,17.449-19.669,30.095-15.694c12.645,3.977,19.671,17.45,15.694,30.095l-119.13,378.81
					C1544.189,833.701,1534.727,840.259,1524.524,840.259z"/>
			</g>
			<g>
				<path style="fill:#212121;" d="M1342.279,851.754c-2.386,0-4.811-0.358-7.207-1.112c-12.645-3.977-19.671-17.45-15.694-30.095
					l119.99-381.544c3.977-12.645,17.451-19.669,30.095-15.694c12.645,3.977,19.671,17.45,15.694,30.095l-119.99,381.544
					C1361.944,845.196,1352.481,851.754,1342.279,851.754z"/>
			</g>
		</g>
		<g>
			<g>
				<path style="fill:#212121;" d="M1223.007,1122.268c-10.487,0-20.121-6.927-23.094-17.52l-73.455-261.688
					c-3.583-12.761,3.858-26.011,16.62-29.593c12.768-3.584,26.012,3.859,29.593,16.621l73.455,261.687
					c3.583,12.762-3.858,26.011-16.62,29.594C1227.337,1121.978,1225.153,1122.268,1223.007,1122.268z"/>
			</g>
			<g>
				<path style="fill:#212121;" d="M1119.233,1122.268c-10.427,0-20.024-6.848-23.052-17.368l-95.245-330.967
					c-0.621-2.158-0.937-4.392-0.937-6.637c0-13.255,10.745-24.005,24-24.005c11.175,0,20.566,7.635,23.238,17.974l95.07,330.36
					c3.666,12.738-3.688,26.036-16.426,29.701C1123.666,1121.964,1121.431,1122.268,1119.233,1122.268z"/>
			</g>
			<g>
				<path style="fill:#212121;" d="M972.101,626.324c-10.203,0-19.665-6.558-22.888-16.806l-80.643-256.44
					c-2.251-7.141-3.395-14.568-3.395-22.06c0-32.248,20.679-60.42,51.458-70.104c18.733-5.889,38.633-4.132,56.041,4.944
					c17.41,9.079,30.24,24.394,36.127,43.123l38.094,121.127c3.977,12.645-3.05,26.118-15.694,30.095
					c-12.644,3.978-26.117-3.051-30.095-15.694l-38.094-121.13c-4.216-13.414-18.562-20.895-31.979-16.675
					c-10.679,3.36-17.857,13.132-17.857,24.315c0,2.59,0.397,5.163,1.179,7.645l80.648,256.454
					c3.976,12.645-3.051,26.118-15.695,30.095C976.913,625.966,974.486,626.324,972.101,626.324z"/>
			</g>
			<g>
				<path style="fill:#212121;" d="M319.21,695.261c-3.475,0-7.004-0.758-10.348-2.359c-11.956-5.724-17.006-20.056-11.282-32.011
					c33.979-70.967,83.351-111.624,150.937-124.293c57.348-10.75,119.986,0.153,180.562,10.698
					c118.03,20.547,219.966,38.291,279.973-87.034c5.724-11.955,20.056-17.005,32.011-11.283
					c11.956,5.724,17.006,20.056,11.282,32.011c-33.979,70.967-83.351,111.623-150.937,124.293
					c-57.351,10.75-119.986-0.153-180.561-10.698c-118.031-20.547-219.967-38.292-279.973,87.035
					C336.75,690.232,328.16,695.261,319.21,695.261z"/>
			</g>
			<g>
				<path style="fill:#212121;" d="M363.761,836.923c-3.475,0-7.002-0.757-10.346-2.358c-11.955-5.724-17.007-20.055-11.284-32.011
					c32.238-67.341,78.178-107.271,140.445-122.071c60.21-14.298,126.723-2.725,191.045,8.47
					c63.269,11.025,123.021,21.435,174.148,8.467c39.132-9.909,68.454-32.363,92.287-70.667
					c7.002-11.253,21.803-14.701,33.057-7.698c11.254,7.002,14.701,21.802,7.698,33.057c-30.383,48.831-70.044,78.872-121.25,91.838
					c-61.057,15.487-128.729,3.696-194.17-7.707c-62.282-10.839-121.113-21.078-171.72-9.059
					c-47.915,11.389-82.312,41.924-108.245,96.098C381.303,831.893,372.712,836.923,363.761,836.923z"/>
			</g>
			<g>
				<path style="fill:#212121;" d="M890.742,862.601c-10.203,0-19.665-6.558-22.888-16.806L746.992,461.476
					c-3.977-12.645,3.05-26.118,15.694-30.095c12.646-3.978,26.118,3.05,30.095,15.694l120.862,384.318
					c3.977,12.645-3.05,26.118-15.694,30.095C895.553,862.242,893.127,862.601,890.742,862.601z"/>
			</g>
			<g>
				<path style="fill:#212121;" d="M523.471,840.259c-10.203,0-19.665-6.558-22.888-16.806l-119.13-378.81
					c-3.977-12.645,3.05-26.118,15.695-30.095c12.642-3.978,26.118,3.051,30.094,15.694l119.13,378.81
					c3.977,12.645-3.05,26.118-15.695,30.095C528.283,839.901,525.856,840.259,523.471,840.259z"/>
			</g>
			<g>
				<path style="fill:#212121;" d="M705.716,851.754c-10.203,0-19.665-6.558-22.888-16.806l-119.99-381.544
					c-3.977-12.645,3.05-26.118,15.694-30.095c12.645-3.977,26.119,3.051,30.095,15.694l119.99,381.544
					c3.977,12.645-3.05,26.118-15.695,30.095C710.527,851.395,708.101,851.754,705.716,851.754z"/>
			</g>
		</g>
	</g>
	<g>
		<path style="fill:#212121;" d="M1649.194,948.268c-9.185,0-17.631-5.263-21.64-13.636
			c-59.888-125.077-162.27-105.721-280.822-83.306c-60.868,11.508-123.807,23.409-181.401,13.425
			c-67.994-11.786-117.593-52.075-151.632-123.167c-2.627-5.485-3.072-11.763-1.248-17.564l121.184-385.338
			c2.957-9.402,11.362-16.041,21.193-16.739c9.834-0.712,19.091,4.685,23.348,13.575c60.005,125.324,161.937,107.58,279.973,87.035
			c60.575-10.545,123.213-21.447,180.562-10.699c67.586,12.67,116.958,53.327,150.937,124.293
			c2.627,5.485,3.072,11.763,1.248,17.564l-118.799,377.757c-2.957,9.402-11.362,16.041-21.193,16.739
			C1650.331,948.248,1649.761,948.268,1649.194,948.268z M1472.725,786.996c15.778,0,31.319,1.111,46.491,3.741
			c50.962,8.834,91.588,33.675,123.076,75.501l99.907-317.685c-60.492-116.202-160.468-98.793-275.818-78.713
			c-60.575,10.544-123.211,21.449-180.562,10.698c-50.624-9.49-91.032-34.687-122.403-76.556l-102.269,325.19
			c60.402,115.875,160.815,96.892,276.668,74.988C1382.648,795.685,1428.607,786.996,1472.725,786.996z"/>
	</g>
	<g>
		<path style="fill:#212121;" d="M398.806,948.272c-0.567,0-1.136-0.02-1.708-0.061c-9.832-0.698-18.237-7.336-21.194-16.739
			L257.105,553.707c-1.825-5.802-1.378-12.079,1.248-17.564c33.978-70.967,83.349-111.625,150.934-124.294
			c57.349-10.75,119.985,0.154,180.559,10.699c63.013,10.969,122.545,21.334,173.512,8.629c0.209-0.059,0.42-0.115,0.632-0.169
			c46.665-11.816,80.292-42.16,105.828-95.492c4.256-8.891,13.508-14.282,23.348-13.575c9.832,0.698,18.237,7.337,21.193,16.74
			l80.643,256.438c3.977,12.645-3.05,26.118-15.694,30.095c-12.642,3.977-26.118-3.051-30.094-15.694l-64.63-205.517
			c-28.361,37.885-64.064,62.045-108.1,73.356c-0.234,0.067-0.47,0.13-0.708,0.19c-61.034,15.465-128.712,3.683-194.162-7.711
			c-115.349-20.081-215.323-37.49-275.814,78.713l99.907,317.693c31.485-41.818,72.113-66.664,123.068-75.498
			c57.589-9.984,120.525,1.912,181.389,13.416c63.63,12.029,123.7,23.384,174.992,11.086c2.304-0.544,4.505-1.12,6.627-1.732
			c12.733-3.676,26.038,3.671,29.712,16.407c3.674,12.735-3.671,26.038-16.407,29.712c-2.874,0.829-5.842,1.606-8.823,2.31
			c-61.208,14.678-129.216,1.821-194.984-10.612c-118.574-22.414-220.953-41.766-280.835,83.304
			C416.437,943.009,407.989,948.271,398.806,948.272z"/>
	</g>
</g>
</svg>
