<?xml version="1.0" encoding="iso-8859-1"?>
<!-- Generator: Adobe Illustrator 25.2.0, SVG Export Plug-In . SVG Version: 6.00 Build 0)  -->
<svg version="1.1" xmlns="http://www.w3.org/2000/svg" xmlns:xlink="http://www.w3.org/1999/xlink" x="0px" y="0px"
	 viewBox="0 0 2048 2048" style="enable-background:new 0 0 2048 2048;" xml:space="preserve">
<g id="_x32_632.S2_-_Helmet">
	<g>
		<g id="XMLID_10_">
			<g>
				<g>
					<path style="fill:#FFDC4A;" d="M1714.54,1491.86c-2.2,9.41-4.66,19.39-7.31,29.47c-0.02,0.09-0.04,0.18-0.07,0.27
						c-7.44,28.29-16.28,57.41-24.74,77.57c-0.21,0.5-0.43,1-0.67,1.49c-14.93,30.69-115.22,139.02-196.86,162.48
						c-11.28,3.25-21.99,4.86-32.06,4.86c-15.06,0-28.72-3.61-40.83-10.84l-97.12-48.58l-104.71-52.38
						c-449.31-306.45-717.43-525.45-879.99-926.02h-0.01c12.43-55.4,30.71-103.82,55.22-146.14l-73.53-99.72
						c-4.91-6.66-6.76-15.1-5.07-23.2c1.7-8.1,6.75-15.1,13.91-19.25c6.36-3.68,12.68-7.28,19.03-10.83
						c48.29-27.01,98.72-50.01,150.7-68.99l50.4-18.4c41.16-15.02,83.12-27.46,125.62-37.22
						c179.02,54.83,548.21,209.39,791.85,596.35l-322.16-100.89l-0.02,0.14l-90.97-27.97c-61.08-18.77-110.99-6.51-140.58,34.52
						c-40.51,56.21-33.92,150.65,15.35,219.66c45.67,63.97,93.96,116.57,158.5,165.98
						C1237.83,1280.28,1474.63,1396.76,1714.54,1491.86z"/>
				</g>
				<g>
					<path style="fill:#FFDC4A;" d="M1210.17,1656.2l104.71,52.38c-23.45,27.59-57.84,43.11-93.28,43.11
						c-18.36,0-36.97-4.15-54.47-12.9l-736.96-368.58c-29.11-14.55-50.83-39.66-61.17-70.7c-7.19-21.58-8.25-44.18-3.33-65.73
						L1210.17,1656.2z"/>
				</g>
				<g>
					<path style="fill:#898890;" d="M1210.17,1656.2l-844.5-422.42c-23.53-12.57-39.73-36.07-43.15-62.49
						c-0.28-1.28-0.48-2.59-0.59-3.93c-7.76-96.46-17.41-216.51-7.88-329.25c3.03-35.97,7.91-69.5,14.59-100.86
						c0.1-0.59,0.23-1.16,0.36-1.73c0.39-1.79,0.78-3.57,1.17-5.34h0.01C492.74,1130.75,760.86,1349.75,1210.17,1656.2z"/>
				</g>
				<g>
					<path style="fill:#898890;" d="M1725.39,986.43l-267.09-83.65c-243.64-386.96-612.83-541.52-791.85-596.35
						c109.21-25.11,222.02-32.63,334.03-21.26c41.59,4.22,82.27,10.86,121.11,19.93c103.42,24.17,197.44,64.29,279.46,119.24
						c88.25,59.11,160.75,134.31,215.51,223.49c0.15,0.24,0.29,0.48,0.43,0.72c0.42,0.62,0.82,1.26,1.19,1.93
						c44.62,79.36,77.59,174.88,98.44,284.53c0.14,0.6,0.24,1.19,0.34,1.81C1720.02,953.06,1722.85,969.58,1725.39,986.43z"/>
				</g>
				<g>
					<path style="fill:#C9CFD1;" d="M1136.12,802.03v0.01l-57.7,392.18c-64.54-49.41-112.83-102.01-158.5-165.98
						c-49.27-69.01-55.86-163.45-15.35-219.66c29.59-41.03,79.5-53.29,140.58-34.52L1136.12,802.03z"/>
				</g>
				<g>
					<path style="fill:#E1E6E9;" d="M1136.14,801.89l322.16,100.89l267.09,83.65c0.73,4.77,1.42,9.57,2.1,14.39
						c20.12,144.09,19.02,300.82-3.09,441.37c-1.37,10.51-4.96,28.7-9.86,49.67c-239.91-95.1-476.71-211.58-636.12-297.64
						l57.7-392.18v-0.01L1136.14,801.89z"/>
				</g>
			</g>
			<g>
				<g>
					<path style="fill:#212121;" d="M1078.45,1218.223c-1.163,0-2.339-0.084-3.523-0.259c-13.114-1.929-22.181-14.124-20.251-27.237
						l57.7-392.18c1.929-13.114,14.127-22.183,27.237-20.25c13.114,1.929,22.181,14.124,20.251,27.237l-57.7,392.18
						C1100.409,1209.643,1090.158,1218.223,1078.45,1218.223z"/>
				</g>
				<g>
					<path style="fill:#212121;" d="M1452.83,1792c-19.101,0-36.694-4.625-52.311-13.747l-80.693-40.363
						c-26.746,24.211-61.626,37.801-98.227,37.801c-22.783,0-44.72-5.193-65.203-15.435l-736.962-368.581
						c-34.836-17.412-60.836-47.45-73.205-84.58c-6.678-20.042-8.957-41.111-6.767-61.782
						c-21.979-16.974-36.751-42.093-40.618-69.999c-0.391-1.984-0.67-3.995-0.834-5.991c-7.832-97.355-17.576-218.472-7.875-333.234
						c3.064-36.373,8.094-71.178,14.949-103.448c0.171-0.93,0.349-1.718,0.489-2.335c0.387-1.773,0.772-3.537,1.159-5.291
						c11.746-52.35,28.207-98.023,50.182-139.152l-64.371-87.299c-8.957-12.15-12.327-27.583-9.248-42.345
						c3.102-14.777,12.347-27.564,25.37-35.113c6.7-3.877,13.026-7.477,19.354-11.014c48.821-27.308,100.696-51.057,154.18-70.585
						l50.401-18.4c42-15.327,85.226-28.134,128.479-38.066c113.003-25.982,228.012-33.3,341.826-21.747
						c42.986,4.362,84.754,11.238,124.144,20.437c106.241,24.829,202.922,66.102,287.36,122.672
						c91.083,61.008,165.96,138.656,222.545,230.776c0.128,0.206,0.254,0.412,0.377,0.618c0.654,1,1.252,1.988,1.812,3
						c45.658,81.229,79.632,179.25,100.983,291.357c0.203,0.933,0.354,1.781,0.476,2.525c3.189,16.95,6.056,33.83,8.521,50.176
						c0.785,5.129,1.52,10.268,2.133,14.611c20.425,146.274,19.321,305.408-3.098,448.15c-1.527,11.529-5.254,30.342-10.247,51.707
						c0,0.002,0,0.002,0,0.004c-2.36,10.091-4.847,20.122-7.393,29.819c-0.062,0.255-0.138,0.547-0.229,0.869
						c-6.181,23.474-15.637,56.37-25.738,80.443c-0.434,1.03-0.83,1.907-1.249,2.765c-9.927,20.403-42.342,57.902-78.799,91.128
						c-33.369,30.41-83.527,69.645-132.985,83.856C1478.181,1790.049,1465.159,1792,1452.83,1792z M1314.89,1684.579
						c3.637,0,7.307,0.825,10.727,2.536l97.12,48.58c0.532,0.267,1.055,0.553,1.565,0.857c8.395,5.011,17.727,7.447,28.528,7.447
						c7.832,0,16.383-1.319,25.415-3.922c31.65-9.096,72.104-35.092,113.925-73.206c37.599-34.266,62.803-66.031,67.998-76.711
						c0.049-0.104,0.086-0.193,0.124-0.283c7.073-16.856,15.476-43.274,23.657-74.383c0.009-0.032,0.018-0.063,0.025-0.096
						c0.015-0.058,0.029-0.115,0.044-0.17c2.462-9.365,4.868-19.066,7.152-28.834c4.623-19.783,8.148-37.469,9.431-47.308
						c0.027-0.209,0.058-0.419,0.09-0.627c21.753-138.283,22.829-292.528,3.029-434.322c-0.589-4.169-1.298-9.136-2.055-14.076
						c-2.399-15.922-5.187-32.322-8.291-48.8c-0.04-0.211-0.077-0.422-0.11-0.634c-0.019-0.113-0.036-0.225-0.056-0.334
						c-0.06-0.266-0.115-0.534-0.166-0.802c-20.381-107.178-52.607-200.459-95.783-277.251c-0.029-0.052-0.059-0.104-0.087-0.156
						l-0.055-0.079c-0.291-0.429-0.567-0.867-0.829-1.314l-0.127-0.215c-0.018-0.03-0.036-0.059-0.055-0.089
						c-52.953-86.238-123.073-158.947-208.414-216.108c-79.615-53.34-170.982-92.303-271.565-115.81
						c-37.393-8.732-77.119-15.268-118.07-19.423c-108.584-11.024-218.343-4.035-326.229,20.772
						c-41.33,9.491-82.634,21.729-122.771,36.376l-50.396,18.398c-51.085,18.653-100.615,41.327-147.215,67.392
						c-6.123,3.423-12.247,6.908-18.726,10.657c-1.244,0.721-2.14,1.966-2.442,3.407c-0.288,1.38,0.038,2.859,0.899,4.028
						l73.529,99.719c5.669,7.688,6.239,18.006,1.452,26.271c-23.397,40.399-40.594,85.986-52.57,139.366
						c-0.367,1.663-0.752,3.425-1.138,5.196c-0.017,0.074-0.033,0.148-0.05,0.223c-0.039,0.169-0.079,0.339-0.115,0.51
						c-0.051,0.296-0.108,0.592-0.171,0.886c-6.479,30.418-11.24,63.348-14.148,97.875c-9.368,110.823,0.2,229.751,7.888,325.311
						c0.018,0.214,0.056,0.465,0.114,0.73c0.147,0.676,0.266,1.357,0.354,2.043c2.44,18.852,13.901,35.451,30.658,44.402
						c9.546,5.101,14.498,15.959,12.089,26.511c-3.961,17.35-3.027,35.608,2.702,52.802c8.315,24.961,25.763,45.139,49.13,56.818
						l736.965,368.583c13.756,6.877,28.471,10.365,43.734,10.365c28.94,0,56.274-12.631,74.993-34.653
						C1301.273,1687.53,1308.019,1684.579,1314.89,1684.579z M1683.837,1515.968c-0.005,0.024-0.011,0.048-0.016,0.07
						C1683.826,1516.015,1683.832,1515.992,1683.837,1515.968z M1684.396,1513.998L1684.396,1513.998L1684.396,1513.998z
						 M1684.417,1513.937c-0.005,0.014-0.01,0.027-0.014,0.04C1684.407,1513.963,1684.412,1513.95,1684.417,1513.937z
						 M1714.54,1491.86h0.01H1714.54z"/>
				</g>
				<g>
					<path style="fill:#212121;" d="M1714.533,1515.867c-2.943,0-5.935-0.545-8.837-1.696
						c-289.193-114.636-542.985-247.171-638.678-298.832c-1.115-0.603-2.182-1.292-3.188-2.062
						c-62.987-48.221-113.395-100.987-163.444-171.091c-26.367-36.931-42.615-81.999-45.751-126.903
						c-3.222-46.127,7.597-89.005,30.463-120.734c17.903-24.825,42.878-41.752,72.229-48.96c28.352-6.964,60.271-5.102,94.873,5.531
						l88.484,27.206c0.883,0.17,1.76,0.391,2.628,0.663l322.16,100.89l267.09,83.651c12.649,3.961,19.691,17.427,15.73,30.076
						c-3.962,12.649-17.43,19.692-30.076,15.73l-267.09-83.65l-319.675-100.111c-0.801-0.159-1.597-0.359-2.385-0.602L1038.097,797
						c-35.694-10.97-84.459-15.428-114.061,25.619c-16.315,22.639-23.958,54.361-21.517,89.319
						c2.528,36.188,15.645,72.539,36.934,102.357c46.76,65.496,93.713,114.826,152.055,159.716
						c96.211,51.889,346.735,182.509,631.876,295.539c12.322,4.884,18.352,18.833,13.468,31.154
						C1733.117,1510.124,1724.085,1515.867,1714.533,1515.867z"/>
				</g>
				<g>
					<path style="fill:#212121;" d="M1314.861,1732.585c-3.608,0-7.271-0.816-10.719-2.541l-104.71-52.38l-844.5-422.419
						c-11.854-5.93-16.657-20.347-10.728-32.201s20.348-16.655,32.201-10.729l844.5,422.42l104.711,52.381
						c11.854,5.93,16.657,20.347,10.727,32.201C1332.139,1727.725,1323.663,1732.585,1314.861,1732.585z"/>
				</g>
				<g>
					<path style="fill:#212121;" d="M1458.322,926.783c-7.973,0-15.771-3.97-20.332-11.215
						c-235.821-374.543-588.542-527.917-778.118-586.052c-10.074-2.85-17.457-12.111-17.457-23.096c0-13.255,10.74-24,23.995-24
						h0.01c2.446,0,4.877,0.376,7.2,1.106c90.922,27.859,230.188,81.067,377.557,176.378
						c175.337,113.4,319.146,258.103,427.433,430.088c7.062,11.217,3.694,26.035-7.522,33.097
						C1467.116,925.59,1462.693,926.783,1458.322,926.783z"/>
				</g>
				<g>
					<path style="fill:#212121;" d="M1210.148,1680.202c-4.658,0-9.363-1.352-13.502-4.175
						c-226.413-154.424-406.752-286.738-550.95-430.549c-75.232-75.029-138.208-150.688-192.525-231.301
						c-56.914-84.465-104.418-174.409-145.229-274.973c-4.984-12.282,0.932-26.279,13.213-31.263
						c12.282-4.986,26.279,0.931,31.263,13.213c154.104,379.732,393.329,589.236,871.275,915.218
						c10.95,7.469,13.772,22.4,6.304,33.351C1225.352,1676.535,1217.815,1680.202,1210.148,1680.202z"/>
				</g>
			</g>
		</g>
	</g>
</g>
<g id="Layer_1">
</g>
</svg>
