<?xml version="1.0" encoding="iso-8859-1"?>
<!-- Generator: Adobe Illustrator 25.2.0, SVG Export Plug-In . SVG Version: 6.00 Build 0)  -->
<svg version="1.1" xmlns="http://www.w3.org/2000/svg" xmlns:xlink="http://www.w3.org/1999/xlink" x="0px" y="0px"
	 viewBox="0 0 2048 2048" style="enable-background:new 0 0 2048 2048;" xml:space="preserve">
<g id="_x32_633.S2_-_Golf_Sticks">
	<g>
		<g>
			<g id="XMLID_11_">
				<g>
					<g>
						<path style="fill:#898890;" d="M970.84,1179.45l53.16,92.32l-267.05,463.88c-22.6,39.25-72.73,52.75-111.97,30.15
							l-130.53-75.14c-55.68-32.05-74.82-103.17-42.78-158.83c21.53-37.39,60.67-58.31,100.91-58.31c19.69,0,39.64,5.01,57.92,15.54
							l112,64.47l212.42-368.96c5.42-0.86,10.78-2.55,15.91-5.13L970.84,1179.45z"/>
					</g>
					<g>
						<path style="fill:#898890;" d="M1576.33,1531.83c32.04,55.66,12.9,126.78-42.78,158.83l-130.53,75.14
							c-39.24,22.6-89.37,9.1-111.97-30.15L1024,1271.77l-53.16-92.32l-0.01-0.01c0.96-0.47,1.92-0.99,2.86-1.53l84-48.35
							c0.94-0.54,1.86-1.11,2.76-1.71l32.65,56.72l212.4,368.96l112-64.47c18.28-10.53,38.23-15.54,57.92-15.54
							C1515.66,1473.52,1554.8,1494.44,1576.33,1531.83z"/>
					</g>
					<g>
						<path style="fill:#FFE577;" d="M1237.97,1003.72l-64.48,112l-91.66-52.77h-0.01c-1.05-2.85-2.36-5.66-3.93-8.39l-24.18-42
							l-29.71-51.6v-0.01l34.77-60.39L1237.97,1003.72z"/>
					</g>
					<g>
						<polygon style="fill:#FFE577;" points="1024,960.96 1053.71,1012.56 874.51,1115.72 810.04,1003.72 989.23,900.56 
							1024,960.95 						"/>
					</g>
					<g>
						<g>
							<path style="fill:#FF4B58;" d="M1173.49,1115.72l-24.19,42c-11.68,20.3-34.37,30.31-56.2,26.85l-32.65-56.72
								c21.55-14.12,30.14-41.22,21.38-64.9L1173.49,1115.72z"/>
						</g>
					</g>
					<g>
						<g>
							<path style="fill:#FF4B58;" d="M1081.83,1062.95c8.76,23.68,0.17,50.78-21.38,64.9c-0.9,0.6-1.82,1.17-2.76,1.71l-84,48.35
								c-0.94,0.54-1.9,1.06-2.86,1.53c-5.13,2.58-10.49,4.27-15.91,5.13c-21.84,3.47-44.54-6.55-56.23-26.85l-24.18-42
								l179.2-103.16l24.18,42c1.57,2.73,2.88,5.54,3.93,8.39H1081.83z"/>
						</g>
					</g>
					<g>
						<g>
							<path style="fill:#FF4B58;" d="M1522.32,302.55c49.49,28.49,66.51,91.7,38.02,141.18l-322.37,559.99l-179.2-103.16
								l322.38-559.99c19.12-33.23,53.91-51.82,89.68-51.82C1488.34,288.75,1506.07,293.19,1522.32,302.55z"/>
						</g>
					</g>
					<g>
						<g>
							<path style="fill:#FF4B58;" d="M666.85,340.57l322.38,559.99l-179.19,103.16L487.66,443.73
								c-28.49-49.48-11.47-112.69,38.02-141.18c16.25-9.35,33.98-13.8,51.48-13.8C612.93,288.75,647.72,307.34,666.85,340.57z"/>
						</g>
					</g>
				</g>
				<g>
					<g>
						<path style="fill:#212121;" d="M1362.282,1800.785c-9.249,0-18.556-1.222-27.728-3.691
							c-27.337-7.361-50.174-24.929-64.304-49.468L1003.2,1283.743l-53.159-92.316c-6.614-11.487-2.665-26.16,8.822-32.774
							c11.485-6.616,26.16-2.665,32.774,8.821l53.16,92.319l267.052,463.884c7.73,13.426,20.228,23.04,35.186,27.067
							c14.956,4.03,30.584,1.99,44.006-5.741l130.535-75.143c21.372-12.302,36.673-32.189,43.085-56.002
							c6.411-23.81,3.168-48.688-9.131-70.055c-16.438-28.548-47.136-46.284-80.11-46.284c-16.043,0-31.929,4.266-45.941,12.337
							l-112.005,64.474c-11.489,6.612-26.16,2.661-32.773-8.826l-212.4-368.96l-32.649-56.722
							c-6.613-11.487-2.661-26.16,8.827-32.772c11.487-6.614,26.162-2.66,32.772,8.827l32.649,56.721l200.427,348.16l91.201-52.498
							c21.282-12.259,45.453-18.74,69.893-18.74c50.091,0,96.727,26.95,121.708,70.334c18.697,32.48,23.627,70.297,13.882,106.485
							c-9.746,36.193-33.003,66.424-65.487,85.122l-130.529,75.139C1398.692,1795.988,1380.605,1800.785,1362.282,1800.785z"/>
					</g>
					<g>
						<path style="fill:#212121;" d="M946.483,1209.235c-27.875,0.001-54.424-14.938-68.591-39.539l-24.182-42.002
							c-6.613-11.487-2.663-26.16,8.825-32.773c11.489-6.616,26.161-2.662,32.774,8.824l24.18,42
							c6.359,11.043,19.085,17.124,31.665,15.122c3.092-0.49,6.084-1.456,8.896-2.869c0.071-0.036,0.143-0.071,0.214-0.106
							c0.42-0.206,0.915-0.473,1.47-0.791l83.984-48.342c0.494-0.284,0.967-0.576,1.415-0.875c0.055-0.037,0.109-0.073,0.164-0.109
							c11.905-7.8,16.962-23.149,12.024-36.498c-4.6-12.431,1.751-26.237,14.182-30.836c12.43-4.6,26.237,1.75,30.836,14.183
							c6.124,16.555,6.475,34.949,0.987,51.795c-5.524,16.958-16.761,31.676-31.644,41.454c-1.305,0.866-2.66,1.705-4.031,2.494
							l-83.989,48.344c-1.458,0.837-2.812,1.562-4.153,2.223c-7.206,3.61-14.885,6.079-22.827,7.34
							C954.611,1208.92,950.532,1209.235,946.483,1209.235z"/>
					</g>
					<g>
						<path style="fill:#212121;" d="M1081.823,1086.957c-9.767,0-18.945-6.006-22.521-15.704c-0.595-1.613-1.34-3.203-2.216-4.726
							l-24.176-41.993c-6.613-11.487-2.662-26.16,8.825-32.773c11.489-6.614,26.161-2.662,32.774,8.825l24.18,42
							c2.224,3.866,4.122,7.922,5.649,12.062c4.585,12.437-1.78,26.235-14.217,30.821
							C1087.385,1086.478,1084.58,1086.957,1081.823,1086.957z"/>
					</g>
					<g>
						<path style="fill:#212121;" d="M810.062,1027.724c-8.305,0-16.381-4.315-20.822-12.03l-322.38-559.99
							c-16.978-29.486-21.456-63.82-12.608-96.676c8.848-32.856,29.962-60.301,59.454-77.278c19.331-11.123,41.271-17,63.454-17
							c45.481,0,87.818,24.464,110.49,63.846l322.379,559.99c6.613,11.487,2.662,26.161-8.825,32.774
							c-11.484,6.613-26.16,2.662-32.774-8.826l-322.38-559.99c-14.13-24.546-40.527-39.794-68.89-39.794
							c-13.793,0-27.456,3.667-39.511,10.602c-18.375,10.578-31.533,27.682-37.047,48.157c-5.514,20.475-2.724,41.87,7.857,60.245
							l322.38,559.992c6.613,11.487,2.662,26.161-8.825,32.774C818.241,1026.692,814.124,1027.724,810.062,1027.724z"/>
					</g>
					<g>
						<path style="fill:#212121;" d="M874.509,1139.72c-2.09,0-4.188-0.272-6.241-0.826c-6.146-1.655-11.383-5.685-14.559-11.201
							l-64.47-111.999c-6.612-11.487-2.661-26.16,8.826-32.772l179.19-103.16c11.487-6.612,26.16-2.663,32.773,8.824l34.77,60.39
							c0.081,0.14,0.16,0.281,0.237,0.422l29.473,51.188c3.176,5.517,4.031,12.069,2.376,18.216
							c-1.655,6.146-5.685,11.384-11.201,14.56l-179.2,103.16C882.81,1138.635,878.676,1139.72,874.509,1139.72z M842.812,1012.546
							l40.524,70.4l137.598-79.211l-17.733-30.799c-0.082-0.143-0.163-0.286-0.241-0.43l-22.554-39.172L842.812,1012.546z"/>
					</g>
					<g>
						<path style="fill:#212121;" d="M1344.213,1644.734c-8.306,0-16.381-4.315-20.822-12.029
							c-6.613-11.487-2.661-26.161,8.825-32.774l67.189-38.681c11.49-6.614,26.161-2.661,32.774,8.825
							c6.613,11.487,2.661,26.161-8.825,32.774l-67.189,38.681C1352.392,1643.702,1348.274,1644.734,1344.213,1644.734z"/>
					</g>
					<g>
						<path style="fill:#212121;" d="M1382.893,1711.934c-8.307,0-16.382-4.315-20.822-12.031
							c-6.613-11.487-2.661-26.16,8.827-32.772l112-64.47c11.487-6.613,26.161-2.66,32.772,8.827
							c6.613,11.487,2.661,26.16-8.827,32.772l-112,64.47C1391.071,1710.901,1386.953,1711.934,1382.893,1711.934z"/>
					</g>
					<g>
						<path style="fill:#212121;" d="M685.719,1800.784c-18.325,0.001-36.411-4.796-52.717-14.188l-130.525-75.137
							c-32.483-18.697-55.74-48.928-65.486-85.121c-9.745-36.188-4.815-74.005,13.88-106.482
							c24.983-43.387,71.619-70.337,121.71-70.337c24.44,0,48.611,6.481,69.899,18.743l91.196,52.495l200.446-348.162
							c6.613-11.487,21.287-15.439,32.774-8.824c11.487,6.613,15.438,21.286,8.825,32.773l-212.42,368.96
							c-6.613,11.486-21.285,15.437-32.772,8.825l-112-64.471c-14.018-8.074-29.903-12.34-45.947-12.34
							c-32.974,0-63.671,17.736-80.112,46.287c-12.297,21.363-15.54,46.242-9.129,70.052c6.412,23.812,21.713,43.7,43.083,56.002
							L656.954,1745c13.426,7.732,29.055,9.771,44.011,5.744c14.958-4.027,27.455-13.642,35.187-27.069l267.049-463.879
							c6.614-11.487,21.285-15.438,32.773-8.826c11.487,6.613,15.439,21.286,8.826,32.773l-267.05,463.881
							c-14.13,24.54-36.967,42.108-64.304,49.47C704.276,1799.562,694.966,1800.784,685.719,1800.784z"/>
					</g>
					<g>
						<path style="fill:#212121;" d="M1237.947,1027.724c-4.062,0-8.178-1.032-11.951-3.204
							c-11.487-6.613-15.439-21.286-8.826-32.773l322.37-559.99c10.581-18.377,13.371-39.772,7.858-60.247
							c-5.515-20.476-18.673-37.579-37.052-48.16c-12.041-6.935-25.703-10.599-39.517-10.599c-28.364,0-54.757,15.246-68.877,39.789
							l-322.384,559.996c-6.614,11.487-21.286,15.438-32.773,8.826c-11.487-6.613-15.439-21.287-8.826-32.774l322.381-559.99
							c22.657-39.379,64.992-63.846,110.479-63.846c22.21,0,44.157,5.879,63.469,17.003c29.486,16.975,50.601,44.419,59.448,77.275
							s4.37,67.19-12.608,96.677l-322.369,559.988C1254.329,1023.408,1246.252,1027.724,1237.947,1027.724z"/>
					</g>
					<g>
						<path style="fill:#212121;" d="M1101.519,1209.232c-4.043,0-8.11-0.313-12.176-0.958
							c-13.092-2.075-22.022-14.37-19.947-27.461c2.074-13.091,14.372-22.025,27.461-19.947c12.569,1.989,25.292-4.08,31.641-15.115
							l24.196-42.01c6.615-11.485,21.288-15.435,32.775-8.818c11.485,6.615,15.434,21.289,8.818,32.775l-24.19,42
							C1155.948,1194.289,1129.397,1209.232,1101.519,1209.232z"/>
					</g>
					<g>
						<path style="fill:#212121;" d="M1173.468,1139.724c-4.062,0-8.179-1.032-11.952-3.204l-91.233-52.524
							c-7.424-4.082-12.457-11.976-12.457-21.045c0-13.255,10.74-24,23.995-24c4.203,0,8.342,1.104,11.984,3.201l70.86,40.795
							l40.53-70.4l-137.601-79.213l-22.55,39.166c-4.082,7.424-11.976,12.456-21.045,12.456c-13.255,0-24-10.74-24-23.995v-0.01
							c0-4.203,1.104-8.333,3.201-11.975l34.77-60.39c6.612-11.486,21.286-15.437,32.772-8.825l179.2,103.16
							c5.517,3.176,9.546,8.413,11.201,14.56c1.654,6.146,0.801,12.698-2.375,18.215l-64.479,112
							C1189.849,1135.408,1181.772,1139.724,1173.468,1139.724z"/>
					</g>
					<g>
						<path style="fill:#212121;" d="M703.788,1644.734c-4.062,0-8.178-1.032-11.952-3.204l-67.19-38.681
							c-11.487-6.613-15.438-21.287-8.825-32.773c6.612-11.487,21.287-15.438,32.773-8.826l67.19,38.681
							c11.487,6.613,15.438,21.287,8.825,32.773C720.169,1640.418,712.092,1644.734,703.788,1644.734z"/>
					</g>
					<g>
						<path style="fill:#212121;" d="M665.107,1711.934c-4.062,0-8.178-1.032-11.951-3.204l-112-64.47
							c-11.487-6.612-15.439-21.285-8.827-32.772c6.612-11.488,21.285-15.441,32.773-8.827l112,64.47
							c11.487,6.612,15.439,21.285,8.827,32.772C681.489,1707.617,673.413,1711.934,665.107,1711.934z"/>
					</g>
				</g>
			</g>
		</g>
	</g>
</g>
<g id="Layer_1">
</g>
</svg>
