<?xml version="1.0" encoding="iso-8859-1"?>
<!-- Generator: Adobe Illustrator 25.2.0, SVG Export Plug-In . SVG Version: 6.00 Build 0)  -->
<svg version="1.1" xmlns="http://www.w3.org/2000/svg" xmlns:xlink="http://www.w3.org/1999/xlink" x="0px" y="0px"
	 viewBox="0 0 2048 2048" style="enable-background:new 0 0 2048 2048;" xml:space="preserve">
<g id="_x32_634.S2_-_Award">
	<g>
		<g id="XMLID_12_">
			<g>
				<g>
					<polygon style="fill:#898890;" points="1487.15,1511.73 1535.91,1755.49 512.09,1755.49 560.85,1511.73 658.35,1511.73 
						1389.65,1511.73 					"/>
				</g>
				<g>
					<polygon style="fill:#C6C5CB;" points="1292.14,1365.47 1389.65,1511.73 658.35,1511.73 755.86,1365.47 926.49,1365.47 
						1121.51,1365.47 					"/>
				</g>
				<g>
					<path style="fill:#FFDC4A;" d="M1511.53,621.7l-182.52,257.52l-3.7,315.61l-203.8-63.59l-97.51-30.42l-97.51,30.42
						l-203.8,63.59l-3.7-315.61L536.47,621.7l299.02-101.04L1024,267.49l188.51,253.17L1511.53,621.7z M1221.07,844.15L1339,677.76
						l-193.2-65.29L1024,448.9L902.2,612.47L709,677.76l117.93,166.39l2.39,203.92L1024,987.33l194.68,60.74L1221.07,844.15z"/>
				</g>
				<g>
					<path style="fill:#FF9911;" d="M1339,677.76l-117.93,166.39l-2.39,203.92L1024,987.33l-194.68,60.74l-2.39-203.92L709,677.76
						l193.2-65.29L1024,448.9l121.8,163.57L1339,677.76z M1121.51,780.43c0-53.85-43.66-97.51-97.51-97.51s-97.51,43.66-97.51,97.51
						c0,53.85,43.66,97.51,97.51,97.51S1121.51,834.28,1121.51,780.43z"/>
				</g>
				<g>
					<polygon style="fill:#FF9911;" points="1121.51,1131.24 1121.51,1365.47 926.49,1365.47 926.49,1131.24 1024,1100.82 					"/>
				</g>
				<g>
					<circle style="fill:#FFDC4A;" cx="1024" cy="780.43" r="97.51"/>
				</g>
			</g>
			<g>
				<g>
					<path style="fill:#212121;" d="M1535.885,1779.495c-11.207,0.001-21.227-7.889-23.509-19.298l-44.9-224.467h-77.825
						c-13.255,0-24-10.745-24-24s10.745-24,24-24h97.5c11.44,0,21.29,8.074,23.534,19.293l48.76,243.76
						c2.6,12.997-5.829,25.641-18.827,28.241C1539.029,1779.342,1537.444,1779.495,1535.885,1779.495z"/>
				</g>
				<g>
					<path style="fill:#212121;" d="M512.115,1779.495c-1.561,0-3.144-0.153-4.733-0.471c-12.998-2.601-21.426-15.244-18.826-28.241
						l48.76-243.761c2.244-11.218,12.094-19.292,23.534-19.292h97.5c13.255,0,24,10.745,24,24s-10.745,24-24,24h-77.825
						l-44.901,224.468C533.342,1771.606,523.321,1779.495,512.115,1779.495z"/>
				</g>
				<g>
					<path style="fill:#212121;" d="M1389.65,1535.73h-731.3c-8.851,0-16.984-4.872-21.16-12.676
						c-4.177-7.804-3.719-17.272,1.191-24.638l97.51-146.261c4.451-6.676,11.945-10.687,19.969-10.687h170.63
						c13.255,0,24,10.745,24,24s-10.745,24-24,24H768.704l-65.509,98.261h641.61l-65.509-98.261H1121.51c-13.255,0-24-10.745-24-24
						s10.745-24,24-24h170.63c8.024,0,15.518,4.011,19.969,10.687l97.511,146.261c4.91,7.365,5.368,16.834,1.191,24.638
						C1406.635,1530.858,1398.502,1535.73,1389.65,1535.73z"/>
				</g>
				<g>
					<path style="fill:#212121;" d="M1325.308,1218.83c-2.396,0-4.805-0.358-7.146-1.09L1024,1125.961l-294.162,91.779
						c-7.238,2.261-15.12,0.964-21.255-3.494c-6.135-4.457-9.803-11.552-9.892-19.135l-3.612-308.123L516.89,635.578
						c-4.385-6.187-5.588-14.083-3.245-21.295c2.344-7.212,7.958-12.893,15.142-15.32l291.926-98.643l184.037-247.164
						c4.529-6.083,11.667-9.667,19.25-9.667s14.721,3.584,19.25,9.667l184.037,247.164l291.926,98.643
						c7.185,2.427,12.799,8.108,15.143,15.32c2.344,7.212,1.141,15.108-3.244,21.295L1352.92,886.989l-3.612,308.123
						c-0.089,7.583-3.756,14.678-9.892,19.135C1335.267,1217.262,1330.316,1218.83,1325.308,1218.83z M1024,1076.82
						c2.41,0,4.82,0.363,7.147,1.089l270.542,84.409l3.322-283.379c0.057-4.876,1.598-9.619,4.417-13.597l163.883-231.223
						l-268.484-90.722c-4.62-1.562-8.654-4.493-11.567-8.404L1024,307.676L854.74,534.994c-2.913,3.911-6.947,6.842-11.567,8.404
						l-268.484,90.722l163.882,231.223c2.82,3.978,4.361,8.721,4.418,13.597l3.322,283.379l173.031-53.988
						c0-0.001,0-0.001,0.001-0.001l97.51-30.42C1019.18,1077.183,1021.59,1076.82,1024,1076.82z"/>
				</g>
				<g>
					<path style="fill:#212121;" d="M1218.678,1072.07c-2.396,0-4.804-0.358-7.146-1.089L1024,1012.471l-187.532,58.509
						c-7.239,2.259-15.12,0.963-21.255-3.494c-6.135-4.458-9.803-11.552-9.892-19.135l-2.302-196.433l-113.6-160.281
						c-4.385-6.187-5.588-14.082-3.245-21.294c2.343-7.212,7.958-12.893,15.142-15.32l186.106-62.892l117.328-157.565
						c4.528-6.082,11.666-9.666,19.249-9.666s14.721,3.584,19.249,9.666l117.328,157.565l186.106,62.892
						c7.185,2.428,12.798,8.108,15.142,15.32s1.141,15.107-3.244,21.294L1244.98,851.918l-2.303,196.433
						c-0.089,7.583-3.756,14.678-9.892,19.135C1228.637,1070.501,1223.687,1072.07,1218.678,1072.07z M747.218,690.178
						l99.292,140.094c2.82,3.978,4.361,8.721,4.418,13.597l2.012,171.69l163.911-51.14c4.656-1.452,9.641-1.452,14.297,0
						l163.911,51.14l2.013-171.69c0.057-4.876,1.598-9.619,4.417-13.597l99.293-140.094l-162.666-54.971
						c-4.619-1.561-8.653-4.492-11.566-8.403L1024,489.084l-102.55,137.72c-2.912,3.911-6.947,6.842-11.566,8.403L747.218,690.178z"
						/>
				</g>
				<g>
					<path style="fill:#212121;" d="M1121.51,1389.47H926.49c-13.255,0-24-10.745-24-24V1131.24c0-13.255,10.745-24,24-24
						s24,10.745,24,24v210.229h147.02V1131.24c0-13.255,10.745-24,24-24s24,10.745,24,24v234.229
						C1145.51,1378.725,1134.765,1389.47,1121.51,1389.47z"/>
				</g>
				<g>
					<path style="fill:#212121;" d="M1609.04,1779.49H438.96c-13.255,0-24-10.745-24-24s10.745-24,24-24h1170.08
						c13.255,0,24,10.745,24,24S1622.295,1779.49,1609.04,1779.49z"/>
				</g>
				<g>
					<path style="fill:#212121;" d="M1438.4,1657.61H609.6c-13.255,0-24-10.745-24-24s10.745-24,24-24h828.8
						c13.255,0,24,10.745,24,24S1451.655,1657.61,1438.4,1657.61z"/>
				</g>
				<g>
					<path style="fill:#212121;" d="M1024,901.94c-67.001,0-121.51-54.509-121.51-121.51c0-67.001,54.509-121.51,121.51-121.51
						s121.51,54.509,121.51,121.51C1145.51,847.431,1091.001,901.94,1024,901.94z M1024,706.92c-40.533,0-73.51,32.977-73.51,73.51
						c0,40.533,32.977,73.51,73.51,73.51s73.51-32.977,73.51-73.51C1097.51,739.896,1064.533,706.92,1024,706.92z"/>
				</g>
			</g>
		</g>
	</g>
</g>
<g id="Layer_1">
</g>
</svg>
