<?xml version="1.0" encoding="iso-8859-1"?>
<!-- Generator: Adobe Illustrator 25.2.0, SVG Export Plug-In . SVG Version: 6.00 Build 0)  -->
<svg version="1.1" xmlns="http://www.w3.org/2000/svg" xmlns:xlink="http://www.w3.org/1999/xlink" x="0px" y="0px"
	 viewBox="0 0 2048 2048" style="enable-background:new 0 0 2048 2048;" xml:space="preserve">
<g id="_x32_635.S2_-_Football">
	<g>
		<g id="XMLID_13_">
			<g>
				<g>
					<path style="fill:#57565C;" d="M751.2,1181.5L478.4,1339v190.83c-75.09-80.96-132.39-178.66-165.66-286.89l165.49,95.78
						L751.2,1181.5z"/>
				</g>
				<g>
					<path style="fill:#57565C;" d="M1735.02,804.27C1756.46,873.72,1768,947.51,1768,1024c0,76.2-11.46,149.72-32.74,218.94
						l-165.49,95.78L1296.8,1181.5v-315L1569.6,709L1735.02,804.27z"/>
				</g>
				<g>
					<path style="fill:#57565C;" d="M1569.77,1338.72l165.49-95.78c-33.27,108.23-90.57,205.93-165.66,286.89V1339l-272.8-157.5
						L1569.77,1338.72z"/>
				</g>
				<g>
					<path style="fill:#EBF0F3;" d="M1735.02,804.27L1569.6,709V518.17C1644.51,598.93,1701.71,696.36,1735.02,804.27z"/>
				</g>
				<g>
					<path style="fill:#EBF0F3;" d="M1569.6,1339v190.83c-100.03,107.84-231.65,185.98-380.14,219.7v-0.01L1024,1654v-315
						l272.8-157.5L1569.6,1339z"/>
				</g>
				<g>
					<path style="fill:#EBF0F3;" d="M1569.6,518.17V709l-0.49-0.28l-272.47,157.69L1024,709V394l165.46-95.52v-0.01
						C1337.95,332.19,1469.57,410.33,1569.6,518.17z"/>
				</g>
				<g>
					<polygon style="fill:#EBF0F3;" points="1296.47,866.5 1296.8,1181.5 1024,1339 751.2,1181.5 751.53,866.5 751.37,866.41 
						1024,709 1296.63,866.41 					"/>
				</g>
				<g>
					<path style="fill:#EBF0F3;" d="M1189.46,1749.52v0.01c-53.21,12.09-108.59,18.47-165.46,18.47s-112.25-6.38-165.46-18.47v-0.01
						L1024,1654L1189.46,1749.52z"/>
				</g>
				<g>
					<path style="fill:#57565C;" d="M1189.46,298.47v0.01L1024,394l-165.46-95.52v-0.01C911.75,286.38,967.13,280,1024,280
						S1136.25,286.38,1189.46,298.47z"/>
				</g>
				<g>
					<path style="fill:#57565C;" d="M1024,1339v315l-165.46,95.52v0.01c-148.49-33.72-280.11-111.86-380.14-219.7V1339l272.8-157.5
						L1024,1339z"/>
				</g>
				<g>
					<path style="fill:#57565C;" d="M1024,394v315L751.36,866.41L478.89,708.72L478.4,709V518.17
						c100.03-107.84,231.65-185.98,380.14-219.7v0.01L1024,394z"/>
				</g>
				<g>
					<path style="fill:#EBF0F3;" d="M751.2,866.5v315l-272.97,157.22l-165.49-95.78C291.46,1173.72,280,1100.2,280,1024
						c0-76.49,11.54-150.28,32.98-219.73L478.4,709L751.2,866.5z"/>
				</g>
				<g>
					<path style="fill:#EBF0F3;" d="M478.4,518.17V709l-165.42,95.27C346.29,696.36,403.49,598.93,478.4,518.17z"/>
				</g>
			</g>
			<g>
				<g>
					<path style="fill:#212121;" d="M1024,1792c-57.638,0-115.096-6.415-170.777-19.066c-75.554-17.157-147.89-45.66-214.998-84.716
						c-65.818-38.306-125.511-86.104-177.421-142.066c-38.872-41.91-73.082-88.173-101.68-137.503
						c-29.034-50.08-52.357-103.46-69.325-158.656C267.372,1177.039,256,1101.004,256,1024c0-77.316,11.455-153.625,34.048-226.809
						c16.989-55.039,40.3-108.265,69.286-158.201c28.558-49.199,62.697-95.34,101.471-137.142
						c51.91-55.963,111.603-103.761,177.421-142.066c67.108-39.056,139.444-67.559,215-84.716C908.903,262.415,966.361,256,1024,256
						s115.097,6.415,170.777,19.067c75.554,17.157,147.89,45.659,214.997,84.715c65.818,38.306,125.512,86.104,177.421,142.066
						c38.773,41.802,72.913,87.943,101.471,137.142c28.985,49.936,52.297,103.162,69.286,158.201
						C1780.545,870.374,1792,946.683,1792,1024c0,77.004-11.372,153.039-33.8,225.993c-16.967,55.195-40.291,108.575-69.324,158.655
						c-28.599,49.331-62.809,95.593-101.68,137.502c-51.91,55.964-111.603,103.762-177.422,142.067
						c-67.106,39.056-139.443,67.559-215,84.717C1139.096,1785.585,1081.638,1792,1024,1792z M1024,304
						c-54.066,0-107.945,6.014-160.142,17.874c-141.425,32.116-268.629,105.637-367.862,212.618
						c-73.168,78.883-128.524,174.618-160.083,276.857C314.737,879.942,304,951.488,304,1024
						c0,72.219,10.659,143.508,31.681,211.888c31.515,102.522,86.951,198.522,160.316,277.622
						c99.231,106.979,226.435,180.5,367.858,212.616c52.2,11.86,106.08,17.874,160.145,17.874s107.945-6.014,160.143-17.873
						c141.427-32.117,268.63-105.639,367.861-212.618c73.363-79.098,128.8-175.098,160.315-277.62
						C1733.341,1167.508,1744,1096.219,1744,1024c0-72.512-10.737-144.058-31.913-212.65c0,0,0,0,0-0.001
						c-31.559-102.239-86.915-197.975-160.083-276.857c-99.232-106.98-226.436-180.502-367.858-212.617
						C1131.945,310.014,1078.066,304,1024,304z"/>
				</g>
				<g>
					<path style="fill:#212121;" d="M1296.617,890.414c-4.072,0-8.198-1.037-11.978-3.219L1024,736.713L763.36,887.195
						c-11.478,6.626-26.157,2.694-32.785-8.785c-6.627-11.479-2.694-26.157,8.785-32.785L1012,688.215
						c7.426-4.287,16.574-4.287,24,0l272.64,157.41c11.479,6.627,15.412,21.306,8.784,32.785
						C1312.979,886.109,1304.911,890.414,1296.617,890.414z"/>
				</g>
				<g>
					<path style="fill:#212121;" d="M1296.8,1205.5c-13.255,0-24-10.745-24-24v-315c0-13.255,10.745-24,24-24s24,10.745,24,24v315
						C1320.8,1194.755,1310.055,1205.5,1296.8,1205.5z"/>
				</g>
				<g>
					<path style="fill:#212121;" d="M751.2,1205.5c-13.255,0-24-10.745-24-24v-315c0-13.255,10.745-24,24-24s24,10.745,24,24v315
						C775.2,1194.755,764.455,1205.5,751.2,1205.5z"/>
				</g>
				<g>
					<path style="fill:#212121;" d="M751.2,890.5c-4.145,0-8.288-1.072-12-3.215l-272.8-157.5c-7.426-4.287-12-12.21-12-20.785
						V518.17c0-13.255,10.745-24,24-24s24,10.745,24,24v176.974l258.492,149.239c4.652,2.009,8.708,5.501,11.384,10.258
						c6.5,11.552,2.405,26.186-9.146,32.686l-0.16,0.09C759.314,889.473,755.256,890.5,751.2,890.5z"/>
				</g>
				<g>
					<path style="fill:#212121;" d="M751.393,890.414c-8.295,0-16.361-4.304-20.807-12.003c-6.628-11.479-2.695-26.157,8.784-32.785
						L1012,688.216c11.476-6.628,26.157-2.696,32.784,8.784c6.628,11.479,2.695,26.157-8.784,32.785l-272.629,157.41
						C759.591,889.376,755.464,890.414,751.393,890.414z"/>
				</g>
				<g>
					<path style="fill:#212121;" d="M1023.978,418.004c-4.072,0-8.197-1.037-11.977-3.219l-165.46-95.52
						c-11.479-6.627-15.413-21.305-8.786-32.784c6.626-11.48,21.305-15.414,32.784-8.786l165.46,95.52
						c11.479,6.627,15.413,21.305,8.786,32.784C1040.34,413.699,1032.271,418.004,1023.978,418.004z"/>
				</g>
				<g>
					<path style="fill:#212121;" d="M1296.8,890.5c-4.046,0-8.094-1.022-11.742-3.068l-0.16-0.09
						c-11.56-6.485-15.674-21.114-9.189-32.674c2.676-4.77,6.739-8.272,11.399-10.285L1545.6,695.144V518.17
						c0-13.255,10.745-24,24-24s24,10.745,24,24V709c0,8.574-4.574,16.498-12,20.785l-272.8,157.5
						C1305.089,889.427,1300.945,890.5,1296.8,890.5z"/>
				</g>
				<g>
					<path style="fill:#212121;" d="M1296.607,890.414c-4.072,0-8.198-1.037-11.978-3.22L1012,729.784
						c-7.426-4.287-12-12.21-12-20.784V394c0-8.575,4.575-16.498,12.001-20.785l165.46-95.52
						c11.479-6.627,26.156-2.694,32.784,8.786c6.627,11.479,2.693,26.157-8.786,32.784L1048,407.857v287.287l260.63,150.482
						c11.479,6.627,15.412,21.306,8.784,32.785C1312.969,886.109,1304.901,890.414,1296.607,890.414z"/>
				</g>
				<g>
					<path style="fill:#212121;" d="M1569.6,1553.83c-13.255,0-24-10.745-24-24v-176.974l-248.8-143.644L1036,1359.784
						c-11.48,6.629-26.157,2.695-32.785-8.784c-6.627-11.479-2.693-26.157,8.785-32.784l272.8-157.5c7.426-4.287,16.574-4.287,24,0
						l272.8,157.5c7.426,4.287,12,12.21,12,20.784v190.83C1593.6,1543.085,1582.854,1553.83,1569.6,1553.83z"/>
				</g>
				<g>
					<path style="fill:#212121;" d="M1189.438,1773.523c-4.072,0-8.196-1.037-11.977-3.219l-165.46-95.52
						c-11.479-6.627-15.413-21.305-8.786-32.784c6.628-11.48,21.304-15.412,32.784-8.786l165.46,95.52
						c11.479,6.627,15.413,21.305,8.786,32.784C1205.8,1769.218,1197.731,1773.523,1189.438,1773.523z"/>
				</g>
				<g>
					<path style="fill:#212121;" d="M858.562,1773.523c-8.295,0-16.362-4.305-20.808-12.005
						c-6.627-11.479-2.693-26.157,8.786-32.784L1000,1640.143v-287.286l-248.8-143.644l-248.8,143.644v176.974
						c0,13.255-10.745,24-24,24s-24-10.745-24-24V1339c0-8.574,4.574-16.497,12-20.784l272.8-157.5c7.426-4.289,16.574-4.289,24,0
						l272.8,157.5c7.426,4.287,12,12.21,12,20.784v315c0,8.574-4.575,16.498-12.001,20.785l-165.46,95.52
						C866.76,1772.486,862.634,1773.523,858.562,1773.523z"/>
				</g>
				<g>
					<path style="fill:#212121;" d="M478.23,1362.72c-4.152,0-8.304-1.076-12.022-3.229l-165.49-95.779
						c-11.472-6.64-15.39-21.321-8.75-32.794c6.64-11.472,21.322-15.392,32.794-8.749l153.497,88.838l248.956-143.389l0.3-287.278
						L478.858,736.432l-153.9,88.636c-11.487,6.616-26.161,2.667-32.775-8.819c-6.615-11.486-2.667-26.16,8.819-32.775
						l165.992-95.597c7.417-4.233,16.526-4.207,23.917,0.072l272.045,157.444c0.061,0.034,0.122,0.068,0.183,0.102l0.159,0.09
						c7.563,4.255,12.24,12.263,12.231,20.941l-0.33,315c-0.009,8.574-4.592,16.492-12.021,20.771l-272.97,157.22
						C486.501,1361.652,482.365,1362.72,478.23,1362.72z"/>
				</g>
				<g>
					<path style="fill:#212121;" d="M1569.77,1362.72c-4.136,0-8.271-1.067-11.979-3.203l-272.97-157.22
						c-7.43-4.279-12.013-12.197-12.021-20.771l-0.33-315c-0.009-8.69,4.68-16.706,12.258-20.957l0.16-0.09
						c0.047-0.026,0.093-0.052,0.14-0.078l272.062-157.453c7.398-4.283,16.516-4.306,23.936-0.062l0.489,0.28l165.483,95.307
						c11.486,6.615,15.435,21.289,8.82,32.775c-6.615,11.485-21.29,15.434-32.775,8.819l-153.9-88.636L1320.484,880.34
						l0.301,287.278l248.955,143.389l153.498-88.838c11.473-6.64,26.153-2.721,32.793,8.749c6.64,11.473,2.723,26.154-8.749,32.794
						l-165.49,95.779C1578.073,1361.644,1573.921,1362.72,1569.77,1362.72z"/>
				</g>
			</g>
		</g>
	</g>
</g>
<g id="Layer_1">
</g>
</svg>
