<?xml version="1.0" encoding="iso-8859-1"?>
<!-- Generator: Adobe Illustrator 25.2.0, SVG Export Plug-In . SVG Version: 6.00 Build 0)  -->
<svg version="1.1" xmlns="http://www.w3.org/2000/svg" xmlns:xlink="http://www.w3.org/1999/xlink" x="0px" y="0px"
	 viewBox="0 0 2048 2048" style="enable-background:new 0 0 2048 2048;" xml:space="preserve">
<g id="_x32_636.S2_-_Whistle">
	<g>
		<g id="XMLID_14_">
			<g>
				<g>
					<path style="fill:#FF9911;" d="M576.89,557.48H501.2c-18.07,0-34.66-6.42-47.59-17.1c-4.11-38.97-13.04-62.88-26.64-65.18
						c-0.05-0.01-0.09-0.02-0.14-0.02c3.8-37.74,35.64-67.19,74.37-67.19h257.45v71.36c-16.59,4.94-32.97,10.82-49.07,17.63
						c-37.24,15.75-71.96,36.01-103.75,60.5H576.89z"/>
				</g>
				<g>
					<polygon style="fill:#FF9911;" points="1048.79,383.08 1148.45,557.48 1023.87,557.48 924.21,383.08 					"/>
				</g>
				<g>
					<path style="fill:#FFDC4A;" d="M1771.32,756.8v174.4h-504.53c0,206.4-167.32,373.72-373.72,373.72S519.35,1137.6,519.35,931.2
						c0-30.03,3.54-59.23,10.23-87.2c39.28-164.34,187.12-286.52,363.49-286.52h130.8h124.58h622.87V756.8z M1092.39,931.2
						c0-110.08-89.24-199.32-199.32-199.32S693.75,821.12,693.75,931.2s89.24,199.32,199.32,199.32S1092.39,1041.28,1092.39,931.2z"
						/>
				</g>
				<g>
					<polygon style="fill:#FFE577;" points="1621.83,383.08 1771.32,557.48 1148.45,557.48 1048.79,383.08 					"/>
				</g>
				<g>
					<circle style="fill:#FF9911;" cx="893.07" cy="931.2" r="199.32"/>
				</g>
				<g>
					<path style="fill:#FFE577;" d="M924.21,383.08l99.66,174.4h-130.8c-176.37,0-324.21,122.18-363.49,286.52
						c-6.69-27.98-10.23-57.18-10.23-87.2c0-73.28,21.09-141.63,57.54-199.32h28.94c31.79-24.49,66.51-44.75,103.75-60.5
						c16.1-6.81,32.48-12.69,49.07-17.63v-71.36c41.72-16.09,87.04-24.91,134.42-24.91H924.21z"/>
				</g>
			</g>
			<g>
				<g>
					<path style="fill:#212121;" d="M1771.32,581.48h-622.87c-13.255,0-24-10.745-24-24s10.745-24,24-24h622.87
						c13.255,0,24,10.745,24,24S1784.575,581.48,1771.32,581.48z"/>
				</g>
				<g>
					<path style="fill:#212121;" d="M893.07,1328.92c-53.681,0-105.77-10.519-154.818-31.265
						c-47.363-20.033-89.895-48.707-126.413-85.225c-36.518-36.519-65.192-79.05-85.225-126.413
						C505.869,1036.97,495.35,984.881,495.35,931.2c0-31.359,3.664-62.576,10.888-92.783c20.424-85.45,69.68-162.89,138.693-218.052
						c34.492-27.569,72.979-49.044,114.391-63.83c42.851-15.298,87.85-23.056,133.747-23.056h130.8c13.255,0,24,10.745,24,24
						s-10.745,24-24,24h-130.8c-162.544,0-302.418,110.247-340.147,268.099c-6.352,26.558-9.572,54.018-9.572,81.621
						c0,192.836,156.884,349.72,349.72,349.72c192.836,0,349.72-156.884,349.72-349.72c0-13.255,10.745-24,24-24h480.53V756.8
						c0-13.255,10.745-24,24-24s24,10.745,24,24v174.4c0,13.255-10.745,24-24,24h-481.236
						c-2.673,45.211-12.919,89.113-30.559,130.818c-20.033,47.363-48.707,89.894-85.225,126.413
						c-36.519,36.518-79.05,65.191-126.413,85.225C998.839,1318.401,946.751,1328.92,893.07,1328.92z"/>
				</g>
				<g>
					<path style="fill:#212121;" d="M529.56,868.005c-10.851,0-20.688-7.409-23.322-18.424
						c-7.225-30.217-10.888-61.433-10.888-92.781c0-75.363,21.18-148.72,61.25-212.139c0.815-1.291,1.752-2.5,2.797-3.612l0.31-0.33
						c9.074-9.661,24.263-10.137,33.924-1.061c9.031,8.483,10.035,22.308,2.715,31.967C561.672,627.055,543.35,691.052,543.35,756.8
						c0,27.594,3.221,55.055,9.572,81.619c3.082,12.892-4.87,25.841-17.761,28.923C533.285,867.791,531.408,868.005,529.56,868.005z
						"/>
				</g>
				<g>
					<path style="fill:#212121;" d="M1771.32,780.8c-13.255,0-24-10.745-24-24V566.358L1610.792,407.08H1048.79
						c-13.255,0-24-10.745-24-24s10.745-24,24-24h573.04c7.006,0,13.662,3.062,18.222,8.381l149.49,174.4
						c3.729,4.35,5.778,9.89,5.778,15.619V756.8C1795.32,770.055,1784.575,780.8,1771.32,780.8z"/>
				</g>
				<g>
					<path style="fill:#212121;" d="M758.655,431.997c-9.635,0-18.723-5.842-22.398-15.37c-4.77-12.367,1.39-26.259,13.756-31.028
						c45.624-17.596,93.755-26.518,143.056-26.518h31.14c13.255,0,24,10.745,24,24s-10.745,24-24,24h-31.14
						c-43.372,0-85.692,7.84-125.784,23.303C764.447,431.478,761.526,431.997,758.655,431.997z"/>
				</g>
				<g>
					<path style="fill:#212121;" d="M893.07,1154.52c-59.65,0-115.73-23.229-157.91-65.409c-42.18-42.18-65.41-98.26-65.41-157.91
						c0-59.65,23.229-115.73,65.41-157.911c42.18-42.18,98.26-65.41,157.91-65.41c59.65,0,115.731,23.229,157.911,65.41
						c42.18,42.18,65.409,98.26,65.409,157.911s-23.229,115.73-65.409,157.91S952.72,1154.52,893.07,1154.52z M893.07,755.88
						c-96.672,0-175.32,78.648-175.32,175.32c0,96.671,78.648,175.319,175.32,175.319s175.32-78.648,175.32-175.319
						C1068.39,834.528,989.742,755.88,893.07,755.88z"/>
				</g>
				<g>
					<path style="fill:#212121;" d="M605.83,581.48H501.2c-22.904,0-45.233-8.025-62.875-22.596
						c-10.219-8.441-11.661-23.568-3.22-33.788c8.442-10.219,23.569-11.661,33.788-3.22c9.19,7.591,20.362,11.604,32.306,11.604
						h96.572c31.59-23.497,66.019-43.193,102.459-58.604c11.277-4.77,22.798-9.146,34.418-13.075V431.99H501.2
						c-26.094,0-47.751,19.489-50.468,45.373c-1.103,12.232-11.383,21.822-23.902,21.822c-13.255,0-24-10.74-24-23.995
						c0-0.803,0.04-1.615,0.121-2.414c2.441-24.241,13.739-46.649,31.814-63.095c18.208-16.567,41.801-25.691,66.436-25.691h257.45
						c13.255,0,24,10.745,24,24v71.36c0,10.617-6.976,19.972-17.151,23.002c-15.718,4.681-31.387,10.31-46.569,16.732
						c-35.21,14.892-68.334,34.206-98.453,57.409C616.279,579.727,611.129,581.48,605.83,581.48z"/>
				</g>
				<g>
					<path style="fill:#212121;" d="M314.974,1174.196c-2.117,0-4.245-0.181-6.384-0.544c-18.867-3.197-32.306-19.453-39.942-48.316
						c-5.327-20.132-8.406-47.523-9.152-81.412c-1.48-67.273,6.252-154.756,21.772-246.334c15.503-91.444,37-176.502,60.532-239.507
						c11.851-31.73,23.764-56.583,35.408-73.87c16.438-24.403,34.165-35.452,52.706-32.838c0.462,0.059,0.925,0.131,1.39,0.218
						c33.859,6.014,42.57,52.086,46.175,86.269c7.203,68.085,0.032,176.4-19.185,289.739
						c-15.519,91.57-37.044,176.714-60.611,239.747c-11.87,31.748-23.802,56.594-35.464,73.847
						C347.394,1163.125,331.528,1174.195,314.974,1174.196z M422.05,504.243c-7.604,9.16-22.03,31.886-40.877,86.177
						c-20.288,58.44-38.961,134.863-52.58,215.192c-13.615,80.334-21.169,158.646-21.272,220.506
						c-0.096,57.474,6.039,83.681,10.2,94.832c7.604-9.159,22.031-31.885,40.876-86.173
						c20.287-58.442,38.958-134.867,52.571-215.197c18.527-109.271,25.546-212.701,18.776-276.674c0-0.003,0-0.006-0.001-0.009
						C427.599,522.57,424.485,510.799,422.05,504.243z"/>
				</g>
				<g>
					<path style="fill:#212121;" d="M1148.45,581.48h-124.58c-8.612,0-16.564-4.615-20.838-12.092l-99.66-174.4
						c-4.245-7.428-4.214-16.554,0.08-23.954c4.294-7.4,12.203-11.954,20.758-11.954h124.58c8.612,0,16.564,4.615,20.838,12.092
						l99.66,174.4c4.244,7.428,4.214,16.554-0.08,23.954C1164.914,576.926,1157.006,581.48,1148.45,581.48z M1037.798,533.48h69.296
						l-72.231-126.4h-69.295L1037.798,533.48z"/>
				</g>
			</g>
		</g>
	</g>
</g>
<g id="Layer_1">
</g>
</svg>
