<?xml version="1.0" encoding="iso-8859-1"?>
<!-- Generator: Adobe Illustrator 25.2.0, SVG Export Plug-In . SVG Version: 6.00 Build 0)  -->
<svg version="1.1" xmlns="http://www.w3.org/2000/svg" xmlns:xlink="http://www.w3.org/1999/xlink" x="0px" y="0px"
	 viewBox="0 0 2048 2048" style="enable-background:new 0 0 2048 2048;" xml:space="preserve">
<g id="_x32_637.S2_-_Darts">
	<g id="XMLID_15_">
		<g>
			<g>
				<path style="fill:#898890;" d="M1075.21,972.79c13.14,13.15,21.27,31.31,21.27,51.36c0,40.12-32.52,72.63-72.63,72.63
					c-40.12,0-72.63-32.51-72.63-72.63c0-40.11,32.51-72.63,72.63-72.63C1043.9,951.52,1062.06,959.65,1075.21,972.79z"/>
			</g>
			<g>
				
					<rect x="1431.917" y="470.822" transform="matrix(0.7071 -0.7071 0.7071 0.7071 80.6003 1233.0764)" style="fill:#FF9911;" width="193.677" height="96.845"/>
			</g>
			<g>
				<polygon style="fill:#FF9911;" points="1366.16,750.31 1297.69,818.79 1229.21,750.31 1297.69,681.84 				"/>
			</g>
			<g>
				<path style="fill:#FF9911;" d="M1229.21,887.27l-34.24,34.24c-0.31,0.31-0.63,0.62-0.95,0.93
					c-9.33,8.83-21.31,13.25-33.29,13.25s-23.96-4.42-33.29-13.25l-0.95-0.93c-0.31-0.31-0.62-0.63-0.93-0.95
					c-17.67-18.66-17.67-47.92,0-66.58c0.31-0.32,0.62-0.64,0.93-0.95l34.24-34.24L1229.21,887.27z"/>
			</g>
			<g>
				
					<rect x="1180.787" y="770.367" transform="matrix(0.7071 -0.7071 0.7071 0.7071 -218.9447 1109.0007)" style="fill:#FFDC4A;" width="96.845" height="96.845"/>
			</g>
			<g>
				<g>
					<polygon style="fill:#FF4B58;" points="1785.54,467.89 1614.35,639.08 1477.4,639.08 1494.52,621.96 1631.47,485.01 
						1648.59,467.89 					"/>
				</g>
			</g>
			<g>
				<path style="fill:#898890;" d="M1678.44,709.09c45.96,95.3,71.71,202.17,71.71,315.06c0,401.14-325.17,726.31-726.3,726.31
					c-401.14,0-726.31-325.17-726.31-726.31c0-401.13,325.17-726.3,726.31-726.3c112.89,0,219.76,25.75,315.06,71.71l-24.81,151.12
					c-85.41-49.34-184.54-77.57-290.25-77.57c-320.91,0-581.05,260.14-581.05,581.04c0,320.91,260.14,581.05,581.05,581.05
					c320.9,0,581.04-260.14,581.04-581.05c0-105.71-28.23-204.84-77.57-290.25L1678.44,709.09z"/>
			</g>
			<g>
				<path style="fill:#E1E6E9;" d="M1527.32,733.9c49.34,85.41,77.57,184.54,77.57,290.25c0,320.91-260.14,581.05-581.04,581.05
					c-320.91,0-581.05-260.14-581.05-581.05c0-320.9,260.14-581.04,581.05-581.04c105.71,0,204.84,28.23,290.25,77.57
					l-100.45,111.09c-57.37-27.81-121.76-43.4-189.8-43.4c-240.68,0-435.79,195.1-435.79,435.78s195.11,435.79,435.79,435.79
					s435.78-195.11,435.78-435.79c0-68.04-15.59-132.43-43.4-189.8L1527.32,733.9z"/>
			</g>
			<g>
				<g>
					<polygon style="fill:#FF4B58;" points="1580.11,262.46 1580.11,399.41 1562.99,416.53 1426.04,553.48 1408.92,570.6 
						1408.92,433.65 					"/>
				</g>
			</g>
			<g>
				<polygon style="fill:#FFDC4A;" points="1494.52,621.96 1477.4,639.08 1366.16,750.31 1297.69,681.84 1408.92,570.6 
					1426.04,553.48 				"/>
			</g>
			<g>
				<path style="fill:#898890;" d="M1416.23,834.35c27.81,57.37,43.4,121.76,43.4,189.8c0,240.68-195.1,435.79-435.78,435.79
					s-435.79-195.11-435.79-435.79s195.11-435.78,435.79-435.78c68.04,0,132.43,15.59,189.8,43.4l-92.86,92.86
					c-30.54-9.87-63.12-15.21-96.94-15.21c-173.82,0-314.74,140.91-314.74,314.73s140.92,314.74,314.74,314.74
					s314.73-140.92,314.73-314.74c0-33.82-5.34-66.4-15.21-96.94L1416.23,834.35z"/>
			</g>
			<g>
				<path style="fill:#E1E6E9;" d="M1323.37,927.21c9.87,30.54,15.21,63.12,15.21,96.94c0,173.82-140.91,314.74-314.73,314.74
					s-314.74-140.92-314.74-314.74s140.92-314.73,314.74-314.73c33.82,0,66.4,5.34,96.94,15.21l-91.6,105.91
					c-1.77-0.05-3.56-0.07-5.34-0.07c-106.97,0-193.68,86.72-193.68,193.68c0,106.97,86.71,193.68,193.68,193.68
					c106.96,0,193.68-86.71,193.68-193.68c0-1.76-0.02-3.53-0.07-5.28L1323.37,927.21z"/>
			</g>
		</g>
		<g>
			<g>
				<path style="fill:#212121;" d="M1023.85,1241.83c-58.146,0-112.811-22.643-153.924-63.756
					c-41.113-41.113-63.755-95.778-63.755-153.924c0-58.142,22.642-112.806,63.755-153.92
					c39.785-39.786,92.254-62.275,148.291-63.689l84.422-97.611c8.671-10.024,23.826-11.124,33.853-2.453
					c10.025,8.671,11.123,23.827,2.452,33.853l-91.6,105.91c-4.714,5.45-11.653,8.483-18.827,8.291
					c-1.443-0.041-2.97-0.061-4.666-0.061c-93.562,0-169.68,76.118-169.68,169.68c0,93.562,76.118,169.68,169.68,169.68
					c93.562,0,169.681-76.118,169.681-169.68c0-1.638-0.021-3.184-0.061-4.597c-0.205-7.202,2.837-14.115,8.284-18.83l105.91-91.66
					c10.025-8.675,25.181-7.58,33.854,2.442c8.674,10.022,7.581,25.179-2.441,33.853l-97.618,84.484
					c-1.429,56.012-23.917,108.463-63.688,148.233C1136.655,1219.188,1081.992,1241.83,1023.85,1241.83z"/>
			</g>
			<g>
				<path style="fill:#212121;" d="M1023.85,1120.78c-53.282,0-96.629-43.348-96.629-96.63c0-53.282,43.348-96.63,96.629-96.63
					c25.801,0,50.065,10.048,68.324,28.293c18.259,18.272,28.307,42.537,28.307,68.337
					C1120.48,1077.432,1077.132,1120.78,1023.85,1120.78z M1023.85,975.52c-26.814,0-48.629,21.815-48.629,48.63
					c0,26.815,21.815,48.63,48.629,48.63c26.815,0,48.631-21.815,48.631-48.63c0-12.985-5.06-25.201-14.248-34.396
					C1049.052,980.58,1036.836,975.52,1023.85,975.52z"/>
			</g>
			<g>
				<path style="fill:#212121;" d="M1408.92,594.6c-6.143,0-12.284-2.343-16.971-7.029c-9.372-9.373-9.372-24.569,0-33.941
					l154.07-154.07c9.373-9.372,24.568-9.372,33.941,0c9.372,9.373,9.372,24.569,0,33.941l-154.07,154.07
					C1421.204,592.257,1415.062,594.6,1408.92,594.6z"/>
			</g>
			<g>
				<path style="fill:#212121;" d="M1125.562,944.56c-6.293,0-12.576-2.459-17.287-7.349c-26.986-28.012-26.983-71.888,0.005-99.887
					c9.199-9.542,24.392-9.823,33.936-0.624c9.543,9.199,9.822,24.392,0.623,33.936c-8.988,9.325-8.986,23.94,0.005,33.273
					c9.196,9.545,8.913,24.739-0.633,33.935C1137.555,942.33,1131.554,944.56,1125.562,944.56z"/>
			</g>
			<g>
				<path style="fill:#212121;" d="M1160.733,959.963c-17.97,0-35.938-6.746-49.944-20.239c-9.546-9.197-9.829-24.39-0.632-33.936
					c9.196-9.545,24.391-9.828,33.935-0.632c9.334,8.991,23.947,8.993,33.271,0.004c9.543-9.199,24.735-8.92,33.936,0.623
					c9.199,9.543,8.92,24.736-0.623,33.936C1196.676,953.214,1178.704,959.963,1160.733,959.963z"/>
			</g>
			<g>
				<path style="fill:#212121;" d="M1297.69,842.79c-6.143,0-12.282-2.342-16.97-7.028c-9.373-9.372-9.374-24.568-0.002-33.941
					l68.47-68.48l128.36-128.351l136.95-136.951c9.373-9.372,24.568-9.372,33.941,0c9.372,9.373,9.372,24.569,0,33.941
					l-154.069,154.07L1383.13,767.281l-68.468,68.478C1309.977,840.446,1303.832,842.79,1297.69,842.79z"/>
			</g>
			<g>
				<path style="fill:#212121;" d="M1040.9,1031.1c-6.143,0-12.284-2.343-16.971-7.029c-9.372-9.373-9.372-24.568,0-33.941
					l85.59-85.591c9.373-9.372,24.568-9.372,33.941,0c9.372,9.373,9.372,24.569,0,33.941l-85.59,85.59
					C1053.185,1028.757,1047.043,1031.1,1040.9,1031.1z"/>
			</g>
			<g>
				<path style="fill:#212121;" d="M1229.21,911.27c-6.143,0-12.284-2.343-16.971-7.029l-68.479-68.48
					c-9.372-9.373-9.372-24.569,0-33.941c9.373-9.371,24.57-9.372,33.941,0l68.479,68.48c9.372,9.373,9.372,24.569,0,33.941
					C1241.495,908.926,1235.352,911.27,1229.21,911.27z"/>
			</g>
			<g>
				<path style="fill:#212121;" d="M1297.69,842.79c-6.143,0-12.284-2.343-16.971-7.029l-68.48-68.48
					c-9.372-9.373-9.372-24.568,0-33.941c9.373-9.372,24.568-9.372,33.941,0l68.48,68.48c9.372,9.373,9.372,24.568,0,33.941
					C1309.975,840.447,1303.833,842.79,1297.69,842.79z"/>
			</g>
			<g>
				<path style="fill:#212121;" d="M1366.16,774.31c-6.143,0-12.284-2.343-16.971-7.029l-68.47-68.47
					c-9.372-9.373-9.372-24.569,0-33.941c9.373-9.372,24.57-9.372,33.941,0l68.47,68.47c9.372,9.373,9.372,24.569,0,33.941
					C1378.445,771.966,1372.302,774.31,1366.16,774.31z"/>
			</g>
			<g>
				<path style="fill:#212121;" d="M1494.52,645.96c-6.143,0-12.284-2.343-16.971-7.029l-68.479-68.48
					c-9.372-9.373-9.372-24.569,0-33.941c9.372-9.372,24.569-9.372,33.941,0l68.479,68.48c9.372,9.373,9.372,24.569,0,33.941
					C1506.805,643.616,1500.661,645.96,1494.52,645.96z"/>
			</g>
			<g>
				<path style="fill:#212121;" d="M1160.73,959.69c-18.604,0-36.285-7.039-49.788-19.82c-0.098-0.092-0.194-0.186-0.291-0.28
					l-0.95-0.93c-0.052-0.051-0.104-0.102-0.154-0.153c-0.369-0.367-0.737-0.745-1.105-1.124l-0.101-0.104
					c-0.069-0.072-0.139-0.144-0.208-0.217c-26.439-27.921-26.439-71.663,0-99.584c0.069-0.073,0.139-0.145,0.208-0.217l0.104-0.108
					c0.363-0.374,0.726-0.746,1.088-1.107L1384.92,560.66V433.65c0-6.365,2.528-12.47,7.029-16.971l171.19-171.19
					c6.865-6.864,17.186-8.918,26.155-5.202c8.968,3.714,14.815,12.466,14.815,22.173v136.95c0,6.365-2.528,12.47-7.029,16.971
					l-0.149,0.149l34.538,34.539l0.149-0.149c4.501-4.501,10.605-7.029,16.971-7.029h136.95c9.707,0,18.458,5.848,22.173,14.815
					c3.715,8.968,1.662,19.291-5.202,26.155l-171.19,171.19c-4.501,4.5-10.605,7.029-16.971,7.029h-127.008l-275.401,275.4
					c-0.392,0.392-0.81,0.798-1.229,1.204c-0.064,0.062-0.129,0.124-0.194,0.186C1197.015,952.651,1179.333,959.69,1160.73,959.69z
					 M1194.02,922.44h0.01H1194.02z M1144.062,905.126c4.535,4.234,10.448,6.563,16.668,6.563c6.241,0,12.173-2.346,16.715-6.608
					c0.183-0.176,0.364-0.353,0.541-0.529l282.443-282.443c4.501-4.501,10.605-7.029,16.971-7.029h127.008l123.19-123.19h-69.068
					l-10.09,10.09c-9.373,9.373-24.568,9.373-33.941,0l-68.479-68.48c-4.501-4.501-7.029-10.606-7.029-16.971
					c0-6.365,2.528-12.47,7.029-16.971l10.091-10.09v-69.068l-123.19,123.19V570.6c0,6.365-2.528,12.469-7.028,16.97
					l-111.229,111.24L1143.461,870c-0.193,0.193-0.373,0.379-0.554,0.565c-8.807,9.388-8.81,24.014-0.004,33.404
					c0.156,0.161,0.312,0.323,0.468,0.48L1144.062,905.126z"/>
			</g>
			<g>
				<path style="fill:#212121;" d="M1023.85,1362.89c-45.718,0-90.081-8.96-131.858-26.631
					c-40.339-17.062-76.563-41.484-107.665-72.586s-55.523-67.326-72.586-107.665c-17.671-41.777-26.631-86.14-26.631-131.858
					c0-45.717,8.96-90.081,26.631-131.856c17.062-40.338,41.484-76.561,72.586-107.662c31.102-31.101,67.326-55.521,107.665-72.583
					c41.777-17.669,86.14-26.629,131.857-26.629c30.612,0,60.849,4.072,90.092,12.118l82.738-82.739
					c9.374-9.373,24.569-9.371,33.941,0c9.372,9.373,9.372,24.569,0,33.941l-92.86,92.86c-6.372,6.373-15.777,8.638-24.352,5.866
					c-28.84-9.321-58.973-14.047-89.56-14.047c-160.314,0-290.74,130.421-290.74,290.73c0,160.315,130.425,290.74,290.74,290.74
					c160.31,0,290.73-130.425,290.73-290.74c0-30.587-4.726-60.719-14.047-89.56c-2.771-8.575-0.506-17.979,5.866-24.351
					l92.86-92.86c9.372-9.372,24.569-9.372,33.941,0c9.372,9.373,9.372,24.569,0,33.941l-82.739,82.738
					c8.047,29.242,12.118,59.479,12.118,90.091c0,45.718-8.959,90.081-26.629,131.857c-17.062,40.34-41.482,76.563-72.583,107.666
					c-31.101,31.102-67.323,55.523-107.662,72.586C1113.931,1353.93,1069.567,1362.89,1023.85,1362.89z"/>
			</g>
			<g>
				<path style="fill:#212121;" d="M1023.85,1483.94c-62.061,0-122.277-12.16-178.978-36.143
					c-54.754-23.159-103.924-56.309-146.142-98.527c-42.219-42.219-75.368-91.388-98.527-146.143
					c-23.982-56.7-36.143-116.917-36.143-178.978s12.16-122.277,36.143-178.977c23.159-54.753,56.308-103.921,98.527-146.139
					s91.388-75.365,146.143-98.523c56.7-23.981,116.917-36.141,178.978-36.141c64.095,0,125.844,12.849,183.826,38.223l88.622-98.01
					c8.89-9.832,24.065-10.595,33.898-1.705c9.831,8.89,10.595,24.067,1.705,33.898l-100.449,111.09
					c-7.155,7.912-18.672,10.153-28.271,5.5c-56.118-27.203-116.454-40.996-179.332-40.996c-227.062,0-411.79,184.724-411.79,411.78
					c0,227.062,184.728,411.791,411.79,411.791c227.057,0,411.78-184.729,411.78-411.791c0-62.877-13.793-123.212-40.996-179.331
					c-4.652-9.599-2.412-21.116,5.5-28.271l111.09-100.45c9.833-8.89,25.008-8.126,33.898,1.705
					c8.89,9.832,8.127,25.008-1.705,33.898l-98.01,88.623c25.373,57.983,38.223,119.732,38.223,183.826
					c0,62.061-12.159,122.278-36.141,178.978c-23.158,54.755-56.307,103.924-98.523,146.143
					c-42.218,42.219-91.386,75.368-146.139,98.527C1146.127,1471.78,1085.91,1483.94,1023.85,1483.94z"/>
			</g>
			<g>
				<path style="fill:#212121;" d="M1023.85,1774.46c-101.283,0-199.548-19.841-292.066-58.972
					c-89.35-37.79-169.588-91.887-238.487-160.785s-122.995-149.138-160.786-238.487c-39.13-92.518-58.971-190.782-58.971-292.066
					c0-101.281,19.841-199.544,58.971-292.06c37.791-89.349,91.887-169.586,160.786-238.484
					c68.899-68.898,149.137-122.994,238.487-160.785c92.518-39.13,190.783-58.971,292.065-58.971
					c57.232,0,114.27,6.472,169.528,19.236c53.755,12.417,106.227,30.873,155.958,54.857c9.585,4.623,14.981,15.004,13.257,25.505
					l-24.811,151.12c-1.276,7.777-6.291,14.432-13.414,17.804c-7.124,3.372-15.449,3.031-22.273-0.911
					c-84.2-48.642-180.415-74.352-278.245-74.352c-307.158,0-557.05,249.887-557.05,557.04c0,307.159,249.892,557.05,557.05,557.05
					c307.153,0,557.04-249.892,557.04-557.05c0-97.829-25.71-194.044-74.351-278.245c-3.943-6.825-4.283-15.15-0.911-22.274
					c3.372-7.124,10.026-12.138,17.805-13.415l151.12-24.81c10.494-1.72,20.883,3.672,25.505,13.258
					c23.984,49.731,42.44,102.203,54.857,155.958c12.764,55.258,19.235,112.296,19.235,169.528
					c0,101.283-19.841,199.548-58.972,292.066c-37.79,89.35-91.886,169.588-160.784,238.487
					c-68.897,68.898-149.136,122.994-238.484,160.785C1223.394,1754.619,1125.131,1774.46,1023.85,1774.46z M1023.85,321.85
					c-387.255,0-702.31,315.05-702.31,702.3c0,387.255,315.055,702.31,702.31,702.31c387.25,0,702.301-315.055,702.301-702.31
					c0-100.732-20.77-197.676-61.762-288.432l-99.963,16.411c42.264,83.963,64.464,177.303,64.464,272.021
					c0,81.671-16,160.913-47.557,235.522c-30.475,72.052-74.097,136.756-129.655,192.314
					c-55.558,55.559-120.261,99.182-192.312,129.657c-74.607,31.556-153.847,47.557-235.517,47.557
					c-81.672,0-160.913-16-235.522-47.557c-72.052-30.476-136.756-74.098-192.314-129.657
					c-55.559-55.559-99.182-120.263-129.657-192.314C434.8,1185.062,418.8,1105.821,418.8,1024.15
					c0-81.669,16-160.909,47.557-235.517c30.475-72.051,74.098-136.753,129.656-192.312s120.263-99.18,192.314-129.655
					c74.609-31.556,153.85-47.557,235.522-47.557c94.719,0,188.058,22.2,272.021,64.464l16.412-99.962
					C1221.526,342.62,1124.583,321.85,1023.85,321.85z"/>
			</g>
		</g>
	</g>
</g>
<g id="Layer_1">
</g>
</svg>
