<?xml version="1.0" encoding="iso-8859-1"?>
<!-- Generator: Adobe Illustrator 25.2.0, SVG Export Plug-In . SVG Version: 6.00 Build 0)  -->
<svg version="1.1" xmlns="http://www.w3.org/2000/svg" xmlns:xlink="http://www.w3.org/1999/xlink" x="0px" y="0px"
	 viewBox="0 0 2048 2048" style="enable-background:new 0 0 2048 2048;" xml:space="preserve">
<g id="_x32_638.S2_-_StopWatch">
	<g>
		<g id="XMLID_16_">
			<g>
				<g>
					<path style="fill:#FFE577;" d="M1560.48,619.71l-72.93,72.93c-22.21-23.96-46.25-46.19-71.9-66.46l0.01-0.01l75.64-75.64
						L1560.48,619.71z"/>
				</g>
				<g>
					<path style="fill:#FFE577;" d="M632.34,626.17l0.01,0.01c-25.65,20.27-49.69,42.5-71.9,66.46l-72.93-72.93l69.18-69.18
						L632.34,626.17z"/>
				</g>
				<g>
					<path style="fill:#FFE577;" d="M1097.38,494.4v0.01c-24.07-2.79-48.56-4.22-73.38-4.22c-24.82,0-49.31,1.43-73.38,4.22v-0.01
						V363.86h146.76V494.4z"/>
				</g>
				<g>
					<polygon style="fill:#FF9911;" points="1219.68,266.02 1219.68,363.86 1097.38,363.86 950.62,363.86 828.32,363.86 
						828.32,266.02 					"/>
				</g>
				<g>
					
						<rect x="1511.567" y="428.222" transform="matrix(0.7071 -0.7071 0.7071 0.7071 67.7584 1264.63)" style="fill:#FF9911;" width="97.835" height="244.595"/>
				</g>
				<g>
					
						<rect x="365.217" y="501.602" transform="matrix(0.7071 -0.7071 0.7071 0.7071 -246.4879 505.99)" style="fill:#FF9911;" width="244.595" height="97.835"/>
				</g>
				<g>
					<path style="fill:#C9CFD1;" d="M1097.38,1122.11c0,2.69-0.14,5.35-0.43,7.96c-3.97,36.78-35.11,65.41-72.95,65.41
						c-40.53,0-73.38-32.85-73.38-73.37c0-21.74,9.45-41.26,24.46-54.69c12.98-11.63,30.13-18.69,48.92-18.69
						c18.79,0,35.94,7.06,48.92,18.69C1087.93,1080.85,1097.38,1100.37,1097.38,1122.11z"/>
				</g>
				<g>
					<path style="fill:#898890;" d="M1072.92,950.89v116.53c-12.98-11.63-30.13-18.69-48.92-18.69c-18.79,0-35.94,7.06-48.92,18.69
						V950.89c0-27.02,21.9-48.92,48.92-48.92c13.51,0,25.74,5.47,34.59,14.33C1067.45,925.15,1072.92,937.37,1072.92,950.89z"/>
				</g>
				<g>
					<path style="fill:#898890;" d="M1229.81,1262.93c19.1,19.11,19.1,50.08,0,69.18c-9.56,9.55-22.07,14.33-34.59,14.33
						s-25.05-4.78-34.6-14.33L1024,1195.48c37.84,0,68.98-28.63,72.95-65.41L1229.81,1262.93z"/>
				</g>
				<g>
					<path style="fill:#FFDC4A;" d="M1487.55,692.64c104.48,112.73,168.36,263.64,168.36,429.47
						c0,348.99-282.91,631.91-631.91,631.91s-631.91-282.92-631.91-631.91c0-165.83,63.88-316.74,168.36-429.47
						c22.21-23.96,46.25-46.19,71.9-66.46c89.6-70.87,198.86-117.97,318.27-131.77c24.07-2.79,48.56-4.22,73.38-4.22
						c24.82,0,49.31,1.43,73.38,4.22c119.41,13.8,228.67,60.9,318.27,131.77C1441.3,646.45,1465.34,668.68,1487.55,692.64z
						 M1562.11,1122.11c0-148.59-60.23-283.13-157.61-380.51S1172.6,583.99,1024,583.99S740.88,644.22,643.5,741.6
						s-157.61,231.92-157.61,380.51s60.23,283.12,157.61,380.5s231.9,157.61,380.5,157.61s283.12-60.23,380.5-157.61
						S1562.11,1270.7,1562.11,1122.11z"/>
				</g>
				<g>
					<path style="fill:#E1E6E9;" d="M485.89,1122.11c0-148.59,60.23-283.13,157.61-380.51S875.4,583.99,1024,583.99
						s283.12,60.23,380.5,157.61s157.61,231.92,157.61,380.51s-60.23,283.12-157.61,380.5s-231.9,157.61-380.5,157.61
						s-283.12-60.23-380.5-157.61S485.89,1270.7,485.89,1122.11z M1229.81,1332.11c19.1-19.1,19.1-50.07,0-69.18l-132.86-132.86
						c0.29-2.61,0.43-5.27,0.43-7.96c0-21.74-9.45-41.26-24.46-54.69V950.89c0-13.52-5.47-25.74-14.33-34.59
						c-8.85-8.86-21.08-14.33-34.59-14.33c-27.02,0-48.92,21.9-48.92,48.92v116.53c-15.01,13.43-24.46,32.95-24.46,54.69
						c0,40.52,32.85,73.37,73.38,73.37l136.62,136.63c9.55,9.55,22.08,14.33,34.6,14.33S1220.25,1341.66,1229.81,1332.11z"/>
				</g>
			</g>
			<g>
				<g>
					<path style="fill:#212121;" d="M1024,1778.02c-88.538,0-174.44-17.346-255.319-51.555
						c-78.108-33.037-148.252-80.328-208.481-140.559c-60.229-60.229-107.519-130.373-140.556-208.481
						c-34.208-80.878-51.554-166.778-51.554-255.314c0-165.875,62.063-324.191,174.758-445.784
						c23.01-24.823,48.116-48.029,74.622-68.976c95.502-75.539,209.754-122.839,330.395-136.781
						c25.064-2.905,50.683-4.379,76.135-4.379s51.07,1.474,76.144,4.38c120.632,13.941,234.884,61.241,330.396,136.787
						c26.498,20.941,51.604,44.147,74.611,68.968c0.001,0,0.001,0,0.002,0.001c112.694,121.593,174.758,279.909,174.758,445.785
						c0,88.536-17.345,174.437-51.554,255.314c-33.037,78.108-80.326,148.252-140.556,208.481
						c-60.229,60.23-130.373,107.521-208.481,140.559C1198.439,1760.674,1112.538,1778.02,1024,1778.02z M1024,514.19
						c-23.613,0-47.372,1.366-70.617,4.061c-111.778,12.917-217.638,56.748-306.145,126.753
						c-24.58,19.424-47.855,40.938-69.188,63.952C473.609,821.645,416.09,968.373,416.09,1122.11
						c0,335.202,272.708,607.909,607.91,607.909c335.203,0,607.91-272.707,607.91-607.909c0-153.738-57.52-300.466-161.963-413.156
						c-21.331-23.012-44.606-44.526-69.178-63.944c-88.515-70.012-194.375-113.842-306.145-126.759
						C1071.371,515.556,1047.612,514.19,1024,514.19z"/>
				</g>
				<g>
					<path style="fill:#212121;" d="M1024,1684.22c-75.876,0-149.493-14.865-218.807-44.184
						c-66.936-28.312-127.047-68.839-178.664-120.455c-51.616-51.616-92.143-111.729-120.456-178.668
						c-29.318-69.315-44.184-142.931-44.184-218.803c0-75.873,14.865-149.49,44.183-218.808
						c28.314-66.943,68.841-127.058,120.456-178.673c51.617-51.616,111.728-92.144,178.664-120.456
						C874.507,574.855,948.124,559.99,1024,559.99s149.493,14.865,218.807,44.184c66.937,28.312,127.047,68.839,178.664,120.456
						c51.615,51.615,92.143,111.729,120.456,178.673c29.318,69.318,44.184,142.936,44.184,218.808
						c0,75.872-14.865,149.487-44.184,218.803c-28.313,66.939-68.841,127.052-120.456,178.668
						c-51.616,51.616-111.728,92.144-178.664,120.455C1173.493,1669.354,1099.876,1684.22,1024,1684.22z M1024,607.99
						c-137.322,0-266.426,53.477-363.529,150.581c-97.104,97.103-150.581,226.21-150.581,363.54
						c0,137.322,53.477,266.426,150.581,363.529c97.103,97.103,226.207,150.58,363.529,150.58
						c137.322,0,266.427-53.478,363.529-150.58c97.104-97.104,150.581-226.207,150.581-363.529
						c0-137.329-53.478-266.436-150.581-363.54S1161.322,607.99,1024,607.99z"/>
				</g>
				<g>
					<path style="fill:#212121;" d="M1024,754.75c-13.255,0-24-10.745-24-24V583.99c0-13.255,10.745-24,24-24s24,10.745,24,24
						v146.76C1048,744.005,1037.255,754.75,1024,754.75z"/>
				</g>
				<g>
					<path style="fill:#212121;" d="M1024,1684.22c-13.255,0-24-10.745-24-24v-146.76c0-13.255,10.745-24,24-24s24,10.745,24,24
						v146.76C1048,1673.475,1037.255,1684.22,1024,1684.22z"/>
				</g>
				<g>
					<path style="fill:#212121;" d="M747.27,869.38c-6.143,0-12.285-2.343-16.971-7.03l-103.77-103.78
						c-9.373-9.373-9.372-24.569,0.001-33.941c9.373-9.373,24.569-9.372,33.941,0.001l103.77,103.78
						c9.373,9.373,9.372,24.569-0.001,33.941C759.554,867.037,753.412,869.38,747.27,869.38z"/>
				</g>
				<g>
					<path style="fill:#212121;" d="M1404.5,1526.61c-6.143,0-12.285-2.343-16.972-7.03l-103.77-103.78
						c-9.372-9.373-9.371-24.569,0.002-33.941c9.372-9.371,24.569-9.372,33.941,0.002l103.77,103.78
						c9.372,9.373,9.371,24.569-0.002,33.941C1416.784,1524.268,1410.642,1526.61,1404.5,1526.61z"/>
				</g>
				<g>
					<path style="fill:#212121;" d="M632.65,1146.11H485.89c-13.255,0-24-10.745-24-24s10.745-24,24-24h146.76
						c13.255,0,24,10.745,24,24S645.905,1146.11,632.65,1146.11z"/>
				</g>
				<g>
					<path style="fill:#212121;" d="M1562.11,1146.11H1415.35c-13.255,0-24-10.745-24-24s10.745-24,24-24h146.761
						c13.255,0,24,10.745,24,24S1575.365,1146.11,1562.11,1146.11z"/>
				</g>
				<g>
					<path style="fill:#212121;" d="M643.5,1526.61c-6.142,0-12.283-2.343-16.97-7.028c-9.373-9.372-9.374-24.568-0.001-33.941
						l103.77-103.78c9.372-9.373,24.568-9.373,33.941-0.002c9.373,9.372,9.374,24.568,0.001,33.941l-103.77,103.78
						C655.785,1524.267,649.642,1526.61,643.5,1526.61z"/>
				</g>
				<g>
					<path style="fill:#212121;" d="M1300.73,869.38c-6.143,0-12.283-2.343-16.97-7.029c-9.373-9.372-9.374-24.568-0.002-33.941
						l103.77-103.78c9.373-9.373,24.568-9.374,33.941-0.001s9.374,24.568,0.002,33.941l-103.77,103.78
						C1313.016,867.036,1306.873,869.38,1300.73,869.38z"/>
				</g>
				<g>
					<path style="fill:#212121;" d="M1024,1219.48c-53.695,0-97.38-43.68-97.38-97.37c0-27.668,11.83-54.121,32.457-72.576
						c17.848-15.991,40.909-24.804,64.923-24.804c24.015,0,47.076,8.813,64.936,24.815c20.62,18.456,32.444,44.903,32.444,72.565
						c0,3.598-0.194,7.168-0.576,10.61C1115.469,1182.149,1073.849,1219.48,1024,1219.48z M1024,1072.73
						c-12.176,0-23.861,4.462-32.904,12.564c-10.475,9.373-16.476,22.788-16.476,36.816c0,27.223,22.151,49.37,49.38,49.37
						c25.278,0,46.382-18.91,49.089-43.985c0.196-1.765,0.291-3.551,0.291-5.385c0-14.028-6.001-27.443-16.463-36.805
						c-0.005-0.004-0.009-0.008-0.013-0.011C1047.861,1077.192,1036.176,1072.73,1024,1072.73z"/>
				</g>
				<g>
					<path style="fill:#212121;" d="M1072.92,1091.42c-13.255,0-24-10.745-24-24V950.89c0-6.66-2.589-12.914-7.291-17.61
						c-4.715-4.721-10.969-7.31-17.629-7.31c-13.741,0-24.92,11.179-24.92,24.92v116.53c0,13.255-10.745,24-24,24s-24-10.745-24-24
						V950.89c0-40.208,32.712-72.92,72.92-72.92c19.491,0,37.807,7.589,51.57,21.369c13.761,13.745,21.35,32.06,21.35,51.551v116.53
						C1096.92,1080.675,1086.175,1091.42,1072.92,1091.42z"/>
				</g>
				<g>
					<path style="fill:#212121;" d="M1195.22,1370.44c-19.481,0-37.796-7.586-51.57-21.359l-136.621-136.631
						c-9.372-9.373-9.371-24.568,0.002-33.94c9.372-9.371,24.568-9.373,33.94,0.001l136.62,136.63
						c4.708,4.707,10.969,7.3,17.629,7.3c6.649,0,12.909-2.596,17.628-7.31c9.704-9.704,9.702-25.515-0.013-35.235l-132.855-132.854
						c-9.372-9.373-9.372-24.568,0-33.941c9.373-9.373,24.568-9.373,33.941,0l132.859,132.859c28.426,28.44,28.424,74.698,0,103.122
						C1232.989,1362.857,1214.681,1370.44,1195.22,1370.44z"/>
				</g>
				<g>
					<path style="fill:#212121;" d="M1097.38,518.4c-13.255,0-24-10.745-24-24V363.86c0-13.255,10.745-24,24-24s24,10.745,24,24
						V494.4C1121.38,507.655,1110.635,518.4,1097.38,518.4z"/>
				</g>
				<g>
					<path style="fill:#212121;" d="M950.62,518.4c-13.255,0-24-10.745-24-24V363.86c0-13.255,10.745-24,24-24s24,10.745,24,24
						V494.4C974.62,507.655,963.875,518.4,950.62,518.4z"/>
				</g>
				<g>
					<path style="fill:#212121;" d="M1219.68,387.86H828.32c-13.255,0-24-10.745-24-24v-97.84c0-13.255,10.745-24,24-24h391.36
						c13.255,0,24,10.745,24,24v97.84C1243.68,377.115,1232.935,387.86,1219.68,387.86z M852.32,339.86h343.36v-49.84H852.32V339.86
						z"/>
				</g>
				<g>
					<path style="fill:#212121;" d="M1487.55,716.64c-6.143,0-12.284-2.343-16.971-7.029c-9.372-9.373-9.372-24.569,0-33.941
						l55.96-55.959l-35.239-35.239l-58.669,58.67c-9.373,9.372-24.568,9.372-33.941,0c-9.372-9.373-9.372-24.568,0-33.941
						l75.64-75.64c9.373-9.372,24.568-9.372,33.941,0l69.181,69.18c4.501,4.501,7.029,10.605,7.029,16.971
						s-2.528,12.47-7.029,16.971l-72.931,72.93C1499.835,714.296,1493.691,716.64,1487.55,716.64z"/>
				</g>
				<g>
					<path style="fill:#212121;" d="M1612.37,695.59L1612.37,695.59c-6.365,0-12.47-2.529-16.971-7.03l-172.95-172.96
						c-9.372-9.373-9.372-24.568,0-33.941l69.18-69.18c4.501-4.5,10.605-7.029,16.971-7.029l0,0c6.365,0,12.471,2.529,16.971,7.03
						l172.95,172.96c9.372,9.373,9.372,24.568,0,33.941l-69.18,69.18C1624.84,693.061,1618.735,695.59,1612.37,695.59z
						 M1473.36,498.63l139.011,139.018l35.238-35.239L1508.6,463.392L1473.36,498.63z"/>
				</g>
				<g>
					<path style="fill:#212121;" d="M560.45,716.64c-6.142,0-12.284-2.343-16.971-7.029l-72.93-72.93
						c-9.373-9.373-9.373-24.569,0-33.941l69.18-69.18c4.501-4.501,10.605-7.029,16.971-7.029s12.47,2.528,16.971,7.029l75.64,75.64
						c9.373,9.373,9.373,24.569,0,33.941c-9.374,9.372-24.569,9.372-33.941,0l-58.669-58.67l-35.239,35.239l55.96,55.959
						c9.373,9.373,9.373,24.569,0,33.941C572.734,714.297,566.592,716.64,560.45,716.64z"/>
				</g>
				<g>
					<path style="fill:#212121;" d="M435.63,695.59c-6.366,0-12.47-2.528-16.971-7.029l-69.18-69.18
						c-9.372-9.373-9.373-24.568,0-33.941l172.95-172.96c4.501-4.501,10.605-7.03,16.971-7.03s12.47,2.528,16.971,7.029l69.18,69.18
						c9.372,9.373,9.373,24.568,0,33.941l-172.95,172.96C448.1,693.061,441.996,695.59,435.63,695.59z M400.391,602.41
						l35.239,35.239L574.64,498.63L539.4,463.392L400.391,602.41z"/>
				</g>
			</g>
		</g>
	</g>
</g>
<g id="Layer_1">
</g>
</svg>
