<?xml version="1.0" encoding="iso-8859-1"?>
<!-- Generator: Adobe Illustrator 25.2.0, SVG Export Plug-In . SVG Version: 6.00 Build 0)  -->
<svg version="1.1" xmlns="http://www.w3.org/2000/svg" xmlns:xlink="http://www.w3.org/1999/xlink" x="0px" y="0px"
	 viewBox="0 0 2048 2048" style="enable-background:new 0 0 2048 2048;" xml:space="preserve">
<g id="_x32_639.S2_-_Football_Card">
	<g>
		<g id="XMLID_17_">
			<g>
				<g>
					<polygon style="fill:#898890;" points="1147.3,1658.43 1144.73,1756 708.21,1756 708.21,1658.43 					"/>
				</g>
				<g>
					<path style="fill:#C9CFD1;" d="M1036.68,1066.2l17.52,128.74c-56.5-0.41-102.05-22.55-102.05-79.27V977.04v-0.01
						C996.09,984.89,1030.96,1020.52,1036.68,1066.2z"/>
				</g>
				<g>
					<path style="fill:#F0C894;" d="M1054.2,1194.95h1.62h86.6c43.11,0,78.06-34.94,78.06-78.06V951.02v-73.18
						c0,0,160.53,274.58,121.96,390.29c-73.18,219.54-195.14,390.3-195.14,390.3H708.21v-24.4c0-219.54,146.36-341.51,146.36-341.51
						v-97.57v-140.29c0-21.88,8.87-41.7,23.22-56.04c14.34-14.34,34.15-23.21,56.04-23.21c6.24,0,12.36,0.55,18.32,1.62v0.01v138.63
						c0,56.72,45.55,78.86,102.05,79.27V1194.95z"/>
				</g>
				<g>
					<polygon style="fill:#898890;" points="1032.11,647.32 945.87,733.57 1032.11,819.81 963.12,888.81 876.88,802.56 
						790.63,888.81 721.64,819.81 807.88,733.57 721.64,647.32 790.63,578.33 876.88,664.57 963.12,578.33 					"/>
				</g>
				<g>
					<g>
						<path style="fill:#FF4B58;" d="M1220.48,951.02v165.87c0,43.12-34.95,78.06-78.06,78.06h-86.6c-0.54,0-1.08,0-1.62-0.01
							l-17.52-128.74c-5.72-45.68-40.59-81.31-84.53-89.17c-5.96-1.07-12.08-1.62-18.32-1.62c-21.89,0-41.7,8.87-56.04,23.21
							c-14.35,14.34-23.22,34.16-23.22,56.04v140.29H615.52c-43.12,0-78.06-34.94-78.06-78.06V346.06
							c0-43.12,34.94-78.06,78.06-78.06h526.9c43.11,0,78.06,34.94,78.06,78.06v531.78V951.02z M945.87,733.57l86.24-86.25
							l-68.99-68.99l-86.24,86.24l-86.25-86.24l-68.99,68.99l86.24,86.25l-86.24,86.24l68.99,69l86.25-86.25l86.24,86.25l68.99-69
							L945.87,733.57z"/>
					</g>
				</g>
			</g>
			<g>
				<g>
					<path style="fill:#212121;" d="M1142.42,1218.95h-88.22c-13.255,0-24-10.745-24-24s10.745-24,24-24h88.22
						c29.809,0,54.061-24.251,54.061-54.061V346.06c0-29.809-24.252-54.06-54.061-54.06h-526.9c-29.809,0-54.06,24.251-54.06,54.06
						v770.83c0,29.81,24.251,54.061,54.06,54.061h239.05c13.255,0,24,10.745,24,24s-10.745,24-24,24H615.52
						c-56.276,0-102.06-45.784-102.06-102.061V346.06c0-56.276,45.784-102.06,102.06-102.06h526.9
						c56.276,0,102.061,45.784,102.061,102.06v770.83C1244.48,1173.166,1198.696,1218.95,1142.42,1218.95z"/>
				</g>
				<g>
					<path style="fill:#212121;" d="M1144.73,1780H708.21c-13.255,0-24-10.745-24-24v-121.97c0-52.594,8.088-104.199,24.04-153.384
						c12.756-39.332,30.537-77.188,52.849-112.515c27.848-44.094,55.776-73.191,69.472-86.228V1054.66
						c0-27.589,10.745-53.52,30.256-73.017c19.493-19.494,45.422-30.233,73.004-30.233c7.587,0,15.177,0.672,22.56,1.997
						c26.74,4.784,50.846,17.729,69.699,37.434c19.042,19.903,30.931,44.878,34.387,72.232l17.506,128.631
						c0.012,0.086,0.022,0.172,0.033,0.258l19.886,146.111c1.788,13.134-7.41,25.229-20.544,27.017
						c-13.13,1.786-25.229-7.411-27.017-20.544l-19.921-146.359c-0.011-0.084-0.022-0.168-0.032-0.252l-17.488-128.498
						c-0.011-0.085-0.022-0.169-0.033-0.254c-4.359-34.819-30.458-62.358-64.941-68.527c-4.605-0.827-9.343-1.245-14.094-1.245
						c-14.761,0-28.636,5.746-39.069,16.18c-10.443,10.436-16.191,24.309-16.191,39.07v237.859c0,7.122-3.164,13.877-8.635,18.438
						c-0.309,0.259-35.061,29.769-69.24,84.375c-45.443,72.604-68.485,152.914-68.485,238.698V1732h389.145l1.953-74.202
						c0.126-4.784,1.681-9.422,4.462-13.317c1.196-1.677,120.797-170.627,191.902-383.94
						c13.693-41.079-2.586-119.765-45.837-221.562c-34.316-80.767-73.68-148.353-74.073-149.025
						c-6.69-11.443-2.837-26.143,8.605-32.832c11.442-6.688,26.142-2.837,32.832,8.605c1.67,2.857,41.312,70.926,76.813,154.482
						c49.218,115.84,65.098,201.806,47.196,255.511c-38.409,115.226-90.202,216.787-126.888,281.696
						c-31.661,56.02-57.38,94.527-67.219,108.837l-2.38,90.379C1168.38,1769.636,1157.739,1780,1144.73,1780z"/>
				</g>
				<g>
					<path style="fill:#212121;" d="M1055.82,1218.95c-0.638,0-1.276-0.001-1.914-0.012
						c-78.75-0.608-125.756-39.208-125.756-103.269V977.04c0-13.255,10.745-24,24-24s24,10.745,24,24v138.63
						c0,36.299,26.319,54.895,78.224,55.271c0.087,0,0.174,0.001,0.26,0.003c0.396,0.007,0.792,0.005,1.187,0.006
						c13.255,0,24,10.745,24,24S1069.075,1218.95,1055.82,1218.95z"/>
				</g>
				<g>
					<path style="fill:#212121;" d="M1147.3,1682.43H708.21c-13.255,0-24-10.745-24-24s10.745-24,24-24h439.09
						c13.255,0,24,10.745,24,24S1160.555,1682.43,1147.3,1682.43z"/>
				</g>
				<g>
					<path style="fill:#212121;" d="M963.12,912.81c-6.366,0-12.471-2.529-16.972-7.03l-69.27-69.278l-69.278,69.279
						c-4.501,4.5-10.605,7.029-16.97,7.029c0,0-0.001,0-0.001,0c-6.365,0-12.47-2.529-16.971-7.031l-68.99-69
						c-9.372-9.373-9.371-24.568,0.001-33.94l69.271-69.271l-69.271-69.279c-9.372-9.373-9.371-24.568,0.001-33.94l68.99-68.99
						c9.372-9.372,24.567-9.372,33.94-0.001l69.279,69.271l69.271-69.271c9.373-9.372,24.568-9.372,33.941,0l68.99,68.99
						c9.372,9.372,9.372,24.567,0.001,33.94l-69.272,69.279l69.271,69.271c9.372,9.372,9.372,24.567,0.001,33.94l-68.99,69
						C975.591,910.281,969.486,912.81,963.12,912.81z M755.58,819.811l35.051,35.057l69.278-69.278
						c4.501-4.5,10.606-7.029,16.971-7.029l0,0c6.366,0,12.47,2.529,16.971,7.03l69.269,69.276l35.051-35.056l-69.271-69.271
						c-9.372-9.373-9.373-24.567-0.001-33.94l69.271-69.279l-35.05-35.05l-69.27,69.27c-9.373,9.372-24.567,9.372-33.94,0.001
						l-69.279-69.271l-35.051,35.051l69.271,69.279c9.372,9.373,9.371,24.568-0.001,33.94L755.58,819.811z"/>
				</g>
			</g>
		</g>
	</g>
</g>
<g id="Layer_1">
</g>
</svg>
