<?xml version="1.0" encoding="iso-8859-1"?>
<!-- Generator: Adobe Illustrator 25.2.0, SVG Export Plug-In . SVG Version: 6.00 Build 0)  -->
<svg version="1.1" xmlns="http://www.w3.org/2000/svg" xmlns:xlink="http://www.w3.org/1999/xlink" x="0px" y="0px"
	 viewBox="0 0 2048 2048" style="enable-background:new 0 0 2048 2048;" xml:space="preserve">
<g id="_x32_640.S2_-_Goal">
	<g>
		<g id="XMLID_18_">
			<g>
				<g>
					<path style="fill:#57565C;" d="M503.2,413.19c-45.65,26.39-82.09,66.92-103.36,115.61h-0.01
						c-13.27,30.38-20.63,63.93-20.63,99.2v49.6v148.8v148.8v238.19c0,0-0.01,0,0,0.01c-16.02,41.52-24.8,86.63-24.8,133.8
						c0,47.17,8.78,92.28,24.8,133.8c-0.01,0.01,0,0.01,0,0.01v89.39v148.8H280V601.13c0-176.91,143.42-320.33,320.33-320.33h847.34
						c176.91,0,320.33,143.42,320.33,320.33V1719.2h-99.2v-148.8v-148.8v-148.8V1124V975.2V826.4V677.6v-51.71
						c0-34.48-7.1-67.31-19.92-97.09c-21.16-49.21-57.93-90.12-104.08-116.5c-35.93-20.56-77.54-32.3-121.89-32.3H1396h-148.8
						h-148.8H949.6H800.8H652h-24.8C582.03,380,539.68,392.08,503.2,413.19z"/>
				</g>
				<g>
					<polygon style="fill:#EBF0F3;" points="875.2,1261.32 875.2,1433.11 726.4,1519.02 577.6,1433.11 577.6,1261.32 726.4,1175.41 
											"/>
				</g>
				<g>
					<path style="fill:#C9CFD1;" d="M1024,1519.02l24.98,13.56c-64.23,111.54-184.63,186.62-322.58,186.62v-200.18l148.8-85.91
						L1024,1519.02z"/>
				</g>
				<g>
					<path style="fill:#C9CFD1;" d="M726.4,976.44v-1.24h0.01c137.78,0,258.06,74.91,322.34,186.22l-0.33,0.19l-24.42,13.77
						l-148.8,85.91l-148.8-85.91V976.44z"/>
				</g>
				<g>
					<path style="fill:#C9CFD1;" d="M379.2,1481c-16.02-41.52-24.8-86.63-24.8-133.8c0-47.17,8.78-92.28,24.8-133.8
						c-0.01-0.01,0-0.01,0-0.01c7.05-18.3,15.52-35.9,25.26-52.67l1.26,0.74l23.08,13.95l148.8,85.91v171.79l-174.39,96.68
						l-0.74,0.42c-8.91-15.72-16.7-32.16-23.27-49.2C379.2,1481.01,379.19,1481.01,379.2,1481z"/>
				</g>
				<g>
					<path style="fill:#57565C;" d="M428.79,1570.4c-9.61-12.78-18.41-26.2-26.32-40.19l0.74-0.42l174.39-96.68l148.8,85.91v200.18
						C604.7,1719.2,496.65,1660.76,428.79,1570.4z"/>
				</g>
				<g>
					<path style="fill:#57565C;" d="M1048.75,1161.42c31.58,54.67,49.65,118.11,49.65,185.78c0,67.5-17.98,130.8-49.42,185.38
						l-24.98-13.56l-148.8-85.91v-171.79v-0.03l148.8-85.91l24.42-13.77L1048.75,1161.42z"/>
				</g>
				<g>
					<path style="fill:#57565C;" d="M577.6,1261.32l-148.8-85.91l-23.08-13.95l-1.26-0.74c52.45-90.37,141.86-156.63,247.54-178.07
						c24.04-4.89,48.92-7.45,74.4-7.45v1.24v198.94l-148.8,85.91V1261.32z"/>
				</g>
			</g>
			<g>
				<g>
					<path style="fill:#212121;" d="M379.2,1237.39c-13.255,0-24-10.745-24-24V975.2c0-13.255,10.745-24,24-24s24,10.745,24,24
						v238.189C403.2,1226.645,392.455,1237.39,379.2,1237.39z"/>
				</g>
				<g>
					<path style="fill:#212121;" d="M379.2,850.4c-13.255,0-24-10.745-24-24V677.6c0-13.255,10.745-24,24-24s24,10.745,24,24v148.8
						C403.2,839.655,392.455,850.4,379.2,850.4z"/>
				</g>
				<g>
					<path style="fill:#212121;" d="M379.2,652c-13.255,0-24-10.745-24-24c0-37.811,7.616-74.419,22.636-108.807
						c5.306-12.147,19.455-17.693,31.6-12.387c12.147,5.306,17.692,19.454,12.387,31.6C409.466,566.698,403.2,596.841,403.2,628
						C403.2,641.255,392.455,652,379.2,652z"/>
				</g>
				<g>
					<path style="fill:#212121;" d="M1668.8,649.89c-13.255,0-24-10.745-24-24c0-30.438-6.044-59.911-17.964-87.601
						c-18.918-43.996-52.281-81.337-93.946-105.154C1499.575,414.073,1461.549,404,1422.91,404H627.2
						c-39.384,0-78.105,10.361-111.979,29.963c-41.208,23.822-74.371,60.913-93.388,104.445
						c-5.307,12.147-19.456,17.69-31.601,12.385c-12.146-5.306-17.692-19.455-12.386-31.601
						c23.087-52.85,63.339-97.874,113.342-126.78C532.351,368.593,579.386,356,627.2,356h795.71
						c46.987,0,93.258,12.265,133.81,35.469c50.642,28.948,91.205,74.354,114.208,127.85
						c14.512,33.709,21.872,69.568,21.872,106.571C1692.8,639.145,1682.055,649.89,1668.8,649.89z"/>
				</g>
				<g>
					<path style="fill:#212121;" d="M1668.8,850.4c-13.255,0-24-10.745-24-24V677.6c0-13.255,10.745-24,24-24s24,10.745,24,24v148.8
						C1692.8,839.655,1682.055,850.4,1668.8,850.4z"/>
				</g>
				<g>
					<path style="fill:#212121;" d="M1668.8,1148c-13.255,0-24-10.745-24-24V975.2c0-13.255,10.745-24,24-24s24,10.745,24,24V1124
						C1692.8,1137.255,1682.055,1148,1668.8,1148z"/>
				</g>
				<g>
					<path style="fill:#212121;" d="M1668.8,1445.6c-13.255,0-24-10.745-24-24v-148.8c0-13.255,10.745-24,24-24s24,10.745,24,24
						v148.8C1692.8,1434.854,1682.055,1445.6,1668.8,1445.6z"/>
				</g>
				<g>
					<path style="fill:#212121;" d="M1768,1743.2h-99.2c-13.255,0-24-10.745-24-24v-148.8c0-13.255,10.745-24,24-24s24,10.745,24,24
						v124.8h51.2V601.13c0-163.397-132.933-296.33-296.33-296.33H600.33C436.933,304.8,304,437.733,304,601.13V1695.2h51.2v-210.04
						c0-13.255,10.745-24,24-24s24,10.745,24,24v234.04c0,13.255-10.745,24-24,24H280c-13.255,0-24-10.745-24-24V601.13
						c0-46.473,9.107-91.569,27.069-134.035c17.344-41.005,42.169-77.827,73.784-109.442c31.615-31.615,68.437-56.44,109.442-73.784
						c42.466-17.962,87.562-27.07,134.035-27.07h847.34c46.473,0,91.569,9.107,134.035,27.07
						c41.005,17.344,77.826,42.168,109.441,73.784s56.44,68.437,73.784,109.442C1782.893,509.561,1792,554.657,1792,601.13V1719.2
						C1792,1732.455,1781.255,1743.2,1768,1743.2z"/>
				</g>
				<g>
					<path style="fill:#212121;" d="M1648.88,552.8H399.84c-13.255,0-24.005-10.745-24.005-24s10.74-24,23.995-24h1249.05
						c13.255,0,24,10.745,24,24S1662.135,552.8,1648.88,552.8z"/>
				</g>
				<g>
					<path style="fill:#212121;" d="M1668.8,701.6H379.2c-13.255,0-24-10.745-24-24V628c0-13.255,10.745-24,24-24s24,10.745,24,24
						v25.6h1241.6v-27.71c0-13.255,10.745-24,24-24s24,10.745,24,24v51.71C1692.8,690.855,1682.055,701.6,1668.8,701.6z"/>
				</g>
				<g>
					<path style="fill:#212121;" d="M1668.8,999.2H726.41c-0.004-0.001-0.007,0-0.01,0H379.2c-13.255,0-24-10.745-24-24V826.4
						c0-13.255,10.745-24,24-24h1289.6c13.255,0,24,10.745,24,24v148.8C1692.8,988.455,1682.055,999.2,1668.8,999.2z M403.2,951.2
						h323.2c0.003,0.001,0.007,0,0.01,0h918.39V850.4H403.2V951.2z"/>
				</g>
				<g>
					<path style="fill:#212121;" d="M1668.8,1296.8H1098.4c-13.255,0-24-10.745-24-24s10.745-24,24-24H1644.8V1148H1098.4
						c-13.255,0-24-10.745-24-24s10.745-24,24-24H1668.8c13.255,0,24,10.745,24,24v148.8
						C1692.8,1286.055,1682.055,1296.8,1668.8,1296.8z"/>
				</g>
				<g>
					<path style="fill:#212121;" d="M1668.8,1594.4h-421.6c-13.255,0-24-10.745-24-24s10.745-24,24-24h397.6V1445.6H1098.4
						c-13.255,0-24-10.745-24-24s10.745-24,24-24H1668.8c13.255,0,24,10.745,24,24V1570.4
						C1692.8,1583.655,1682.055,1594.4,1668.8,1594.4z"/>
				</g>
				<g>
					<path style="fill:#212121;" d="M1544.8,1594.4c-13.255,0-24-10.745-24-24V412.3c0-13.255,10.745-24,24-24s24,10.745,24,24
						V1570.4C1568.8,1583.655,1558.055,1594.4,1544.8,1594.4z"/>
				</g>
				<g>
					<path style="fill:#212121;" d="M1396,1594.4c-13.255,0-24-10.745-24-24V380c0-13.255,10.745-24,24-24s24,10.745,24,24v1190.4
						C1420,1583.655,1409.255,1594.4,1396,1594.4z"/>
				</g>
				<g>
					<path style="fill:#212121;" d="M1247.2,1594.4h-148.8c-13.255,0-24-10.745-24-24V380c0-13.255,10.745-24,24-24s24,10.745,24,24
						v1166.4h100.8V380c0-13.255,10.745-24,24-24s24,10.745,24,24v1190.4C1271.2,1583.655,1260.455,1594.4,1247.2,1594.4z"/>
				</g>
				<g>
					<path style="fill:#212121;" d="M800.8,999.2c-13.255,0-24-10.745-24-24V380c0-13.255,10.745-24,24-24s24,10.745,24,24v595.2
						C824.8,988.455,814.055,999.2,800.8,999.2z"/>
				</g>
				<g>
					<path style="fill:#212121;" d="M949.6,999.2c-13.255,0-24-10.745-24-24V380c0-13.255,10.745-24,24-24s24,10.745,24,24v595.2
						C973.6,988.455,962.855,999.2,949.6,999.2z"/>
				</g>
				<g>
					<path style="fill:#212121;" d="M503.2,999.2c-13.255,0-24-10.745-24-24V413.19c0-13.255,10.745-24.01,24-24.01
						s24,10.735,24,23.99V975.2C527.2,988.455,516.455,999.2,503.2,999.2z"/>
				</g>
				<g>
					<path style="fill:#212121;" d="M652,1006.64c-13.255,0-24-10.745-24-24V380c0-13.255,10.745-24,24-24s24,10.745,24,24v602.64
						C676,995.895,665.255,1006.64,652,1006.64z"/>
				</g>
				<g>
					<path style="fill:#212121;" d="M875.2,1457.11c-13.255,0-24-10.745-24-24v-157.964l-124.8-72.054l-124.8,72.054v157.964
						c0,13.255-10.745,24-24,24s-24-10.745-24-24v-171.79c0-8.574,4.574-16.527,12-20.814l148.8-85.91
						c7.426-4.287,16.574-4.287,24,0l148.8,85.91c7.426,4.287,12,12.21,12,20.784v171.82
						C899.2,1446.365,888.455,1457.11,875.2,1457.11z"/>
				</g>
				<g>
					<path style="fill:#212121;" d="M577.6,1285.32c-4.144,0-8.287-1.072-12-3.216l-148.8-85.91
						c-0.139-0.08-0.277-0.161-0.415-0.245l-23.08-13.95c-11.344-6.856-14.981-21.61-8.125-32.954
						c6.857-11.345,21.611-14.983,32.955-8.124l22.872,13.824l136.593,78.862l136.8-78.981c11.479-6.63,26.156-2.695,32.785,8.784
						c6.627,11.479,2.694,26.157-8.785,32.784l-148.8,85.91C585.887,1284.248,581.744,1285.32,577.6,1285.32z"/>
				</g>
				<g>
					<path style="fill:#212121;" d="M875.178,1285.324c-4.072,0-8.198-1.037-11.978-3.22l-148.8-85.91
						c-7.426-4.287-12-12.21-12-20.784V976.44c0-13.255,10.745-24,24-24s24,10.745,24,24v185.114l136.8,78.982
						c11.479,6.627,15.412,21.305,8.785,32.784C891.54,1281.02,883.472,1285.324,875.178,1285.324z"/>
				</g>
				<g>
					<path style="fill:#212121;" d="M403.231,1553.794c-8.441,0-16.628-4.461-21.012-12.367c-6.427-11.593-2.239-26.2,9.354-32.627
						l174.39-96.68c7.369-4.085,16.34-4.007,23.637,0.206l148.8,85.909c11.479,6.627,15.412,21.305,8.785,32.784
						c-6.628,11.479-21.307,15.412-32.785,8.784l-137.04-79.119l-162.514,90.096C411.16,1552.824,407.168,1553.794,403.231,1553.794
						z"/>
				</g>
				<g>
					<path style="fill:#212121;" d="M726.4,1743.2c-13.255,0-24-10.745-24-24V1519.02c0-8.574,4.574-16.497,12-20.784l148.8-85.91
						c7.426-4.287,16.574-4.287,24,0l148.527,85.753l24.703,13.409c0.06,0.032,0.119,0.065,0.179,0.099l0.199,0.11
						c11.595,6.423,15.788,21.028,9.365,32.623c-6.422,11.596-21.031,15.787-32.623,9.365l-0.109-0.061l-24.892-13.512
						c-0.185-0.101-0.368-0.203-0.55-0.309l-136.8-78.98l-124.8,72.053V1719.2C750.4,1732.455,739.655,1743.2,726.4,1743.2z"/>
				</g>
				<g>
					<path style="fill:#212121;" d="M875.223,1285.294c-8.295,0-16.361-4.304-20.807-12.004
						c-6.627-11.479-2.694-26.157,8.785-32.784l148.8-85.91c0.07-0.041,0.142-0.081,0.212-0.121l24.42-13.77
						c11.549-6.512,26.185-2.427,32.693,9.117c6.511,11.546,2.429,26.184-9.117,32.693l-24.319,13.713L887.2,1282.074
						C883.421,1284.257,879.294,1285.294,875.223,1285.294z"/>
				</g>
				<g>
					<path style="fill:#212121;" d="M726.4,1743.2c-63.346,0-123.877-14.516-179.914-43.143
						c-53.431-27.297-100.766-67.147-136.887-115.245c-10.236-13.613-19.667-28.014-28.021-42.791
						c-9.424-16.626-17.711-34.124-24.622-51.992c-0.015-0.036-0.029-0.072-0.043-0.108c-0.111-0.276-0.216-0.554-0.315-0.833
						c-17.384-45.254-26.197-92.987-26.197-141.888c0-48.895,8.812-96.624,26.191-141.873c0.113-0.317,0.233-0.632,0.36-0.946
						c7.394-19.133,16.394-37.876,26.754-55.714c56.889-98.018,152.94-167.104,263.522-189.538
						c25.86-5.26,52.501-7.929,79.172-7.929c70.804,0,140.284,18.914,200.938,54.698c58.856,34.723,108.027,84.352,142.196,143.52
						c34.586,59.872,52.867,128.266,52.867,197.782c0,69.348-18.197,137.594-52.623,197.359
						c-34.14,59.285-83.324,109.019-142.235,143.821C866.837,1724.244,797.283,1743.2,726.4,1743.2z M401.735,1472.742
						c6.065,15.676,13.336,31.028,21.615,45.633c7.346,12.993,15.625,25.637,24.623,37.602
						c66.451,88.482,167.93,139.224,278.428,139.224c124.13,0,239.766-66.901,301.783-174.597
						c30.236-52.492,46.218-112.453,46.218-173.403c0-61.099-16.056-121.189-46.433-173.775
						C965.908,1065.958,850.358,999.2,726.41,999.2c-23.474,0-46.896,2.344-69.626,6.968
						c-97.158,19.711-181.557,80.433-231.567,166.6c-9.093,15.656-16.988,32.092-23.473,48.864c-0.05,0.136-0.101,0.272-0.153,0.408
						c-15.389,39.883-23.191,81.993-23.191,125.16s7.803,85.277,23.191,125.16C401.64,1472.487,401.688,1472.614,401.735,1472.742z"
						/>
				</g>
			</g>
		</g>
	</g>
</g>
<g id="Layer_1">
</g>
</svg>
