<?xml version="1.0" encoding="iso-8859-1"?>
<!-- Generator: Adobe Illustrator 25.2.0, SVG Export Plug-In . SVG Version: 6.00 Build 0)  -->
<svg version="1.1" xmlns="http://www.w3.org/2000/svg" xmlns:xlink="http://www.w3.org/1999/xlink" x="0px" y="0px"
	 viewBox="0 0 2048 2048" style="enable-background:new 0 0 2048 2048;" xml:space="preserve">
<g id="_x32_641.S2_-_Positions">
	<g>
		<g id="XMLID_19_">
			<g>
				<g>
					<path style="fill:#FFE577;" d="M1170.36,341.18v73.18c0,56.23-48.79,97.57-97.57,146.36h-97.58
						c-48.78-48.79-97.57-90.13-97.57-146.36v-73.18H1170.36z"/>
				</g>
				<g>
					<polygon style="fill:#898890;" points="1707.02,1658.43 1707.02,1756 340.98,1756 340.98,1658.43 389.77,1658.43 
						1658.23,1658.43 					"/>
				</g>
				<g>
					<polygon style="fill:#898890;" points="1658.23,1560.85 1658.23,1658.43 389.77,1658.43 389.77,1560.85 438.56,1560.85 
						828.85,1560.85 1219.15,1560.85 1609.44,1560.85 					"/>
				</g>
				<g>
					<rect x="1219.15" y="1146.16" style="fill:#9FE8FF;" width="390.29" height="414.69"/>
				</g>
				<g>
					<rect x="1219.15" y="1048.59" style="fill:#6ABFD3;" width="390.29" height="97.57"/>
				</g>
				<g>
					<polygon style="fill:#FFDC4A;" points="1219.15,1146.16 1219.15,1560.85 828.85,1560.85 828.85,1024.2 828.85,926.62 
						828.85,829.05 1219.15,829.05 1219.15,1048.59 					"/>
				</g>
				<g>
					<polygon style="fill:#FF9911;" points="1219.15,707.08 1219.15,829.05 828.85,829.05 828.85,707.08 975.21,707.08 
						1072.79,707.08 					"/>
				</g>
				<g>
					<rect x="877.64" y="268" style="fill:#FF9911;" width="292.72" height="73.18"/>
				</g>
				<g>
					<rect x="975.21" y="560.72" style="fill:#FF9911;" width="97.58" height="146.36"/>
				</g>
				<g>
					<g>
						<rect x="438.56" y="1024.2" style="fill:#FF4B58;" width="390.29" height="536.65"/>
					</g>
				</g>
				<g>
					<g>
						<rect x="438.56" y="926.62" style="fill:#F70058;" width="390.29" height="97.58"/>
					</g>
				</g>
			</g>
			<g>
				<g>
					<path style="fill:#212121;" d="M1707.02,1780H340.98c-13.255,0-24-10.745-24-24v-97.57c0-13.255,10.745-24,24-24h48.79
						c13.255,0,24,10.745,24,24s-10.745,24-24,24h-24.79V1732h1318.04v-49.57h-24.789c-13.255,0-24-10.745-24-24s10.745-24,24-24
						h48.789c13.255,0,24,10.745,24,24V1756C1731.02,1769.255,1720.274,1780,1707.02,1780z"/>
				</g>
				<g>
					<path style="fill:#212121;" d="M1658.23,1682.43H389.77c-13.255,0-24-10.745-24-24v-97.58c0-13.255,10.745-24,24-24h48.79
						c13.255,0,24,10.745,24,24s-10.745,24-24,24h-24.79v49.58h1220.46v-49.58h-24.79c-13.255,0-24-10.745-24-24s10.745-24,24-24
						h48.79c13.255,0,24,10.745,24,24v97.58C1682.23,1671.685,1671.485,1682.43,1658.23,1682.43z"/>
				</g>
				<g>
					<path style="fill:#212121;" d="M828.85,1584.85H438.56c-13.255,0-24-10.745-24-24V926.62c0-13.255,10.745-24,24-24h390.29
						c13.255,0,24,10.745,24,24s-10.745,24-24,24H462.56v586.229h366.29c13.255,0,24,10.745,24,24S842.105,1584.85,828.85,1584.85z"
						/>
				</g>
				<g>
					<path style="fill:#212121;" d="M1219.15,1072.59c-13.255,0-24-10.745-24-24V731.08h-122.36c-13.255,0-24-10.745-24-24
						s10.745-24,24-24h146.36c13.255,0,24,10.745,24,24v341.51C1243.15,1061.845,1232.405,1072.59,1219.15,1072.59z"/>
				</g>
				<g>
					<path style="fill:#212121;" d="M1219.15,1584.85h-390.3c-13.255,0-24-10.745-24-24V707.08c0-13.255,10.745-24,24-24h146.36
						c13.255,0,24,10.745,24,24s-10.745,24-24,24H852.85v805.77h366.3c13.255,0,24,10.745,24,24S1232.405,1584.85,1219.15,1584.85z"
						/>
				</g>
				<g>
					<path style="fill:#212121;" d="M1609.44,1584.85h-390.29c-13.255,0-24-10.745-24-24v-512.26c0-13.255,10.745-24,24-24h390.29
						c13.255,0,24,10.745,24,24v512.26C1633.44,1574.104,1622.695,1584.85,1609.44,1584.85z M1243.15,1536.85h342.29v-464.26
						h-342.29V1536.85z"/>
				</g>
				<g>
					<path style="fill:#212121;" d="M1219.15,853.05h-390.3c-13.255,0-24-10.745-24-24s10.745-24,24-24h390.3
						c13.255,0,24,10.745,24,24S1232.405,853.05,1219.15,853.05z"/>
				</g>
				<g>
					<path style="fill:#212121;" d="M828.85,1048.2H438.56c-13.255,0-24-10.745-24-24s10.745-24,24-24h390.29
						c13.255,0,24,10.745,24,24S842.105,1048.2,828.85,1048.2z"/>
				</g>
				<g>
					<path style="fill:#212121;" d="M1609.44,1170.16h-390.29c-13.255,0-24-10.745-24-24s10.745-24,24-24h390.29
						c13.255,0,24,10.745,24,24S1622.695,1170.16,1609.44,1170.16z"/>
				</g>
				<g>
					<path style="fill:#212121;" d="M1170.36,292H877.64c-13.255,0-24-10.745-24-24s10.745-24,24-24h292.72
						c13.255,0,24,10.745,24,24S1183.615,292,1170.36,292z"/>
				</g>
				<g>
					<path style="fill:#212121;" d="M975.21,584.72c-6.144,0-12.285-2.343-16.972-7.031c-5.103-5.104-10.296-10.214-15.319-15.156
						c-45.913-45.178-89.279-87.85-89.279-148.173c0-13.255,10.745-24,24-24s24,10.745,24,24c0,40.213,34.73,74.388,74.945,113.959
						c5.091,5.01,10.356,10.19,15.597,15.433c9.372,9.374,9.371,24.569-0.003,33.941C987.493,582.377,981.351,584.72,975.21,584.72z
						"/>
				</g>
				<g>
					<path style="fill:#212121;" d="M1072.79,584.72c-6.142,0-12.282-2.342-16.969-7.028c-9.374-9.372-9.375-24.567-0.004-33.941
						c5.241-5.242,10.506-10.422,15.597-15.432c40.215-39.571,74.946-73.746,74.946-113.96c0-13.255,10.745-24,24-24
						s24,10.745,24,24c0,60.323-43.367,102.996-89.28,148.174c-5.022,4.942-10.216,10.052-15.317,15.155
						C1085.076,582.376,1078.933,584.72,1072.79,584.72z"/>
				</g>
				<g>
					<path style="fill:#212121;" d="M1267.93,438.36h-97.569c-13.255,0-24-10.745-24-24V268c0-8.318,4.307-16.043,11.383-20.416
						c7.076-4.372,15.911-4.77,23.352-1.05l97.569,48.79c8.13,4.065,13.266,12.375,13.266,21.466v97.57
						C1291.93,427.615,1281.185,438.36,1267.93,438.36z M1194.36,390.36h49.569v-58.738l-49.569-24.787V390.36z"/>
				</g>
				<g>
					<path style="fill:#212121;" d="M877.64,438.36h-97.57c-13.255,0-24-10.745-24-24v-97.57c0-9.09,5.136-17.4,13.266-21.466
						l97.57-48.79c7.439-3.72,16.275-3.323,23.351,1.05S901.64,259.682,901.64,268v146.36
						C901.64,427.615,890.895,438.36,877.64,438.36z M804.07,390.36h49.57v-83.525l-49.57,24.788V390.36z"/>
				</g>
				<g>
					<path style="fill:#212121;" d="M1170.36,365.18H877.64c-13.255,0-24-10.745-24-24s10.745-24,24-24h292.72
						c13.255,0,24,10.745,24,24S1183.615,365.18,1170.36,365.18z"/>
				</g>
				<g>
					<path style="fill:#212121;" d="M1072.79,731.08h-97.58c-13.255,0-24-10.745-24-24V560.72c0-13.255,10.745-24,24-24h97.58
						c13.255,0,24,10.745,24,24v146.36C1096.79,720.335,1086.045,731.08,1072.79,731.08z M999.21,683.08h49.58v-98.36h-49.58V683.08
						z"/>
				</g>
				<g>
					<path style="fill:#212121;" d="M1024,1170.16c-13.255,0-24-10.745-24-24v-140.278l-4.821,7.231
						c-7.353,11.029-22.254,14.007-33.282,6.655c-11.028-7.353-14.008-22.254-6.655-33.282l48.79-73.18
						c5.867-8.799,16.8-12.723,26.924-9.657c10.122,3.065,17.045,12.395,17.045,22.97v219.54
						C1048,1159.415,1037.255,1170.16,1024,1170.16z"/>
				</g>
				<g>
					<path style="fill:#212121;" d="M1072.79,1170.16h-97.58c-13.255,0-24-10.745-24-24s10.745-24,24-24h97.58
						c13.255,0,24,10.745,24,24S1086.045,1170.16,1072.79,1170.16z"/>
				</g>
				<g>
					<path style="fill:#212121;" d="M684.44,1340.92h-94.86c-13.255,0-24-10.745-24-24c0-39.453,24.898-74.399,61.957-86.959
						c21.603-7.317,32.903-19.061,32.903-26.881c0-18.152-14.763-32.92-32.91-32.92c-8.116,0-15.906,2.975-21.936,8.376
						c-9.874,8.845-25.046,8.011-33.89-1.862s-8.01-25.046,1.863-33.89c14.847-13.3,34.011-20.624,53.963-20.624
						c44.614,0,80.91,36.301,80.91,80.92c0,30.938-25.099,58.658-65.501,72.342c-9.411,3.189-17.167,9.46-22.339,17.498h63.84
						c13.255,0,24,10.745,24,24S697.695,1340.92,684.44,1340.92z"/>
				</g>
				<g>
					<path style="fill:#212121;" d="M1414.3,1365.31c-13.255,0-24-10.745-24-24s10.745-24,24-24c6.615,0,12.838-2.578,17.52-7.261
						c4.683-4.682,7.261-10.907,7.261-17.529c0-13.663-11.116-24.779-24.78-24.779h-48.79c-13.255,0-24-10.745-24-24
						s10.745-24,24-24h48.79c40.131,0,72.78,32.648,72.78,72.779c0,19.444-7.571,37.725-21.32,51.472
						C1452.013,1357.738,1433.736,1365.31,1414.3,1365.31z"/>
				</g>
				<g>
					<path style="fill:#212121;" d="M1414.3,1462.89h-48.79c-13.255,0-24-10.745-24-24s10.745-24,24-24h48.79
						c6.615,0,12.838-2.578,17.52-7.261c4.683-4.682,7.261-10.907,7.261-17.529c0-13.669-11.116-24.79-24.78-24.79h-48.79
						c-13.255,0-24-10.745-24-24s10.745-24,24-24h48.79c40.131,0,72.78,32.653,72.78,72.79c0,19.443-7.571,37.723-21.319,51.471
						S1433.736,1462.89,1414.3,1462.89z"/>
				</g>
			</g>
		</g>
	</g>
</g>
<g id="Layer_1">
</g>
</svg>
