<?xml version="1.0" encoding="iso-8859-1"?>
<!-- Generator: Adobe Illustrator 25.2.0, SVG Export Plug-In . SVG Version: 6.00 Build 0)  -->
<svg version="1.1" xmlns="http://www.w3.org/2000/svg" xmlns:xlink="http://www.w3.org/1999/xlink" x="0px" y="0px"
	 viewBox="0 0 2048 2048" style="enable-background:new 0 0 2048 2048;" xml:space="preserve">
<g id="_x32_642.S2_-_Sports_Shirt">
	<g>
		<g id="XMLID_20_">
			<g>
				<g>
					<g>
						<polygon style="fill:#FF4B58;" points="926.43,268 926.43,511.93 828.85,609.51 828.85,365.57 						"/>
					</g>
				</g>
				<g>
					<g>
						<polygon style="fill:#FF4B58;" points="1219.15,365.57 1219.15,609.51 1121.57,511.93 1121.57,268 						"/>
					</g>
				</g>
				<g>
					<g>
						<polygon style="fill:#F70058;" points="1365.51,1658.43 1365.51,1756 1121.57,1756 682.49,1756 682.49,1658.43 						"/>
					</g>
				</g>
				<g>
					<circle style="fill:#FFE577;" cx="1194.75" cy="829.05" r="73.18"/>
				</g>
				<g>
					<g>
						<polygon style="fill:#FF4B58;" points="1654,679.32 1716.4,763.52 1572.85,987.61 1498.78,921.63 						"/>
					</g>
				</g>
				<g>
					<g>
						<polygon style="fill:#FF4B58;" points="394,679.32 549.21,921.62 475.15,987.61 331.6,763.52 						"/>
					</g>
				</g>
				<g>
					<g>
						<path style="fill:#F70058;" d="M1511.87,487.54L1654,679.32l-155.22,242.31l-110.97-98.83
							C1411.24,706.71,1452.95,595.55,1511.87,487.54z"/>
					</g>
				</g>
				<g>
					<g>
						<polygon style="fill:#F70058;" points="1121.57,268 1121.57,511.93 1024,609.51 926.43,511.93 926.43,268 						"/>
					</g>
				</g>
				<g>
					<g>
						<path style="fill:#F70058;" d="M658.72,824.05l-109.51,97.57L394,679.32l142.13-191.78
							C593.84,593.33,635.04,706.81,658.72,824.05z"/>
					</g>
				</g>
				<g>
					<g>
						<path style="fill:#FF4B58;" d="M1219.15,365.57l292.72,121.97c-58.92,108.01-100.63,219.17-124.06,335.26
							c-14.78,73.15-22.3,148.26-22.3,225.79v609.84H682.49v-596.91c0-80.05-8.02-159.6-23.77-237.47
							c-23.68-117.24-64.88-230.72-122.59-336.51l292.72-121.97v243.94l97.58-97.58l97.57,97.58l97.57-97.58l97.58,97.58V365.57z
							 M1267.93,829.05c0-40.42-32.76-73.18-73.18-73.18c-40.41,0-73.18,32.76-73.18,73.18s32.77,73.18,73.18,73.18
							C1235.17,902.23,1267.93,869.47,1267.93,829.05z"/>
					</g>
				</g>
			</g>
			<g>
				<g>
					<path style="fill:#212121;" d="M1365.51,1780H682.49c-13.255,0-24-10.745-24-24v-694.48c0-77.997-7.837-156.293-23.294-232.712
						c-23.315-115.433-63.734-226.383-120.135-329.774c-6.348-11.636-2.061-26.214,9.576-32.562
						c11.636-6.347,26.214-2.061,32.562,9.576c58.708,107.618,100.779,223.104,125.046,343.251
						c16.087,79.539,24.245,161.036,24.245,242.222V1732h635.02v-683.41c0-78.178,7.663-155.744,22.775-230.543
						c23.399-115.935,65.966-231.001,126.516-342c6.347-11.636,20.927-15.924,32.562-9.576c11.637,6.348,15.924,20.926,9.576,32.562
						c-59.064,108.273-98.841,215.731-121.604,328.515c-14.482,71.682-21.825,146.05-21.825,221.042V1756
						C1389.51,1769.255,1378.765,1780,1365.51,1780z"/>
				</g>
				<g>
					<path style="fill:#212121;" d="M1121.57,292H926.43c-13.255,0-24-10.745-24-24s10.745-24,24-24h195.14
						c13.255,0,24,10.745,24,24S1134.825,292,1121.57,292z"/>
				</g>
				<g>
					<path style="fill:#212121;" d="M828.845,633.51c-3.092,0-6.209-0.597-9.179-1.827c-8.968-3.715-14.815-12.466-14.815-22.173
						V365.57c0-6.366,2.529-12.471,7.03-16.972l97.58-97.569c6.863-6.864,17.185-8.918,26.155-5.202
						c8.968,3.715,14.815,12.466,14.815,22.173v243.93c0,6.365-2.528,12.47-7.029,16.971l-97.58,97.58
						C841.229,631.072,835.09,633.51,828.845,633.51z M852.85,375.512v176.057l49.58-49.58V325.937L852.85,375.512z M926.43,511.93
						h0.01H926.43z"/>
				</g>
				<g>
					<path style="fill:#212121;" d="M1219.155,633.51c-6.246,0-12.384-2.438-16.976-7.03l-97.58-97.58
						c-4.501-4.501-7.029-10.605-7.029-16.971V268c0-9.707,5.847-18.458,14.815-22.173c8.967-3.713,19.29-1.663,26.154,5.202
						l97.58,97.569c4.501,4.501,7.03,10.606,7.03,16.972v243.94c0,9.707-5.848,18.458-14.815,22.173
						C1225.366,632.913,1222.247,633.51,1219.155,633.51z M1145.57,501.989l49.58,49.58V375.512l-49.58-49.575V501.989z"/>
				</g>
				<g>
					<path style="fill:#212121;" d="M1024,633.51L1024,633.51c-6.365,0-12.471-2.529-16.972-7.03l-97.569-97.58
						c-9.373-9.373-9.372-24.569,0.001-33.941c9.373-9.372,24.568-9.372,33.941,0.002L1024,575.567l80.599-80.606
						c9.373-9.373,24.568-9.374,33.941-0.001s9.374,24.568,0.002,33.941l-97.57,97.58C1036.471,630.98,1030.365,633.51,1024,633.51z
						"/>
				</g>
				<g>
					<path style="fill:#212121;" d="M475.151,1011.61c-1.087,0-2.179-0.074-3.27-0.224c-6.96-0.957-13.151-4.915-16.94-10.831
						l-143.55-224.09c-5.375-8.391-5.006-19.23,0.927-27.235l204.53-275.98c2.58-3.48,6.053-6.198,10.051-7.864l292.72-121.97
						c12.236-5.097,26.288,0.688,31.385,12.923c5.098,12.235-0.688,26.287-12.923,31.385l-286.61,119.424L360.737,764.512
						l119.448,186.466L642.755,806.13c9.896-8.819,25.066-7.942,33.885,1.954c8.817,9.896,7.943,25.067-1.954,33.885
						l-183.569,163.56C486.693,1009.47,481,1011.61,475.151,1011.61z"/>
				</g>
				<g>
					<path style="fill:#212121;" d="M1572.849,1011.61c-5.849,0-11.539-2.139-15.963-6.079l-74.069-65.98l-110.969-98.829
						c-9.898-8.815-10.776-23.986-1.961-33.884c8.814-9.898,23.985-10.776,33.885-1.961l110.971,98.831l53.069,47.273
						l119.451-186.469l-190.733-257.364l-286.61-119.424c-12.234-5.098-18.021-19.149-12.922-31.385
						c5.097-12.236,19.146-18.022,31.385-12.923l292.72,121.97c3.998,1.666,7.472,4.383,10.051,7.864l204.53,275.98
						c5.933,8.006,6.302,18.845,0.927,27.236l-143.551,224.09c-3.789,5.915-9.979,9.873-16.938,10.83
						C1575.029,1011.536,1573.936,1011.61,1572.849,1011.61z"/>
				</g>
				<g>
					<path style="fill:#212121;" d="M1194.75,926.23c-53.585,0-97.18-43.595-97.18-97.18c0-53.585,43.595-97.18,97.18-97.18
						s97.18,43.595,97.18,97.18C1291.93,882.635,1248.335,926.23,1194.75,926.23z M1194.75,779.87
						c-27.118,0-49.18,22.062-49.18,49.18c0,27.118,22.062,49.18,49.18,49.18s49.18-22.062,49.18-49.18
						C1243.93,801.932,1221.868,779.87,1194.75,779.87z"/>
				</g>
				<g>
					<path style="fill:#212121;" d="M1498.758,945.633c-4.433,0-8.914-1.226-12.923-3.794c-11.161-7.149-14.413-21.994-7.264-33.155
						l155.22-242.31c7.149-11.161,21.994-14.413,33.154-7.263c11.161,7.149,14.413,21.993,7.264,33.155l-155.22,242.31
						C1514.408,941.728,1506.664,945.633,1498.758,945.633z"/>
				</g>
				<g>
					<path style="fill:#212121;" d="M549.209,945.627c-5.944,0-11.896-2.194-16.541-6.618l-0.01-0.01
						c-1.393-1.326-2.621-2.815-3.658-4.434l-155.21-242.3c-7.149-11.161-3.897-26.005,7.264-33.155
						c11.161-7.148,26.005-3.897,33.155,7.264l154.939,241.878c6.138,9.137,5.35,21.624-2.555,29.924
						C561.877,943.13,555.548,945.627,549.209,945.627z"/>
				</g>
				<g>
					<path style="fill:#212121;" d="M1365.51,1682.43H682.49c-13.255,0-24-10.745-24-24s10.745-24,24-24h683.02
						c13.255,0,24,10.745,24,24S1378.765,1682.43,1365.51,1682.43z"/>
				</g>
			</g>
		</g>
	</g>
</g>
<g id="Layer_1">
</g>
</svg>
