<?xml version="1.0" encoding="iso-8859-1"?>
<!-- Generator: Adobe Illustrator 25.2.0, SVG Export Plug-In . SVG Version: 6.00 Build 0)  -->
<svg version="1.1" xmlns="http://www.w3.org/2000/svg" xmlns:xlink="http://www.w3.org/1999/xlink" x="0px" y="0px"
	 viewBox="0 0 2048 2048" style="enable-background:new 0 0 2048 2048;" xml:space="preserve">
<g id="_x32_643.S2_-_Muscles">
	<g>
		<g id="XMLID_21_">
			<g>
				<g>
					<path style="fill:#F0C894;" d="M771.04,1000h2.39c40.39,0,80.1-9.72,116.33-27.59C911.44,961.72,946,952,1000,952
						c36.32,1.1,72.14,7.18,106.5,17.92s67.26,26.14,97.74,45.92c64.04-28.51,133.7-42.13,203.76-39.84
						c142.08,0,221.52,62.4,264.48,120.24L1768,1120v480v168h-336c-43.44-29.33-76.92-71.19-96-120c-24-48-24-72-48-120
						c-15.72-25.64-42.55-42.43-72.48-45.36c-7.75-1.56-15.62-2.44-23.52-2.64h-177.12c-60.45-0.03-120.41-10.75-177.12-31.68
						c-118.54-42.15-232.56-96.1-340.32-161.04c-62.99-39.57-122.77-84.02-178.8-132.96c-46.53-40.07-51.78-110.28-11.71-156.81
						c1.83-2.12,3.73-4.17,5.71-6.15L328,976l24-72c24-144,240-312,240-312l216-216l72-96h120l336,72l24,48v48v96l-48,72h-0.48
						c0.28,2.07,0.44,4.15,0.48,6.24c-0.01,23.06-18.7,41.75-41.76,41.76h-20.4c-6.49,0.03-12.9-1.45-18.72-4.32l-67.07-33.63
						c-6.59-3.31-13.52-5.82-20.65-7.5c-7.13-1.69-14.46-2.55-21.83-2.55c-18.18,0-35.99-5.18-51.25-15.05
						c-30.22-19.54-78.3-56.9-94.32-104.95l-71.79,102.57c-56.35,80.5-92.24,173.35-105.87,270.67
						C792.17,913.33,783.05,957.02,771.04,1000z"/>
				</g>
			</g>
			<g>
				<g>
					<path style="fill:#212121;" d="M1768,1792h-336c-4.786,0-9.463-1.431-13.43-4.109
						c-47.382-31.991-83.505-76.973-104.521-130.127c-12.441-25.043-18.731-43.915-24.818-62.174
						c-5.808-17.424-11.298-33.894-22.209-55.876c-11.795-18.654-31.849-31.035-53.842-33.188c-0.804-0.079-1.604-0.198-2.396-0.357
						c-6.26-1.26-12.685-1.989-19.103-2.168H1014.88c-63.455-0.031-125.787-11.171-185.285-33.111
						c-119.77-42.597-235.695-97.458-344.542-163.053c-0.127-0.076-0.253-0.154-0.379-0.233
						c-63.84-40.104-124.992-85.575-181.751-135.146c-27.329-23.56-43.857-56.347-46.545-92.332
						c-2.69-36.013,8.805-70.915,32.368-98.277c2.241-2.596,4.565-5.099,6.926-7.459l11.354-11.354l21.632-64.896
						c11.33-64.097,56.72-138.329,134.945-220.67c53.552-56.371,103.855-96.682,112.45-103.462l213.772-213.772L860.8,265.6
						c4.533-6.043,11.646-9.6,19.2-9.6h120c1.69,0,3.376,0.179,5.028,0.533l336,72c7.129,1.528,13.178,6.213,16.438,12.734l24,48
						c1.667,3.333,2.534,7.007,2.534,10.733v144c0,4.738-1.402,9.371-4.031,13.313l-43.978,65.966
						c-0.565,35.768-29.845,64.706-65.741,64.721h-20.362c-10.154,0.056-20.29-2.312-29.381-6.794
						c-0.048-0.024-0.096-0.048-0.145-0.072l-67.07-33.63c-4.897-2.459-10.073-4.339-15.396-5.594
						c-5.357-1.27-10.84-1.91-16.325-1.91c-22.94,0-45.169-6.535-64.284-18.897c-27.842-18.002-61.65-44.61-84.548-78.588
						l-48.866,69.817c-53.419,76.312-88.608,166.301-101.765,260.237c-4.758,33.998-11.29,68.025-19.483,101.54
						c26.209-3.379,52.227-11.242,76.519-23.223C909.943,935.7,950.604,928,1000,928c0.242,0,0.484,0.004,0.727,0.011
						c38.31,1.16,76.306,7.553,112.934,19.001c32.496,10.158,63.614,24.202,92.676,41.814
						c63.67-26.312,133.238-39.018,202.058-36.827c148.503,0.116,232.666,65.328,278.039,122.979l87.36,21.73
						c10.697,2.66,18.207,12.267,18.207,23.29v648C1792,1781.255,1781.255,1792,1768,1792z M1439.537,1744H1744v-605.238
						l-77.312-19.231c-5.396-1.342-10.158-4.516-13.474-8.979C1615.755,1060.118,1542.806,1000,1408,1000
						c-0.262,0-0.522-0.004-0.784-0.013c-66.027-2.156-132.851,10.904-193.215,37.778c-7.423,3.305-16.012,2.628-22.825-1.793
						c-28.486-18.485-59.384-33.001-91.836-43.145c-32.342-10.109-65.884-15.77-99.704-16.827
						c-52.057,0.045-82.707,9.772-99.262,17.936C860.498,1013.604,816.601,1024,773.43,1024h-2.39
						c-7.506,0-14.581-3.512-19.118-9.492s-6.017-13.738-3.997-20.967c11.679-41.795,20.644-84.735,26.646-127.627
						c14.204-101.411,52.232-198.616,109.977-281.107l71.79-102.569c5.2-7.429,14.138-11.293,23.116-9.988
						c8.974,1.306,16.445,7.557,19.313,16.16c13.941,41.813,58.979,75.831,84.584,92.387C1094.686,588.126,1107.9,592,1121.57,592
						c9.207,0,18.414,1.076,27.364,3.197c8.938,2.106,17.657,5.273,25.887,9.406l66.976,33.583c2.459,1.2,5.218,1.816,7.933,1.815
						c0.037,0,0.073,0,0.11,0h20.4c9.712-0.004,17.638-7.858,17.758-17.553c-0.029-1.078-0.117-2.162-0.262-3.227
						c-0.929-6.864,1.152-13.795,5.71-19.012c0.278-0.318,0.563-0.628,0.856-0.93L1336,536.733V405.666l-16.308-32.615L997.457,304
						H892l-64.8,86.4c-0.681,0.909-1.426,1.768-2.229,2.571l-216,216c-0.704,0.704-1.451,1.363-2.236,1.974
						c-2.082,1.621-208.89,163.97-231.062,297.001c-0.206,1.237-0.509,2.455-0.905,3.644l-24,72
						c-1.178,3.535-3.164,6.747-5.798,9.381l-15.36,15.36c-1.535,1.534-3.053,3.17-4.513,4.861
						c-15.177,17.624-22.59,40.132-20.855,63.357c1.735,23.226,12.41,44.387,30.058,59.584c0.042,0.037,0.085,0.074,0.127,0.111
						c54.839,47.899,113.916,91.837,175.595,130.597c106.084,63.912,219.054,117.361,335.777,158.865
						c0.09,0.032,0.18,0.064,0.269,0.098c54.211,20.007,111.011,30.166,168.822,30.195H1192c0.203,0,0.405,0.003,0.608,0.008
						c8.881,0.225,17.782,1.191,26.478,2.873c36.715,3.982,70.055,25.062,89.375,56.574c0.36,0.59,0.696,1.194,1.005,1.812
						c12.763,25.526,19.138,44.649,25.303,63.144c5.894,17.682,11.46,34.383,22.697,56.856c0.326,0.651,0.622,1.317,0.887,1.995
						C1374.87,1681.516,1402.86,1717.59,1439.537,1744z"/>
				</g>
				<g>
					<path style="fill:#212121;" d="M1312.019,640.005c-8.804,0-17.279-4.862-21.484-13.272l-9.91-19.82
						c-6.78-13.554-17.982-24.756-31.541-31.54c-19.874-9.937-36.502-25.198-48.084-44.132
						c-11.409-18.651-17.439-40.04-17.439-61.852c0-9.661,1.192-19.338,3.544-28.762l5.613-22.45
						c3.215-12.86,16.249-20.677,29.104-17.462c12.859,3.215,20.677,16.246,17.462,29.104l-5.61,22.44
						c-1.401,5.616-2.113,11.382-2.113,17.129c0,26.867,14.941,51.028,38.994,63.054c22.784,11.398,41.605,30.22,53,52.999
						l9.912,19.824c5.929,11.855,1.123,26.271-10.732,32.2C1319.288,639.189,1315.625,640.005,1312.019,640.005z"/>
				</g>
				<g>
					<path style="fill:#212121;" d="M976,520c-6.142,0-12.284-2.343-16.971-7.029l-14.06-14.06C918.55,472.491,904,437.364,904,400
						c0-13.255,10.745-24,24-24s24,10.745,24,24c0,24.542,9.557,47.616,26.911,64.969l14.06,14.06
						c9.372,9.373,9.372,24.569,0,33.941C988.284,517.657,982.142,520,976,520z"/>
				</g>
				<g>
					<path style="fill:#212121;" d="M1311.999,1216.027c-7.488,0-14.862-3.499-19.55-10.062c-7.705-10.785-5.185-25.79,5.602-33.494
						c1.87-1.337,46.59-32.913,113.391-48.818c89.382-21.279,176.005-4.398,250.508,48.818c10.786,7.704,13.284,22.693,5.58,33.479
						s-22.694,13.284-33.479,5.58c-63.298-45.212-133.897-59.199-209.846-41.569c-58.119,13.491-97.903,41.321-98.299,41.601
						C1321.684,1214.577,1316.817,1216.027,1311.999,1216.027z"/>
				</g>
				<g>
					<path style="fill:#212121;" d="M1167.249,1389.628c-6.176,0-12.388-0.134-18.645-0.399
						c-49.1-2.09-100.721-12.364-153.429-30.54c-89.156-30.743-150.376-73.233-152.939-75.027
						c-10.859-7.601-13.5-22.565-5.898-33.424c7.597-10.854,22.552-13.498,33.409-5.91l0,0
						c0.582,0.406,59.174,40.935,142.276,69.396c109.056,37.35,206.703,37.466,290.229,0.345
						c12.114-5.387,26.295,0.071,31.679,12.185c5.383,12.112-0.072,26.295-12.185,31.679
						C1274.364,1378.99,1222.469,1389.628,1167.249,1389.628z"/>
				</g>
				<g>
					<path style="fill:#212121;" d="M659.068,1121.446c-10.459,0-20.077-6.89-23.075-17.45
						c-3.621-12.751,3.781-26.022,16.532-29.643c30.713-8.721,56.087-25.035,75.417-48.487
						c14.748-17.893,20.352-33.527,20.407-33.683l-0.051,0.148l45.484,15.337c-1.165,3.453-29.648,84.89-128.146,112.859
						C663.445,1121.149,661.238,1121.446,659.068,1121.446z"/>
				</g>
				<g>
					<path style="fill:#212121;" d="M444.19,994.002c-0.913,0-1.833-0.052-2.762-0.159c-13.169-1.509-22.621-13.407-21.112-26.576
						c5.63-49.131,30.991-91.809,73.343-123.421c31.227-23.308,61.085-32.515,62.341-32.896
						c12.684-3.842,26.084,3.323,29.929,16.009c3.836,12.66-3.295,26.032-15.934,29.906c-0.417,0.131-24.311,7.721-48.81,26.34
						c-31.198,23.711-49.091,53.832-53.181,89.526C466.602,984.972,456.222,994.002,444.19,994.002z"/>
				</g>
				<g>
					<path style="fill:#212121;" d="M686.345,753.177c-0.654,0-1.305-0.008-1.96-0.025c-13.25-0.34-23.717-11.357-23.377-24.607
						c0.34-13.25,11.337-23.715,24.607-23.377c0.22,0.006,0.445,0.009,0.665,0.009c30.34,0,65.501-52.763,77.87-78.534
						c5.73-11.94,20.056-16.993,32.001-11.279c11.947,5.716,17.012,20.015,11.312,31.968c-0.502,1.053-12.522,26.072-32.105,51.084
						C746.9,734.761,716.96,753.177,686.345,753.177z"/>
				</g>
			</g>
		</g>
	</g>
</g>
<g id="Layer_1">
</g>
</svg>
