<?xml version="1.0" encoding="iso-8859-1"?>
<!-- Generator: Adobe Illustrator 25.2.0, SVG Export Plug-In . SVG Version: 6.00 Build 0)  -->
<svg version="1.1" xmlns="http://www.w3.org/2000/svg" xmlns:xlink="http://www.w3.org/1999/xlink" x="0px" y="0px"
	 viewBox="0 0 2048 2048" style="enable-background:new 0 0 2048 2048;" xml:space="preserve">
<g id="_x32_644.S2_-_Treadmill">
	<g>
		<g id="XMLID_22_">
			<g>
				<g>
					<path style="fill:#FFDC4A;" d="M1514.09,1346.4l29.91,74.4l-520.8,49.6v148.8H502.4l-98.45-65.63
						c-31.45-20.97-50.35-56.28-50.35-94.09c0-31.23,12.66-59.5,33.12-79.96s48.73-33.12,79.96-33.12H1514.09z"/>
				</g>
				<g>
					<path style="fill:#FFDC4A;" d="M1670.25,577.6h47.35c0,162.57-97.76,302.3-237.7,363.62c-36.24,15.88-75.32,26.5-116.27,30.89
						c-14.07,1.52-28.36,2.29-42.83,2.29H874.4v-99.2H1172h148.8c164.36,0,297.6-133.24,297.6-297.6H1670.25z"/>
				</g>
				<g>
					<polygon style="fill:#898890;" points="1767.2,1619.2 1767.2,1768 328.8,1768 328.8,1619.2 502.4,1619.2 1023.2,1619.2 
						1717.6,1619.2 					"/>
				</g>
				<g>
					<path style="fill:#C9CFD1;" d="M1692.8,329.6l-22.55,248h-51.85c0,164.36-133.24,297.6-297.6,297.6H1172L1544,280L1692.8,329.6
						z"/>
				</g>
				<g>
					<path style="fill:#57565C;" d="M1514.09,1346.4l-150.46-374.29c40.95-4.39,80.03-15.01,116.27-30.89l237.7,677.98h-694.4
						v-148.8l520.8-49.6L1514.09,1346.4z"/>
				</g>
			</g>
			<g>
				<g>
					<path style="fill:#212121;" d="M1767.2,1792H328.8c-13.255,0-24-10.745-24-24v-148.8c0-13.255,10.745-24,24-24h694.4
						c13.255,0,24,10.745,24,24s-10.745,24-24,24H352.8V1744h1390.4v-100.8H1717.6c-13.255,0-24-10.745-24-24s10.745-24,24-24
						h49.601c13.255,0,24,10.745,24,24V1768C1791.2,1781.255,1780.455,1792,1767.2,1792z"/>
				</g>
				<g>
					<path style="fill:#212121;" d="M1717.6,1643.207c-9.91,0-19.184-6.185-22.648-16.066l-237.699-677.98
						c-4.386-12.508,2.199-26.204,14.708-30.589c12.509-4.386,26.203,2.2,30.589,14.708l237.699,677.98
						c4.386,12.509-2.199,26.203-14.708,30.589C1722.913,1642.77,1720.233,1643.207,1717.6,1643.207z"/>
				</g>
				<g>
					<path style="fill:#212121;" d="M1717.6,1643.2H1023.2c-13.255,0-24-10.745-24-24v-148.8c0-12.373,9.407-22.719,21.725-23.892
						l488.827-46.556l-168.391-418.892c-4.943-12.298,1.019-26.276,13.317-31.22c12.297-4.945,26.275,1.017,31.22,13.316
						l180.369,448.689c2.823,7.022,2.169,14.966-1.767,21.431c-3.936,6.466-10.69,10.696-18.226,11.413l-499.075,47.532V1595.2
						H1717.6c13.255,0,24,10.745,24,24S1730.854,1643.2,1717.6,1643.2z"/>
				</g>
				<g>
					<path style="fill:#212121;" d="M1320.8,998.4H874.4c-13.255,0-24-10.745-24-24v-99.2c0-13.255,10.745-24,24-24h446.4
						c150.864,0,273.601-122.736,273.601-273.6c0-13.255,10.745-24,24-24h99.199c13.255,0,24,10.745,24,24
						c0,167.146-98.942,318.504-252.066,385.602c-39.191,17.173-80.69,28.199-123.346,32.771
						C1351.289,997.583,1336.012,998.4,1320.8,998.4z M898.4,950.4h422.4c13.496,0,27.039-0.724,40.252-2.151
						c37.789-4.05,74.527-13.811,109.217-29.011c128.299-56.219,213.665-179.2,222.562-317.638h-51.306
						c-5.632,76.863-38.268,148.354-93.318,203.406c-60.742,60.742-141.504,94.194-227.406,94.194H898.4V950.4z"/>
				</g>
				<g>
					<path style="fill:#212121;" d="M502.378,1643.203c-4.575,0-9.198-1.306-13.291-4.033l-98.45-65.63
						c-38.221-25.485-61.038-68.124-61.038-114.06c0-36.615,14.259-71.04,40.149-96.932c25.89-25.89,60.314-40.148,96.931-40.148
						h1047.41c13.255,0,24.005,10.745,24.005,24s-10.74,24-23.995,24H466.68c-23.795,0-46.165,9.266-62.989,26.09
						c-16.825,16.825-26.091,39.195-26.091,62.99c0,29.852,14.828,57.561,39.665,74.122l98.448,65.628
						c11.029,7.353,14.009,22.253,6.657,33.282C517.745,1639.449,510.133,1643.203,502.378,1643.203z"/>
				</g>
				<g>
					<path style="fill:#212121;" d="M1171.978,899.204c-4.345,0-8.742-1.179-12.697-3.651c-11.24-7.025-14.657-21.832-7.632-33.072
						l372-595.201c5.875-9.4,17.426-13.553,27.941-10.048l148.8,49.6c10.565,3.522,17.32,13.85,16.312,24.942l-22.55,248
						c-1.2,13.2-12.875,22.927-26.074,21.728c-13.201-1.2-22.929-12.875-21.729-26.075l20.828-229.069l-112.84-37.614
						L1192.352,887.92C1187.799,895.205,1179.978,899.204,1171.978,899.204z"/>
				</g>
			</g>
		</g>
	</g>
</g>
<g id="Layer_1">
</g>
</svg>
