<?xml version="1.0" encoding="iso-8859-1"?>
<!-- Generator: Adobe Illustrator 25.2.0, SVG Export Plug-In . SVG Version: 6.00 Build 0)  -->
<svg version="1.1" xmlns="http://www.w3.org/2000/svg" xmlns:xlink="http://www.w3.org/1999/xlink" x="0px" y="0px"
	 viewBox="0 0 2048 2048" style="enable-background:new 0 0 2048 2048;" xml:space="preserve">
<g id="_x32_645.S2_-_Measuring_Tape">
	<g>
		<g id="XMLID_23_">
			<g>
				<g>
					<path style="fill:#FF9911;" d="M1420.8,875.2v297.6H850.4C1165.42,1172.8,1420.8,1039.56,1420.8,875.2z"/>
				</g>
				<g>
					<path style="fill:#FFDC4A;" d="M1420.8,875.2c0,164.36-255.38,297.6-570.4,297.6S280,1039.56,280,875.2
						s255.38-297.6,570.4-297.6S1420.8,710.84,1420.8,875.2z M1294.04,875.2c0-91.31-198.62-165.33-443.64-165.33
						S406.76,783.89,406.76,875.2s198.62,165.33,443.64,165.33S1294.04,966.51,1294.04,875.2z"/>
				</g>
				<g>
					<ellipse style="fill:#FF9911;" cx="850.4" cy="875.2" rx="443.64" ry="165.33"/>
				</g>
				<g>
					<path style="fill:#FF9911;" d="M751.2,1470.4H652h-26.16c-191,0-345.84-154.84-345.84-345.84V875.2
						c0,164.36,255.38,297.6,570.4,297.6h570.4h124v22.16c0,24.18,9.72,47.35,27.02,64.24c13.59,13.27,22.58,36.26,22.58,62.4
						s-8.99,49.13-22.58,62.4c-17.3,16.89-27.02,40.06-27.02,64.24v22.16h-99.2h-99.2h-99.2H1148h-99.2h-99.2h-99.2H751.2z"/>
				</g>
				<g>
					<path style="fill:#898890;" d="M1768,1172.8v297.6h-223.2v-22.16c0-24.18,9.72-47.35,27.02-64.24
						c13.59-13.27,22.58-36.26,22.58-62.4s-8.99-49.13-22.58-62.4c-17.3-16.89-27.02-40.06-27.02-64.24v-22.16H1768z"/>
				</g>
			</g>
			<g>
				<g>
					<path style="fill:#212121;" d="M850.4,1196.8c-156.153,0-303.335-31.923-414.434-89.887
						c-55.311-28.858-98.976-62.758-129.784-100.76C272.884,965.079,256,921.02,256,875.2c0-45.82,16.884-89.879,50.182-130.954
						c30.808-38.001,74.473-71.902,129.784-100.76C547.065,585.522,694.247,553.6,850.4,553.6s303.335,31.922,414.434,89.887
						c55.311,28.858,98.977,62.758,129.784,100.76c33.298,41.074,50.182,85.133,50.182,130.954
						c0,45.82-16.884,89.879-50.182,130.953c-30.808,38.001-74.474,71.902-129.784,100.76
						C1153.735,1164.877,1006.553,1196.8,850.4,1196.8z M850.4,601.6c-148.563,0-287.861,29.989-392.231,84.443
						C358.751,737.913,304,805.09,304,875.2c0,70.11,54.751,137.287,154.169,189.157c104.37,54.454,243.667,84.443,392.231,84.443
						c148.564,0,287.861-29.989,392.231-84.443c99.417-51.87,154.169-119.047,154.169-189.157
						c0-70.11-54.752-137.288-154.169-189.157C1138.261,631.589,998.964,601.6,850.4,601.6z"/>
				</g>
				<g>
					<path style="fill:#212121;" d="M850.4,1064.53c-121.292,0-235.677-17.734-322.083-49.935
						c-43.501-16.211-78.007-35.4-102.56-57.034c-28.53-25.138-42.997-52.849-42.997-82.361c0-29.513,14.466-57.223,42.997-82.361
						c24.553-21.634,59.059-40.823,102.56-57.034c86.406-32.201,200.791-49.935,322.083-49.935s235.677,17.734,322.083,49.935
						c43.501,16.211,78.007,35.4,102.56,57.034c28.531,25.138,42.997,52.848,42.997,82.361c0,29.513-14.466,57.223-42.997,82.361
						c-24.553,21.633-59.059,40.822-102.56,57.034C1086.077,1046.796,971.692,1064.53,850.4,1064.53z M850.4,733.87
						c-115.712,0-224.145,16.661-305.322,46.913C473.496,807.459,430.76,842.756,430.76,875.2s42.736,67.74,114.318,94.417
						c81.178,30.252,189.609,46.913,305.322,46.913s224.144-16.661,305.322-46.913c71.582-26.677,114.318-61.973,114.318-94.417
						s-42.736-67.741-114.318-94.417C1074.544,750.531,966.112,733.87,850.4,733.87z"/>
				</g>
				<g>
					<path style="fill:#212121;" d="M1768,1494.4H625.84c-49.917,0-98.354-9.782-143.965-29.074
						c-44.043-18.629-83.593-45.293-117.551-79.251s-60.622-73.508-79.25-117.551C265.782,1222.913,256,1174.477,256,1124.56V875.2
						c0-13.255,10.745-24,24-24s24,10.745,24,24v249.359c0,177.464,144.376,321.841,321.84,321.841H1744V1196.8H850.4
						c-13.255,0-24-10.745-24-24s10.745-24,24-24H1768c13.255,0,24,10.745,24,24V1470.4C1792,1483.655,1781.255,1494.4,1768,1494.4z
						"/>
				</g>
				<g>
					<path style="fill:#212121;" d="M1544.8,1494.4c-13.255,0-24-10.745-24-24v-22.16c0-30.487,12.485-60.161,34.255-81.414
						c7.418-7.242,15.346-22.928,15.346-45.227c0-22.298-7.928-37.983-15.347-45.228c-21.769-21.252-34.254-50.926-34.254-81.412
						v-22.16c0-13.255,10.745-24,24-24s24,10.745,24,24v22.16c0,17.636,7.212,34.791,19.786,47.067
						c18.669,18.229,29.814,47.976,29.814,79.572c0,31.598-11.146,61.344-29.813,79.572c-12.575,12.276-19.787,29.432-19.787,47.068
						v22.16C1568.8,1483.655,1558.055,1494.4,1544.8,1494.4z"/>
				</g>
				<g>
					<path style="fill:#212121;" d="M1420.8,1196.8c-13.255,0-24-10.745-24-24V875.2c0-13.255,10.745-24,24-24s24,10.745,24,24
						v297.6C1444.8,1186.055,1434.055,1196.8,1420.8,1196.8z"/>
				</g>
				<g>
					<path style="fill:#212121;" d="M652,1494.4c-13.255,0-24-10.745-24-24v-99.2c0-13.255,10.745-24,24-24s24,10.745,24,24v99.2
						C676,1483.655,665.255,1494.4,652,1494.4z"/>
				</g>
				<g>
					<path style="fill:#212121;" d="M751.2,1494.4c-13.255,0-24-10.745-24-24V1321.6c0-13.255,10.745-24,24-24s24,10.745,24,24
						V1470.4C775.2,1483.655,764.455,1494.4,751.2,1494.4z"/>
				</g>
				<g>
					<path style="fill:#212121;" d="M850.4,1494.4c-13.255,0-24-10.745-24-24v-99.2c0-13.255,10.745-24,24-24s24,10.745,24,24v99.2
						C874.4,1483.655,863.655,1494.4,850.4,1494.4z"/>
				</g>
				<g>
					<path style="fill:#212121;" d="M949.6,1494.4c-13.255,0-24-10.745-24-24V1321.6c0-13.255,10.745-24,24-24s24,10.745,24,24
						V1470.4C973.6,1483.655,962.855,1494.4,949.6,1494.4z"/>
				</g>
				<g>
					<path style="fill:#212121;" d="M1048.8,1494.4c-13.255,0-24-10.745-24-24v-99.2c0-13.255,10.745-24,24-24s24,10.745,24,24v99.2
						C1072.8,1483.655,1062.055,1494.4,1048.8,1494.4z"/>
				</g>
				<g>
					<path style="fill:#212121;" d="M1148,1494.4c-13.255,0-24-10.745-24-24V1321.6c0-13.255,10.745-24,24-24s24,10.745,24,24
						V1470.4C1172,1483.655,1161.255,1494.4,1148,1494.4z"/>
				</g>
				<g>
					<path style="fill:#212121;" d="M1247.2,1494.4c-13.255,0-24-10.745-24-24v-99.2c0-13.255,10.745-24,24-24s24,10.745,24,24v99.2
						C1271.2,1483.655,1260.455,1494.4,1247.2,1494.4z"/>
				</g>
				<g>
					<path style="fill:#212121;" d="M1346.4,1494.4c-13.255,0-24-10.745-24-24V1321.6c0-13.255,10.745-24,24-24s24,10.745,24,24
						V1470.4C1370.4,1483.655,1359.655,1494.4,1346.4,1494.4z"/>
				</g>
				<g>
					<path style="fill:#212121;" d="M1445.6,1494.4c-13.255,0-24-10.745-24-24v-99.2c0-13.255,10.745-24,24-24s24,10.745,24,24v99.2
						C1469.6,1483.655,1458.854,1494.4,1445.6,1494.4z"/>
				</g>
			</g>
		</g>
	</g>
</g>
<g id="Layer_1">
</g>
</svg>
