<?xml version="1.0" encoding="iso-8859-1"?>
<!-- Generator: Adobe Illustrator 25.2.0, SVG Export Plug-In . SVG Version: 6.00 Build 0)  -->
<svg version="1.1" xmlns="http://www.w3.org/2000/svg" xmlns:xlink="http://www.w3.org/1999/xlink" x="0px" y="0px"
	 viewBox="0 0 2048 2048" style="enable-background:new 0 0 2048 2048;" xml:space="preserve">
<g id="_x32_646.S2_-_Baseball">
	<g>
		<g>
			<g id="XMLID_24_">
				<g>
					<g>
						<path style="fill:#898890;" d="M1754.71,400.77c18.75,18.75,18.75,49.14,0,67.89l-2.27,2.27c-18.75,18.75-49.14,18.75-67.88,0
							l-1.14-1.14l-105.23-105.23l-1.14-1.14c-18.75-18.74-18.75-49.14,0-67.88l2.27-2.28c18.75-18.74,49.14-18.74,67.88,0
							L1754.71,400.77z"/>
					</g>
					<g>
						<g>
							
								<rect x="1546.114" y="377.846" transform="matrix(0.7071 -0.7071 0.7071 0.7071 147.5845 1260.8104)" style="fill:#FF4B58;" width="99.221" height="148.818"/>
						</g>
					</g>
					<g>
						
							<rect x="1475.956" y="448.002" transform="matrix(0.7071 -0.7071 0.7071 0.7071 77.4262 1231.7484)" style="fill:#898890;" width="99.218" height="148.821"/>
					</g>
					<g>
						<g>
							<path style="fill:#FF4B58;" d="M1543.1,610.11l-5.24,5.25c-21.69,21.69-42.4,44.29-62.08,67.74l-110.9-110.91
								c23.45-19.67,46.05-40.38,67.74-62.07l5.25-5.25L1543.1,610.11z"/>
						</g>
					</g>
					<g>
						<path style="fill:#898890;" d="M1364.88,572.19l110.9,110.91c-10.43,12.42-20.58,25.08-30.42,37.97
							c-10.42,13.64-20.51,27.53-30.25,41.67l-129.88-129.88C1312.73,613.92,1339.31,593.67,1364.88,572.19z"/>
					</g>
					<g>
						<path style="fill:#E1E6E9;" d="M676.99,1434.62c1.62,41.21,10.55,82.19,26.77,120.84h-0.01L535.38,1724.1
							c-58.12,58.13-152.35,58.13-210.47,0c-58.13-58.12-58.13-152.35,0-210.47l662.18-663.22c33.19-33.17,68.5-64.08,105.71-92.5
							c37.21-28.42,76.31-54.36,117.05-77.65c25.81-14.74,50.96-30.56,75.38-47.4l129.88,129.88
							c-16.84,24.43-32.65,49.57-47.4,75.38c-46.57,81.48-103.78,156.4-170.14,222.77l-39.5,39.55v0.01
							c-38.5-16.1-79.31-24.95-120.35-26.57c-93.4-3.67-187.99,30.14-259.29,101.44C707.12,1246.62,673.31,1341.22,676.99,1434.62z"
							/>
					</g>
					<g>
						<path style="fill:#EBF0F3;" d="M1073.68,1553.56c11.18-15.79,23.85-30.85,37.99-44.99c14.15-14.15,29.21-26.82,45-38
							c32.13-22.8,67.26-39.47,103.79-50.02c36-10.42,73.35-14.89,110.51-13.43c3.67,93.4-30.14,188-101.44,259.3
							c-71.31,71.3-165.9,105.11-259.3,101.44c-1.46-37.16,3.01-74.5,13.43-110.5C1034.21,1620.83,1050.88,1585.69,1073.68,1553.56z
							"/>
					</g>
					<g>
						<path style="fill:#EBF0F3;" d="M787.49,1421.19c36.53-10.55,71.67-27.23,103.8-50.02c15.79-11.19,30.85-23.85,44.99-38
							c14.14-14.14,26.81-29.2,37.99-44.99c22.8-32.13,39.47-67.27,50.02-103.8c10.42-36,14.89-73.34,13.43-110.5
							c41.04,1.62,81.85,10.47,120.35,26.57c40.52,16.94,78.48,41.9,111.46,74.87c64.31,64.3,98.12,147.57,101.44,231.8
							c-37.16-1.46-74.51,3.01-110.51,13.43c-36.53,10.55-71.66,27.22-103.79,50.02c-15.79,11.18-30.85,23.85-45,38
							c-14.14,14.14-26.81,29.2-37.99,44.99c-22.8,32.13-39.47,67.27-50.02,103.8c-10.42,36-14.89,73.34-13.43,110.5
							c-84.24-3.32-167.49-37.14-231.8-101.44c-32.85-32.84-57.74-70.63-74.67-110.96c-16.22-38.65-25.15-79.63-26.77-120.84
							C714.15,1436.08,751.5,1431.6,787.49,1421.19z"/>
					</g>
					<g>
						<path style="fill:#EBF0F3;" d="M891.29,1371.17c-32.13,22.79-67.27,39.47-103.8,50.02c-35.99,10.41-73.34,14.89-110.5,13.43
							c-3.68-93.4,30.13-188,101.44-259.3c71.3-71.3,165.89-105.11,259.29-101.44c1.46,37.16-3.01,74.5-13.43,110.5
							c-10.55,36.53-27.22,71.67-50.02,103.8c-11.18,15.79-23.85,30.85-37.99,44.99C922.14,1347.32,907.08,1359.98,891.29,1371.17z"
							/>
					</g>
				</g>
				<g>
					<g>
						<path style="fill:#212121;" d="M1024.218,1792.136c-4.966,0-9.941-0.098-14.93-0.294
							c-93.557-3.688-181.569-42.202-247.827-108.45c-34.33-34.319-61.189-74.236-79.831-118.642
							c-17.237-41.076-26.867-84.54-28.622-129.188c-1.996-50.664,6.133-100.273,24.162-147.448
							c18.669-48.85,47.028-92.509,84.291-129.766c37.255-37.256,80.913-65.612,129.758-84.281
							c47.171-18.029,96.782-26.159,147.443-24.169c44.501,1.757,87.789,11.315,128.668,28.41
							c44.599,18.645,84.693,45.575,119.168,80.04c66.25,66.239,104.766,154.253,108.453,247.827
							c1.991,50.668-6.141,100.277-24.169,147.45c-18.669,48.85-47.025,92.509-84.281,129.766
							c-37.264,37.258-80.924,65.613-129.77,84.281C1114.203,1783.926,1069.695,1792.136,1024.218,1792.136z M1024.18,1097.614
							c-85.438,0-168.208,34.105-228.779,94.677c-63.552,63.543-97.97,151.523-94.429,241.384
							c1.528,38.891,9.912,76.739,24.918,112.498c16.217,38.631,39.603,73.378,69.508,103.273
							c57.695,57.686,134.326,91.223,215.778,94.433c89.88,3.53,177.834-30.889,241.386-94.431
							c63.54-63.541,97.958-151.522,94.427-241.386c-3.211-81.468-36.745-158.098-94.427-215.771
							c-30.034-30.024-64.94-53.475-103.748-69.699c-0.001,0-0.002,0-0.003-0.001c-35.582-14.88-73.277-23.2-112.037-24.73
							C1032.572,1097.696,1028.37,1097.614,1024.18,1097.614z"/>
					</g>
					<g>
						<path style="fill:#212121;" d="M1010.214,1791.86c-12.82,0-23.457-10.134-23.965-23.058
							c-1.574-40.024,3.257-79.764,14.357-118.115c11.51-39.854,29.511-77.21,53.5-111.017
							c12.032-16.992,25.694-33.173,40.593-48.071c14.907-14.907,31.091-28.572,48.103-40.617
							c33.788-23.978,71.142-41.979,110.999-53.49c38.335-11.097,78.079-15.925,118.111-14.354
							c13.244,0.521,23.56,11.679,23.039,24.924s-11.653,23.557-24.924,23.039c-34.883-1.366-69.499,2.836-102.895,12.502
							c-34.682,10.016-67.169,25.673-96.573,46.539c-14.826,10.498-28.923,22.402-41.919,35.398
							c-12.988,12.988-24.89,27.081-35.374,41.888c-20.877,29.422-36.534,61.913-46.549,96.591
							c-9.671,33.411-13.877,68.026-12.506,102.898c0.521,13.244-9.794,24.403-23.039,24.924
							C1010.853,1791.854,1010.532,1791.86,1010.214,1791.86z"/>
					</g>
					<g>
						<path style="fill:#212121;" d="M690.784,1458.892c-4.866,0-9.733-0.095-14.608-0.285
							c-12.878-0.43-23.191-11.004-23.191-23.986c0-13.255,10.74-24,23.995-24h0.01c0.314,0,0.628,0.006,0.942,0.019
							c34.853,1.368,69.47-2.837,102.89-12.503c34.667-10.013,67.159-25.671,96.583-46.541
							c14.861-10.531,28.955-22.437,41.898-35.389c12.994-12.993,24.895-27.087,35.38-41.896
							c20.878-29.421,36.535-61.911,46.55-96.59c9.67-33.408,13.876-68.023,12.506-102.898
							c-0.521-13.245,9.795-24.404,23.039-24.924c13.268-0.514,24.403,9.795,24.924,23.039
							c1.572,40.027-3.258,79.768-14.357,118.115c-11.51,39.854-29.512,77.211-53.501,111.017
							c-12.033,16.993-25.695,33.174-40.593,48.071c-14.846,14.857-31.026,28.523-48.083,40.611
							c-33.818,23.987-71.172,41.988-111.017,53.496C760.503,1453.979,725.797,1458.891,690.784,1458.892z"/>
					</g>
					<g>
						<path style="fill:#212121;" d="M1081.607,1702.957c-2.784,0-5.614-0.488-8.376-1.517l-127.791-47.61
							c-12.421-4.628-18.739-18.448-14.111-30.869c4.627-12.422,18.451-18.734,30.869-14.111l127.791,47.61
							c12.421,4.628,18.738,18.448,14.111,30.869C1100.502,1696.988,1091.343,1702.957,1081.607,1702.957z"/>
					</g>
					<g>
						<path style="fill:#212121;" d="M1282.053,1502.507c-9.736,0-18.894-5.968-22.493-15.628l-47.601-127.793
							c-4.626-12.421,1.693-26.241,14.115-30.867c12.424-4.623,26.24,1.694,30.867,14.115l47.599,127.787
							c4.627,12.421-1.69,26.241-14.111,30.869C1287.668,1502.019,1284.836,1502.507,1282.053,1502.507z"/>
					</g>
					<g>
						<path style="fill:#212121;" d="M1129.192,1620.261c-5.106,0-10.251-1.622-14.612-4.976l-99.149-76.239
							c-10.508-8.08-12.477-23.147-4.396-33.655c8.079-10.508,23.146-12.477,33.654-4.397l99.151,76.241
							c10.508,8.08,12.476,23.147,4.396,33.655C1143.509,1617.036,1136.39,1620.261,1129.192,1620.261z"/>
					</g>
					<g>
						<path style="fill:#212121;" d="M1199.388,1550.101c-7.198,0-14.316-3.224-19.043-9.371l-76.241-99.15
							c-8.079-10.508-6.11-25.575,4.397-33.654c10.508-8.081,25.576-6.111,33.655,4.396l76.239,99.148
							c8.08,10.508,6.112,25.575-4.396,33.655C1209.64,1548.478,1204.493,1550.101,1199.388,1550.101z"/>
					</g>
					<g>
						<path style="fill:#212121;" d="M813.503,1515.037c-9.738,0-18.896-5.97-22.494-15.631l-47.599-127.787
							c-4.627-12.421,1.69-26.241,14.111-30.869c12.421-4.626,26.241,1.69,30.869,14.111l47.601,127.793
							c4.626,12.421-1.693,26.241-14.115,30.867C819.116,1514.549,816.286,1515.037,813.503,1515.037z"/>
					</g>
					<g>
						<path style="fill:#212121;" d="M1094.127,1234.407c-2.784,0-5.614-0.488-8.376-1.517l-127.781-47.611
							c-12.421-4.628-18.738-18.449-14.109-30.869c4.627-12.42,18.446-18.737,30.87-14.109l127.778,47.609
							c12.421,4.628,18.738,18.448,14.111,30.869C1113.021,1228.438,1103.862,1234.407,1094.127,1234.407z"/>
					</g>
					<g>
						<path style="fill:#212121;" d="M924.847,1438.781c-7.197,0-14.314-3.224-19.042-9.37l-76.25-99.151
							c-8.08-10.507-6.113-25.575,4.395-33.655c10.508-8.079,25.577-6.111,33.655,4.396l76.25,99.149
							c8.081,10.507,6.114,25.574-4.393,33.655C935.101,1437.158,929.954,1438.781,924.847,1438.781z"/>
					</g>
					<g>
						<path style="fill:#212121;" d="M1017.872,1345.721c-5.106,0-10.251-1.622-14.611-4.976l-99.15-76.239
							c-10.508-8.079-12.476-23.147-4.396-33.655c8.08-10.507,23.147-12.477,33.655-4.396l99.149,76.239
							c10.508,8.079,12.477,23.147,4.396,33.654C1032.189,1342.496,1025.069,1345.721,1017.872,1345.721z"/>
					</g>
					<g>
						<path style="fill:#212121;" d="M1718.496,508.993c-19.233,0-37.314-7.492-50.911-21.096l-1.14-1.14
							c-9.37-9.375-9.367-24.57,0.008-33.941c9.374-9.372,24.569-9.367,33.941,0.007l1.14,1.14
							c4.53,4.533,10.555,7.029,16.962,7.029c6.41,0,12.438-2.498,16.974-7.033l2.268-2.268c9.362-9.362,9.362-24.591,0.002-33.951
							l-107.51-107.51c-9.354-9.354-24.58-9.353-33.943,0.004l-2.229,2.239c-4.573,4.571-7.069,10.596-7.069,17.006
							s2.496,12.435,7.028,16.965l1.142,1.141c9.375,9.371,9.378,24.566,0.008,33.941c-9.37,9.375-24.567,9.378-33.941,0.007
							l-1.141-1.14c-13.604-13.596-21.096-31.678-21.096-50.914s7.492-37.318,21.097-50.915l2.229-2.239
							c28.117-28.102,73.791-28.102,101.857-0.037l107.51,107.51c28.075,28.075,28.075,73.756,0,101.832l-2.268,2.268
							C1755.81,501.502,1737.728,508.993,1718.496,508.993z"/>
					</g>
					<g>
						<path style="fill:#212121;" d="M430.145,1791.697c-46.164,0-89.564-17.98-122.207-50.629
							c-32.646-32.639-50.625-76.039-50.625-122.203s17.98-89.564,50.628-122.207l662.165-663.205
							c33.892-33.872,70.265-65.699,108.126-94.616c37.925-28.966,78.199-55.684,119.706-79.413
							c25.075-14.32,49.857-29.904,73.667-46.322c26.742-18.418,52.927-38.363,77.838-59.289
							c22.816-19.139,45.088-39.545,66.206-60.664l145.57-145.56c4.501-4.501,10.605-7.029,16.971-7.029s12.47,2.528,16.971,7.029
							l105.229,105.23c9.372,9.373,9.372,24.569,0,33.941l-145.542,145.552c-21.114,21.114-41.525,43.386-60.685,66.215
							c-10.223,12.172-20.222,24.653-29.728,37.104c-10.213,13.371-20.157,27.069-29.561,40.721
							c-16.396,23.785-31.981,48.57-46.329,73.674c-47.632,83.337-106.175,159.991-174.005,227.831l-39.49,39.541
							c-9.367,9.378-24.562,9.388-33.941,0.021c-9.378-9.366-9.388-24.562-0.021-33.941l39.5-39.551
							c64.825-64.835,120.769-138.083,166.284-217.719c15.014-26.271,31.324-52.209,48.478-77.092
							c9.842-14.29,20.253-28.631,30.938-42.618c9.95-13.034,20.42-26.102,31.113-38.835c20.047-23.887,41.409-47.197,63.488-69.276
							l5.222-5.232l123.367-123.367l-71.288-71.289l-128.6,128.59c-22.104,22.104-45.416,43.464-69.287,63.487
							c-26.063,21.895-53.475,42.774-81.46,62.048c-24.911,17.178-50.853,33.49-77.093,48.475
							c-39.656,22.671-78.144,48.204-114.384,75.883c-36.178,27.631-70.937,58.047-103.312,90.402l-662.161,663.201
							c-23.595,23.592-36.582,54.938-36.582,88.278s12.986,64.687,36.566,88.262c23.58,23.584,54.925,36.57,88.266,36.57
							c33.341,0,64.687-12.986,88.263-36.566l168.358-168.628c9.366-9.38,24.562-9.392,33.941-0.027
							c9.38,9.365,9.392,24.562,0.027,33.941l-168.371,168.64C519.709,1773.718,476.309,1791.697,430.145,1791.697z"/>
					</g>
					<g>
						<path style="fill:#212121;" d="M1613.26,563.95c-6.143,0-12.284-2.343-16.971-7.029l-105.229-105.23
							c-9.372-9.373-9.372-24.569,0-33.941c9.372-9.372,24.569-9.372,33.941,0l105.229,105.23c9.372,9.373,9.372,24.569,0,33.941
							C1625.545,561.606,1619.401,563.95,1613.26,563.95z"/>
					</g>
					<g>
						<path style="fill:#212121;" d="M1543.1,634.11c-6.143,0-12.285-2.343-16.972-7.03l-105.229-105.24
							c-9.372-9.373-9.371-24.569,0.002-33.941c9.372-9.371,24.569-9.372,33.941,0.001l105.229,105.24
							c9.372,9.373,9.371,24.569-0.002,33.941C1555.384,631.767,1549.241,634.11,1543.1,634.11z"/>
					</g>
					<g>
						<path style="fill:#212121;" d="M1475.78,707.1c-6.143,0-12.284-2.343-16.972-7.03l-110.9-110.91
							c-9.372-9.373-9.371-24.569,0.002-33.941c9.372-9.372,24.567-9.372,33.941,0.001l110.9,110.91
							c9.372,9.373,9.371,24.569-0.002,33.941C1488.064,704.757,1481.922,707.1,1475.78,707.1z"/>
					</g>
					<g>
						<path style="fill:#212121;" d="M1415.113,786.748c-6.14,0-12.278-2.342-16.964-7.027l-129.89-129.89
							c-9.372-9.373-9.372-24.569,0-33.941c9.373-9.372,24.57-9.372,33.941,0l129.88,129.88c9.372,9.373,9.377,24.574,0.005,33.946
							C1427.398,784.403,1421.255,786.748,1415.113,786.748z"/>
					</g>
				</g>
			</g>
		</g>
	</g>
</g>
<g id="Layer_1">
</g>
</svg>
