<?xml version="1.0" encoding="iso-8859-1"?>
<!-- Generator: Adobe Illustrator 25.2.0, SVG Export Plug-In . SVG Version: 6.00 Build 0)  -->
<svg version="1.1" xmlns="http://www.w3.org/2000/svg" xmlns:xlink="http://www.w3.org/1999/xlink" x="0px" y="0px"
	 viewBox="0 0 2048 2048" style="enable-background:new 0 0 2048 2048;" xml:space="preserve">
<g id="_x32_647.S2_-_Glove">
	<g>
		<g>
			<g id="XMLID_25_">
				<g>
					<g>
						<polygon style="fill:#2E7D32;" points="1567.17,1668.8 1567.17,1768 971.97,1768 971.97,1606.14 1171.27,1569.6 
							1517.57,1569.6 1567.17,1569.6 						"/>
					</g>
					<g>
						<polygon style="fill:#4CAF50;" points="594.48,1574.49 576.59,1476.92 625.38,1467.97 1113.24,1378.54 1162.04,1369.59 
							1197.81,1564.73 1171.27,1569.6 971.97,1606.14 612.37,1672.07 						"/>
					</g>
					<g>
						<path style="fill:#4CAF50;" d="M1198.17,524.99c13.47,13.47,21.8,32.07,21.8,52.61v-99.2c0-41.09,33.31-74.4,74.4-74.4
							c20.54,0,39.14,8.33,52.6,21.79c13.47,13.47,21.8,32.07,21.8,52.61v148.8c0-41.09,33.31-74.4,74.4-74.4
							c20.54,0,39.14,8.33,52.6,21.79c13.47,13.47,21.8,32.07,21.8,52.61v369.02l101.3-92.39c30.37-27.68,77.43-25.51,105.12,4.85
							c13,14.26,19.42,32.22,19.42,50.11c0,20.2-8.17,40.32-24.27,54.99l-99.53,90.77c-65,59.27-102.04,143.18-102.04,231.14v233.91
							h-346.3l26.54-4.87l-35.77-195.14l-48.8,8.95l-17.74-96.82c-4.12-22.47-6.17-45.19-6.17-67.88
							c0-42.33,7.14-84.52,21.28-124.77c21.71-61.82,26.92-128.22,15.11-192.66l-54.55-297.53V577.6c0-41.09,33.31-74.4,74.4-74.4
							C1166.11,503.2,1184.71,511.53,1198.17,524.99z"/>
					</g>
					<g>
						<path style="fill:#8BC34A;" d="M903.43,509.06c-7.26-40.33,19.47-78.96,59.8-86.35c4.54-0.82,9.06-1.23,13.5-1.23
							c35.23,0,66.52,25.12,73.1,61l21.34,116.4l54.55,297.53c11.81,64.44,6.6,130.84-15.11,192.66
							c-14.14,40.25-21.28,82.44-21.28,124.77c0,22.69,2.05,45.41,6.17,67.88l17.74,96.82l-487.86,89.43L583.2,1237.9
							c-15.86-86.53-67.42-162.37-142.04-208.95l-114.28-71.33c-22.6-14.11-35.01-38.37-35.01-63.19c0-13.45,3.65-27.07,11.3-39.32
							c21.76-34.86,67.65-45.48,102.51-23.72L521.99,904l-66.55-362.98c-3.7-20.2,1.14-40,11.95-55.67
							c10.82-15.67,27.61-27.22,47.82-30.92c40.41-7.41,79.18,19.35,86.59,59.76l-26.83-146.36c-0.83-4.54-1.23-9.05-1.23-13.5
							c0-35.23,25.12-66.52,61-73.1c40.41-7.41,79.18,19.35,86.59,59.77l17.89,97.57c-0.83-4.54-1.23-9.05-1.23-13.5
							c0-35.23,25.11-66.52,60.99-73.1c40.42-7.41,79.19,19.35,86.6,59.77l17.84,97.32H903.43z"/>
					</g>
				</g>
				<g>
					<g>
						<path style="fill:#212121;" d="M1219.97,998.4c-13.255,0-24-10.745-24-24V577.6c0-13.255,10.745-24,24-24s24,10.745,24,24
							v396.8C1243.97,987.655,1233.225,998.4,1219.97,998.4z"/>
					</g>
					<g>
						<path style="fill:#212121;" d="M1368.77,998.4c-13.255,0-24-10.745-24-24V627.2c0-13.255,10.745-24,24-24s24,10.745,24,24
							v347.2C1392.77,987.655,1382.024,998.4,1368.77,998.4z"/>
					</g>
					<g>
						<path style="fill:#212121;" d="M1517.57,1593.6H1171.27c-13.255,0-24-10.745-24-24s10.745-24,24-24h322.301V1335.69
							c0-94.494,40.046-185.206,109.869-248.875l99.528-90.769c10.452-9.524,16.442-23.101,16.442-37.257
							c0-12.581-4.672-24.635-13.156-33.941c-18.723-20.529-50.674-22.004-71.217-3.281l-101.294,92.385
							c-7.025,6.406-17.17,8.063-25.864,4.224c-8.697-3.839-14.309-12.45-14.309-21.956V627.2c0-13.458-5.246-26.115-14.771-35.639
							c-9.519-9.519-22.172-14.761-35.629-14.761c-27.791,0-50.4,22.609-50.4,50.4c0,13.255-10.745,24-24,24s-24-10.745-24-24V478.4
							c0-13.458-5.245-26.115-14.77-35.639c-9.52-9.519-22.173-14.761-35.63-14.761c-27.791,0-50.4,22.609-50.4,50.4v99.2
							c0,13.255-10.745,24-24,24s-24-10.745-24-24c0-13.458-5.245-26.114-14.771-35.639c-9.519-9.519-22.171-14.761-35.629-14.761
							c-27.791,0-50.4,22.609-50.4,50.4v19.098l54.156,295.384c12.541,68.424,6.983,139.291-16.071,204.94
							c-13.222,37.633-19.925,76.936-19.925,116.817c0,21.267,1.943,42.648,5.776,63.552l17.741,96.823
							c2.389,13.037-6.244,25.543-19.282,27.933c-13.042,2.388-25.544-6.244-27.933-19.282l-17.74-96.82
							c-4.354-23.748-6.562-48.043-6.562-72.205c0-45.314,7.616-89.97,22.637-132.725c20.292-57.781,25.184-120.156,14.146-180.378
							l-54.55-297.529c-0.262-1.428-0.394-2.876-0.394-4.328V577.6c0-54.258,44.143-98.4,98.4-98.4
							c18.03,0,35.319,4.817,50.399,13.844V478.4c0-54.258,44.143-98.4,98.4-98.4c26.278,0,50.985,10.235,69.57,28.819
							c18.591,18.589,28.829,43.3,28.829,69.581v64.312c14.749-8.831,31.994-13.913,50.4-13.913
							c26.278,0,50.985,10.235,69.57,28.819c18.591,18.591,28.83,43.302,28.83,69.581v314.648l61.127-55.75
							c40.104-36.55,102.467-33.673,139.025,6.41c16.566,18.171,25.688,41.709,25.688,66.283c0,27.63-11.702,54.139-32.106,72.73
							l-99.521,90.763c-59.873,54.596-94.212,132.38-94.212,213.407V1569.6C1541.57,1582.854,1530.825,1593.6,1517.57,1593.6z"/>
					</g>
					<g>
						<path style="fill:#212121;" d="M1417.316,1111.65c-6.515,0-13.005-2.636-17.74-7.829c-8.932-9.794-8.232-24.974,1.562-33.905
							l100.261-91.43c9.796-8.931,24.975-8.231,33.905,1.562c8.932,9.794,8.232,24.974-1.562,33.905l-100.261,91.43
							C1428.88,1109.579,1423.089,1111.65,1417.316,1111.65z"/>
					</g>
					<g>
						<path style="fill:#212121;" d="M1567.17,1792h-595.2c-13.255,0-24-10.745-24-24v-161.86c0-13.255,10.745-24,24-24
							s24,10.745,24,24V1744h547.2v-150.4h-25.6c-13.255,0-24-10.745-24-24s10.745-24,24-24h49.6c13.255,0,24,10.745,24,24V1768
							C1591.17,1781.255,1580.425,1792,1567.17,1792z"/>
					</g>
					<g>
						<path style="fill:#212121;" d="M1567.17,1692.8h-396.8c-13.255,0-24-10.745-24-24s10.745-24,24-24h396.8
							c13.255,0,24,10.745,24,24S1580.425,1692.8,1567.17,1692.8z"/>
					</g>
					<g>
						<path style="fill:#212121;" d="M957.113,826.034c-11.362,0-21.457-8.102-23.579-19.677l-53.71-292.97
							c-9.596-53.303,25.886-104.537,79.081-114.285c5.984-1.081,11.961-1.623,17.826-1.623c47.463,0,88.134,33.927,96.707,80.671
							l21.34,116.401c2.391,13.038-6.241,25.544-19.278,27.935c-13.041,2.392-25.544-6.241-27.935-19.278l-21.34-116.4
							c-4.392-23.946-25.207-41.328-49.494-41.328c-3.012,0-6.119,0.285-9.235,0.848c-27.181,4.98-45.352,31.22-40.444,58.48
							l53.696,292.894c2.39,13.038-6.241,25.544-19.279,27.934C960.005,825.904,958.548,826.034,957.113,826.034z"/>
					</g>
					<g>
						<path style="fill:#212121;" d="M957.103,826.034c-11.362,0-21.457-8.102-23.579-19.677l-71.55-390.29
							c-2.428-13.244-9.868-24.75-20.948-32.397c-11.08-7.647-24.475-10.521-37.718-8.094c-23.94,4.39-41.317,25.205-41.317,49.493
							c0,3.05,0.282,6.14,0.839,9.184c2.384,13.039-6.254,25.541-19.292,27.925c-13.033,2.389-25.541-6.252-27.925-19.292
							c-1.076-5.884-1.622-11.878-1.622-17.816c0-47.464,33.923-88.135,80.661-96.706c25.857-4.74,52.008,0.873,73.641,15.803
							c21.632,14.93,36.155,37.392,40.895,63.246l71.55,390.29c2.39,13.038-6.241,25.544-19.279,27.934
							C959.995,825.904,958.538,826.034,957.103,826.034z"/>
					</g>
					<g>
						<path style="fill:#212121;" d="M810.743,852.875c-11.362,0-21.458-8.102-23.579-19.677l-71.55-390.3l-17.89-97.569
							c-2.428-13.245-9.867-24.75-20.947-32.398c-11.078-7.646-24.47-10.521-37.707-8.094
							c-23.948,4.392-41.329,25.207-41.329,49.494c0,3.05,0.282,6.14,0.839,9.184l26.828,146.349
							c2.39,13.037-6.242,25.544-19.279,27.934c-13.042,2.394-25.544-6.242-27.934-19.279l-26.83-146.36
							c-1.078-5.896-1.623-11.89-1.623-17.828c0-47.463,33.927-88.134,80.671-96.707c25.853-4.741,52.001,0.873,73.632,15.804
							c21.631,14.931,36.153,37.391,40.893,63.245l17.89,97.569l71.55,390.301c2.39,13.038-6.241,25.544-19.279,27.934
							C813.635,852.745,812.178,852.875,810.743,852.875z"/>
					</g>
					<g>
						<path style="fill:#212121;" d="M521.963,928.004c-11.362,0-21.457-8.102-23.579-19.676l-66.55-362.98
							c-4.734-25.848,0.878-51.994,15.801-73.626c14.946-21.646,37.408-36.168,63.253-40.899
							c25.845-4.739,51.993,0.873,73.625,15.803c21.631,14.929,36.154,37.387,40.894,63.236l62.61,341.511
							c2.39,13.037-6.241,25.544-19.279,27.934c-13.035,2.39-25.544-6.241-27.934-19.278l-62.61-341.511
							c-2.428-13.238-9.866-24.741-20.946-32.388c-11.079-7.646-24.468-10.521-37.709-8.093c-13.24,2.424-24.744,9.864-32.399,20.95
							c-7.641,11.076-10.517,24.471-8.092,37.709l66.549,362.976c2.391,13.038-6.241,25.544-19.278,27.935
							C524.856,927.875,523.398,928.004,521.963,928.004z"/>
					</g>
					<g>
						<path style="fill:#212121;" d="M625.353,1491.974c-11.362,0.001-21.457-8.101-23.579-19.676l-42.18-230.069
							c-14.608-79.697-62.407-150.013-131.142-192.919l-114.279-71.33c-28.994-18.102-46.302-49.335-46.302-83.549
							c0-18.386,5.167-36.378,14.943-52.033c28.729-46.024,89.549-60.095,135.575-31.367l231.41,144.46
							c11.244,7.019,14.669,21.824,7.65,33.068c-7.019,11.243-21.824,14.669-33.068,7.65l-231.41-144.46
							c-23.572-14.713-54.725-7.507-69.442,16.07c-5.011,8.025-7.659,17.226-7.659,26.612c0,17.546,8.868,33.559,23.72,42.832
							l114.278,71.329c80.159,50.038,135.903,132.04,152.939,224.982l42.179,230.068c2.39,13.038-6.241,25.545-19.278,27.935
							C628.245,1491.845,626.788,1491.974,625.353,1491.974z"/>
					</g>
					<g>
						<path style="fill:#212121;" d="M612.371,1696.07c-4.836,0-9.597-1.462-13.632-4.247c-5.239-3.615-8.827-9.164-9.975-15.425
							l-35.78-195.15c-2.39-13.036,6.24-25.543,19.276-27.935l48.791-8.95l487.863-89.43h-0.003l48.801-8.95
							c6.258-1.146,12.722,0.237,17.961,3.854c5.239,3.615,8.827,9.164,9.975,15.426l35.77,195.141
							c2.39,13.036-6.24,25.542-19.275,27.934l-225.842,41.409l-359.6,65.931C615.261,1695.94,613.812,1696.07,612.371,1696.07z
							 M604.524,1496.196l27.124,147.939l538.228-98.681l-27.115-147.929l-25.191,4.62c0,0-0.001,0-0.002,0l-487.86,89.43
							L604.524,1496.196z M1113.24,1378.54h0.01H1113.24z"/>
					</g>
					<g>
						<path style="fill:#212121;" d="M594.453,1598.494c-11.362,0-21.458-8.102-23.579-19.677
							c-2.39-13.037,6.241-25.544,19.279-27.934l390.3-71.55c13.041-2.394,25.545,6.242,27.935,19.279s-6.242,25.544-19.279,27.934
							l-390.3,71.55C597.345,1598.365,595.888,1598.494,594.453,1598.494z"/>
					</g>
				</g>
			</g>
		</g>
	</g>
</g>
<g id="Layer_1">
</g>
</svg>
