<?xml version="1.0" encoding="iso-8859-1"?>
<!-- Generator: Adobe Illustrator 25.2.0, SVG Export Plug-In . SVG Version: 6.00 Build 0)  -->
<svg version="1.1" xmlns="http://www.w3.org/2000/svg" xmlns:xlink="http://www.w3.org/1999/xlink" x="0px" y="0px"
	 viewBox="0 0 2048 2048" style="enable-background:new 0 0 2048 2048;" xml:space="preserve">
<g id="_x32_648.S2_-_Ice_Skate">
	<g>
		<g id="XMLID_26_">
			<g>
				<g>
					<path style="fill:#4CAF50;" d="M1767.19,1247.35l-1.28,0.23l-540.09,98.82h-124L652,1123.2l-321.21,16.76l-1.09,0.02
						c-1.68-85.58,18.37-193.41,102.52-289.58V503.2l514.21-51.42l17.46,117.19l-112.03,52.37c-18.02,8.43-28.61,26.31-28.61,44.98
						c0,7.03,1.5,14.17,4.67,20.96c11.61,24.82,41.13,35.53,65.94,23.93l92.16-43.08c11.81,36.3,27.11,71.32,45.68,104.58
						l-80.64,37.7c-18.02,8.43-28.61,26.31-28.61,44.97c0,7.04,1.5,14.18,4.67,20.97c11.61,24.82,41.13,35.52,65.94,23.93
						l94.92-44.37c2.68,3.31,5.4,6.6,8.16,9.86c20.13,23.78,41.96,45.75,65.24,65.79l-59.17,27.65
						c-18.02,8.43-28.61,26.3-28.61,44.96c0,7.04,1.51,14.18,4.68,20.98c11.6,24.82,41.12,35.52,65.94,23.93l110.69-51.74h0.01
						c13.82,7.83,27.95,15.1,42.36,21.77c19.72,9.16,39.95,17.21,60.61,24.12l-78.3,39.7c-18.02,8.43-28.61,26.3-28.61,44.96
						c0,7.04,1.51,14.18,4.68,20.98c11.6,24.82,41.12,35.52,65.94,23.93l206.07-99.43h0.01c5.52,0.15,11.03,0.23,16.57,0.23h32.29
						C1676.32,1073.6,1758.26,1149.91,1767.19,1247.35z"/>
				</g>
				<g>
					<path style="fill:#2E7D32;" d="M1768,1265.06v106.14l-100.89,18.46l-180.24,32.98l-140.47,25.7l-120.58,22.06h-28.22h-95.78
						l-446.4-223.2V1396H577.6H428.8h-70.98v-99.2c0,0-26.34-65.84-28.12-156.82l1.09-0.02L652,1123.2l449.82,223.2h124
						l540.09-98.82l1.28-0.23C1767.73,1253.18,1768,1259.09,1768,1265.06z"/>
				</g>
				<g>
					<path style="fill:#898890;" d="M1667.11,1389.66c16.9,31.42,26.49,67.36,26.49,105.54c0,61.63-24.99,117.43-65.38,157.82
						s-96.19,65.38-157.82,65.38h-1116c-41.09,0-74.4-33.31-74.4-74.4c0-20.54,8.33-39.14,21.79-52.61
						c13.47-13.46,32.07-21.79,52.61-21.79h74.4h148.8h620v-99.2h28.22l120.58-22.06v121.26h124c41.09,0,74.4-33.31,74.4-74.4
						c0-20.54-8.33-39.14-21.79-52.61c-9.76-9.75-22.21-16.81-36.14-19.95L1667.11,1389.66z"/>
				</g>
				<g>
					<path style="fill:#8BC34A;" d="M1527.67,1073.37l-206.07,99.43c-24.82,11.59-54.34,0.89-65.94-23.93
						c-3.17-6.8-4.68-13.94-4.68-20.98c0-18.66,10.59-36.53,28.61-44.96l78.3-39.7C1412.18,1061.42,1469.34,1071.72,1527.67,1073.37
						z"/>
				</g>
				<g>
					<path style="fill:#8BC34A;" d="M1254.91,997.34l-110.69,51.74c-24.82,11.59-54.34,0.89-65.94-23.93
						c-3.17-6.8-4.68-13.94-4.68-20.98c0-18.66,10.59-36.53,28.61-44.96l59.17-27.65C1190.47,956.59,1221.8,978.58,1254.91,997.34z"
						/>
				</g>
				<g>
					<path style="fill:#8BC34A;" d="M1087.98,855.91l-94.92,44.37c-24.81,11.59-54.33,0.89-65.94-23.93
						c-3.17-6.79-4.67-13.93-4.67-20.97c0-18.66,10.59-36.54,28.61-44.97l80.64-37.7C1047.99,801.92,1066.81,829.75,1087.98,855.91z
						"/>
				</g>
				<g>
					<path style="fill:#8BC34A;" d="M986.02,668.13l-92.16,43.08c-24.81,11.6-54.33,0.89-65.94-23.93
						c-3.17-6.79-4.67-13.93-4.67-20.96c0-18.67,10.59-36.55,28.61-44.98l112.03-52.37l5.25,35.2
						C973.57,625.85,979.22,647.21,986.02,668.13z"/>
				</g>
				<g>
					<polygon style="fill:#8BC34A;" points="928.22,329.6 946.43,451.78 432.22,503.2 432.22,379.2 					"/>
				</g>
				<g>
					<rect x="428.8" y="1396" style="fill:#C6C5CB;" width="148.8" height="173.6"/>
				</g>
			</g>
			<g>
				<g>
					<path style="fill:#212121;" d="M577.6,1593.6c-13.255,0-24-10.745-24-24V1396c0-13.255,10.745-24,24-24s24,10.745,24,24v173.6
						C601.6,1582.854,590.855,1593.6,577.6,1593.6z"/>
				</g>
				<g>
					<path style="fill:#212121;" d="M428.8,1593.6c-13.255,0-24-10.745-24-24V1396c0-13.255,10.745-24,24-24s24,10.745,24,24v173.6
						C452.8,1582.854,442.055,1593.6,428.8,1593.6z"/>
				</g>
				<g>
					<path style="fill:#212121;" d="M1470.4,1593.6h-124c-13.255,0-24-10.745-24-24v-121.26c0-13.255,10.745-24,24-24
						s24,10.745,24,24v97.26h100c27.79,0,50.399-22.609,50.399-50.399c0-13.457-5.244-26.116-14.767-35.646
						c-6.754-6.747-15.211-11.422-24.441-13.503c-12.931-2.915-21.049-15.761-18.134-28.69c2.915-12.932,15.762-21.056,28.69-18.134
						c18.092,4.079,34.629,13.202,47.823,26.383c18.596,18.609,28.828,43.318,28.828,69.59
						C1568.8,1549.458,1524.658,1593.6,1470.4,1593.6z"/>
				</g>
				<g>
					<path style="fill:#212121;" d="M1470.4,1742.4h-1116c-54.258,0-98.4-44.143-98.4-98.4c0-26.271,10.232-50.979,28.812-69.574
						c18.607-18.594,43.316-28.826,69.587-28.826h819.2V1470.4c0-13.255,10.745-24,24-24s24,10.745,24,24v99.199
						c0,13.255-10.745,24-24,24H354.4c-13.457,0-26.116,5.244-35.646,14.767C309.245,1617.884,304,1630.543,304,1644
						c0,27.791,22.609,50.4,50.4,50.4h1116c53.2,0,103.221-20.723,140.849-58.352c37.628-37.627,58.351-87.647,58.351-140.849
						c0-32.871-8.17-65.435-23.626-94.172c-6.278-11.673-1.905-26.227,9.769-32.505c11.671-6.277,26.226-1.906,32.505,9.769
						c19.202,35.702,29.353,76.128,29.353,116.908c0,66.022-25.716,128.098-72.409,174.79
						C1598.497,1716.685,1536.422,1742.4,1470.4,1742.4z"/>
				</g>
				<g>
					<path style="fill:#212121;" d="M1225.82,1494.4h-124c-3.726,0-7.4-0.867-10.733-2.534L679.42,1286.033V1396
						c0,13.255-10.745,24-24,24h-297.6c-13.255,0-24-10.745-24-24v-94.843c-6.161-16.997-26.518-79.046-28.115-160.707
						c-1.017-51.827,5.757-101.744,20.135-148.362c16.995-55.104,44.691-105.714,82.38-150.567V379.2
						c0-12.33,9.343-22.654,21.612-23.881l496-49.6c12.741-1.275,24.239,7.679,26.126,20.343l35.67,239.372
						c1.954,13.11-7.091,25.321-20.201,27.274c-13.117,1.956-25.322-7.091-27.274-20.201l-32.299-216.75L456.22,400.92V850.4
						c0,5.813-2.11,11.429-5.938,15.804c-66.166,75.617-98.662,167.57-96.586,273.306c1.664,85.057,26.173,147.784,26.42,148.408
						c1.117,2.816,1.704,5.852,1.704,8.882v75.2h249.6v-124.8c0-8.317,4.307-16.043,11.382-20.416s15.911-4.771,23.351-1.05
						l441.333,220.666h116.155L1744,1351.193v-86.134c0-5.216-0.238-10.43-0.707-15.496
						c-7.941-86.644-79.629-151.964-166.753-151.964h-32.29c-5.592,0-11.386-0.08-17.222-0.238
						c-13.25-0.36-23.699-11.393-23.34-24.643c0.36-13.25,11.404-23.706,24.643-23.34c5.404,0.147,10.76,0.221,15.919,0.221h32.29
						c54.081,0,105.796,20.119,145.618,56.649c39.568,36.299,64.049,85.631,68.932,138.91c0.604,6.509,0.91,13.212,0.91,19.9V1371.2
						c0,11.589-8.281,21.522-19.681,23.608l-542.18,99.2C1228.715,1494.27,1227.269,1494.4,1225.82,1494.4z M1768,1371.2h0.01H1768z
						"/>
				</g>
				<g>
					<path style="fill:#212121;" d="M1527.683,1097.37c-0.229,0-0.46-0.003-0.691-0.01c-60.216-1.703-119.676-12.259-176.727-31.374
						c-21.42-7.165-42.652-15.615-63.095-25.111c-14.831-6.864-29.672-14.491-44.081-22.655
						c-11.532-6.534-15.584-21.18-9.051-32.712c6.534-11.532,21.178-15.586,32.713-9.051c13.271,7.52,26.936,14.542,40.61,20.871
						c18.852,8.757,38.403,16.538,58.142,23.14c52.575,17.616,107.36,27.341,162.846,28.911
						c13.249,0.375,23.687,11.419,23.312,24.669C1551.292,1087.067,1540.623,1097.37,1527.683,1097.37z"/>
				</g>
				<g>
					<path style="fill:#212121;" d="M1254.888,1021.344c-4.009,0-8.071-1.006-11.809-3.123
						c-34.542-19.571-67.297-42.607-97.353-68.469c-24.31-20.926-47.154-43.963-67.905-68.476
						c-2.806-3.314-5.663-6.768-8.494-10.265c-21.954-27.127-41.665-56.267-58.588-86.612
						c-19.286-34.542-35.283-71.166-47.542-108.844c-4.101-12.604,2.792-26.147,15.397-30.248
						c12.604-4.101,26.146,2.792,30.248,15.397c11.296,34.722,26.037,68.469,43.812,100.305
						c15.594,27.962,33.754,54.809,53.981,79.802c2.608,3.223,5.241,6.404,7.821,9.452c19.125,22.593,40.18,43.826,62.579,63.107
						c27.69,23.825,57.872,45.052,89.704,63.087c11.532,6.534,15.584,21.18,9.05,32.712
						C1271.375,1016.966,1263.251,1021.344,1254.888,1021.344z"/>
				</g>
				<g>
					<path style="fill:#212121;" d="M1225.82,1370.4h-124c-3.701,0-7.353-0.856-10.668-2.501l-444.185-220.404l-314.927,16.433
						c-13.242,0.668-24.527-9.48-25.218-22.717c-0.691-13.237,9.48-24.527,22.717-25.219l321.21-16.76
						c4.119-0.216,8.224,0.636,11.918,2.469l444.78,220.699h116.195l537.948-98.429l2.054-0.373
						c13.036-2.407,25.552,6.211,27.957,19.246c2.405,13.034-6.211,25.552-19.245,27.957l-0.811,0.149
						c-0.034,0.006-0.068,0.013-0.104,0.019l-1.28,0.23l-540.022,98.809C1228.715,1370.27,1227.27,1370.4,1225.82,1370.4z"/>
				</g>
				<g>
					<path style="fill:#212121;" d="M432.191,527.202c-12.181,0-22.614-9.236-23.852-21.614
						c-1.319-13.189,8.304-24.95,21.493-26.269l514.21-51.42c13.194-1.322,24.95,8.304,26.269,21.493s-8.304,24.95-21.493,26.269
						l-514.21,51.42C433.797,527.162,432.99,527.202,432.191,527.202z"/>
				</g>
				<g>
					<path style="fill:#212121;" d="M872.974,739.873c-27.708,0-54.297-15.71-66.793-42.424c-4.601-9.855-6.931-20.323-6.931-31.128
						c0-28.469,16.659-54.658,42.44-66.719l112.037-52.373c6.865-3.208,14.84-2.987,21.517,0.597
						c6.675,3.584,11.267,10.11,12.384,17.604l5.154,34.559c4.193,20.402,9.596,40.829,16.063,60.723
						c3.745,11.523-1.686,24.03-12.661,29.161l-92.161,43.08C893.978,737.648,883.395,739.873,872.974,739.873z M944.9,604.34
						l-82.876,38.742c-8.972,4.197-14.773,13.32-14.773,23.238c0,3.736,0.813,7.373,2.417,10.807
						c5.977,12.775,21.244,18.32,34.028,12.342l73.281-34.255c-4.388-15.29-8.189-30.771-11.35-46.24
						c-0.086-0.419-0.16-0.84-0.223-1.264L944.9,604.34z"/>
				</g>
				<g>
					<path style="fill:#212121;" d="M972.179,928.936c-27.712,0-54.305-15.709-66.798-42.417
						c-4.602-9.856-6.931-20.328-6.931-31.139c0-28.463,16.659-54.648,42.44-66.708l80.646-37.703
						c12.006-5.613,26.291-0.431,31.905,11.577s0.431,26.292-11.577,31.906l-80.64,37.7c-8.973,4.198-14.774,13.316-14.774,23.229
						c0,3.743,0.813,7.383,2.417,10.818c5.974,12.771,21.245,18.312,34.034,12.338l94.916-44.368
						c12.007-5.612,26.292-0.428,31.905,11.579c5.612,12.008,0.429,26.292-11.579,31.905l-94.921,44.37
						C993.177,926.715,982.598,928.936,972.179,928.936z"/>
				</g>
				<g>
					<path style="fill:#212121;" d="M1123.332,1077.736c-27.721,0.002-54.311-15.712-66.795-42.425
						c-4.606-9.882-6.938-20.353-6.938-31.141c0-28.457,16.659-54.637,42.44-66.699l59.18-27.654
						c12.005-5.611,26.292-0.426,31.903,11.583s0.426,26.292-11.583,31.904l-59.17,27.65c-8.969,4.196-14.771,13.311-14.771,23.217
						c0,3.729,0.818,7.376,2.434,10.839c5.964,12.763,21.237,18.299,34.032,12.325l110.682-51.737
						c3.182-1.487,6.651-2.258,10.163-2.258c13.255,0,24.005,10.745,24.005,24c0,9.866-5.951,18.341-14.459,22.031l-110.073,51.452
						C1144.335,1075.514,1133.751,1077.735,1123.332,1077.736z"/>
				</g>
				<g>
					<path style="fill:#212121;" d="M1300.712,1201.457c-27.717,0.001-54.311-15.713-66.795-42.426
						c-4.605-9.881-6.937-20.352-6.937-31.142c0-28.317,16.495-54.38,42.061-66.52l77.995-39.546
						c11.824-5.994,26.265-1.27,32.259,10.552c5.994,11.822,1.271,26.265-10.552,32.259l-78.3,39.7
						c-0.227,0.114-0.454,0.226-0.684,0.333c-8.978,4.2-14.779,13.314-14.779,23.221c0,3.73,0.818,7.378,2.432,10.84
						c5.946,12.723,21.14,18.269,33.913,12.38l205.915-99.354c3.253-1.57,6.818-2.385,10.43-2.385c13.255,0,24.005,10.745,24.005,24
						c0,9.76-5.823,18.159-14.186,21.91l-205.46,99.135c-0.092,0.044-0.184,0.088-0.275,0.131
						C1321.709,1199.236,1311.131,1201.457,1300.712,1201.457z"/>
				</g>
			</g>
		</g>
	</g>
</g>
<g id="Layer_1">
</g>
</svg>
