<?xml version="1.0" encoding="iso-8859-1"?>
<!-- Generator: Adobe Illustrator 25.2.0, SVG Export Plug-In . SVG Version: 6.00 Build 0)  -->
<svg version="1.1" xmlns="http://www.w3.org/2000/svg" xmlns:xlink="http://www.w3.org/1999/xlink" x="0px" y="0px"
	 viewBox="0 0 2048 2048" style="enable-background:new 0 0 2048 2048;" xml:space="preserve">
<g id="_x32_649.S2_-_Sports_Man">
	<g>
		<g id="XMLID_27_">
			<g>
				<g>
					<path style="fill:#898890;" d="M1273.89,447.35c0,26.95-4.27,52.51-13.2,73.35l-17.15,40.02h-167.75
						c-29.55,0-57.21-10.06-79.27-27.28c-22.06-17.23-38.53-41.62-45.7-70.29l-146.36,97.57v-73.18v-16.1
						c0-71.94,58.32-130.26,130.26-130.26c45.17,0,89.92-6.14,133.06-18.08c43.14-11.95,84.66-29.71,123.4-52.95l3.57-2.15
						C1245.19,298.26,1273.89,377.46,1273.89,447.35z"/>
				</g>
				<g>
					<path style="fill:#E1E6E9;" d="M1267.93,1292.52c26.95,0,48.79,21.85,48.79,48.79c0,26.95-21.84,48.79-48.79,48.79
						c-26.94,0-48.78-21.84-48.78-48.79C1219.15,1314.37,1240.99,1292.52,1267.93,1292.52z"/>
				</g>
				<g>
					<polygon style="fill:#FF9911;" points="1299.24,1102.82 1024,1316.92 748.76,1102.82 855.96,1064.25 1024,1194.95 
						1192.04,1064.25 					"/>
				</g>
				<g>
					<path style="fill:#FFDC4A;" d="M1316.72,1560.85V1756H731.28v-195.15H560.52v-48.78v-179.02c0-97.49,61.17-184.5,152.9-217.51
						l35.34-12.72l275.24,214.1l275.24-214.1l35.34,12.72c91.73,33.01,152.9,120.02,152.9,217.51v179.02v48.78H1316.72z
						 M1316.72,1341.31c0-26.94-21.84-48.79-48.79-48.79c-26.94,0-48.78,21.85-48.78,48.79c0,26.95,21.84,48.79,48.78,48.79
						C1294.88,1390.1,1316.72,1368.26,1316.72,1341.31z"/>
				</g>
				<g>
					<rect x="560.52" y="1560.85" style="fill:#E2B481;" width="170.76" height="195.15"/>
				</g>
				<g>
					<rect x="1316.72" y="1560.85" style="fill:#E2B481;" width="170.76" height="195.15"/>
				</g>
				<g>
					<path style="fill:#E2B481;" d="M1192.04,1064.25L1024,1194.95l-168.04-130.7l43.52-15.66l26.95-120.39
						c29.39,14.6,62.52,22.82,97.57,22.82c35.05,0,68.18-8.22,97.57-22.82l26.95,120.39L1192.04,1064.25z"/>
				</g>
				<g>
					<path style="fill:#F0C894;" d="M926.43,928.2c-21.45-10.66-40.91-24.72-57.67-41.48c-39.73-39.74-64.3-94.62-64.3-155.24
						V585.11v-24.39l146.36-97.57c7.17,28.67,23.64,53.06,45.7,70.29c22.06,17.22,49.72,27.28,79.27,27.28h167.75v170.76
						c0,86.19-49.68,160.79-121.97,196.72c-29.39,14.6-62.52,22.82-97.57,22.82C988.95,951.02,955.82,942.8,926.43,928.2z"/>
				</g>
			</g>
			<g>
				<g>
					<path style="fill:#212121;" d="M731.28,1780c-13.255,0-24-10.745-24-24v-243.93c0-13.255,10.745-24,24-24s24,10.745,24,24V1756
						C755.28,1769.255,744.535,1780,731.28,1780z"/>
				</g>
				<g>
					<path style="fill:#212121;" d="M1316.72,1780c-13.255,0-24-10.745-24-24v-243.93c0-13.255,10.745-24,24-24s24,10.745,24,24
						V1756C1340.72,1769.255,1329.975,1780,1316.72,1780z"/>
				</g>
				<g>
					<path style="fill:#212121;" d="M1024,975.02c-37.999,0-74.418-8.521-108.247-25.326
						c-23.692-11.774-45.211-27.251-63.963-46.003c-45.999-46.01-71.33-107.168-71.33-172.211V585.11c0-13.255,10.745-24,24-24
						s24,10.745,24,24v146.37c0,52.224,20.34,101.33,57.272,138.272c15.067,15.067,32.354,27.501,51.379,36.956
						c27.131,13.478,56.365,20.312,86.889,20.312c30.522,0,59.758-6.834,86.894-20.314
						c67.014-33.308,108.646-100.452,108.646-175.226V560.72c0-13.255,10.745-24,24-24s24,10.745,24,24v170.76
						c0,46.197-13,91.164-37.594,130.039c-23.918,37.805-57.699,68.295-97.694,88.173C1098.417,966.499,1061.998,975.02,1024,975.02
						z"/>
				</g>
				<g>
					<path style="fill:#212121;" d="M1487.48,1780H560.52c-13.255,0-24-10.745-24-24v-422.95c0-52.8,16.051-103.541,46.417-146.737
						c30.365-43.195,72.675-75.477,122.356-93.354l173.648-62.484l23.965-107.053c2.215-10.966,11.906-19.226,23.524-19.226
						c13.255,0,24,10.74,24,23.995v0.01c0,1.764-0.194,3.522-0.58,5.243l-26.95,120.39c-1.794,8.017-7.565,14.559-15.294,17.34
						l-186.058,66.95c-81.961,29.494-137.028,107.829-137.028,194.928V1732h878.96v-398.95c0-87.098-55.066-165.434-137.026-194.928
						l-186.061-66.95c-7.729-2.781-13.5-9.323-15.295-17.34l-26.948-120.39c-0.386-1.721-0.58-3.479-0.58-5.243
						c0-13.255,10.745-24.005,24-24.005c11.651,0,21.363,8.298,23.543,19.309l23.945,106.969l173.649,62.484
						c49.68,17.878,91.989,50.159,122.354,93.354c30.367,43.197,46.418,93.938,46.418,146.737V1756
						C1511.48,1769.255,1500.735,1780,1487.48,1780z"/>
				</g>
				<g>
					<path style="fill:#212121;" d="M804.46,609.11c-13.255,0-24-10.745-24-24V471.44c0-85.059,69.201-154.26,154.26-154.26
						c42.782,0,85.396-5.791,126.659-17.21c41.225-11.42,80.744-28.377,117.454-50.4l3.536-2.129
						c7.604-4.579,17.115-4.587,24.728-0.021c28.229,16.936,51.844,46.728,68.289,86.155c14.512,34.793,22.504,75.2,22.504,113.775
						c0,31.056-5.235,59.688-15.139,82.802l-17.151,40.021c-5.22,12.183-19.328,17.829-31.513,12.606
						c-12.184-5.221-17.828-19.33-12.606-31.513l17.15-40.02c7.365-17.189,11.259-39.285,11.259-63.896
						c0-32.379-6.679-66.223-18.806-95.298c-9.869-23.664-22.959-42.858-37.622-55.437c-37.566,21.41-77.628,38.077-119.274,49.613
						c-45.438,12.576-92.359,18.951-139.467,18.951c-58.592,0-106.26,47.668-106.26,106.26v113.67
						C828.46,598.365,817.715,609.11,804.46,609.11z"/>
				</g>
				<g>
					<path style="fill:#212121;" d="M804.482,584.723c-7.756,0-15.367-3.752-19.991-10.69c-7.353-11.029-4.372-25.93,6.657-33.282
						l146.36-97.57c6.493-4.329,14.687-5.231,21.966-2.417c7.279,2.814,12.736,8.992,14.629,16.562
						c5.643,22.561,18.85,42.875,37.19,57.199c18.333,14.311,41.241,22.195,64.497,22.195h167.75c13.255,0,24,10.745,24,24
						s-10.745,24-24,24h-167.75c-33.907,0-67.304-11.493-94.038-32.362c-18.024-14.078-32.646-32.122-42.783-52.464l-121.197,80.795
						C813.681,583.417,809.056,584.723,804.482,584.723z"/>
				</g>
				<g>
					<path style="fill:#212121;" d="M1024,1218.95c-5.2,0-10.401-1.686-14.734-5.056l-168.041-130.7
						c-10.462-8.138-12.347-23.216-4.209-33.679c8.138-10.462,23.216-12.347,33.679-4.209L1024,1164.545l153.306-119.239
						c10.461-8.138,25.541-6.253,33.679,4.209s6.253,25.542-4.21,33.679l-168.04,130.7
						C1034.401,1217.265,1029.2,1218.95,1024,1218.95z"/>
				</g>
				<g>
					<path style="fill:#212121;" d="M1024,1340.92c-5.201,0-10.402-1.686-14.735-5.057l-274.916-213.847
						c-5.828-4.379-9.599-11.348-9.599-19.196c0-13.255,10.735-24,23.99-24c5.337,0,10.542,1.779,14.755,5.056L1024,1286.514
						l260.505-202.637c4.213-3.277,9.397-5.056,14.735-5.056c13.255,0,24.01,10.745,24.01,24c0,7.967-3.878,15.027-9.852,19.393
						l-274.663,213.65C1034.402,1339.234,1029.201,1340.92,1024,1340.92z"/>
				</g>
				<g>
					<path style="fill:#212121;" d="M1267.93,1414.1c-40.131,0-72.779-32.653-72.779-72.79s32.648-72.79,72.779-72.79
						c40.137,0,72.79,32.653,72.79,72.79S1308.066,1414.1,1267.93,1414.1z M1267.93,1316.52c-13.663,0-24.779,11.121-24.779,24.79
						s11.116,24.79,24.779,24.79c13.669,0,24.79-11.121,24.79-24.79S1281.599,1316.52,1267.93,1316.52z"/>
				</g>
				<g>
					<path style="fill:#212121;" d="M731.28,1584.85H560.52c-13.255,0-24-10.745-24-24s10.745-24,24-24h170.76
						c13.255,0,24,10.745,24,24S744.535,1584.85,731.28,1584.85z"/>
				</g>
				<g>
					<path style="fill:#212121;" d="M1487.48,1584.85H1316.72c-13.255,0-24-10.745-24-24s10.745-24,24-24h170.761
						c13.255,0,24,10.745,24,24S1500.735,1584.85,1487.48,1584.85z"/>
				</g>
				<g>
					<path style="fill:#212121;" d="M1024,853.002c-24.886,0-49.772-9.47-68.717-28.408c-9.375-9.371-9.377-24.567-0.006-33.941
						c9.372-9.375,24.567-9.377,33.941-0.006c19.179,19.172,50.387,19.172,69.565,0c9.375-9.371,24.57-9.369,33.941,0.006
						c9.371,9.374,9.368,24.57-0.006,33.941C1073.772,843.532,1048.886,853.002,1024,853.002z"/>
				</g>
				<g>
					<path style="fill:#212121;" d="M950.82,682.3h-48.79c-13.255,0-24-10.745-24-24s10.745-24,24-24h48.79
						c13.255,0,24,10.745,24,24S964.075,682.3,950.82,682.3z"/>
				</g>
				<g>
					<path style="fill:#212121;" d="M1145.97,682.3h-48.79c-13.255,0-24-10.745-24-24s10.745-24,24-24h48.79
						c13.255,0,24,10.745,24,24S1159.225,682.3,1145.97,682.3z"/>
				</g>
			</g>
		</g>
	</g>
</g>
<g id="Layer_1">
</g>
</svg>
