<?xml version="1.0" encoding="iso-8859-1"?>
<!-- Generator: Adobe Illustrator 25.2.0, SVG Export Plug-In . SVG Version: 6.00 Build 0)  -->
<svg version="1.1" xmlns="http://www.w3.org/2000/svg" xmlns:xlink="http://www.w3.org/1999/xlink" x="0px" y="0px"
	 viewBox="0 0 2048 2048" style="enable-background:new 0 0 2048 2048;" xml:space="preserve">
<g id="_x32_650.S2_-_Aerobics_I">
	<g>
		<g id="XMLID_28_">
			<g>
				<g>
					<path style="fill:#FFDC4A;" d="M746.1,600.44c3.52-18.2,12.46-34.46,25.05-47.06c16.52-16.51,39.33-26.73,64.54-26.73
						c45.71,0,83.58,33.61,90.24,77.47l-0.03,0.02c-9.82-10.88-23.65-17.54-38.38-17.76c-29.25-0.45-53.09,23.12-53.09,52.26
						c0,16.09,6.39,31.51,17.76,42.89l70.96,70.96c1.24,1.24,2.52,2.45,3.82,3.6v135.64h-0.01l-182.54,26.08V709.19v-91.27
						C744.42,611.94,745,606.09,746.1,600.44z"/>
				</g>
				<g>
					<polygon style="fill:#FFDC4A;" points="1005.19,865.65 1066.34,1018.52 926.96,1074.27 915.82,1152.51 744.42,1152.51 
						744.42,917.81 926.96,891.73 926.97,891.73 					"/>
				</g>
				<g>
					<polygon style="fill:#6ABFD3;" points="1526.74,1308.97 1500.67,1361.13 1318.12,1308.97 1318.12,1256.82 1422.43,1204.66 
											"/>
				</g>
				<g>
					<polygon style="fill:#6ABFD3;" points="848.73,1623.58 874.81,1780.05 822.65,1780.05 718.34,1675.74 744.42,1623.58 					"/>
				</g>
				<g>
					<path style="fill:#57565C;" d="M755.86,328.38h20.25c-7.96,12.42-12.58,27.2-12.58,43.01v33.15
						c-2.66,46.05-40.85,82.57-87.57,82.57h-7.82V416.1C668.14,367.66,707.41,328.38,755.86,328.38z"/>
				</g>
				<g>
					<path style="fill:#57565C;" d="M763.53,422.43v-17.89v-33.15c0-15.81,4.62-30.59,12.58-43.01
						c14.59-22.78,40.38-37.6,69.36-36.25c41.49,1.94,74.52,36.19,74.52,78.15h-52.15c-16.7,0-32.71,6.63-44.52,18.44l-15.27,15.27
						C796.24,415.8,780.23,422.43,763.53,422.43z"/>
				</g>
				<g>
					<path style="fill:#F5D3A6;" d="M919.99,370.28v77.12c0,44.83-37.16,81.35-81.94,79.26c-41.48-1.94-74.52-36.19-74.52-78.15
						v-26.08c16.7,0,32.71-6.63,44.52-18.44l15.27-15.27c11.81-11.81,27.82-18.44,44.52-18.44H919.99z"/>
				</g>
				<g>
					<path style="fill:#F5D3A6;" d="M1247.46,584.15c1.12,17.36-7.23,32.84-20.37,41.8c-10.49,7.16-20.8,14.57-30.47,22.8
						l-53.8,45.77c-17.51,17.52-128.83,85.33-153.61,85.33c-23.02,0-45.16-8.49-62.24-23.76c-1.3-1.15-2.58-2.36-3.82-3.6
						l-70.96-70.96c-11.37-11.38-17.76-26.8-17.76-42.89c0-29.14,23.84-52.71,53.09-52.26c14.73,0.22,28.56,6.88,38.38,17.76
						c0.74,0.81,1.45,1.65,2.14,2.51l61.17,76.46l112.13-69.05c23.77-14.64,45.2-33,62.13-55.19c9.14-11.98,23.91-19.42,40.37-18.35
						C1227.13,542.02,1245.96,560.86,1247.46,584.15z"/>
				</g>
				<g>
					<path style="fill:#F5D3A6;" d="M674.97,600.45l71.13-0.01c-1.1,5.65-1.68,11.5-1.68,17.48v91.27l-66.7-26.08l-41.89,104.73
						c-6.78,16.95-10.26,35.03-10.26,53.28c0,0.01,0,0.01,0,0.02c0,27.94-22.65,50.58-50.58,50.59h-0.01h-2.25
						c-28.25,0.19-51.29-22.56-51.47-50.81c0-0.08,0-0.16,0-0.24v-1.12c0-17.29,2.41-34.5,7.16-51.13l61.2-133.24
						C604.93,621.84,638.27,600.46,674.97,600.45z"/>
				</g>
				<g>
					<polygon style="fill:#F5D3A6;" points="915.82,1152.51 848.73,1623.58 744.42,1623.58 744.42,1152.51 					"/>
				</g>
				<g>
					<path style="fill:#F5D3A6;" d="M1297.23,891.63l125.2,313.03l-104.31,52.16l-130.38-286.86l-121.4,48.56l-61.15-152.87
						l137.33-45.76C1204.96,799.06,1272.8,830.52,1297.23,891.63z"/>
				</g>
			</g>
			<g>
				<g>
					<path style="fill:#212121;" d="M744.42,941.81c-13.255,0-24-10.745-24-24V617.92c0-7.409,0.714-14.833,2.123-22.067
						c4.357-22.527,15.296-43.09,31.63-59.437c21.792-21.779,50.738-33.766,81.518-33.766c27.739,0,54.547,9.999,75.486,28.154
						c20.717,17.963,34.383,42.721,38.482,69.713c1.99,13.104-7.021,25.341-20.125,27.331c-13.109,1.987-25.341-7.021-27.331-20.125
						c-4.941-32.537-33.535-57.073-66.512-57.073c-17.964,0-34.859,6.999-47.575,19.706c-9.529,9.537-15.914,21.52-18.452,34.641
						c-0.827,4.248-1.244,8.586-1.244,12.923v299.89C768.42,931.065,757.675,941.81,744.42,941.81z"/>
				</g>
				<g>
					<path style="fill:#212121;" d="M926.97,915.73c-13.255,0-24-10.745-24-24V756.09c0-13.255,10.745-24,24-24s24,10.745,24,24
						v135.64C950.97,904.985,940.225,915.73,926.97,915.73z"/>
				</g>
				<g>
					<path style="fill:#212121;" d="M841.775,550.747c-1.61,0-3.225-0.038-4.844-0.113c-54.619-2.555-97.401-47.413-97.401-102.125
						v-77.12c0-19.896,5.662-39.247,16.374-55.96c19.754-30.843,54.511-48.959,90.683-47.274
						c54.621,2.554,97.403,47.412,97.403,102.124v77.12c0,28.232-11.713,55.604-32.135,75.095
						C892.659,540.816,867.932,550.747,841.775,550.747z M841.801,316.044c-18.397,0-35.258,9.318-45.481,25.28
						c-5.752,8.975-8.79,19.369-8.79,30.066v77.12c0,29.025,22.684,52.822,51.641,54.177c14.704,0.688,28.748-4.611,39.544-14.915
						c11.14-10.632,17.275-24.97,17.275-40.372v-77.12c0-29.025-22.684-52.822-51.641-54.176
						C843.498,316.064,842.646,316.044,841.801,316.044z"/>
				</g>
				<g>
					<path style="fill:#212121;" d="M744.42,1647.58c-13.255,0-24-10.745-24-24V917.81c0-11.943,8.782-22.069,20.605-23.759
						l180.415-25.776l76.16-25.393l137.333-45.761c74.391-24.816,155.472,12.782,184.583,85.6l125.198,313.027
						c4.922,12.307-1.064,26.273-13.371,31.196c-12.312,4.919-26.274-1.064-31.197-13.371l-125.199-313.031
						c-19.688-49.245-74.517-74.672-124.832-57.886l-137.337,45.762l-78.216,26.079c-1.455,0.485-2.95,0.829-4.465,1.027
						l-161.676,23.1v684.955C768.42,1636.835,757.675,1647.58,744.42,1647.58z"/>
				</g>
				<g>
					<path style="fill:#212121;" d="M848.76,1647.583c-1.127,0-2.267-0.079-3.414-0.242c-13.123-1.869-22.246-14.022-20.376-27.145
						l67.09-471.07l11.14-78.239c1.21-8.503,6.873-15.71,14.847-18.9l260.78-104.31c11.907-4.764,25.455,0.677,30.763,12.353
						l130.379,286.86c5.485,12.067,0.148,26.295-11.918,31.779c-12.067,5.485-26.295,0.148-31.78-11.918l-120.896-265.996
						l-226.611,90.642l-9.183,64.495l-67.09,471.071C870.785,1638.938,860.515,1647.583,848.76,1647.583z"/>
				</g>
				<g>
					<path style="fill:#212121;" d="M1500.672,1385.133c-2.188,0-4.404-0.301-6.596-0.927l-182.55-52.16
						c-10.303-2.943-17.406-12.36-17.406-23.076v-52.149c0-9.09,5.136-17.4,13.266-21.466l104.31-52.16
						c9.241-4.618,20.4-2.81,27.705,4.495l104.311,104.31c7.304,7.304,9.115,18.461,4.497,27.7l-26.07,52.16
						C1517.992,1380.153,1509.576,1385.133,1500.672,1385.133z M1342.12,1290.867l145.988,41.713l9.432-18.869l-79.849-79.848
						l-75.571,37.789V1290.867z"/>
				</g>
				<g>
					<path style="fill:#212121;" d="M916.3,1176.51H744.42c-13.255,0-24-10.745-24-24s10.745-24,24-24H916.3
						c13.255,0,24,10.745,24,24S929.555,1176.51,916.3,1176.51z"/>
				</g>
				<g>
					<path style="fill:#212121;" d="M1066.343,1042.527c-6.14,0-12.278-2.342-16.964-7.027c-2.298-2.298-4.115-5.049-5.322-8.067
						l-61.149-152.87c-4.923-12.307,1.063-26.274,13.37-31.197c12.308-4.924,26.273,1.065,31.196,13.37l60.938,152.343
						c3.741,8.751,2.044,19.275-5.097,26.416C1078.628,1040.183,1072.484,1042.527,1066.343,1042.527z"/>
				</g>
				<g>
					<path style="fill:#212121;" d="M874.81,1804.05h-52.16c-6.365,0-12.47-2.528-16.971-7.029l-104.31-104.31
						c-7.305-7.305-9.115-18.464-4.496-27.704l26.08-52.16c4.065-8.131,12.376-13.267,21.466-13.267h104.31
						c11.732,0,21.745,8.481,23.673,20.054l26.08,156.47c1.16,6.959-0.801,14.076-5.361,19.459S881.865,1804.05,874.81,1804.05z
						 M832.591,1756.05h13.888l-18.08-108.47h-69.146l-11.711,23.421L832.591,1756.05z"/>
				</g>
				<g>
					<path style="fill:#212121;" d="M763.53,446.43c-13.255,0-24-10.745-24-24s10.745-24,24-24c10.407,0,20.191-4.052,27.549-11.411
						l15.27-15.27c16.425-16.424,38.262-25.47,61.491-25.47h52.15c13.255,0,24,10.745,24,24s-10.745,24-24,24h-52.15
						c-10.407,0-20.191,4.053-27.549,11.411l-15.27,15.27C808.596,437.385,786.758,446.43,763.53,446.43z"/>
				</g>
				<g>
					<path style="fill:#212121;" d="M572.372,915.731c-19.883,0-38.603-7.681-52.765-21.663
						c-14.283-14.101-22.219-32.921-22.347-52.996c0-0.051,0-0.102,0-0.153v-1.36c0-19.523,2.72-38.943,8.083-57.721
						c0.335-1.173,0.759-2.318,1.268-3.426l61.2-133.24c19.159-41.733,61.22-68.71,107.153-68.722l71.133-0.01
						c13.255-0.002,24.001,10.742,24.003,23.997s-10.742,24.001-23.997,24.003l-71.13,0.01
						c-27.237,0.007-52.181,16.004-63.542,40.753l-60.411,131.522c-3.823,13.96-5.761,28.361-5.761,42.835v1.272
						c0.063,7.229,2.927,14.001,8.07,19.079c5.157,5.091,12.022,7.887,19.238,7.82c0.054,0,0.108,0,0.162,0h2.25
						c14.663-0.005,26.59-11.933,26.59-26.59c0-21.421,4.03-42.346,11.977-62.214l41.89-104.729
						c4.896-12.239,18.748-18.239,31.023-13.439l66.7,26.08c12.345,4.827,18.439,18.747,13.612,31.092s-18.747,18.438-31.092,13.612
						l-44.521-17.408l-33.046,82.619c-5.669,14.173-8.544,29.1-8.544,44.367c0,41.135-33.453,74.596-74.571,74.61h-2.188
						C572.665,915.731,572.518,915.731,572.372,915.731z"/>
				</g>
				<g>
					<path style="fill:#212121;" d="M989.21,803.85c-28.887,0-56.651-10.591-78.188-29.826c-1.61-1.426-3.238-2.96-4.839-4.56
						L835.219,698.5c-15.988-16.002-24.789-37.258-24.789-59.86c0-20.595,8.081-39.895,22.755-54.345
						c14.671-14.448,34.102-22.243,54.704-21.913c21,0.314,41.323,9.645,55.763,25.606c1.035,1.134,2.051,2.326,3.107,3.641
						l47.935,59.917l94.061-57.923c22.546-13.886,41.264-30.477,55.634-49.312c14.433-18.916,37.23-29.292,61.008-27.742
						c35.35,2.277,63.736,30.667,66.014,66.037c1.607,24.915-10.194,49.122-30.8,63.172c-8.152,5.564-18.761,13.013-28.436,21.248
						l-53.19,45.252c-12.766,12.208-49.191,35.467-78.232,52.255C1012.735,803.85,995.644,803.85,989.21,803.85z M988.499,755.88
						C988.498,755.88,988.498,755.88,988.499,755.88C988.498,755.88,988.498,755.88,988.499,755.88z M886.711,610.374
						c-7.488,0-14.517,2.875-19.847,8.123c-5.439,5.356-8.434,12.51-8.434,20.144c0,9.789,3.813,18.996,10.738,25.926l70.953,70.953
						c0.925,0.925,1.852,1.798,2.749,2.592c0.033,0.029,0.065,0.058,0.097,0.086c12.614,11.278,28.852,17.536,45.769,17.651
						c6.334-0.941,30.026-10.753,70.582-34.373c35.331-20.577,61.338-38.729,66.528-43.922c0.456-0.457,0.931-0.895,1.423-1.313
						l53.8-45.77c11.394-9.697,23.35-18.104,32.492-24.343c6.762-4.61,10.478-12.246,9.949-20.432
						c-0.721-11.184-10.038-20.505-21.213-21.225c-7.691-0.499-15.085,2.848-19.747,8.958
						c-17.955,23.534-41.044,44.081-68.624,61.067l-112.131,69.051c-10.32,6.354-23.755,4.02-31.326-5.443l-61.17-76.46
						c-0.396-0.495-0.769-0.933-1.116-1.313c-0.033-0.037-0.067-0.073-0.1-0.11c-5.541-6.14-13.167-9.727-20.922-9.843
						C887.011,610.375,886.86,610.374,886.711,610.374z"/>
				</g>
				<g>
					<path style="fill:#212121;" d="M675.96,511.11h-7.82c-13.255,0-24-10.745-24-24V416.1c0-61.603,50.117-111.72,111.72-111.72
						h20.25c13.255,0,24,10.745,24,24s-10.745,24-24,24h-20.25c-35.135,0-63.72,28.585-63.72,63.72v44.932
						c26.084-6.839,45.809-29.822,47.43-57.875c0.074-1.254,0.11-2.512,0.11-3.766c0-13.255,10.745-24,24-24s24,10.745,24,24
						c0,2.19-0.064,4.398-0.192,6.561C784.083,464.907,735.093,511.11,675.96,511.11z"/>
				</g>
			</g>
		</g>
	</g>
</g>
<g id="Layer_1">
</g>
</svg>
