<?xml version="1.0" encoding="iso-8859-1"?>
<!-- Generator: Adobe Illustrator 25.2.0, SVG Export Plug-In . SVG Version: 6.00 Build 0)  -->
<svg version="1.1" xmlns="http://www.w3.org/2000/svg" xmlns:xlink="http://www.w3.org/1999/xlink" x="0px" y="0px"
	 viewBox="0 0 2048 2048" style="enable-background:new 0 0 2048 2048;" xml:space="preserve">
<g id="_x32_651.S2_-_Aerobics_II">
	<g>
		<g id="XMLID_29_">
			<g>
				<g>
					<polygon style="fill:#6ABFD3;" points="1327.01,1667.15 1327.01,1748 1068.97,1748 1068.97,1677.43 1161.93,1597.87 					"/>
				</g>
				<g>
					<polygon style="fill:#6ABFD3;" points="624.21,977.81 539.53,1088.61 539.53,1088.62 469.28,1081.92 495.71,835.42 
						565.96,842.11 623.03,976.91 					"/>
				</g>
				<g>
					<path style="fill:#898890;" d="M1525.96,440.66v87.14c-41.42,0-77.06-24.78-92.87-60.33v-48.36v-53.04
						c0-9.29-1.19-18.3-3.44-26.89c25.94,1.33,49.31,12.4,66.55,29.62C1514.58,387.2,1525.96,412.6,1525.96,440.66z"/>
				</g>
				<g>
					<path style="fill:#898890;" d="M1433.09,366.07v53.04h-17.96c-14.03,0-27.87-2.33-40.97-6.81
						c-13.1-4.48-25.46-11.12-36.56-19.71c-22.18-17.19-49.45-26.52-77.52-26.52h-39.14c0-58.58,47.49-106.07,106.07-106.07
						c49.3,0,90.74,33.62,102.64,79.18C1431.9,347.77,1433.09,356.78,1433.09,366.07z"/>
				</g>
				<g>
					<path style="fill:#F5D3A6;" d="M1433.09,467.47v4.68c0,58.28-47,105.58-105.17,106.06h-1.82
						c-58.16-0.48-105.16-47.78-105.16-106.06V366.07h39.14c28.07,0,55.34,9.33,77.52,26.52c11.1,8.59,23.46,15.23,36.56,19.71
						c13.1,4.48,26.94,6.81,40.97,6.81h17.96V467.47z"/>
				</g>
				<g>
					<path style="fill:#F5D3A6;" d="M1422,578.21c36.74,0,66.47,30.03,66,66.88c-0.06,4.6-0.6,9.08-1.58,13.4v0.01
						c-6.66,29.73-33.73,51.72-65.41,51.72H1192.2H990.63c-10.06,0-20.1,0.64-30.09,1.85c-19.25,2.32-58.12,3.58-66.14,3.58
						c-40.26,0-72.92-31.63-73.3-70.78c-9.43-0.38-17.91-4.45-24.03-10.81c-6.13-6.35-9.89-15-9.89-24.52
						c0-19.33,15.51-35.08,34.83-35.37l64.15-0.98c2.71-0.3,94.61,5.02,104.76,5.02h335.18c0.3,0.01,0.61,0.01,0.91,0.01
						s0.61,0,0.91-0.01H1422z"/>
				</g>
				<g>
					<path style="fill:#F5D3A6;" d="M955.79,1128.52c2.01-84.58,71.2-152.51,156.25-152.51h0.02h161.92v207.84h-149.04l202.07,483.3
						l-165.08-69.28l-195.54-408.92c-7.03-18.06-10.64-37.27-10.64-56.65C955.75,1131.04,955.77,1129.77,955.79,1128.52z"/>
				</g>
				<g>
					<path style="fill:#F5D3A6;" d="M625.59,976.01h486.45c-85.05,0-154.24,67.93-156.25,152.51l-416.26-39.91l84.68-110.8
						L625.59,976.01z"/>
				</g>
				<g>
					<path style="fill:#FFDC4A;" d="M1618.72,1015.72c0.25,92.78-74.89,168.13-167.67,168.13h-177.07V976.01h53.04h287.68h0.01
						C1617.37,989.07,1618.72,1002.38,1618.72,1015.72z"/>
				</g>
				<g>
					<path style="fill:#FFDC4A;" d="M1614.7,976.01h-287.68l-53.05-159.11c-22.51-11.26-42.25-27.11-58.03-46.36
						c-14.2-17.33-22.55-38.52-23.74-60.32h228.81c31.68,0,58.75-21.99,65.41-51.72l117,280.78
						C1608.36,951.14,1612.13,963.43,1614.7,976.01z"/>
				</g>
			</g>
			<g>
				<g>
					<path style="fill:#212121;" d="M955.818,1152.521c-0.767,0-1.539-0.037-2.319-0.111l-416.26-39.91
						c-8.678-0.832-16.222-6.304-19.708-14.294c-3.486-7.991-2.364-17.243,2.929-24.169l86.081-112.627
						c4.542-5.925,11.583-9.4,19.048-9.4h486.45c13.255,0,24,10.745,24,24s-10.745,24-24,24H637.45l-52.608,68.834l373.238,35.785
						c13.194,1.266,22.865,12.986,21.6,26.182C978.49,1143.225,968.04,1152.521,955.818,1152.521z"/>
				</g>
				<g>
					<path style="fill:#212121;" d="M1327.004,1691.151c-3.128,0-6.281-0.611-9.281-1.871l-165.08-69.28
						c-5.426-2.276-9.826-6.468-12.364-11.776l-195.54-408.92c-0.258-0.54-0.496-1.09-0.713-1.647
						c-8.145-20.924-12.275-42.913-12.275-65.356c0-1.388,0.021-2.787,0.043-4.165c0.001-0.062,0.002-0.123,0.004-0.186
						c1.123-47.247,20.371-91.484,54.199-124.562c33.883-33.132,78.646-51.378,126.044-51.378h161.94c13.255,0,24,10.745,24,24
						s-10.745,24-24,24H1112.06c-71.225,0-130.535,57.856-132.274,128.989c-0.018,1.093-0.036,2.201-0.036,3.301
						c0,16.175,2.925,32.031,8.696,47.141l191.195,399.835l102.622,43.067l-179.465-429.235c-3.098-7.408-2.285-15.875,2.165-22.559
						s11.948-10.699,19.978-10.699h149.04c13.255,0,24,10.745,24,24s-10.745,24-24,24h-112.992l188.164,450.043
						c3.758,8.988,1.71,19.355-5.184,26.24C1339.378,1688.717,1333.243,1691.15,1327.004,1691.151z"/>
				</g>
				<g>
					<path style="fill:#212121;" d="M1327.017,1000.016c-10.049,0-19.412-6.359-22.765-16.415l-50.02-150.021
						c-21.792-12.289-40.883-28.342-56.854-47.825c-17.337-21.159-27.686-47.519-29.144-74.227
						c-0.722-13.235,9.422-24.55,22.657-25.272c13.236-0.725,24.55,9.422,25.272,22.657c0.905,16.604,7.419,33.088,18.339,46.417
						c13.823,16.863,30.715,30.358,50.203,40.106c5.69,2.847,10.018,7.837,12.03,13.873l53.05,159.11
						c4.192,12.575-2.603,26.167-15.177,30.359C1332.093,999.617,1329.532,1000.016,1327.017,1000.016z"/>
				</g>
				<g>
					<path style="fill:#212121;" d="M1614.675,1000.015c-11.166,0-21.166-7.834-23.488-19.2c-2.26-11.057-5.598-21.926-9.921-32.306
						l-116.999-280.777c-5.099-12.235,0.687-26.287,12.922-31.385c12.235-5.097,26.287,0.688,31.385,12.922l117,280.78
						c5.512,13.231,9.765,27.078,12.641,41.157c2.654,12.987-5.723,25.666-18.709,28.319
						C1617.885,999.855,1616.267,1000.015,1614.675,1000.015z"/>
				</g>
				<g>
					<path style="fill:#212121;" d="M1327.01,602.22c-0.441,0-0.894-0.003-1.341-0.013c-34.424-0.344-66.732-13.993-90.996-38.448
						c-24.332-24.524-37.732-57.058-37.732-91.609V366.07c0-71.721,58.349-130.07,130.069-130.07
						c59.17,0,110.926,39.935,125.861,97.115c2.8,10.692,4.219,21.78,4.219,32.955v106.08c0,34.551-13.401,67.085-37.734,91.609
						c-24.265,24.455-56.575,38.104-91.003,38.448C1327.905,602.217,1327.451,602.22,1327.01,602.22z M1326.788,554.22l0.222,0
						l0.222,0c0.163-0.004,0.327-0.008,0.49-0.009c44.866-0.371,81.368-37.183,81.368-82.061V366.07
						c0-7.079-0.894-14.08-2.656-20.808c-0.001-0.005-0.003-0.011-0.004-0.016c-9.419-36.061-42.078-61.246-79.42-61.246
						c-45.253,0-82.069,36.816-82.069,82.07v106.08c0,44.878,36.497,81.69,81.357,82.061
						C1326.461,554.212,1326.625,554.215,1326.788,554.22z"/>
				</g>
				<g>
					<path style="fill:#212121;" d="M1451.05,1207.85H1273.98c-13.255,0-24-10.745-24-24V976.01c0-13.255,10.745-24,24-24h340.72
						c11.408,0,21.25,8.031,23.527,19.21c2.979,14.627,4.49,29.59,4.492,44.474c0.129,51.284-19.744,99.522-55.959,135.835
						C1550.539,1187.848,1502.343,1207.85,1451.05,1207.85z M1297.98,1159.85h153.069c38.447,0,74.574-14.993,101.725-42.217
						c27.152-27.226,42.049-63.396,41.945-101.848c0-0.021,0-0.043,0-0.064c0-5.233-0.238-10.479-0.712-15.71H1297.98V1159.85z
						 M1642.72,1015.72h0.01H1642.72z"/>
				</g>
				<g>
					<path style="fill:#212121;" d="M1327.01,1772h-258.04c-13.255,0-24-10.745-24-24v-70.57c0-7.013,3.067-13.674,8.395-18.233
						l92.96-79.56c10.069-8.62,25.221-7.444,33.839,2.628c8.619,10.07,7.442,25.221-2.628,33.839l-84.565,72.376V1724h210.04v-56.85
						c0-13.255,10.745-24,24-24s24,10.745,24,24V1748C1351.01,1761.255,1340.265,1772,1327.01,1772z"/>
				</g>
				<g>
					<path style="fill:#212121;" d="M539.54,1112.62c-0.761,0-1.532-0.036-2.289-0.108l-70.25-6.7
						c-6.385-0.609-12.26-3.748-16.315-8.718s-5.953-11.355-5.269-17.732l26.43-246.5c1.401-13.068,13.053-22.58,26.139-21.333
						l70.25,6.69c8.776,0.836,16.388,6.417,19.826,14.535l57.07,134.8c5.167,12.206-0.538,26.29-12.744,31.458
						c-12.207,5.167-26.29-0.539-31.458-12.744l-51.49-121.622l-32.394-3.085l-21.313,198.774l45.82,4.37
						c12.309,1.027,21.982,11.342,21.982,23.916C563.535,1101.875,552.795,1112.62,539.54,1112.62z"/>
				</g>
				<g>
					<path style="fill:#212121;" d="M1433.09,443.11h-17.96c-16.62,0-33.018-2.726-48.736-8.102
						c-15.688-5.365-30.317-13.25-43.482-23.438c-17.894-13.869-40.203-21.5-62.831-21.5h-39.14c-13.255,0-24-10.745-24-24
						s10.745-24,24-24h39.14c33.219,0,65.971,11.205,92.222,31.55c8.968,6.94,18.939,12.317,29.624,15.971
						c10.708,3.662,21.88,5.519,33.204,5.519h17.96c13.255,0,24,10.745,24,24S1446.345,443.11,1433.09,443.11z"/>
				</g>
				<g>
					<path style="fill:#212121;" d="M1525.96,551.8c-49.589,0-94.65-29.273-114.799-74.577
						c-5.387-12.111,0.064-26.296,12.176-31.682c12.112-5.387,26.296,0.066,31.682,12.176c9.083,20.423,26.361,35.574,46.941,42.275
						V440.66c0-20.722-8.076-40.219-22.74-54.899c-13.609-13.594-31.657-21.631-50.798-22.612
						c-13.237-0.679-23.419-11.96-22.74-25.197c0.679-13.238,11.972-23.404,25.197-22.74c31.018,1.59,60.238,14.591,82.282,36.608
						c23.737,23.764,36.799,55.308,36.799,88.841v87.14C1549.96,541.055,1539.215,551.8,1525.96,551.8z"/>
				</g>
				<g>
					<path style="fill:#212121;" d="M894.4,739.65c-25.717,0-49.968-9.749-68.284-27.452c-13.76-13.299-22.989-29.922-26.9-48.05
						c-7.235-3.09-13.842-7.629-19.44-13.446c-10.693-11.077-16.596-25.705-16.596-41.162c0-15.69,6.062-30.487,17.069-41.665
						c11.01-11.18,25.712-17.467,41.4-17.703l63.438-0.969c2.903-0.13,9.884,0.206,48.467,2.235
						c22.233,1.169,52.683,2.771,57.366,2.771H1422c24.254,0,46.999,9.507,64.044,26.771c17.046,17.265,26.264,40.141,25.954,64.415
						c-0.079,6.092-0.783,12.161-2.093,18.049c-0.021,0.101-0.043,0.201-0.065,0.302c-4.432,19.781-15.719,37.726-31.783,50.53
						c-16.136,12.86-36.396,19.943-57.047,19.943H990.63c-8.872,0-18.025,0.563-27.204,1.675
						C942.292,738.443,901.896,739.65,894.4,739.65z M886.804,597.181c-0.092,0.002-0.185,0.004-0.277,0.006l-64.15,0.98
						c-6.177,0.093-11.196,5.195-11.196,11.373c0,2.954,1.121,5.743,3.157,7.852c2.066,2.147,4.802,3.38,7.729,3.498
						c12.778,0.515,22.909,10.959,23.033,23.748c0.251,25.923,22.368,47.013,49.301,47.013c7.493,0,45.29-1.241,63.268-3.408
						c11.073-1.341,22.168-2.022,32.962-2.022h430.38c19.969,0,37.564-13.748,41.937-32.728c0.022-0.104,0.045-0.209,0.068-0.314
						c0.618-2.723,0.95-5.549,0.987-8.4c0.145-11.333-4.158-22.015-12.115-30.074c-7.955-8.058-18.569-12.495-29.887-12.495H990.92
						c-5.53,0-27.303-1.124-59.887-2.837C913.091,598.429,890.865,597.26,886.804,597.181z M1486.42,658.5h0.01H1486.42z
						 M888.685,597.057c-0.003,0-0.006,0.001-0.01,0.001C888.679,597.058,888.682,597.057,888.685,597.057z M888.799,597.044
						c-0.034,0.004-0.068,0.007-0.103,0.011C888.73,597.052,888.765,597.048,888.799,597.044z"/>
				</g>
			</g>
		</g>
	</g>
</g>
<g id="Layer_1">
</g>
</svg>
