<?xml version="1.0" encoding="iso-8859-1"?>
<!-- Generator: Adobe Illustrator 25.2.0, SVG Export Plug-In . SVG Version: 6.00 Build 0)  -->
<svg version="1.1" xmlns="http://www.w3.org/2000/svg" xmlns:xlink="http://www.w3.org/1999/xlink" x="0px" y="0px"
	 viewBox="0 0 2048 2048" style="enable-background:new 0 0 2048 2048;" xml:space="preserve">
<g id="_x32_652.S2_-_Aerobics_Stand">
	<g>
		<g id="XMLID_30_">
			<g>
				<g>
					<polygon style="fill:#C6C5CB;" points="705.14,1419.2 676.8,1518.4 280,1518.4 280,1419.2 					"/>
				</g>
				<g>
					<polygon style="fill:#C6C5CB;" points="1768,1419.2 1768,1518.4 1371.2,1518.4 1342.86,1419.2 					"/>
				</g>
				<g>
					<polygon style="fill:#898890;" points="1768,1146.4 1768,1419.2 1342.86,1419.2 1321.6,1344.8 726.4,1344.8 705.14,1419.2 
						280,1419.2 280,1146.4 					"/>
				</g>
				<g>
					<path style="fill:#C6C5CB;" d="M1644,625.6l124,520.8H280l99.2-520.8H1644z M1644,1047.2l-74.4-322.4H478.4L404,1047.2H1644z"
						/>
				</g>
				<g>
					<polygon style="fill:#57565C;" points="1569.6,724.8 1644,1047.2 404,1047.2 478.4,724.8 					"/>
				</g>
			</g>
			<g>
				<g>
					<path style="fill:#212121;" d="M1768,1170.4H280c-7.152,0-13.931-3.189-18.49-8.699c-4.559-5.51-6.424-12.767-5.086-19.791
						l99.2-520.801c2.156-11.32,12.053-19.509,23.576-19.509H1644c11.113,0,20.773,7.63,23.348,18.441l124,520.801
						c1.7,7.144,0.037,14.672-4.514,20.435C1782.282,1167.039,1775.343,1170.4,1768,1170.4z M309.003,1122.4h1428.612
						l-112.572-472.8H399.061L309.003,1122.4z"/>
				</g>
				<g>
					<path style="fill:#212121;" d="M1768,1542.4h-396.8c-10.716,0-20.133-7.104-23.077-17.407l-44.626-156.193H744.502
						l-44.626,156.193c-2.944,10.304-12.361,17.407-23.077,17.407H280c-13.255,0-24-10.745-24-24v-372c0-13.255,10.745-24,24-24
						s24,10.745,24,24v348h354.696l44.627-156.194c2.944-10.303,12.361-17.406,23.076-17.406h595.2
						c10.715,0,20.132,7.103,23.076,17.405l44.628,156.195H1744v-348c0-13.255,10.745-24,24-24s24,10.745,24,24v372
						C1792,1531.655,1781.255,1542.4,1768,1542.4z"/>
				</g>
				<g>
					<path style="fill:#212121;" d="M1644,1071.2H404c-7.314,0-14.229-3.335-18.782-9.059c-4.554-5.724-6.248-13.211-4.604-20.338
						l74.4-322.4c2.513-10.89,12.209-18.604,23.385-18.604h1091.2c11.176,0,20.872,7.714,23.386,18.604l74.4,322.4
						c1.645,7.126-0.051,14.614-4.604,20.338C1658.229,1067.865,1651.313,1071.2,1644,1071.2z M434.169,1023.2h1179.662
						l-63.324-274.4H497.492L434.169,1023.2z"/>
				</g>
				<g>
					<path style="fill:#212121;" d="M705.14,1443.2H280c-13.255,0-24-10.745-24-24s10.745-24,24-24h425.14c13.255,0,24,10.745,24,24
						S718.395,1443.2,705.14,1443.2z"/>
				</g>
				<g>
					<path style="fill:#212121;" d="M1768,1443.2h-425.14c-13.255,0-24-10.745-24-24s10.745-24,24-24H1768c13.255,0,24,10.745,24,24
						S1781.255,1443.2,1768,1443.2z"/>
				</g>
			</g>
		</g>
	</g>
</g>
<g id="Layer_1">
</g>
</svg>
