<?xml version="1.0" encoding="iso-8859-1"?>
<!-- Generator: Adobe Illustrator 25.2.0, SVG Export Plug-In . SVG Version: 6.00 Build 0)  -->
<svg version="1.1" xmlns="http://www.w3.org/2000/svg" xmlns:xlink="http://www.w3.org/1999/xlink" x="0px" y="0px"
	 viewBox="0 0 2048 2048" style="enable-background:new 0 0 2048 2048;" xml:space="preserve">
<g id="_x32_653.S2_-_Swords">
	<g>
		<g>
			<g id="XMLID_31_">
				<g>
					<g>
						<polygon style="fill:#C9CFD1;" points="1739.92,1560.21 1764.22,1764 1560.43,1739.7 1536.13,1535.91 1536.14,1535.91 						
							"/>
					</g>
					<g>
						<polygon style="fill:#FFDC4A;" points="1756.07,463.49 1684.27,535.29 1648.38,499.4 1648.38,499.39 1540.68,391.7 
							1504.78,355.8 1576.58,284 						"/>
					</g>
					<g>
						<polygon style="fill:#E1E6E9;" points="1739.92,1560.21 1536.14,1535.91 1536.13,1535.91 1109.89,1109.67 1199.64,1019.93 
													"/>
					</g>
					<g>
						<polygon style="fill:#898890;" points="1648.38,499.4 1576.58,571.19 1468.89,463.5 1540.68,391.7 						"/>
					</g>
					<g>
						<polygon style="fill:#898890;" points="1576.58,571.19 1486.83,660.94 1432.98,607.09 1379.14,553.24 1468.89,463.5 						"/>
					</g>
					<g>
						<polygon style="fill:#E1E6E9;" points="1536.13,1535.91 1560.43,1739.7 1020.15,1199.42 1109.89,1109.67 						"/>
					</g>
					<g>
						<polygon style="fill:#FFDC4A;" points="1486.83,660.94 1558.63,948.13 1486.83,1019.92 1407.51,813.66 1397.09,786.58 
							1325.29,714.79 1253.49,642.99 1226.4,632.57 1020.15,553.24 1091.95,481.44 1379.14,553.24 1432.98,607.09 						"/>
					</g>
					<g>
						<polygon style="fill:#EBF0F3;" points="1407.51,813.66 1404.89,814.67 1199.64,1019.93 1109.89,1109.67 1020.15,1199.42 
							479.86,1739.7 504.16,1535.91 930.41,1109.67 1109.89,930.18 1325.29,714.79 1397.09,786.58 						"/>
					</g>
					<g>
						<polygon style="fill:#EBF0F3;" points="1253.49,642.99 1325.29,714.79 1109.89,930.18 930.41,1109.67 504.16,1535.91 
							300.37,1560.21 840.65,1019.93 930.4,930.18 930.41,930.18 1020.15,840.43 1225.4,635.18 1226.4,632.57 						"/>
					</g>
					<g>
						<polygon style="fill:#E1E6E9;" points="1020.15,840.43 930.41,930.18 930.4,930.18 715.01,714.79 786.8,642.99 813.9,632.57 
							814.9,635.18 						"/>
					</g>
					<g>
						<polygon style="fill:#FFDC4A;" points="948.35,481.44 1020.14,553.24 813.9,632.57 786.8,642.99 715.01,714.79 643.21,786.58 
							632.79,813.68 553.46,1019.92 481.67,948.13 553.46,660.94 607.31,607.09 661.16,553.24 						"/>
					</g>
					<g>
						<polygon style="fill:#E1E6E9;" points="715.01,714.79 930.4,930.18 840.65,1019.93 635.4,814.68 632.79,813.68 643.21,786.58 
													"/>
					</g>
					<g>
						<polygon style="fill:#898890;" points="661.16,553.24 607.31,607.09 553.46,660.94 463.72,571.19 571.41,463.49 						"/>
					</g>
					<g>
						
							<rect x="405.515" y="430.674" transform="matrix(0.7071 -0.7071 0.7071 0.7071 -199.3548 481.6314)" style="fill:#898890;" width="152.3" height="101.537"/>
					</g>
					<g>
						<polygon style="fill:#FFDC4A;" points="463.72,284 535.51,355.8 499.61,391.7 391.92,499.39 356.02,535.29 284.22,463.49 
													"/>
					</g>
					<g>
						<polygon style="fill:#C9CFD1;" points="504.16,1535.91 479.86,1739.7 276.07,1764 300.37,1560.21 						"/>
					</g>
				</g>
				<g>
					<g>
						<path style="fill:#212121;" d="M356.02,559.29c-6.142,0-12.284-2.343-16.971-7.029l-71.8-71.8
							c-4.501-4.501-7.029-10.606-7.029-16.971s2.529-12.47,7.03-16.971l179.5-179.49c4.5-4.5,10.605-7.029,16.97-7.029
							c0,0,0,0,0.001,0c6.366,0,12.47,2.529,16.971,7.031l71.79,71.8c9.372,9.373,9.371,24.567-0.001,33.94l-35.9,35.9
							c-9.373,9.372-24.569,9.372-33.941,0c-9.373-9.373-9.373-24.568,0-33.941l18.931-18.931l-37.851-37.857L318.162,463.491
							l37.858,37.858l18.929-18.93c9.373-9.372,24.568-9.372,33.941,0c9.373,9.373,9.373,24.569,0,33.941l-35.9,35.9
							C368.304,556.947,362.162,559.29,356.02,559.29z"/>
					</g>
					<g>
						<path style="fill:#212121;" d="M553.46,684.94c-6.143,0-12.285-2.343-16.972-7.03L374.949,516.361
							c-4.5-4.501-7.029-10.605-7.029-16.971s2.529-12.47,7.029-16.971l107.69-107.69c9.372-9.373,24.567-9.373,33.94-0.001
							L678.131,536.27c9.373,9.373,9.373,24.569,0,33.941c-9.373,9.372-24.568,9.372-33.941,0L499.611,425.64l-73.75,73.75
							l144.57,144.58c9.372,9.373,9.371,24.569-0.002,33.941C565.744,682.597,559.602,684.94,553.46,684.94z"/>
					</g>
					<g>
						<path style="fill:#212121;" d="M553.46,1043.92c-6.298,0-12.423-2.482-16.971-7.03l-71.79-71.79
							c-5.961-5.961-8.357-14.612-6.313-22.791l71.79-287.19c1.055-4.22,3.237-8.074,6.313-11.15l107.7-107.7
							c3.076-3.076,6.93-5.258,11.149-6.312l287.19-71.8c8.181-2.044,16.832,0.353,22.793,6.314l71.79,71.8
							c5.744,5.745,8.192,14.005,6.505,21.952c-1.687,7.947-7.278,14.5-14.86,17.417l-228.587,87.922l-68.188,68.197l-68.199,68.19
							l-87.923,228.587c-2.917,7.583-9.471,13.175-17.418,14.861C556.786,1043.749,555.117,1043.92,553.46,1043.92z
							 M508.249,940.768l36.069,36.069l76.491-198.87c1.206-3.135,3.056-5.983,5.432-8.358l71.8-71.79l71.788-71.797
							c2.375-2.375,5.223-4.226,8.358-5.432l198.873-76.493l-36.072-36.077L673.43,574.911l-98.299,98.299L508.249,940.768z"/>
					</g>
					<g>
						<path style="fill:#212121;" d="M840.65,1043.93c-6.142,0-12.284-2.343-16.971-7.029l-205.25-205.25
							c-9.373-9.373-9.373-24.569,0-33.941c9.373-9.372,24.568-9.372,33.941,0l205.25,205.25c9.373,9.373,9.373,24.569,0,33.941
							C852.934,1041.587,846.792,1043.93,840.65,1043.93z"/>
					</g>
					<g>
						<path style="fill:#212121;" d="M1020.15,864.43c-6.143,0-12.284-2.343-16.971-7.029l-205.25-205.25
							c-9.373-9.373-9.373-24.569,0-33.941c9.373-9.372,24.568-9.372,33.941,0l205.25,205.25c9.372,9.373,9.372,24.569,0,33.941
							C1032.435,862.087,1026.293,864.43,1020.15,864.43z"/>
					</g>
					<g>
						<path style="fill:#212121;" d="M1560.43,1763.7c-6.143,0-12.284-2.343-16.971-7.029l-540.279-540.28
							c-9.372-9.373-9.372-24.568,0-33.941c9.372-9.372,24.569-9.372,33.941,0l540.279,540.28c9.372,9.373,9.372,24.568,0,33.941
							C1572.714,1761.357,1566.572,1763.7,1560.43,1763.7z"/>
					</g>
					<g>
						<path style="fill:#212121;" d="M1739.92,1584.21c-6.143,0-12.284-2.343-16.971-7.029l-540.28-540.28
							c-9.372-9.373-9.372-24.569,0-33.941c9.373-9.372,24.568-9.372,33.941,0l540.28,540.28c9.372,9.373,9.372,24.568,0,33.941
							C1752.204,1581.867,1746.062,1584.21,1739.92,1584.21z"/>
					</g>
					<g>
						<path style="fill:#212121;" d="M1764.221,1788c-0.944,0-1.894-0.056-2.843-0.169l-203.79-24.3
							c-13.161-1.569-22.559-13.511-20.989-26.673s13.511-22.562,26.673-20.989l173.506,20.688l-20.688-173.506
							c-1.569-13.162,7.828-25.104,20.989-26.673c13.156-1.569,25.104,7.828,26.673,20.989l24.3,203.79
							c0.871,7.307-1.657,14.609-6.86,19.812C1776.663,1785.498,1770.547,1788,1764.221,1788z"/>
					</g>
					<g>
						<path style="fill:#212121;" d="M1560.399,1763.702c-11.985,0-22.347-8.964-23.801-21.16l-24.3-203.79
							c-1.569-13.162,7.828-25.104,20.989-26.673c13.159-1.572,25.104,7.828,26.673,20.989l24.3,203.79
							c1.569,13.162-7.828,25.104-20.989,26.673C1562.307,1763.646,1561.348,1763.702,1560.399,1763.702z"/>
					</g>
					<g>
						<path style="fill:#212121;" d="M1739.95,1584.212c-0.949,0-1.906-0.056-2.872-0.171l-203.78-24.3
							c-13.161-1.569-22.559-13.512-20.989-26.673c1.569-13.162,13.51-22.562,26.673-20.989l203.78,24.3
							c13.161,1.569,22.559,13.511,20.989,26.673C1762.297,1575.248,1751.935,1584.212,1739.95,1584.212z"/>
					</g>
					<g>
						<path style="fill:#212121;" d="M930.4,954.18c-6.142,0-12.284-2.343-16.971-7.029l-215.39-215.39
							c-9.373-9.373-9.373-24.569,0-33.941c9.373-9.372,24.568-9.372,33.941,0l215.39,215.39c9.373,9.373,9.373,24.569,0,33.941
							C942.684,951.837,936.542,954.18,930.4,954.18z"/>
					</g>
					<g>
						<path style="fill:#212121;" d="M1536.14,1559.91h-0.01c-6.365,0-12.47-2.528-16.971-7.029l-426.24-426.24
							c-9.372-9.373-9.372-24.568,0-33.941c9.373-9.372,24.568-9.372,33.941,0l426.039,426.039
							c4.463,4.358,7.235,10.441,7.235,17.172C1560.135,1549.165,1549.395,1559.91,1536.14,1559.91z"/>
					</g>
					<g>
						<path style="fill:#212121;" d="M463.72,595.19c-6.142,0-12.283-2.343-16.97-7.029c-9.373-9.372-9.374-24.568-0.001-33.941
							l107.69-107.7c9.372-9.373,24.568-9.374,33.941-0.001s9.374,24.568,0.001,33.941l-107.69,107.7
							C476.005,592.846,469.862,595.19,463.72,595.19z"/>
					</g>
					<g>
						<path style="fill:#212121;" d="M1684.27,559.29L1684.27,559.29c-6.365,0-12.47-2.529-16.971-7.03L1487.81,372.77
							c-9.372-9.373-9.372-24.568,0-33.941l71.8-71.8c9.373-9.372,24.568-9.372,33.941,0l179.49,179.49
							c4.501,4.501,7.029,10.605,7.029,16.971s-2.528,12.47-7.029,16.971l-71.801,71.8
							C1696.739,556.761,1690.635,559.29,1684.27,559.29z M1538.722,355.8l126.629,126.629c0,0,0,0,0,0l18.919,18.919l37.859-37.859
							L1576.58,317.941L1538.722,355.8z"/>
					</g>
					<g>
						<path style="fill:#212121;" d="M1486.83,684.94c-6.143,0-12.284-2.343-16.971-7.029c-9.372-9.373-9.372-24.569,0-33.941
							l144.582-144.575l-73.76-73.753l-54.82,54.828l-89.752,89.743c-9.373,9.371-24.568,9.372-33.941-0.002
							c-9.372-9.373-9.371-24.569,0.002-33.941l89.75-89.74l71.788-71.797c4.501-4.501,10.605-7.03,16.971-7.031
							s12.47,2.528,16.971,7.029l107.7,107.69c4.501,4.5,7.03,10.605,7.03,16.971s-2.529,12.48-7.03,16.981l-161.549,161.539
							C1499.114,682.597,1492.973,684.94,1486.83,684.94z"/>
					</g>
					<g>
						<path style="fill:#212121;" d="M1486.83,1043.92c-1.658,0-3.327-0.172-4.983-0.523c-7.947-1.687-14.501-7.28-17.417-14.862
							l-79.32-206.26l-8.59-22.324l-136.398-136.389l-228.587-87.921c-7.582-2.917-13.175-9.471-14.861-17.418
							c-1.687-7.947,0.763-16.208,6.507-21.953l71.8-71.8c5.961-5.96,14.612-8.356,22.792-6.312l287.189,71.8
							c4.221,1.055,8.074,3.237,11.15,6.314l53.841,53.85l-0.001-0.001l53.85,53.85c3.076,3.076,5.258,6.93,6.312,11.15
							l71.8,287.189c2.045,8.18-0.352,16.832-6.313,22.793l-71.8,71.79C1499.252,1041.438,1493.127,1043.92,1486.83,1043.92z
							 M1063.234,544.098l198.872,76.493c3.134,1.206,5.98,3.055,8.354,5.429l143.599,143.589c2.374,2.374,4.224,5.22,5.43,8.353
							l10.42,27.08l66.066,171.795l36.075-36.07l-66.892-267.557l-49.149-49.149c0,0-0.001-0.001-0.001-0.001l-49.141-49.148
							l-267.556-66.892L1063.234,544.098z"/>
					</g>
					<g>
						<path style="fill:#212121;" d="M300.37,1584.21c-6.142,0-12.284-2.343-16.971-7.029c-9.373-9.373-9.373-24.568,0-33.941
							l630.03-630.03c0.14-0.14,0.281-0.277,0.424-0.413l89.326-89.336l205.251-205.251c9.373-9.372,24.568-9.372,33.941,0
							c9.372,9.373,9.372,24.569,0,33.941l-205.25,205.25l-89.739,89.749c-0.139,0.139-0.28,0.276-0.422,0.412l-629.619,629.619
							C312.654,1581.867,306.512,1584.21,300.37,1584.21z"/>
					</g>
					<g>
						<path style="fill:#212121;" d="M479.86,1763.7c-6.143,0-12.284-2.343-16.971-7.029c-9.373-9.373-9.373-24.569,0-33.941
							l540.29-540.28l89.738-89.749l89.752-89.742L1387.919,797.7c9.371-9.372,24.569-9.374,33.94,0
							c9.373,9.372,9.374,24.568,0.001,33.941l-205.25,205.26l-89.751,89.741l-89.737,89.748L496.83,1756.671
							C492.145,1761.356,486.001,1763.7,479.86,1763.7z"/>
					</g>
					<g>
						<path style="fill:#212121;" d="M276.068,1788c-6.326,0-12.442-2.502-16.969-7.029c-5.203-5.203-7.732-12.506-6.86-19.812
							l24.3-203.79c1.569-13.162,13.516-22.559,26.673-20.989c13.162,1.569,22.559,13.511,20.989,26.673l-20.689,173.506
							l173.506-20.688c13.157-1.574,25.104,7.828,26.673,20.989c1.569,13.162-7.828,25.104-20.989,26.673l-203.79,24.3
							C277.962,1787.944,277.013,1788,276.068,1788z"/>
					</g>
					<g>
						<path style="fill:#212121;" d="M479.89,1763.702c-0.949,0-1.906-0.056-2.872-0.171c-13.162-1.569-22.559-13.511-20.989-26.673
							l20.689-173.506l-173.506,20.688c-13.162,1.57-25.104-7.828-26.673-20.989c-1.569-13.162,7.828-25.104,20.989-26.673
							l203.79-24.3c7.308-0.873,14.609,1.657,19.812,6.86s7.732,12.506,6.86,19.812l-24.3,203.79
							C502.237,1754.738,491.875,1763.701,479.89,1763.702z"/>
					</g>
					<g>
						<path style="fill:#212121;" d="M504.16,1559.91c-6.143,0-12.284-2.343-16.971-7.029c-9.373-9.373-9.373-24.569,0-33.941
							l426.25-426.24l179.479-179.489l215.401-215.391c9.372-9.372,24.568-9.373,33.94,0c9.373,9.373,9.372,24.569,0,33.941
							l-215.401,215.39L947.381,1126.64L521.13,1552.881C516.445,1557.566,510.302,1559.91,504.16,1559.91z"/>
					</g>
					<g>
						<path style="fill:#212121;" d="M1576.58,595.19c-6.143,0-12.284-2.343-16.971-7.029l-107.69-107.69l33.932-33.951l107.7,107.7
							c9.372,9.373,9.372,24.569,0,33.941C1588.864,592.847,1582.723,595.19,1576.58,595.19z"/>
					</g>
				</g>
			</g>
		</g>
	</g>
</g>
<g id="Layer_1">
</g>
</svg>
