<?xml version="1.0" encoding="iso-8859-1"?>
<!-- Generator: Adobe Illustrator 25.2.0, SVG Export Plug-In . SVG Version: 6.00 Build 0)  -->
<svg version="1.1" xmlns="http://www.w3.org/2000/svg" xmlns:xlink="http://www.w3.org/1999/xlink" x="0px" y="0px"
	 viewBox="0 0 2048 2048" style="enable-background:new 0 0 2048 2048;" xml:space="preserve">
<g id="_x32_654.S2_-_Flame">
	<g>
		<g id="XMLID_32_">
			<g>
				<g>
					<path style="fill:#FFE577;" d="M1479.88,958.43v53.23c0,11.23-9.11,20.34-20.35,20.34h-82.98h-280.4h-65.51
						c-11.24,0-20.35-9.11-20.35-20.34v-53.23c0-11.24,9.11-20.35,20.35-20.35h428.89C1470.77,938.08,1479.88,947.19,1479.88,958.43
						z"/>
				</g>
				<g>
					<path style="fill:#FFE577;" d="M1376.55,1032l-8.69,53.13l-25.07,188.27h-165.6c-32.27,0-59.34-24.19-63.04-56.13
						c0-0.03-0.01-0.06-0.01-0.09l-11.89-132.05l-6.1-53.13H1376.55z"/>
				</g>
				<g>
					<polygon style="fill:#FFE577;" points="1282.04,1696 1268.54,1768 1171.79,1768 1162.34,1696 					"/>
				</g>
				<g>
					<path style="fill:#FFE577;" d="M830.73,1652.43v23.21c0,11.23-9.11,20.34-20.35,20.34h-71.5v-422.74h71.5
						c11.24,0,20.35,9.11,20.35,20.34v22.92V1652.43z"/>
				</g>
				<g>
					<path style="fill:#8BC34A;" d="M738.88,1273.24v422.74H570.82c-11.23,0-20.34-9.11-20.34-20.34v-434.9
						c0-11.23,9.11-20.34,20.34-20.34h147.72c11.23,0,20.34,9.11,20.34,20.34V1273.24z"/>
				</g>
				<g>
					<path style="fill:#F0C894;" d="M1302.3,1590.33c17.76,1.68,31.07,7.79,39.93,18.31c7.36,8.69,11.66,20.37,12.91,35.05
						c-0.32,29.2-25.02,52.31-54.2,52.31h-18.9h-119.7H970.76c-14.33,0-28.43-4.45-39.73-13.2c-30.02-23.19-61.73-28.07-100.3-30.37
						V1316.5c59.79-86.95,114.1-26.74,161.07-113.66c38.42-71.15,70.77-70.36,113.81-70.36l8.43,83.79c0.03,0.31,0.06,0.61,0.1,0.91
						c0,0.03,0.01,0.06,0.01,0.09c3.7,31.94,30.77,56.13,63.04,56.13h165.6h16.36c32.4,3.05,50.02,20.84,52.86,53.33
						c-0.29,29.21-25.02,52.31-54.2,52.31h-16.54c4.68,0.44,9.04,1.2,13.11,2.27c24.07,6.22,37.32,23.25,39.73,51.06
						c-0.23,24.24-17.32,44.27-39.79,50.37c-4.62,1.28-9.44,1.95-14.41,1.95h-16.19c11.48,1.07,21.1,4.01,28.86,8.8
						c14.15,8.72,22.12,23.57,23.95,44.55c-0.18,17.91-9.53,33.51-23.48,42.9c-8.81,5.93-19.42,9.39-30.69,9.39H1302.3z"/>
				</g>
				<g>
					<path style="fill:#FF9911;" d="M1417.18,497.05c50.49,47.43,81.67,115.51,80.3,190.9c-2.52,137.82-114.63,248.71-250.77,249.6
						c33.73-0.44,64.25-14.37,86.42-36.72c22.53-22.71,36.48-54.06,36.48-88.72c0.09-20.72-4.56-43.53-16.51-60.8
						c-13.8-19.91-25.73-37.68-38.34-58.43c-15.08-24.84-23.37-51.96-27.45-80.09c-0.93-6.45-7.9-10.01-13.61-6.94
						c-24.91,13.44-79.88,51.72-81.33,128.38l-42.94-12.65c-4.61-1.36-9.46,1.05-11.27,5.53c-13.09,32.51-17.88,60.79-17.58,84.98
						c0,0.02,0,0.02,0,0.05c0.02,68.66,54.76,124.41,122.65,125.41c-0.66,0-1.31-0.01-1.97-0.02
						c-137.65-2.06-248.61-115.14-248.61-254.36c0-43.48,10.81-84.41,29.9-120.2c3.02-5.66,10.72-6.6,15.03-1.86
						c12.61,13.87,38.04,37.53,65.92,38.98c0,0-32.38-227.62,184.18-319.32c8.07-3.42,15.97,5.19,11.9,12.99
						c-14.68,28.11-33.84,77.91-17.03,124.09c20.37,56.01,82.02,50.61,83.41,162.17c0,0,25.22-28.17,35.75-78.04
						C1403.22,494.84,1411.88,492.07,1417.18,497.05z"/>
				</g>
				<g>
					<g>
						<path style="fill:#FF4B58;" d="M1353.1,751.31c11.95,17.27,16.6,40.08,16.51,60.8c0,34.66-13.95,66.01-36.48,88.72
							c-22.17,22.35-52.69,36.28-86.42,36.72c-0.54,0.01-1.09,0.01-1.63,0.01c-0.62,0-1.23,0-1.85-0.01
							c-67.89-1-122.63-56.75-122.65-125.41c0-0.03,0-0.03,0-0.05c-0.3-24.19,4.49-52.47,17.58-84.98
							c1.81-4.48,6.66-6.89,11.27-5.53l42.94,12.65c1.45-76.66,56.42-114.94,81.33-128.38c5.71-3.07,12.68,0.49,13.61,6.94
							c4.08,28.13,12.37,55.25,27.45,80.09C1327.37,713.63,1339.3,731.4,1353.1,751.31z"/>
					</g>
				</g>
			</g>
			<g>
				<g>
					<path style="fill:#212121;" d="M1268.54,1792h-96.75c-12.048,0-22.229-8.932-23.796-20.877l-9.45-72
						c-1.725-13.142,7.53-25.194,20.673-26.919c13.139-1.721,25.194,7.53,26.919,20.673l6.71,51.123h55.776l9.829-52.423
						c2.442-13.028,14.983-21.608,28.012-19.166s21.608,14.984,19.166,28.012l-13.5,72
						C1290.001,1783.774,1280.089,1792,1268.54,1792z"/>
				</g>
				<g>
					<path style="fill:#212121;" d="M1246.707,961.55c-0.585,0-1.164-0.021-1.738-0.062c-1.346,0.096-2.713,0.061-4.082,0.039
						c-72.981-1.092-141.423-30.553-192.704-82.956c-51.287-52.41-79.533-121.805-79.533-195.401
						c0-45.889,11.316-91.359,32.724-131.495c5.086-9.531,14.517-16.016,25.229-17.35c10.724-1.334,21.462,2.642,28.732,10.637
						c7.389,8.126,15.036,14.917,22.457,20.065c0.224-24.647,3.017-58.991,13.462-96.628
						c11.891-42.841,31.255-81.214,57.554-114.052c32.838-41.001,76.412-73.191,129.514-95.677
						c13.104-5.55,27.816-2.38,37.477,8.087c9.68,10.489,11.666,25.447,5.06,38.107c-11.863,22.716-29.679,66.525-15.755,104.778
						c5.517,15.17,15.401,24.511,27.915,36.337c14.906,14.086,31.993,30.236,43.533,58.248c0.596-2.339,1.157-4.743,1.677-7.204
						c2.495-11.799,11.175-21.363,22.654-24.964c11.444-3.59,23.985-0.716,32.732,7.502c28.061,26.36,50.001,57.64,65.207,92.966
						c15.764,36.621,23.387,75.602,22.655,115.86c-1.332,72.854-30.582,141.302-82.359,192.739
						c-51.731,51.39-120.007,79.952-192.25,80.424C1246.813,961.55,1246.76,961.55,1246.707,961.55z M1035.069,592.392
						c-12.092,28.494-18.42,59.508-18.42,90.778c0,125.167,100.921,228.506,224.97,230.363c1.149,0.017,2.252,0.001,3.353,0.079
						c0.522-0.037,1.05-0.058,1.581-0.062c122.866-0.803,224.667-102.204,226.932-226.039
						c1.033-56.904-18.913-112.037-55.358-154.741c-13.39,39.583-33.281,62.137-34.285,63.258
						c-6.601,7.372-17.048,9.937-26.311,6.463c-9.264-3.475-15.445-12.279-15.568-22.172c-0.755-60.559-19.827-78.583-41.912-99.454
						c-14.37-13.579-30.656-28.97-40.055-54.812c-13.589-37.333-7.648-75.842,2.419-106.102
						c-62.723,35.828-104.51,89.372-124.438,159.609c-17.87,62.985-10.781,116.666-10.708,117.201
						c1.011,7.102-1.212,14.257-6.053,19.55c-4.839,5.293-11.796,8.117-18.961,7.746
						C1076.023,622.693,1052.822,608.196,1035.069,592.392z"/>
				</g>
				<g>
					<path style="fill:#212121;" d="M1245.08,961.56c-0.74,0-1.47-0.001-2.209-0.013c-39.229-0.58-76.01-16.397-103.565-44.539
						c-27.521-28.105-42.692-65.312-42.726-104.775c-0.345-29.741,6.153-61.395,19.317-94.087
						c6.48-16.047,23.812-24.456,40.323-19.585l15.371,4.528c13.604-69.364,66.394-105.24,90.713-118.36
						c9.59-5.157,21.08-5.31,30.762-0.427c9.714,4.899,16.441,14.269,17.998,25.064c3.997,27.559,11.918,50.81,24.211,71.059
						c12.435,20.461,24.005,37.67,37.55,57.213c13.524,19.545,20.901,46.007,20.785,74.532
						c-0.015,39.853-15.442,77.338-43.442,105.562c-27.502,27.725-64.1,43.284-103.06,43.813
						C1246.436,961.559,1245.752,961.56,1245.08,961.56z M1245.08,913.56c0.39,0,0.785,0.002,1.174-0.006
						c0.048-0.001,0.096-0.002,0.143-0.002c26.335-0.343,51.086-10.864,69.694-29.624c19.036-19.188,29.52-44.693,29.52-71.818
						c0-0.035,0-0.069,0-0.104c0.081-18.53-4.383-35.676-12.246-47.04c-12.137-17.509-25.283-36.864-39.114-59.622
						c-12.255-20.186-21.058-42.36-26.684-67.316c-23.563,17.24-50.271,47.555-51.2,96.656c-0.142,7.484-3.768,14.474-9.805,18.9
						c-6.034,4.426-13.791,5.784-20.974,3.667l-29.802-8.78c-7.686,22.287-11.453,43.541-11.208,63.32
						c0.001,0.099,0.002,0.198,0.002,0.297c0.016,55.162,44.429,100.659,99.004,101.462c0.015,0,0.029,0,0.044,0.001
						C1244.113,913.561,1244.592,913.561,1245.08,913.56z M1263.559,616.235c0.001,0.01,0.002,0.02,0.004,0.029
						C1263.561,616.253,1263.56,616.246,1263.559,616.235z"/>
				</g>
				<g>
					<path style="fill:#212121;" d="M1342.82,1297.403c-1.056,0-2.123-0.069-3.198-0.213c-13.139-1.75-22.372-13.819-20.622-26.958
						l25.07-188.271c0.031-0.236,0.066-0.471,0.104-0.706l8.689-53.13c2.139-13.081,14.47-21.949,27.56-19.812
						c13.081,2.14,21.951,14.479,19.812,27.559l-8.632,52.777l-25.023,187.918
						C1364.974,1288.632,1354.666,1297.403,1342.82,1297.403z"/>
				</g>
				<g>
					<path style="fill:#212121;" d="M1114.112,1241.182c-12.283,0-22.753-9.38-23.876-21.85l-11.863-131.757l-6.066-52.838
						c-1.512-13.168,7.938-25.069,21.106-26.581c13.164-1.517,25.069,7.938,26.581,21.106l6.1,53.13
						c0.022,0.195,0.042,0.39,0.06,0.585l11.89,132.05c1.188,13.201-8.55,24.867-21.751,26.056
						C1115.561,1241.148,1114.832,1241.182,1114.112,1241.182z"/>
				</g>
				<g>
					<path style="fill:#212121;" d="M1459.53,1056H1030.64c-24.454,0-44.35-19.891-44.35-44.34v-53.23
						c0-24.455,19.896-44.35,44.35-44.35h428.891c24.454,0,44.35,19.896,44.35,44.35v53.23
						C1503.88,1036.109,1483.984,1056,1459.53,1056z M1034.29,1008h421.59v-45.92h-421.59V1008z"/>
				</g>
				<g>
					<path style="fill:#212121;" d="M1300.94,1720H970.76c-19.918,0-39.247-6.472-54.424-18.224
						c-23.815-18.396-48.965-23.118-87.035-25.39c-13.231-0.789-23.317-12.155-22.528-25.386
						c0.79-13.232,12.157-23.307,25.387-22.528c37.177,2.218,76.568,6.772,113.542,35.334c6.831,5.29,15.723,8.193,25.058,8.193
						h330.181c16.111,0,29.42-12.25,30.169-27.519c-0.915-8.937-3.333-15.773-7.194-20.332c-4.735-5.622-12.531-8.854-23.875-9.926
						c-12.758-1.207-22.317-12.224-21.714-25.024c0.604-12.801,11.158-22.869,23.974-22.869h20.061c6.159,0,12.138-1.832,17.288-5.3
						c7.783-5.239,12.425-13.271,12.852-22.166c-1.714-16.473-7.932-22.12-12.511-24.941c-4.579-2.827-10.796-4.619-18.495-5.336
						c-12.767-1.189-22.344-12.203-21.749-25.011c0.596-12.808,11.153-22.886,23.975-22.886h16.19c2.725,0,5.418-0.363,8.006-1.08
						c0.038-0.011,0.077-0.021,0.116-0.031c12.523-3.4,21.454-14.161,22.049-26.39c-2.148-20.765-11.686-26.054-21.706-28.644
						c-2.911-0.765-6.026-1.298-9.354-1.611c-12.762-1.201-22.326-12.217-21.726-25.02c0.601-12.804,11.156-22.875,23.974-22.875
						h16.54c16.126,0,29.435-12.236,30.171-27.49c-2.03-19.743-10.305-28.039-30.028-30.149H1177.19
						c-44.392,0-81.723-33.219-86.87-77.282c-0.063-0.5-0.116-1.002-0.167-1.521l-6.214-61.761
						c-27.515,1.592-45.567,10.267-71.021,57.406c-28.782,53.262-62.332,61.583-91.932,68.924
						c-24.718,6.13-46.065,11.425-70.48,46.932c-7.51,10.922-22.453,13.689-33.375,6.177c-10.922-7.51-13.688-22.452-6.177-33.374
						c34.735-50.515,70.079-59.279,98.478-66.323c25.629-6.355,42.561-10.555,61.254-45.148
						c19.992-37.022,40.705-59.821,65.183-71.741c23.035-11.218,46.022-11.224,68.345-11.208h1.397
						c12.324,0,22.646,9.335,23.88,21.598l8.457,84.068c0.009,0.066,0.017,0.132,0.024,0.197c0.007,0.055,0.013,0.109,0.02,0.165
						l0,0c2.304,19.892,19.155,34.892,39.199,34.892h181.96c0.751,0,1.502,0.035,2.249,0.105
						c21.875,2.06,39.476,9.672,52.312,22.626c12.82,12.937,20.292,30.604,22.207,52.509c0.067,0.774,0.098,1.551,0.09,2.328
						c-0.248,24.962-12.77,47.152-31.869,61.031c7.71,11.498,12.445,25.73,13.881,42.298c0.066,0.765,0.096,1.532,0.089,2.301
						c-0.232,24.4-12.436,46.793-31.671,60.877c6.9,10.214,12.388,23.983,14.001,42.479c0.067,0.774,0.098,1.551,0.09,2.328
						c-0.252,24.983-12.991,48.373-34.077,62.567c-0.052,0.035-0.104,0.07-0.155,0.104c7.12,11.228,11.409,24.881,12.756,40.7
						c0.065,0.765,0.094,1.531,0.086,2.299C1378.68,1685.886,1343.601,1720,1300.94,1720z"/>
				</g>
				<g>
					<path style="fill:#212121;" d="M810.38,1719.98h-71.5c-13.255,0-24-10.745-24-24s10.745-24,24-24h67.85v-374.74h-67.85
						c-13.255,0-24-10.745-24-24s10.745-24,24-24h71.5c24.455,0,44.35,19.891,44.35,44.34v382.06
						C854.73,1700.089,834.834,1719.98,810.38,1719.98z M810.38,1297.24h0.01H810.38z"/>
				</g>
				<g>
					<path style="fill:#212121;" d="M738.88,1719.98H570.82c-24.449,0-44.34-19.892-44.34-44.341V1240.74
						c0-24.449,19.891-44.34,44.34-44.34h147.72c24.449,0,44.34,19.891,44.34,44.34v455.24
						C762.88,1709.235,752.135,1719.98,738.88,1719.98z M574.48,1671.98h140.4V1244.4h-140.4V1671.98z"/>
				</g>
				<g>
					<path style="fill:#212121;" d="M1341.27,1403.04H1185.04c-13.255,0-24-10.745-24-24s10.745-24,24-24h156.229
						c13.255,0,24,10.745,24,24S1354.524,1403.04,1341.27,1403.04z"/>
				</g>
				<g>
					<path style="fill:#212121;" d="M1323.72,1508.69H1188.28c-13.255,0-24-10.745-24-24s10.745-24,24-24h135.439
						c13.255,0,24,10.745,24,24S1336.975,1508.69,1323.72,1508.69z"/>
				</g>
				<g>
					<path style="fill:#212121;" d="M1302.3,1614.33h-115.1c-13.255,0-24-10.745-24-24s10.745-24,24-24h115.1
						c13.255,0,24,10.745,24,24S1315.555,1614.33,1302.3,1614.33z"/>
				</g>
			</g>
		</g>
	</g>
</g>
<g id="Layer_1">
</g>
</svg>
