<?xml version="1.0" encoding="iso-8859-1"?>
<!-- Generator: Adobe Illustrator 25.2.0, SVG Export Plug-In . SVG Version: 6.00 Build 0)  -->
<svg version="1.1" xmlns="http://www.w3.org/2000/svg" xmlns:xlink="http://www.w3.org/1999/xlink" x="0px" y="0px"
	 viewBox="0 0 2048 2048" style="enable-background:new 0 0 2048 2048;" xml:space="preserve">
<g id="_x32_655.S2_-_Cap">
	<g>
		<g id="XMLID_33_">
			<g>
				<g>
					<path style="fill:#8BC34A;" d="M1324.22,602.16c179.7,192.23,53.85,627.03,30.5,703.22c-81.1-10.62-200.67-34.36-435.01-92.97
						c-30.8-7.7-65.37-14.66-101.01-20.15c9.38-97.79,65.05-512.97,359.24-624.11c17.83-6.74,36.43-9.51,54.69-8.59
						C1266.85,561.31,1299.84,576.07,1324.22,602.16z"/>
				</g>
				<g>
					<path style="fill:#4CAF50;" d="M1768,1116.48c0,251.21-48.86,216.93-190.84,204.65c-35.83-3.12-64.2-4.48-90.54-5.64
						c-41.8-1.82-78.52-3.13-131.9-10.11c23.35-76.19,149.2-510.99-30.5-703.22c-24.38-26.09-57.37-40.85-91.59-42.6l0.02-0.4
						c49.3,2.8,98.12,11.52,145.36,26.06c50.97,15.68,100.1,38.13,145.99,67.23c2.12,1.34,4.24,2.7,6.35,4.07
						C1691.77,761.66,1768,923.34,1768,1116.48z"/>
				</g>
				<g>
					<path style="fill:#4CAF50;" d="M1097.71,566.25c44.82-7.31,90.07-9.65,134.94-7.09l-0.02,0.4
						c-18.26-0.92-36.86,1.85-54.69,8.59c-294.19,111.14-349.86,526.32-359.24,624.11c-82.77-12.75-171.29-17.59-231.55-5.43
						c0,0,19.44-241.75,137.63-410.84c76.23-109.16,200.24-166.1,308.87-195.8C1054.84,574.4,1076.23,569.75,1097.71,566.25z"/>
				</g>
				<g>
					<path style="fill:#8BC34A;" d="M1384,544c0,14.33-2.09,28.16-5.99,41.22c-47.24-14.54-96.06-23.26-145.36-26.06
						c-44.87-2.56-90.12-0.22-134.94,7.09c-1.13-7.25-1.71-14.68-1.71-22.25c0-79.53,64.47-144,144-144S1384,464.47,1384,544z"/>
				</g>
				<g>
					<path style="fill:#8BC34A;" d="M1354.72,1305.38c53.38,6.98,90.1,8.29,131.9,10.11c-87.49,92.38-253.34,238.73-439.01,256.09
						c-281.39,25.58-217.44-113.59-498.84-153.49c-135.58-19.19-207.47,3.83-233.56,20.72c-9.86,6.43-22.99,4.29-30.3-4.94
						c-7.3-9.23-6.37-22.51,2.16-30.62c51.16-48.1,175.76-127.65,300.08-216.42c60.26-12.16,148.78-7.32,231.55,5.43
						c35.64,5.49,70.21,12.45,101.01,20.15C1154.05,1271.02,1273.62,1294.76,1354.72,1305.38z"/>
				</g>
			</g>
			<g>
				<g>
					<path style="fill:#212121;" d="M984.098,1598.707c-42.771,0-78.739-4.811-110.496-14.595
						c-42.846-13.201-72.316-33.427-103.516-54.84c-50.165-34.43-102.039-70.03-224.685-87.42
						c-57.81-8.182-108.637-9.25-151.068-3.175c-40.279,5.768-59.63,16.103-66.081,20.278
						c-20.303,13.243-47.054,8.882-62.156-10.185c-15.11-19.105-13.199-46.147,4.436-62.914c0.033-0.031,0.065-0.062,0.098-0.093
						c35.63-33.498,103.725-80.423,182.573-134.757c38.94-26.834,79.206-54.581,120-83.71c10.788-7.701,25.777-5.201,33.479,5.586
						c7.703,10.787,5.202,25.775-5.585,33.479c-41.121,29.361-81.555,57.225-120.657,84.17
						c-70.995,48.922-133.091,91.713-168.28,122.391c19.245-9.875,45.467-17.479,75.369-21.761
						c46.918-6.716,102.299-5.653,164.604,3.165c133.796,18.971,192.936,59.559,245.113,95.369
						c57.9,39.736,103.632,71.122,248.191,57.982c179.679-16.8,342.625-163.024,423.757-248.691
						c9.116-9.626,24.307-10.037,33.929-0.923c9.624,9.115,10.037,24.305,0.923,33.929
						c-41.301,43.609-107.237,106.707-186.818,159.655c-91.469,60.858-181.429,95.791-267.383,103.827
						C1026.214,1597.624,1004.39,1598.707,984.098,1598.707z"/>
				</g>
				<g>
					<path style="fill:#212121;" d="M1676.336,1353.812c-18.387,0.001-38.649-2.228-60.767-4.658
						c-12.832-1.411-26.103-2.869-40.478-4.113c-34.986-3.046-62.312-4.374-89.528-5.573l-6.907-0.299
						c-38.879-1.678-75.602-3.263-127.049-9.991c-92.819-12.154-227.816-40.985-437.721-93.483
						c-30.588-7.647-64.767-14.465-98.84-19.714c-90.467-13.935-171.802-15.984-223.149-5.624
						c-7.389,1.491-15.045-0.575-20.68-5.576c-5.635-5.003-8.594-12.361-7.99-19.873c0.205-2.544,5.239-63.255,25.083-145.704
						c18.398-76.44,53.596-186.541,116.799-276.962c36.91-52.855,87.331-98.169,149.855-134.674
						c50.022-29.206,108.012-52.935,172.357-70.527c21.877-5.978,44.259-10.849,66.529-14.477
						c46.295-7.551,93.455-10.027,140.167-7.363c51.31,2.914,102.133,12.026,151.052,27.083l-0.003-0.001
						c53.554,16.474,104.622,39.992,151.786,69.9c2.173,1.373,4.377,2.787,6.57,4.211C1706.053,742.321,1792,908.327,1792,1116.48
						c0,127.225-12.28,185.53-45.312,215.129C1727.579,1348.733,1704.098,1353.812,1676.336,1353.812z M670.922,1155.762
						c57.174,0,114.815,7.138,151.432,12.777c35.504,5.47,71.183,12.589,103.177,20.588
						c208.055,52.035,341.382,80.55,432.305,92.456c49.373,6.456,83.442,7.927,122.891,9.63l6.938,0.3
						c27.77,1.224,55.659,2.58,91.578,5.708c14.916,1.29,29.077,2.847,41.572,4.22c45.308,4.981,78.044,8.578,93.841-5.578
						c20.295-18.186,29.345-73.51,29.345-179.382c0-191.131-78.408-343.229-226.749-439.85c-2-1.299-4.036-2.605-6.072-3.892
						c-43.588-27.64-90.756-49.361-140.226-64.579c-0.001,0-0.002-0.001-0.004-0.001c-45.22-13.918-92.208-22.342-139.659-25.037
						c-43.229-2.466-86.868-0.173-129.717,6.815c-20.618,3.359-41.341,7.869-61.597,13.404
						c-135.615,37.078-235.043,99.789-295.52,186.39c-58.74,84.037-91.845,187.69-109.273,259.848
						c-10.883,45.056-17.18,83.806-20.591,108.893C632.782,1156.559,651.827,1155.762,670.922,1155.762z"/>
				</g>
				<g>
					<path style="fill:#212121;" d="M1354.728,1329.387c-2.329,0-4.697-0.342-7.041-1.061
						c-12.673-3.884-19.797-17.306-15.913-29.979c14.289-46.623,48.732-169.485,59.924-303.066
						c14.582-174.04-14.02-300.791-85.01-376.731c-19.728-21.111-46.462-33.547-75.283-35.021
						c-15.384-0.776-30.517,1.604-44.978,7.071c-275.263,103.99-332.768,488.562-343.836,603.952
						c-1.266,13.193-12.986,22.854-26.182,21.599c-13.194-1.266-22.864-12.988-21.599-26.183
						c4.831-50.36,21.752-181.736,74.417-313.655c30.133-75.479,67.598-140.372,111.353-192.875
						c53.579-64.29,117.126-110.632,188.879-137.739c20.678-7.817,42.339-11.219,64.379-10.108
						c41.333,2.114,79.652,19.936,107.917,50.184c44.465,47.565,74.714,112.22,89.903,192.167
						c12.165,64.026,14.813,138.499,7.872,221.348c-11.581,138.214-47.121,265.02-61.864,313.123
						C1374.501,1322.742,1364.996,1329.386,1354.728,1329.387z"/>
				</g>
				<g>
					<path style="fill:#212121;" d="M1378.02,609.227c-2.275,0-4.586-0.326-6.878-1.01c-12.7-3.793-19.921-17.164-16.128-29.864
						c3.309-11.08,4.986-22.637,4.986-34.353c0-66.168-53.832-120-120-120s-120,53.832-120,120c0,6.25,0.479,12.493,1.424,18.554
						c2.041,13.097-6.922,25.369-20.019,27.41c-13.086,2.042-25.368-6.921-27.409-20.018c-1.324-8.5-1.996-17.229-1.996-25.946
						c0-92.636,75.364-168,168-168s168,75.364,168,168c0,16.37-2.354,32.549-6.994,48.088
						C1397.897,602.497,1388.354,609.227,1378.02,609.227z"/>
				</g>
			</g>
		</g>
	</g>
</g>
<g id="Layer_1">
</g>
</svg>
