<?xml version="1.0" encoding="iso-8859-1"?>
<!-- Generator: Adobe Illustrator 25.2.0, SVG Export Plug-In . SVG Version: 6.00 Build 0)  -->
<svg version="1.1" xmlns="http://www.w3.org/2000/svg" xmlns:xlink="http://www.w3.org/1999/xlink" x="0px" y="0px"
	 viewBox="0 0 2048 2048" style="enable-background:new 0 0 2048 2048;" xml:space="preserve">
<g id="_x32_656.S2_-_Helmet_II">
	<g>
		<g id="XMLID_34_">
			<g>
				<g>
					<path style="fill:#898890;" d="M945.53,1377.99c29.62,0,53.62,23.99,53.62,53.61c0,29.61-24,53.62-53.62,53.62
						c-29.62,0-53.62-24.01-53.62-53.62C891.91,1401.98,915.91,1377.99,945.53,1377.99z"/>
				</g>
				<g>
					<path style="fill:#C6C5CB;" d="M1087.63,1431.6c0,78.48-63.62,142.1-142.1,142.1s-142.1-63.62-142.1-142.1
						s63.62-142.1,142.1-142.1c78.33,0,141.86,63.38,142.1,141.66C1087.63,1431.31,1087.63,1431.45,1087.63,1431.6z M999.15,1431.6
						c0-29.62-24-53.61-53.62-53.61c-29.62,0-53.62,23.99-53.62,53.61c0,29.61,24,53.62,53.62,53.62
						C975.15,1485.22,999.15,1461.21,999.15,1431.6z"/>
				</g>
				<g>
					<path style="fill:#898890;" d="M1342.1,1431.16c11.99,18.11,18.55,39.52,18.55,61.67c0,30.49-12.46,59.66-34.49,80.75
						c-91.74,87.74-207.69,201.9-327.1,162.35c-341.7-113.17-506.79-20.8-549.15-74.88c-62.45-79.75-175.07-353.75-188.86-457.78
						c-25-188.52,44.5-368.96,171.57-500.65l50.96,112.41c96.42-81.14,217.57-137.1,351.64-154.87
						c187.19-24.82,365.87,29.75,499.62,136.9l66.87-98.01c42.56,45.61,78.26,97.59,105.35,154.63
						c12.87,27.11,2.33,59.6-23.74,74.48L1362.6,997.1l-144.3,82.4c-33.57,19.17-56.85,51.57-64.78,88.5
						c-1.98,9.19-3.01,18.66-3.01,28.27c0,38.57,16.56,75.29,45.49,100.81l126.84,111.96
						C1330.28,1415.6,1336.73,1423.05,1342.1,1431.16z M1087.63,1431.16c-0.24-78.28-63.77-141.66-142.1-141.66
						c-78.48,0-142.1,63.62-142.1,142.1s63.62,142.1,142.1,142.1s142.1-63.62,142.1-142.1
						C1087.63,1431.45,1087.63,1431.31,1087.63,1431.16z"/>
				</g>
				<g>
					<path style="fill:#FFDC4A;" d="M1401.71,699.05l-66.87,98.01c-133.75-107.15-312.43-161.72-499.62-136.9
						C701.15,677.93,580,733.89,483.58,815.03l-50.96-112.41c102.95-106.7,243.7-181.39,402.6-202.46
						C1055.69,470.93,1264.36,551.82,1401.71,699.05z"/>
				</g>
			</g>
			<g>
				<g>
					<path style="fill:#212121;" d="M1049.072,1767.973c-19.68,0-38.929-3.09-57.559-9.26
						c-201.67-66.793-338.141-60.604-428.445-56.51c-30.79,1.396-55.108,2.499-75.436,0.369
						c-16.688-1.748-40.713-6.42-56.617-26.724c-30.519-38.973-73.873-123.249-115.974-225.441
						c-41.953-101.832-71.031-193.041-77.784-243.984c-24.888-187.676,40.023-377.38,178.091-520.468
						c53.998-55.964,116.807-102.413,186.684-138.056c72.124-36.789,149.518-60.855,230.032-71.531
						c55.975-7.42,112.49-8.102,167.978-2.024c53.894,5.903,106.965,18.188,157.74,36.514
						c99.8,36.021,190.217,95.436,261.476,171.82c44.806,48.017,81.641,102.086,109.48,160.706
						c8.839,18.619,10.227,39.729,3.908,59.446c-6.274,19.58-19.567,35.978-37.43,46.173l-265.017,151.338
						c-27.238,15.554-46.636,42.052-53.217,72.697c-1.644,7.629-2.475,15.44-2.475,23.23c0,31.68,13.62,61.864,37.367,82.812
						l126.845,111.965c8.929,7.871,16.802,16.913,23.39,26.865c14.745,22.27,22.539,48.176,22.539,74.918
						c0,36.848-15.27,72.6-41.894,98.087l-5.609,5.367c-46.13,44.152-98.416,94.195-155.023,128.769
						c-31.988,19.537-61.828,32.095-91.224,38.39C1076.79,1766.464,1062.826,1767.973,1049.072,1767.973z M643.275,1651.955
						c28.625,0,60.608,1.019,95.699,4.127c87.57,7.757,175.113,26.423,267.632,57.064c13.956,4.623,27.996,6.74,42.048,6.741
						c89.935,0.002,180.525-86.707,255.305-158.28l5.614-5.372c17.205-16.471,27.078-39.584,27.078-63.405
						c0-17.288-5.035-34.032-14.562-48.421c-0.001,0-0.001,0-0.001-0.001c-4.259-6.433-9.346-12.275-15.119-17.365l-126.851-111.97
						c-34.067-30.052-53.608-73.356-53.608-118.804c0-11.182,1.193-22.393,3.548-33.323c9.439-43.957,37.266-81.974,76.341-104.288
						l265.021-151.339c15.239-8.699,21.37-27.738,13.96-43.346c-25.722-54.159-59.776-104.139-101.216-148.55
						c-137.154-147.02-341.189-218.596-545.789-191.471c-147.905,19.612-285.871,88.982-388.483,195.333
						c-127.845,132.492-188.003,307.748-165.05,480.83c6.146,46.361,34.724,135.262,74.582,232.009
						c39.921,96.899,81.834,178.949,109.383,214.13c9.209,11.757,45.784,10.1,92.088,8
						C583.987,1653.205,611.571,1651.955,643.275,1651.955z"/>
				</g>
				<g>
					<path style="fill:#212121;" d="M1658.2,1636.55h-51.87c-46.836,0-88.555-29.747-103.811-74.021
						c-0.126-0.364-0.242-0.73-0.35-1.101l-84.274-288.985l-77.081,0.525c-0.055,0.001-0.109,0.001-0.164,0.001
						c-5.72,0-11.254-2.043-15.604-5.765L1237.153,1192h-83.634c-13.255,0-24-10.745-24-24s10.745-24,24-24h92.5
						c5.722,0,11.256,2.044,15.604,5.765l87.823,75.145l54.479-0.371l-64.365-220.719c-3.711-12.725,3.597-26.048,16.321-29.759
						c12.724-3.713,26.048,3.596,29.759,16.321l68.186,233.816l214.661-1.466c0.055-0.001,0.109-0.001,0.164-0.001
						c54.781,0,99.35,44.559,99.35,99.329v204.7C1768,1587.298,1718.744,1636.55,1658.2,1636.55z M1548.075,1547.392
						c8.727,24.641,32.069,41.158,58.255,41.158h51.87c34.076,0,61.8-27.719,61.8-61.79v-204.7c0-28.284-23.002-51.298-51.29-51.329
						l-200.914,1.372L1548.075,1547.392z"/>
				</g>
				<g>
					<path style="fill:#212121;" d="M1744,1455.16h-656.37c-13.255,0-24-10.745-24-24s10.745-24,24-24H1744
						c13.255,0,24,10.745,24,24S1757.255,1455.16,1744,1455.16z"/>
				</g>
				<g>
					<path style="fill:#212121;" d="M945.53,1597.7c-91.587,0-166.1-74.513-166.1-166.101s74.512-166.1,166.1-166.1
						c44.276,0,85.927,17.217,117.28,48.48c31.347,31.256,48.685,72.845,48.82,117.106v0.513
						C1111.63,1523.188,1037.117,1597.7,945.53,1597.7z M945.53,1313.5c-65.12,0-118.1,52.979-118.1,118.1
						c0,65.121,52.979,118.101,118.1,118.101c65.121,0,118.1-52.979,118.1-118.101v-0.439
						C1063.431,1366.315,1010.451,1313.5,945.53,1313.5z"/>
				</g>
				<g>
					<path style="fill:#212121;" d="M945.53,1509.22c-42.8,0-77.62-34.82-77.62-77.62c0-42.794,34.82-77.609,77.62-77.609
						c42.8,0,77.621,34.815,77.621,77.609C1023.15,1474.399,988.33,1509.22,945.53,1509.22z M945.53,1401.99
						c-16.333,0-29.62,13.283-29.62,29.609c0,16.333,13.287,29.62,29.62,29.62c16.333,0,29.621-13.287,29.621-29.62
						C975.15,1415.273,961.863,1401.99,945.53,1401.99z"/>
				</g>
				<g>
					<path style="fill:#212121;" d="M483.58,839.03c-1.767,0-3.545-0.195-5.303-0.594c-7.327-1.66-13.454-6.655-16.556-13.497
						l-50.96-112.41c-5.473-12.072-0.123-26.295,11.949-31.768c12.072-5.475,26.295-0.125,31.769,11.949l38.182,84.224
						c98.502-75.678,215.199-124.104,339.406-140.566c94.761-12.564,188.807-5.952,279.523,19.656
						c79.287,22.381,152.42,58.167,217.75,106.513l52.545-77.014c7.47-10.95,22.403-13.769,33.352-6.299
						c10.949,7.47,13.77,22.402,6.299,33.352l-66.87,98.01c-3.768,5.522-9.667,9.222-16.278,10.21
						c-6.617,0.99-13.336-0.827-18.553-5.006c-133.184-106.696-308.669-154.747-481.459-131.839
						C712.768,700.6,595.426,752.276,499.033,833.393C494.664,837.069,489.178,839.03,483.58,839.03z"/>
				</g>
			</g>
		</g>
	</g>
</g>
<g id="Layer_1">
</g>
</svg>
