<?xml version="1.0" encoding="iso-8859-1"?>
<!-- Generator: Adobe Illustrator 25.2.0, SVG Export Plug-In . SVG Version: 6.00 Build 0)  -->
<svg version="1.1" xmlns="http://www.w3.org/2000/svg" xmlns:xlink="http://www.w3.org/1999/xlink" x="0px" y="0px"
	 viewBox="0 0 2048 2048" style="enable-background:new 0 0 2048 2048;" xml:space="preserve">
<g id="_x32_657.S2_-_Finish">
	<g>
		<g id="XMLID_35_">
			<g>
				<g>
					<polygon style="fill:#898890;" points="800.8,726.8 719.08,1768.4 619.88,1768.4 701.6,726.8 					"/>
				</g>
				<g>
					<polygon style="fill:#FFDC4A;" points="1768,255.6 1768,1768.4 1668.8,1768.4 1668.8,726.8 1668.8,255.6 					"/>
				</g>
				<g>
					<polygon style="fill:#FFDC4A;" points="379.2,726.8 379.2,1768.4 280,1768.4 280,255.6 379.2,255.6 					"/>
				</g>
				<g>
					<g>
						<polygon style="fill:#FF4B58;" points="1668.8,255.6 1668.8,726.8 1346.4,726.8 1247.2,726.8 1024,726.8 800.8,726.8 
							701.6,726.8 379.2,726.8 379.2,255.6 						"/>
					</g>
				</g>
				<g>
					<polygon style="fill:#898890;" points="1346.4,726.8 1428.12,1768.4 1328.92,1768.4 1247.2,726.8 					"/>
				</g>
				<g>
					<polygon style="fill:#C6C5CB;" points="1024,1768.4 719.08,1768.4 800.8,726.8 1024,726.8 1247.2,726.8 1328.92,1768.4 					
						"/>
				</g>
			</g>
			<g>
				<g>
					<path style="fill:#212121;" d="M490.8,651.6c-13.255,0-24-10.745-24-24V354.8c0-13.255,10.745-24,24-24H590
						c13.255,0,24,10.745,24,24s-10.745,24-24,24h-75.2v248.8C514.8,640.855,504.055,651.6,490.8,651.6z"/>
				</g>
				<g>
					<path style="fill:#212121;" d="M590,502.8h-99.2c-13.255,0-24-10.745-24-24s10.745-24,24-24H590c13.255,0,24,10.745,24,24
						S603.255,502.8,590,502.8z"/>
				</g>
				<g>
					<path style="fill:#212121;" d="M689.2,651.6c-13.255,0-24-10.745-24-24V354.8c0-13.255,10.745-24,24-24s24,10.745,24,24v272.8
						C713.2,640.855,702.455,651.6,689.2,651.6z"/>
				</g>
				<g>
					<path style="fill:#212121;" d="M1061.2,651.6c-13.255,0-24-10.745-24-24V354.8c0-13.255,10.745-24,24-24s24,10.745,24,24v272.8
						C1085.2,640.855,1074.455,651.6,1061.2,651.6z"/>
				</g>
				<g>
					<path style="fill:#212121;" d="M962,651.602c-8.053,0-15.762-4.067-20.249-11.117L812.4,437.217V627.6
						c0,13.255-10.745,24-24,24s-24-10.745-24-24V354.8c0-10.67,7.045-20.06,17.29-23.043c10.245-2.985,21.229,1.156,26.958,10.158
						L938,545.183V354.8c0-13.255,10.745-24,24-24s24,10.745,24,24v272.8c0,10.67-7.045,20.06-17.29,23.043
						C966.488,651.29,964.231,651.602,962,651.602z"/>
				</g>
				<g>
					<path style="fill:#212121;" d="M1557.2,651.6c-13.255,0-24-10.745-24-24V354.8c0-13.255,10.745-24,24-24s24,10.745,24,24v272.8
						C1581.2,640.855,1570.455,651.6,1557.2,651.6z"/>
				</g>
				<g>
					<path style="fill:#212121;" d="M1383.6,651.6c-13.255,0-24-10.745-24-24V354.8c0-13.255,10.745-24,24-24s24,10.745,24,24v272.8
						C1407.6,640.855,1396.854,651.6,1383.6,651.6z"/>
				</g>
				<g>
					<path style="fill:#212121;" d="M1160.4,515.2c-13.255,0-24-10.745-24-24V354.8c0-13.255,10.745-24,24-24h124
						c13.255,0,24,10.745,24,24s-10.745,24-24,24h-100v112.4C1184.4,504.455,1173.655,515.2,1160.4,515.2z"/>
				</g>
				<g>
					<path style="fill:#212121;" d="M1284.4,651.6h-124c-13.255,0-24-10.745-24-24s10.745-24,24-24h100v-88.4h-100
						c-13.255,0-24-10.745-24-24s10.745-24,24-24h124c13.255,0,24,10.745,24,24v136.4C1308.4,640.855,1297.655,651.6,1284.4,651.6z"
						/>
				</g>
				<g>
					<path style="fill:#212121;" d="M1557.2,502.8H1383.6c-13.255,0-24-10.745-24-24s10.745-24,24-24H1557.2
						c13.255,0,24,10.745,24,24S1570.455,502.8,1557.2,502.8z"/>
				</g>
				<g>
					<path style="fill:#212121;" d="M1668.8,279.6H379.2c-13.255,0-24-10.745-24-24s10.745-24,24-24h1289.6
						c13.255,0,24,10.745,24,24S1682.055,279.6,1668.8,279.6z"/>
				</g>
				<g>
					<path style="fill:#212121;" d="M701.6,750.8H379.2c-13.255,0-24-10.745-24-24s10.745-24,24-24h322.4c13.255,0,24,10.745,24,24
						S714.855,750.8,701.6,750.8z"/>
				</g>
				<g>
					<path style="fill:#212121;" d="M1668.8,750.8H1346.4c-13.255,0-24-10.745-24-24s10.745-24,24-24H1668.8
						c13.255,0,24,10.745,24,24S1682.055,750.8,1668.8,750.8z"/>
				</g>
				<g>
					<path style="fill:#212121;" d="M379.2,1792.4H280c-13.255,0-24-10.745-24-24V255.6c0-13.255,10.745-24,24-24h99.2
						c13.255,0,24,10.745,24,24v1512.8C403.2,1781.655,392.455,1792.4,379.2,1792.4z M304,1744.4h51.2V279.6H304V1744.4z"/>
				</g>
				<g>
					<path style="fill:#212121;" d="M1768,1792.4h-99.2c-13.255,0-24-10.745-24-24V255.6c0-13.255,10.745-24,24-24h99.2
						c13.255,0,24,10.745,24,24v1512.8C1792,1781.655,1781.255,1792.4,1768,1792.4z M1692.8,1744.4h51.2V279.6h-51.2V1744.4z"/>
				</g>
				<g>
					<path style="fill:#212121;" d="M1428.12,1792.4H619.88c-6.691,0-13.079-2.794-17.622-7.707
						c-4.543-4.913-6.828-11.499-6.305-18.17l81.72-1041.601c0.979-12.489,11.399-22.123,23.926-22.123h644.8
						c12.526,0,22.946,9.634,23.927,22.123l81.72,1041.601c0.523,6.671-1.763,13.257-6.305,18.17
						C1441.199,1789.606,1434.812,1792.4,1428.12,1792.4z M645.836,1744.4h756.327L1324.21,750.8H723.791L645.836,1744.4z"/>
				</g>
				<g>
					<path style="fill:#212121;" d="M719.106,1792.401c-0.63,0-1.265-0.024-1.903-0.074c-13.214-1.037-23.086-12.59-22.05-25.804
						l81.72-1041.601c1.037-13.215,12.606-23.089,25.803-22.049c13.214,1.037,23.086,12.589,22.05,25.804l-81.72,1041.6
						C742.02,1782.854,731.509,1792.401,719.106,1792.401z"/>
				</g>
				<g>
					<path style="fill:#212121;" d="M1328.894,1792.401c-12.403,0-22.913-9.548-23.9-22.124l-81.72-1041.6
						c-1.036-13.214,8.835-24.767,22.05-25.804c13.203-1.037,24.767,8.834,25.804,22.049l81.72,1041.601
						c1.036,13.214-8.835,24.767-22.05,25.804C1330.159,1792.377,1329.523,1792.401,1328.894,1792.401z"/>
				</g>
				<g>
					<path style="fill:#212121;" d="M1024,825.2c-13.255,0-24-10.745-24-24v-74.4c0-13.255,10.745-24,24-24s24,10.745,24,24v74.4
						C1048,814.455,1037.255,825.2,1024,825.2z"/>
				</g>
				<g>
					<path style="fill:#212121;" d="M1024,1023.6c-13.255,0-24-10.745-24-24v-99.2c0-13.255,10.745-24,24-24s24,10.745,24,24v99.2
						C1048,1012.855,1037.255,1023.6,1024,1023.6z"/>
				</g>
				<g>
					<path style="fill:#212121;" d="M1024,1222c-13.255,0-24-10.745-24-24v-99.2c0-13.255,10.745-24,24-24s24,10.745,24,24v99.2
						C1048,1211.255,1037.255,1222,1024,1222z"/>
				</g>
				<g>
					<path style="fill:#212121;" d="M1024,1420.4c-13.255,0-24-10.745-24-24v-99.2c0-13.255,10.745-24,24-24s24,10.745,24,24v99.2
						C1048,1409.655,1037.255,1420.4,1024,1420.4z"/>
				</g>
				<g>
					<path style="fill:#212121;" d="M1024,1618.8c-13.255,0-24-10.745-24-24v-99.2c0-13.255,10.745-24,24-24s24,10.745,24,24v99.2
						C1048,1608.055,1037.255,1618.8,1024,1618.8z"/>
				</g>
				<g>
					<path style="fill:#212121;" d="M1024,1792.4c-13.255,0-24-10.745-24-24V1694c0-13.255,10.745-24,24-24s24,10.745,24,24v74.4
						C1048,1781.655,1037.255,1792.4,1024,1792.4z"/>
				</g>
			</g>
		</g>
	</g>
</g>
<g id="Layer_1">
</g>
</svg>
