<?xml version="1.0" encoding="iso-8859-1"?>
<!-- Generator: Adobe Illustrator 25.2.0, SVG Export Plug-In . SVG Version: 6.00 Build 0)  -->
<svg version="1.1" xmlns="http://www.w3.org/2000/svg" xmlns:xlink="http://www.w3.org/1999/xlink" x="0px" y="0px"
	 viewBox="0 0 2048 2048" style="enable-background:new 0 0 2048 2048;" xml:space="preserve">
<g id="_x32_658.S2_-_Start">
	<g>
		<g id="XMLID_36_">
			<g>
				<g>
					<g>
						<polygon style="fill:#F70058;" points="875.2,726.8 776,1768.4 627.2,1768.4 726.4,726.8 						"/>
					</g>
				</g>
				<g>
					<g>
						<polygon style="fill:#F70058;" points="1172.8,726.8 1272,1768.4 1024,1768.4 1024,726.8 						"/>
					</g>
				</g>
				<g>
					<g>
						<polygon style="fill:#FF4B58;" points="1321.6,726.8 1420.92,1768.4 1272,1768.4 1172.8,726.8 						"/>
					</g>
				</g>
				<g>
					<g>
						<polygon style="fill:#FF4B58;" points="1024,726.8 1024,1768.4 776,1768.4 875.2,726.8 						"/>
					</g>
				</g>
				<g>
					<polygon style="fill:#898890;" points="1768,255.6 1768,1768.4 1668.8,1768.4 1668.8,726.8 1668.8,255.6 					"/>
				</g>
				<g>
					<path style="fill:#8BC34A;" d="M1086,503.6v-86.8c0-17.12-6.94-32.62-18.16-43.84c-11.22-11.22-26.72-18.16-43.84-18.16
						c-34.24,0-62,27.76-62,62v86.8H1086z M1234.8,503.6c41.09,0,74.4-33.31,74.4-74.4c0-20.54-8.33-39.14-21.79-52.61
						c-13.47-13.46-32.07-21.79-52.61-21.79h-49.6v148.8H1234.8z M1668.8,255.6v471.2h-347.2h-148.8H1024H875.2H726.4H379.2V255.6
						H1668.8z"/>
				</g>
				<g>
					<path style="fill:#8BC34A;" d="M1287.41,376.59c13.46,13.47,21.79,32.07,21.79,52.61c0,41.09-33.31,74.4-74.4,74.4h-49.6V354.8
						h49.6C1255.34,354.8,1273.94,363.13,1287.41,376.59z"/>
				</g>
				<g>
					<path style="fill:#8BC34A;" d="M1086,416.8v86.8H962v-86.8c0-34.24,27.76-62,62-62c17.12,0,32.62,6.94,43.84,18.16
						C1079.06,384.18,1086,399.68,1086,416.8z"/>
				</g>
				<g>
					<polygon style="fill:#898890;" points="379.2,726.8 379.2,1768.4 280,1768.4 280,255.6 379.2,255.6 					"/>
				</g>
			</g>
			<g>
				<g>
					<path style="fill:#212121;" d="M1668.8,279.6H379.2c-13.255,0-24-10.745-24-24s10.745-24,24-24h1289.6
						c13.255,0,24,10.745,24,24S1682.055,279.6,1668.8,279.6z"/>
				</g>
				<g>
					<path style="fill:#212121;" d="M726.4,750.8H379.2c-13.255,0-24-10.745-24-24s10.745-24,24-24h347.2c13.255,0,24,10.745,24,24
						S739.655,750.8,726.4,750.8z"/>
				</g>
				<g>
					<path style="fill:#212121;" d="M1668.8,750.8h-347.2c-13.255,0-24-10.745-24-24s10.745-24,24-24h347.2
						c13.255,0,24,10.745,24,24S1682.055,750.8,1668.8,750.8z"/>
				</g>
				<g>
					<path style="fill:#212121;" d="M379.2,1792.4H280c-13.255,0-24-10.745-24-24V255.6c0-13.255,10.745-24,24-24h99.2
						c13.255,0,24,10.745,24,24v1512.8C403.2,1781.655,392.455,1792.4,379.2,1792.4z M304,1744.4h51.2V279.6H304V1744.4z"/>
				</g>
				<g>
					<path style="fill:#212121;" d="M1768,1792.4h-99.2c-13.255,0-24-10.745-24-24V255.6c0-13.255,10.745-24,24-24h99.2
						c13.255,0,24,10.745,24,24v1512.8C1792,1781.655,1781.255,1792.4,1768,1792.4z M1692.8,1744.4h51.2V279.6h-51.2V1744.4z"/>
				</g>
				<g>
					<path style="fill:#212121;" d="M1086,651.6c-13.255,0-24-10.745-24-24V416.8c0-10.149-3.953-19.691-11.131-26.87
						c-7.178-7.177-16.72-11.13-26.869-11.13c-20.953,0-38,17.047-38,38v210.8c0,13.255-10.745,24-24,24s-24-10.745-24-24V416.8
						c0-47.42,38.58-86,86-86c22.971,0,44.566,8.946,60.811,25.189C1101.055,372.234,1110,393.83,1110,416.8v210.8
						C1110,640.855,1099.255,651.6,1086,651.6z"/>
				</g>
				<g>
					<path style="fill:#212121;" d="M788.4,651.6c-13.255,0-24-10.745-24-24V354.8c0-13.255,10.745-24,24-24h74.4
						c13.255,0,24,10.745,24,24s-10.745,24-24,24h-50.4v248.8C812.4,640.855,801.655,651.6,788.4,651.6z"/>
				</g>
				<g>
					<path style="fill:#212121;" d="M614.8,651.6h-124c-13.255,0-24-10.745-24-24s10.745-24,24-24h100v-88.4h-100
						c-13.255,0-24-10.745-24-24V354.8c0-13.255,10.745-24,24-24h124c13.255,0,24,10.745,24,24s-10.745,24-24,24h-100v88.4h100
						c13.255,0,24,10.745,24,24v136.4C638.8,640.855,628.055,651.6,614.8,651.6z"/>
				</g>
				<g>
					<path style="fill:#212121;" d="M1086,527.6H962c-13.255,0-24-10.745-24-24s10.745-24,24-24h124c13.255,0,24,10.745,24,24
						S1099.255,527.6,1086,527.6z"/>
				</g>
				<g>
					<path style="fill:#212121;" d="M1185.2,651.6c-13.255,0-24-10.745-24-24V354.8c0-13.255,10.745-24,24-24h49.6
						c26.271,0,50.98,10.233,69.575,28.813c18.593,18.607,28.825,43.315,28.825,69.587c0,54.258-44.143,98.4-98.4,98.4h-25.6v100
						C1209.2,640.855,1198.455,651.6,1185.2,651.6z M1209.2,479.6h25.6c27.791,0,50.4-22.609,50.4-50.4
						c0-13.457-5.244-26.116-14.768-35.646c-9.517-9.51-22.176-14.754-35.633-14.754h-25.6V479.6z"/>
				</g>
				<g>
					<path style="fill:#212121;" d="M788.4,378.8H714c-13.255,0-24-10.745-24-24s10.745-24,24-24h74.4c13.255,0,24,10.745,24,24
						S801.655,378.8,788.4,378.8z"/>
				</g>
				<g>
					<path style="fill:#212121;" d="M1482.8,651.6c-13.255,0-24-10.745-24-24V354.8c0-13.255,10.745-24,24-24h74.4
						c13.255,0,24,10.745,24,24s-10.745,24-24,24h-50.4v248.8C1506.8,640.855,1496.055,651.6,1482.8,651.6z"/>
				</g>
				<g>
					<path style="fill:#212121;" d="M1482.8,378.8H1408.4c-13.255,0-24-10.745-24-24s10.745-24,24-24h74.399
						c13.255,0,24,10.745,24,24S1496.055,378.8,1482.8,378.8z"/>
				</g>
				<g>
					<path style="fill:#212121;" d="M1309.2,651.6c-13.255,0-24-10.745-24-24V578c0-27.791-22.609-50.4-50.4-50.4
						c-13.255,0-24-10.745-24-24s10.745-24,24-24c54.258,0,98.4,44.142,98.4,98.4v49.6C1333.2,640.855,1322.455,651.6,1309.2,651.6z
						"/>
				</g>
				<g>
					<path style="fill:#212121;" d="M1420.92,1792.4H627.2c-6.761,0-13.208-2.852-17.757-7.854
						c-4.548-5.003-6.776-11.691-6.135-18.422l99.2-1041.601c1.173-12.317,11.519-21.725,23.892-21.725h595.2
						c12.372,0,22.717,9.405,23.892,21.722l99.32,1041.601c0.642,6.731-1.585,13.421-6.134,18.423
						C1434.129,1789.548,1427.682,1792.4,1420.92,1792.4z M653.595,1744.4h740.928L1299.779,750.8H748.223L653.595,1744.4z"/>
				</g>
				<g>
					<path style="fill:#212121;" d="M776.028,1792.402c-0.762,0-1.53-0.036-2.304-0.11c-13.195-1.257-22.873-12.972-21.617-26.167
						l99.2-1041.601c1.257-13.195,12.966-22.875,26.167-21.616c13.195,1.256,22.873,12.972,21.617,26.167l-99.2,1041.601
						C798.709,1783.097,788.257,1792.402,776.028,1792.402z"/>
				</g>
				<g>
					<path style="fill:#212121;" d="M1271.972,1792.402c-12.229,0-22.681-9.305-23.863-21.727l-99.2-1041.601
						c-1.257-13.195,8.421-24.911,21.616-26.167c13.208-1.259,24.911,8.422,26.167,21.616l99.2,1041.601
						c1.257,13.195-8.421,24.91-21.616,26.167C1273.502,1792.366,1272.732,1792.402,1271.972,1792.402z"/>
				</g>
				<g>
					<path style="fill:#212121;" d="M1024,1792.4c-13.255,0-24-10.745-24-24V726.8c0-13.255,10.745-24,24-24s24,10.745,24,24V1768.4
						C1048,1781.655,1037.255,1792.4,1024,1792.4z"/>
				</g>
			</g>
		</g>
	</g>
</g>
<g id="Layer_1">
</g>
</svg>
