<?xml version="1.0" encoding="iso-8859-1"?>
<!-- Generator: Adobe Illustrator 25.2.0, SVG Export Plug-In . SVG Version: 6.00 Build 0)  -->
<svg version="1.1" xmlns="http://www.w3.org/2000/svg" xmlns:xlink="http://www.w3.org/1999/xlink" x="0px" y="0px"
	 viewBox="0 0 2048 2048" style="enable-background:new 0 0 2048 2048;" xml:space="preserve">
<g id="_x32_659.S2_-_Swimming_Fins">
	<g>
		<g>
			<g id="XMLID_37_">
				<g>
					<g>
						<path style="fill:#57565C;" d="M1490.51,1665.86l0.34,1.86c-21.09,9.53-44.5,14.84-69.14,14.84h-11.2
							c-25.37,0-49.43-5.62-70.99-15.69l2.19-1.01v-231.3c0-41.08,33.31-74.4,74.4-74.4c20.54,0,39.14,8.33,52.61,21.8
							c13.46,13.46,21.79,32.06,21.79,52.6V1665.86z"/>
					</g>
					<g>
						<path style="fill:#57565C;" d="M706.29,1689.62l0.34,1.87c-21.09,9.53-44.5,14.84-69.14,14.84h-11.2
							c-25.37,0-49.43-5.63-70.99-15.7l2.19-1.01v-231.29c0-20.54,8.33-39.14,21.79-52.61c13.47-13.46,32.07-21.79,52.61-21.79
							c41.09,0,74.4,33.32,74.4,74.4V1689.62z"/>
					</g>
					<g>
						<path style="fill:#898890;" d="M804.8,1313.49c0.46,5.02,0.69,10.1,0.69,15.24v209.6c0,68.14-40.56,126.8-98.86,153.16
							l-0.34-1.87v-231.29c0-41.08-33.31-74.4-74.4-74.4c-20.54,0-39.14,8.33-52.61,21.79c-13.46,13.47-21.79,32.07-21.79,52.61
							v231.29l-2.19,1.01c-57.3-26.75-97.01-84.89-97.01-152.3v-185.71v-23.89c0-92.78,75.22-168,168-168h11.2
							C725.14,1160.73,797.11,1227.85,804.8,1313.49z"/>
					</g>
					<g>
						<path style="fill:#898890;" d="M1243.2,1289.72c7.69-85.64,79.66-152.76,167.31-152.76h11.2c92.78,0,168,75.22,168,168v23.89
							v185.71c0,68.14-40.57,126.8-98.86,153.16l-0.34-1.86v-231.3c0-20.54-8.33-39.14-21.79-52.6
							c-13.47-13.47-32.07-21.8-52.61-21.8c-41.09,0-74.4,33.32-74.4,74.4v231.3l-2.19,1.01c-57.31-26.75-97.01-84.89-97.01-152.31
							v-209.6C1242.51,1299.82,1242.74,1294.74,1243.2,1289.72z"/>
					</g>
					<g>
						<path style="fill:#6ABFD3;" d="M1768,341.67v187.28c0,277.16-61.31,550.87-178.29,799.9v-23.89c0-92.78-75.22-168-168-168
							h-11.2c-87.65,0-159.62,67.12-167.31,152.76c-105.38-238.33-160.45-498.05-160.45-760.77V341.67
							c76.57,0,84.69,68.46,146.75,82.97c-1.66,18.98-2.53,38.46-2.53,58.31c0,200.93,88.83,363.81,198.4,363.81
							c109.58,0,198.4-162.88,198.4-363.81c0-19.85-0.87-39.33-2.54-58.31v-0.01c62.06-14.51,70.18-82.96,146.75-82.96H1768z"/>
					</g>
					<g>
						<path style="fill:#005ECF;" d="M1621.23,424.64c1.67,18.98,2.54,38.46,2.54,58.31c0,200.93-88.82,363.81-198.4,363.81
							c-109.57,0-198.4-162.88-198.4-363.81c0-19.85,0.87-39.33,2.53-58.31c7.36,1.72,15.47,2.68,24.55,2.68
							c85.65,0,85.65-85.65,171.31-85.65s85.66,85.65,171.31,85.65c9.08,0,17.2-0.96,24.56-2.69V424.64z"/>
					</g>
					<g>
						<path style="fill:#005ECF;" d="M818.5,448.41c1.66,18.98,2.53,38.45,2.53,58.3c0,200.94-88.83,363.82-198.4,363.82
							c-109.58,0-198.4-162.89-198.4-363.82c0-19.85,0.87-39.33,2.54-58.31c7.36,1.73,15.48,2.69,24.56,2.69
							c85.65,0,85.65-85.65,171.31-85.65s85.66,85.65,171.31,85.65C803.03,451.09,811.14,450.13,818.5,448.41z"/>
					</g>
					<g>
						<path style="fill:#6ABFD3;" d="M965.26,365.44v187.28c-0.01,262.71-55.08,522.43-160.46,760.77
							c-7.69-85.64-79.66-152.76-167.31-152.76h-11.2c-92.78,0-168,75.22-168,168v23.89C341.31,1103.59,280,829.88,280,552.72
							V365.44h0.02c76.57,0,84.69,68.45,146.75,82.96c-1.67,18.98-2.54,38.46-2.54,58.31c0,200.93,88.82,363.82,198.4,363.82
							c109.57,0,198.4-162.88,198.4-363.82c0-19.85-0.87-39.32-2.53-58.3v-0.01C880.56,433.9,888.68,365.44,965.26,365.44z"/>
					</g>
				</g>
				<g>
					<g>
						<path style="fill:#212121;" d="M1421.71,1706.56h-11.2c-28.352,0-55.653-6.037-81.146-17.944
							c-32.644-15.236-60.297-39.296-79.966-69.574c-20.207-31.106-30.888-67.235-30.888-104.481v-209.6
							c0-5.84,0.266-11.704,0.79-17.43c4.267-47.511,26.049-91.556,61.331-123.978c35.504-32.625,81.629-50.593,129.879-50.593h11.2
							c105.869,0,192,86.131,192,192v209.6c0,75.291-44.344,143.994-112.972,175.028c-0.002,0.001-0.004,0.002-0.006,0.003
							C1475.815,1700.851,1449.229,1706.56,1421.71,1706.56z M1490.85,1667.72h0.01H1490.85z M1410.51,1160.96
							c-75.054,0-136.705,56.277-143.406,130.906c-0.396,4.318-0.594,8.71-0.594,13.094v209.6
							c0,55.734,32.643,106.983,83.161,130.562c19.091,8.917,39.559,13.438,60.839,13.438h11.2c20.653,0,40.589-4.275,59.251-12.708
							l0,0c51.483-23.281,84.749-74.816,84.749-131.292v-209.6c0-79.401-64.598-144-144-144H1410.51z"/>
					</g>
					<g>
						<path style="fill:#212121;" d="M1490.51,1689.86c-13.255,0-24-10.745-24-24V1434.56c0-13.457-5.242-26.11-14.761-35.629
							c-9.524-9.525-22.182-14.771-35.639-14.771c-27.791,0-50.4,22.609-50.4,50.399v231.301c0,13.255-10.745,24-24,24
							s-24-10.745-24-24V1434.56c0-54.258,44.143-98.399,98.4-98.399c26.278,0,50.989,10.238,69.58,28.829
							c18.584,18.585,28.819,43.292,28.819,69.57v231.301C1514.51,1679.115,1503.765,1689.86,1490.51,1689.86z"/>
					</g>
					<g>
						<path style="fill:#212121;" d="M1589.694,1352.855c-3.419,0-6.89-0.733-10.188-2.283
							c-11.997-5.636-17.154-19.93-11.519-31.927C1683.136,1073.516,1744,800.443,1744,528.95V369.104
							c-18.043,5.703-30.278,17.938-44.701,32.359c-18.087,18.085-38.588,38.583-72.604,46.537
							c-9.364,2.201-19.475,3.32-30.024,3.32c-52.765,0-80.408-27.642-102.62-49.852c-20.001-20-35.8-35.798-68.689-35.798
							c-32.891,0-48.689,15.797-68.69,35.798c-22.212,22.21-49.855,49.852-102.62,49.852c-10.516,0-20.612-1.113-30.011-3.309
							c-34.021-7.955-54.521-28.456-72.609-46.543c-14.419-14.419-26.652-26.653-44.68-32.358V528.95
							c0,256.987,54.773,516.701,158.4,751.064c0.085,0.193,0.168,0.388,0.249,0.583l0.221,0.497
							c5.322,12.139-0.205,26.294-12.345,31.616c-12.142,5.321-26.294-0.205-31.616-12.345l-0.086-0.194
							c-0.142-0.319-0.281-0.638-0.416-0.958c-53.139-120.221-93.912-246.654-121.182-375.773
							c-27.355-129.527-41.226-262.253-41.226-394.49V341.67c0-13.255,10.745-24,24-24c52.765,0,80.409,27.644,102.621,49.856
							c15.512,15.511,28.908,28.908,49.593,33.744c5.901,1.379,12.146,2.049,19.086,2.049c32.884,0,48.68-15.796,68.68-35.794
							c22.214-22.212,49.859-49.855,102.631-49.855s80.416,27.644,102.63,49.855c19.999,19.999,35.797,35.794,68.68,35.794
							c6.856,0,13.272-0.691,19.069-2.053c20.713-4.843,34.109-18.237,49.621-33.747c22.212-22.209,49.855-49.85,102.62-49.85
							c13.255,0,24.02,10.745,24.02,24v187.28c0,139.521-15.428,279.391-45.854,415.726
							c-30.355,136.016-75.68,268.704-134.714,394.377C1607.347,1347.752,1598.708,1352.855,1589.694,1352.855z"/>
					</g>
					<g>
						<path style="fill:#212121;" d="M1425.37,870.76c-32.235,0-63.166-11.313-91.934-33.625
							c-26.254-20.362-49.612-49.108-69.426-85.44c-39.363-72.179-61.041-167.621-61.041-268.744
							c0-20.192,0.882-40.514,2.621-60.401c1.154-13.204,12.803-22.979,26-21.817c13.205,1.155,22.973,12.795,21.818,26
							c-1.619,18.502-2.439,37.417-2.439,56.219c0,93.232,19.598,180.512,55.182,245.763
							c33.074,60.647,75.413,94.047,119.219,94.047c43.809,0,86.149-33.4,119.222-94.046
							c35.582-65.249,55.178-152.529,55.178-245.763c0-18.843-0.823-37.754-2.446-56.207c-1.162-13.204,8.6-24.85,21.804-26.011
							c13.218-1.161,24.85,8.601,26.011,21.804c1.746,19.846,2.632,40.172,2.632,60.414c0,101.125-21.677,196.567-61.036,268.744
							c-19.813,36.333-43.172,65.079-69.426,85.441C1488.54,859.447,1457.607,870.76,1425.37,870.76z"/>
					</g>
					<g>
						<path style="fill:#212121;" d="M637.49,1730.33h-11.2c-28.335,0-55.636-6.04-81.143-17.953l0,0
							c-32.644-15.239-60.295-39.298-79.965-69.574c-20.21-31.106-30.892-67.232-30.892-104.473v-209.6
							c0-105.869,86.131-192,192-192h11.2c48.25,0,94.375,17.968,129.879,50.593c35.282,32.422,57.064,76.466,61.334,124.021
							c0.521,5.681,0.787,11.546,0.787,17.387v209.6c0,75.296-44.344,143.999-112.973,175.028
							C691.593,1724.621,665.006,1730.33,637.49,1730.33z M626.29,1184.73c-79.402,0-144,64.599-144,144v209.6
							c0,55.724,32.643,106.969,83.162,130.553c0.001,0.001,0.003,0.001,0.004,0.002c19.101,8.922,39.568,13.445,60.833,13.445h11.2
							c20.654,0,40.591-4.276,59.257-12.711c51.477-23.275,84.743-74.811,84.743-131.289v-209.6c0-4.385-0.199-8.775-0.59-13.05
							c-6.705-74.673-68.356-130.95-143.41-130.95H626.29z"/>
					</g>
					<g>
						<path style="fill:#212121;" d="M706.29,1713.62c-13.255,0-24-10.745-24-24v-231.29c0-27.791-22.609-50.4-50.4-50.4
							c-13.457,0-26.116,5.244-35.646,14.768c-9.509,9.517-14.753,22.176-14.753,35.633v231.29c0,13.255-10.745,24-24,24
							s-24-10.745-24-24v-231.29c0-26.271,10.232-50.979,28.812-69.574c18.608-18.594,43.316-28.826,69.588-28.826
							c54.258,0,98.4,44.143,98.4,98.4v231.29C730.29,1702.875,719.545,1713.62,706.29,1713.62z"/>
					</g>
					<g>
						<path style="fill:#212121;" d="M458.306,1376.626c-9.015,0-17.652-5.103-21.739-13.802
							c-59.035-125.674-104.359-258.362-134.713-394.378C271.427,832.111,256,692.24,256,552.72V365.44c0-13.255,10.745-24,24-24
							c52.784,0,80.428,27.64,102.64,49.85c15.512,15.509,28.908,28.904,49.594,33.741c5.824,1.369,12.239,2.06,19.096,2.06
							c32.883,0,48.68-15.796,68.679-35.794c22.213-22.212,49.859-49.856,102.631-49.856c52.771,0,80.417,27.644,102.63,49.855
							c20,19.999,35.796,35.794,68.68,35.794c6.941,0,13.185-0.671,19.089-2.05c12.906-3.015,25.815,5.002,28.832,17.91
							c3.016,12.907-5.002,25.815-17.91,28.832c-9.397,2.196-19.495,3.309-30.011,3.309c-52.765,0-80.408-27.642-102.62-49.852
							c-20.001-20-35.8-35.798-68.69-35.798c-32.891,0-48.689,15.797-68.691,35.798c-22.211,22.21-49.855,49.852-102.619,49.852
							c-10.55,0-20.661-1.119-30.052-3.327c-33.989-7.947-54.49-28.445-72.578-46.531c-14.424-14.422-26.663-26.659-44.701-32.361
							V552.72c0,271.492,60.864,544.564,176.013,789.696c5.636,11.997,0.479,26.291-11.519,31.927
							C465.196,1375.892,461.724,1376.626,458.306,1376.626z"/>
					</g>
					<g>
						<path style="fill:#212121;" d="M804.347,1338.506c-3.235,0-6.523-0.657-9.673-2.047c-12.127-5.35-17.623-19.518-12.273-31.645
							l0.23-0.521c0.071-0.171,0.143-0.34,0.218-0.509c103.623-234.366,158.401-494.081,158.41-751.066V392.877
							c-18.032,5.704-30.267,17.938-44.689,32.358c-18.089,18.086-38.591,38.586-72.61,46.535
							c-12.909,3.016-25.815-5.003-28.831-17.91c-3.016-12.907,5.003-25.815,17.91-28.831c20.685-4.833,34.081-18.228,49.593-33.737
							c22.213-22.211,49.859-49.853,102.627-49.853c13.255,0,24,10.745,24,24v187.28c-0.005,132.235-13.878,264.958-41.234,394.483
							c-27.271,129.121-68.041,255.547-121.178,375.771c-0.146,0.344-0.295,0.686-0.448,1.028l-0.081,0.183
							C822.359,1333.163,813.566,1338.506,804.347,1338.506z"/>
					</g>
					<g>
						<path style="fill:#212121;" d="M622.63,894.53c-32.237,0-63.17-11.313-91.938-33.627
							c-26.254-20.363-49.612-49.11-69.425-85.444c-39.36-72.179-61.037-167.623-61.037-268.749c0-20.234,0.886-40.561,2.632-60.414
							c1.162-13.204,12.812-22.96,26.011-21.804c13.204,1.162,22.966,12.807,21.804,26.011c-1.624,18.46-2.448,37.371-2.448,56.207
							c0,93.235,19.596,180.517,55.178,245.769c33.073,60.65,75.414,94.051,119.222,94.051c43.806,0,86.145-33.4,119.218-94.048
							c35.584-65.252,55.182-152.536,55.182-245.772c0-18.798-0.82-37.709-2.438-56.208c-0.061-0.695-0.091-1.393-0.091-2.091
							c0-13.255,10.745-24.005,24-24.005c12.658,0,23.027,9.793,23.935,22.219c1.722,19.787,2.595,40,2.595,60.086
							c0,101.128-21.678,196.573-61.041,268.753c-19.813,36.333-43.171,65.079-69.426,85.442
							C685.796,883.217,654.865,894.53,622.63,894.53z"/>
					</g>
				</g>
			</g>
		</g>
	</g>
</g>
<g id="Layer_1">
</g>
</svg>
