<?xml version="1.0" encoding="iso-8859-1"?>
<!-- Generator: Adobe Illustrator 25.2.0, SVG Export Plug-In . SVG Version: 6.00 Build 0)  -->
<svg version="1.1" xmlns="http://www.w3.org/2000/svg" xmlns:xlink="http://www.w3.org/1999/xlink" x="0px" y="0px"
	 viewBox="0 0 2048 2048" style="enable-background:new 0 0 2048 2048;" xml:space="preserve">
<g id="_x32_660.S2_-_Karate_Robe">
	<g>
		<g id="XMLID_38_">
			<g>
				<g>
					<path style="fill:#C9CFD1;" d="M1515.84,501.33l206.19,278.22l-144.72,225.91l-186.54-166.15
						C1414.39,722.27,1456.45,610.22,1515.84,501.33z"/>
				</g>
				<g>
					<path style="fill:#C9CFD1;" d="M655.75,840.57l-185.06,164.89L325.97,779.55l206.19-278.22
						C590.34,607.98,631.87,722.38,655.75,840.57z"/>
				</g>
				<g>
					<path style="fill:#C9CFD1;" d="M1222.92,379.28l-201.25,360.2L825.18,379.24l2.09-0.87l28.81-28.81
						c22.26-22.27,48.5-39.66,77.04-51.48C961.66,286.26,992.51,280,1024,280c62.98,0,123.39,25.02,167.92,69.56l28.81,28.81
						L1222.92,379.28z"/>
				</g>
				<g>
					<path style="fill:#E1E6E9;" d="M830.32,1282.38l0.92-1.84c55.36,9.15,121.92,14.48,192.76,14.48c16.39,0,32.55-0.29,48.39-0.84
						V1768h-483.9l91.23-556.49c0,28.56,59.8,53.66,149.52,68.7L830.32,1282.38z"/>
				</g>
				<g>
					<path style="fill:#C9CFD1;" d="M1368.28,1211.51l91.23,556.49h-387.12v-473.82c165.02-5.8,295.88-40.76,295.88-83.02h0.01
						V1211.51z"/>
				</g>
				<g>
					<path style="fill:#C9CFD1;" d="M1222.92,379.28l292.92,122.05c-59.39,108.89-101.45,220.94-125.07,337.98
						c-14.91,73.75-22.49,149.47-22.49,227.63v144.22h-0.01c0,42.26-130.86,77.22-295.88,83.02V832.46l-50.72-92.98L1222.92,379.28z
						"/>
				</g>
				<g>
					<path style="fill:#E1E6E9;" d="M1072.39,832.46v461.72c-15.84,0.55-32,0.84-48.39,0.84c-70.84,0-137.4-5.33-192.76-14.48
						c-0.67-0.11-1.34-0.22-2-0.33c-89.72-15.04-149.52-40.14-149.52-68.7v-131.54c0-80.7-8.08-160.89-23.97-239.4
						c-23.88-118.19-65.41-232.59-123.59-339.24l293.02-122.09l196.49,360.24L1072.39,832.46z"/>
				</g>
			</g>
			<g>
				<g>
					<path style="fill:#212121;" d="M1459.51,1792H588.49c-7.044,0-13.732-3.095-18.292-8.463s-6.531-12.469-5.392-19.42
						l90.914-554.562V1079.97c0-78.673-7.904-157.617-23.493-234.64c-23.52-116.406-64.275-228.274-121.136-332.507
						c-6.348-11.636-2.061-26.215,9.575-32.562c11.639-6.347,26.215-2.061,32.562,9.575
						c59.167,108.459,101.574,224.863,126.045,345.98c16.221,80.142,24.446,162.29,24.446,244.153v131.54
						c0,1.301-0.105,2.6-0.316,3.883L616.745,1744h814.51l-86.658-528.607c-0.211-1.283-0.316-2.582-0.316-3.883v-144.57
						c0-78.82,7.727-157.006,22.965-232.386c23.574-116.809,66.479-232.791,127.524-344.716
						c6.347-11.636,20.926-15.926,32.562-9.578c11.637,6.347,15.926,20.925,9.579,32.562
						c-59.566,109.214-99.674,217.562-122.615,331.236c-14.608,72.263-22.015,147.249-22.015,222.882v142.615l90.913,554.562
						c1.14,6.951-0.832,14.052-5.392,19.42C1473.241,1788.905,1466.554,1792,1459.51,1792z M679.72,1211.51h0.01H679.72z"/>
				</g>
				<g>
					<path style="fill:#212121;" d="M1577.309,1029.46c-5.849,0-11.538-2.138-15.962-6.078l-186.54-166.15
						c-9.897-8.816-10.774-23.987-1.959-33.885c8.816-9.897,23.986-10.773,33.885-1.959l165.539,147.444l120.621-188.291
						l-192.394-259.604l-288.977-120.405c-2.902-1.206-5.54-2.97-7.763-5.192l-28.811-28.81C1134.634,326.207,1081.026,304,1024,304
						c-28.169,0-55.656,5.468-81.696,16.253c-26.039,10.784-49.337,26.353-69.249,46.273l-28.814,28.814
						c-2.218,2.218-4.85,3.98-7.746,5.186l-2.09,0.87L547.501,520.938L355.107,780.542l120.618,188.287l164.059-146.178
						c9.896-8.817,25.067-7.943,33.885,1.953c8.818,9.896,7.943,25.067-1.953,33.885l-185.06,164.89
						c-5.245,4.674-12.274,6.816-19.234,5.857c-6.96-0.957-13.151-4.915-16.94-10.831l-144.72-225.91
						c-5.375-8.391-5.006-19.23,0.927-27.236l206.19-278.22c2.579-3.48,6.052-6.198,10.051-7.864l290.728-121.135l25.452-25.452
						c24.39-24.401,52.931-43.473,84.828-56.683C955.83,262.697,989.496,256,1024,256c34.512,0,68.179,6.697,100.063,19.904
						c31.888,13.209,60.429,32.281,84.829,56.687l25.447,25.447l290.73,121.138c3.999,1.666,7.473,4.383,10.052,7.864l206.19,278.22
						c5.933,8.006,6.302,18.845,0.927,27.236l-144.721,225.91c-3.789,5.915-9.979,9.873-16.938,10.83
						C1579.489,1029.386,1578.396,1029.46,1577.309,1029.46z"/>
				</g>
				<g>
					<path style="fill:#212121;" d="M1021.648,763.484c-3.963,0-7.979-0.983-11.685-3.053c-11.571-6.465-15.711-21.086-9.245-32.658
						l201.25-360.2c6.464-11.572,21.086-15.71,32.657-9.246c11.571,6.465,15.711,21.086,9.245,32.658l-201.25,360.2
						C1038.227,759.052,1030.062,763.484,1021.648,763.484z"/>
				</g>
				<g>
					<path style="fill:#212121;" d="M1072.39,1792c-13.255,0-24-10.745-24-24V838.581l-47.789-87.607l-196.49-360.241
						c-6.347-11.636-2.059-26.215,9.577-32.562c11.638-6.345,26.216-2.059,32.562,9.578l196.49,360.24l50.72,92.979
						c1.923,3.525,2.931,7.477,2.931,11.493V1768C1096.39,1781.255,1085.645,1792,1072.39,1792z"/>
				</g>
				<g>
					<path style="fill:#212121;" d="M1024,1319.02c-70.084,0-138.093-5.118-196.674-14.801l-2.046-0.338
						c-47.006-7.88-86.514-18.616-114.26-31.049c-36.694-16.444-55.3-37.075-55.3-61.322c0-13.255,10.745-24,24-24
						c13.041,0,23.652,10.4,23.992,23.359c0.783,1.429,6.399,9.929,33.233,20.846c23.765,9.668,57.052,18.252,96.263,24.825
						l1.93,0.318c56.053,9.266,121.355,14.161,188.862,14.161c15.806,0,31.806-0.277,47.556-0.825
						c73.915-2.598,143.24-11.326,195.194-24.577c57.262-14.604,75.365-30.278,77.526-35.04
						c0.31-12.986,10.934-23.417,23.993-23.417c13.255,0,24,10.745,24,24c0,19.125-11.531,36.054-34.274,50.316
						c-16.678,10.46-40.023,19.88-69.388,27.998c-56.438,15.604-132.927,25.793-215.375,28.69
						C1056.92,1318.732,1040.359,1319.02,1024,1319.02z"/>
				</g>
				<g>
					<path style="fill:#212121;" d="M744.651,1478.795c-3.587,0-7.229-0.807-10.659-2.511
						c-11.871-5.897-16.713-20.301-10.816-32.172l85.65-172.41l0.95-1.899c5.93-11.855,20.35-16.656,32.202-10.727
						c11.854,5.93,16.656,20.348,10.726,32.201l-0.92,1.84l-85.62,172.351C761.971,1473.908,753.477,1478.795,744.651,1478.795z"/>
				</g>
				<g>
					<path style="fill:#212121;" d="M915.989,1478.795c-8.826,0-17.319-4.887-21.512-13.327L807.753,1290.9
						c-5.904-11.867-1.07-26.273,10.797-32.178c11.868-5.903,26.274-1.071,32.178,10.797l1.08,2.17l85.657,172.423
						c5.897,11.871,1.055,26.274-10.816,32.172C923.218,1477.988,919.575,1478.795,915.989,1478.795z"/>
				</g>
			</g>
		</g>
	</g>
</g>
<g id="Layer_1">
</g>
</svg>
