<?xml version="1.0" encoding="iso-8859-1"?>
<!-- Generator: Adobe Illustrator 25.2.0, SVG Export Plug-In . SVG Version: 6.00 Build 0)  -->
<svg version="1.1" xmlns="http://www.w3.org/2000/svg" xmlns:xlink="http://www.w3.org/1999/xlink" x="0px" y="0px"
	 viewBox="0 0 2048 2048" style="enable-background:new 0 0 2048 2048;" xml:space="preserve">
<g id="_x32_661.S2_-_Heart_Rate">
	<g>
		<g id="XMLID_39_">
			<g>
				<g>
					<g>
						<path style="fill:#FF4B58;" d="M1396,1023.6l179.19-4.84c-143.14,197.76-347.96,478.42-551.19,748.84
							c-205.02-272.8-411.65-556.01-554.95-754.04H577.6l124-188.36l124,173.6h99.2l74.4,124l99.2-124h74.4l74.4-124L1396,1023.6z"
							/>
					</g>
					<g>
						<path style="fill:#FF4B58;" d="M1333.12,304.55c315.49,7.99,491.67,368.26,307.08,624.23c-19.84,27.5-41.6,57.63-65.01,89.98
							L1396,1023.6l-148.8-148.8l-74.4,124h-74.4l-99.2,124l-74.4-124h-99.2l-124-173.6l-124,188.36H469.05
							c-21.98-30.38-42.48-58.75-61.25-84.78c-184.59-255.97-8.41-616.24,307.08-624.23c3.83-0.1,7.67-0.15,11.52-0.15
							c114.34,0,218.62,42.99,297.6,113.68c78.98-70.69,183.26-113.68,297.6-113.68C1325.45,304.4,1329.29,304.45,1333.12,304.55z"
							/>
					</g>
				</g>
			</g>
			<g>
				<g>
					<path style="fill:#212121;" d="M1024,1791.6c-7.546,0-14.652-3.549-19.186-9.581
						c-207.186-275.681-416.282-562.403-555.208-754.389c0,0,0-0.001-0.001-0.002c-23.398-32.34-43.441-60.082-61.272-84.811
						c-46.702-64.761-73.95-140.066-78.798-217.773c-4.56-73.093,10.48-146.919,43.495-213.495
						c32.782-66.108,81.947-122.303,142.179-162.51c64.108-42.794,139.859-66.475,219.063-68.481
						c4.015-0.104,8.101-0.157,12.127-0.157c108.88,0,213.742,37.528,297.6,106.102c83.858-68.574,188.72-106.102,297.6-106.102
						c4.027,0,8.112,0.053,12.145,0.158c79.188,2.005,154.939,25.686,219.047,68.479c60.232,40.208,109.397,96.402,142.18,162.51
						c33.014,66.577,48.054,140.402,43.494,213.496c-4.848,77.707-32.096,153.012-78.798,217.774
						c-22.821,31.632-44.093,61.074-65.033,90.012c-138.091,190.783-345.854,475.625-551.448,749.189
						C1038.652,1788.051,1031.546,1791.6,1024,1791.6z M488.493,999.49c134.523,185.901,334.879,460.684,535.507,728.138
						c199.052-265.356,398.07-538.253,531.749-722.94c20.925-28.917,42.183-58.34,64.988-89.95
						c81.845-113.495,93.521-256.25,31.23-381.865c-61.71-124.442-181.132-200.827-319.455-204.331
						c-3.634-0.094-7.301-0.142-10.913-0.142c-104.09,0-204.096,38.2-281.594,107.563c-9.111,8.155-22.9,8.155-32.012,0
						C930.496,366.6,830.491,328.4,726.4,328.4c-3.612,0-7.278,0.048-10.896,0.142c-138.34,3.504-257.762,79.889-319.471,204.332
						c-62.291,125.615-50.615,268.37,31.233,381.869c17.817,24.709,37.845,52.431,61.228,84.75L488.493,999.49z"/>
				</g>
				<g>
					<path style="fill:#212121;" d="M999.203,1146.8c-0.536,0-1.074-0.018-1.613-0.054c-7.841-0.527-14.926-4.86-18.969-11.599
						L911.211,1022.8H825.6c-7.751,0-15.024-3.743-19.53-10.05L702.407,867.622l-104.761,159.135
						c-4.439,6.744-11.972,10.803-20.046,10.803H280c-13.255,0-24-10.745-24-24s10.745-24,24-24h284.666l116.888-177.557
						c4.35-6.609,11.679-10.648,19.589-10.799c7.922-0.174,15.388,3.608,19.986,10.046L837.951,974.8H924.8
						c8.43,0,16.242,4.423,20.58,11.652l56.642,94.402l77.638-97.047c4.555-5.693,11.45-9.007,18.741-9.007h60.811l67.409-112.348
						c3.803-6.337,10.312-10.569,17.647-11.473c7.344-0.903,14.678,1.625,19.903,6.85l141.5,141.501l168.871-4.562l192.812-5.2
						c13.257-0.339,24.279,10.095,24.638,23.344c0.357,13.25-10.095,24.281-23.345,24.638l-192.81,5.2l-179.188,4.84
						c-6.59,0.178-12.959-2.361-17.619-7.021l-127.064-127.065l-58.585,97.642c-4.338,7.229-12.149,11.652-20.58,11.652h-62.864
						l-91.994,114.993C1013.37,1143.507,1006.463,1146.8,999.203,1146.8z"/>
				</g>
				<g>
					<path style="fill:#212121;" d="M1613,728.3c-13.255,0-24-10.745-24-24c0-149.154-121.346-270.5-270.5-270.5
						c-13.255,0-24-10.745-24-24s10.745-24,24-24c85.075,0,165.059,33.129,225.215,93.286C1603.87,539.242,1637,619.224,1637,704.3
						C1637,717.555,1626.255,728.3,1613,728.3z"/>
				</g>
			</g>
		</g>
	</g>
</g>
<g id="Layer_1">
</g>
</svg>
