<?xml version="1.0" encoding="iso-8859-1"?>
<!-- Generator: Adobe Illustrator 25.2.0, SVG Export Plug-In . SVG Version: 6.00 Build 0)  -->
<svg version="1.1" xmlns="http://www.w3.org/2000/svg" xmlns:xlink="http://www.w3.org/1999/xlink" x="0px" y="0px"
	 viewBox="0 0 2048 2048" style="enable-background:new 0 0 2048 2048;" xml:space="preserve">
<g id="_x32_662.S2_-_Heart_Rate_Monitoring">
	<g>
		<g id="XMLID_40_">
			<g>
				<g>
					<rect x="900" y="1370.4" style="fill:#57565C;" width="248" height="198.4"/>
				</g>
				<g>
					<polygon style="fill:#898890;" points="1222.4,1568.8 1222.4,1668 825.6,1668 825.6,1568.8 900,1568.8 1148,1568.8 					"/>
				</g>
				<g>
					<path style="fill:#898890;" d="M1768,1271.2v99.2h-620H900H280V1172h1488V1271.2z M700.8,1271.2c0-0.78-0.04-1.58-0.12-2.36
						c-0.08-0.78-0.19-1.56-0.35-2.33c-0.15-0.76-0.35-1.53-0.58-2.28c-0.22-0.75-0.49-1.49-0.79-2.21c-0.3-0.72-0.63-1.44-1-2.12
						c-0.37-0.69-0.77-1.37-1.21-2.02c-0.43-0.66-0.9-1.29-1.39-1.9c-0.5-0.61-1.04-1.2-1.59-1.75c-0.55-0.55-1.14-1.09-1.75-1.59
						c-0.61-0.49-1.24-0.96-1.9-1.39c-0.65-0.44-1.33-0.84-2.02-1.21c-0.68-0.36-1.4-0.7-2.12-1c-0.72-0.3-1.46-0.57-2.21-0.79
						c-0.75-0.23-1.52-0.43-2.28-0.58c-0.77-0.15-1.55-0.27-2.33-0.35c-1.57-0.16-3.16-0.16-4.72,0c-0.78,0.08-1.56,0.2-2.33,0.35
						c-0.76,0.15-1.53,0.35-2.28,0.58c-0.74,0.22-1.49,0.49-2.21,0.79c-0.72,0.3-1.43,0.64-2.12,1c-0.69,0.37-1.37,0.77-2.02,1.21
						c-0.66,0.43-1.29,0.9-1.9,1.39c-0.61,0.5-1.2,1.04-1.75,1.59c-0.56,0.55-1.09,1.14-1.59,1.75c-0.49,0.61-0.96,1.24-1.4,1.9
						c-0.43,0.65-0.83,1.33-1.2,2.02c-0.37,0.68-0.7,1.4-1,2.12s-0.57,1.46-0.8,2.21c-0.22,0.75-0.42,1.52-0.57,2.28
						c-0.16,0.77-0.27,1.55-0.35,2.33c-0.08,0.78-0.12,1.58-0.12,2.36c0,0.78,0.04,1.58,0.12,2.36c0.08,0.78,0.19,1.56,0.35,2.33
						c0.15,0.76,0.35,1.53,0.57,2.28c0.23,0.74,0.5,1.49,0.8,2.21s0.63,1.43,1,2.12s0.77,1.37,1.21,2.02
						c0.43,0.65,0.9,1.29,1.39,1.9c0.5,0.61,1.04,1.2,1.59,1.75c0.55,0.55,1.14,1.09,1.75,1.59c0.61,0.49,1.25,0.96,1.9,1.39
						c0.65,0.44,1.33,0.84,2.02,1.21c0.69,0.36,1.4,0.7,2.12,1c0.72,0.3,1.47,0.57,2.21,0.79c0.75,0.23,1.52,0.42,2.28,0.58
						c0.77,0.15,1.55,0.27,2.33,0.35c0.78,0.08,1.58,0.12,2.36,0.12c0.78,0,1.58-0.04,2.36-0.12c0.78-0.08,1.56-0.2,2.33-0.35
						c0.76-0.16,1.53-0.35,2.28-0.58c0.74-0.22,1.49-0.49,2.21-0.79c0.72-0.3,1.43-0.64,2.12-1c0.69-0.37,1.37-0.77,2.02-1.21
						c0.65-0.43,1.29-0.9,1.9-1.39c0.61-0.5,1.2-1.04,1.75-1.59c0.55-0.55,1.09-1.14,1.59-1.75c0.49-0.61,0.96-1.25,1.39-1.9
						c0.44-0.65,0.84-1.33,1.21-2.02s0.7-1.4,1-2.12c0.3-0.72,0.57-1.47,0.79-2.21c0.23-0.75,0.43-1.52,0.58-2.28
						c0.16-0.77,0.27-1.55,0.35-2.33C700.76,1272.78,700.8,1271.98,700.8,1271.2z M601.6,1271.2c0-0.78-0.04-1.58-0.12-2.36
						c-0.08-0.78-0.19-1.56-0.35-2.33c-0.15-0.76-0.35-1.53-0.58-2.28c-0.22-0.75-0.49-1.49-0.79-2.21s-0.63-1.44-1-2.12
						c-0.37-0.69-0.77-1.37-1.21-2.02c-0.43-0.66-0.9-1.29-1.39-1.9c-0.5-0.61-1.04-1.2-1.59-1.75c-0.55-0.55-1.14-1.09-1.75-1.59
						c-0.61-0.49-1.24-0.96-1.9-1.39c-0.65-0.44-1.33-0.84-2.02-1.21c-0.68-0.36-1.4-0.7-2.12-1c-0.72-0.3-1.46-0.57-2.21-0.79
						c-0.75-0.23-1.52-0.43-2.28-0.58c-0.77-0.15-1.55-0.27-2.33-0.35c-1.57-0.16-3.15-0.16-4.72,0c-0.78,0.08-1.56,0.2-2.33,0.35
						c-0.76,0.15-1.53,0.35-2.28,0.58c-0.74,0.22-1.49,0.49-2.21,0.79c-0.72,0.3-1.44,0.64-2.12,1c-0.69,0.37-1.37,0.77-2.02,1.21
						c-0.66,0.43-1.29,0.9-1.9,1.39c-0.61,0.5-1.2,1.04-1.75,1.59c-0.56,0.55-1.09,1.14-1.59,1.75c-0.49,0.61-0.96,1.24-1.39,1.9
						c-0.44,0.65-0.84,1.33-1.21,2.02c-0.37,0.68-0.7,1.4-1,2.12s-0.57,1.46-0.79,2.21c-0.23,0.75-0.43,1.52-0.58,2.28
						c-0.16,0.77-0.27,1.55-0.35,2.33c-0.08,0.78-0.12,1.58-0.12,2.36c0,0.78,0.04,1.58,0.12,2.36c0.08,0.78,0.19,1.56,0.35,2.33
						c0.15,0.76,0.35,1.53,0.58,2.28c0.22,0.74,0.49,1.49,0.79,2.21s0.63,1.43,1,2.12s0.77,1.37,1.21,2.02
						c0.43,0.65,0.9,1.29,1.39,1.9c0.5,0.61,1.04,1.2,1.59,1.75c0.55,0.55,1.14,1.09,1.75,1.59c0.61,0.49,1.25,0.96,1.9,1.39
						c0.65,0.44,1.33,0.84,2.02,1.21c0.69,0.36,1.4,0.7,2.12,1c0.72,0.3,1.47,0.57,2.21,0.79c0.75,0.23,1.52,0.42,2.28,0.58
						c0.77,0.15,1.55,0.27,2.33,0.35c0.78,0.08,1.58,0.12,2.36,0.12c0.78,0,1.58-0.04,2.36-0.12c0.78-0.08,1.56-0.2,2.33-0.35
						c0.76-0.16,1.53-0.35,2.28-0.58c0.74-0.22,1.49-0.49,2.21-0.79c0.72-0.3,1.43-0.64,2.12-1c0.69-0.37,1.37-0.77,2.02-1.21
						c0.66-0.43,1.29-0.9,1.9-1.39c0.61-0.5,1.2-1.04,1.75-1.59c0.55-0.55,1.09-1.14,1.59-1.75c0.49-0.61,0.96-1.25,1.39-1.9
						c0.44-0.65,0.84-1.33,1.21-2.02s0.7-1.4,1-2.12s0.57-1.47,0.79-2.21c0.23-0.75,0.43-1.52,0.58-2.28
						c0.16-0.77,0.27-1.55,0.35-2.33C601.56,1272.78,601.6,1271.98,601.6,1271.2z M502.4,1271.2c0-0.78-0.04-1.58-0.12-2.36
						c-0.08-0.78-0.19-1.56-0.35-2.33c-0.15-0.76-0.35-1.53-0.58-2.28c-0.22-0.75-0.49-1.49-0.79-2.21s-0.63-1.44-1-2.12
						c-0.37-0.69-0.77-1.37-1.21-2.02c-0.43-0.66-0.9-1.29-1.39-1.9c-0.5-0.61-1.03-1.2-1.59-1.75c-0.55-0.55-1.14-1.09-1.75-1.59
						c-0.61-0.49-1.24-0.96-1.9-1.39c-0.65-0.44-1.33-0.84-2.02-1.21c-0.68-0.36-1.4-0.7-2.12-1c-0.72-0.3-1.47-0.57-2.21-0.79
						c-0.75-0.23-1.52-0.43-2.28-0.58c-0.77-0.15-1.55-0.27-2.33-0.35c-1.57-0.16-3.15-0.16-4.72,0c-0.78,0.08-1.56,0.2-2.33,0.35
						c-0.76,0.15-1.53,0.35-2.28,0.58c-0.74,0.22-1.49,0.49-2.21,0.79c-0.72,0.3-1.44,0.64-2.12,1c-0.69,0.37-1.37,0.77-2.02,1.21
						c-0.66,0.43-1.29,0.9-1.9,1.39c-0.61,0.5-1.2,1.04-1.75,1.59c-0.56,0.55-1.09,1.14-1.59,1.75c-0.49,0.61-0.96,1.24-1.39,1.9
						c-0.44,0.65-0.84,1.33-1.21,2.02c-0.37,0.68-0.7,1.4-1,2.12c-0.3,0.72-0.57,1.46-0.79,2.21c-0.23,0.75-0.43,1.52-0.58,2.28
						c-0.16,0.77-0.27,1.55-0.35,2.33c-0.08,0.78-0.12,1.58-0.12,2.36c0,0.78,0.04,1.58,0.12,2.36c0.08,0.78,0.19,1.56,0.35,2.33
						c0.15,0.76,0.35,1.53,0.58,2.28c0.22,0.74,0.49,1.49,0.79,2.21c0.3,0.72,0.63,1.43,1,2.12s0.77,1.37,1.21,2.02
						c0.43,0.65,0.9,1.29,1.39,1.9c0.5,0.61,1.03,1.2,1.59,1.75c0.55,0.55,1.14,1.09,1.75,1.59c0.61,0.49,1.24,0.96,1.9,1.39
						c0.65,0.44,1.33,0.84,2.02,1.21c0.69,0.36,1.4,0.7,2.12,1c0.72,0.3,1.47,0.57,2.21,0.79c0.75,0.23,1.52,0.42,2.28,0.58
						c0.77,0.15,1.55,0.27,2.33,0.35c0.78,0.08,1.58,0.12,2.36,0.12s1.58-0.04,2.36-0.12c0.78-0.08,1.56-0.2,2.33-0.35
						c0.76-0.16,1.53-0.35,2.28-0.58c0.74-0.22,1.49-0.49,2.21-0.79c0.72-0.3,1.43-0.64,2.12-1c0.69-0.37,1.37-0.77,2.02-1.21
						c0.65-0.43,1.29-0.9,1.9-1.39c0.61-0.5,1.2-1.04,1.75-1.59c0.55-0.55,1.09-1.14,1.59-1.75c0.49-0.61,0.96-1.25,1.39-1.9
						c0.44-0.65,0.84-1.33,1.21-2.02s0.7-1.4,1-2.12s0.57-1.47,0.79-2.21c0.23-0.75,0.43-1.52,0.58-2.28
						c0.16-0.77,0.27-1.55,0.35-2.33C502.36,1272.78,502.4,1271.98,502.4,1271.2z M403.2,1271.2c0-0.78-0.04-1.58-0.12-2.36
						c-0.08-0.78-0.19-1.56-0.35-2.33c-0.15-0.76-0.35-1.53-0.57-2.28c-0.23-0.75-0.5-1.49-0.8-2.21c-0.3-0.72-0.63-1.44-1-2.12
						c-0.37-0.69-0.77-1.37-1.2-2.02c-0.44-0.66-0.91-1.29-1.4-1.9c-0.5-0.61-1.03-1.2-1.59-1.75c-0.55-0.55-1.14-1.09-1.75-1.59
						c-0.61-0.49-1.24-0.96-1.9-1.39c-0.65-0.44-1.33-0.84-2.02-1.21c-0.68-0.36-1.4-0.7-2.12-1c-0.72-0.3-1.47-0.57-2.21-0.79
						c-0.75-0.23-1.52-0.43-2.28-0.58c-0.77-0.15-1.55-0.27-2.33-0.35c-1.57-0.16-3.15-0.16-4.72,0c-0.78,0.08-1.56,0.2-2.33,0.35
						c-0.76,0.15-1.53,0.35-2.28,0.58c-0.74,0.22-1.49,0.49-2.21,0.79c-0.72,0.3-1.44,0.64-2.12,1c-0.69,0.37-1.37,0.77-2.02,1.21
						c-0.66,0.43-1.29,0.9-1.9,1.39c-0.61,0.5-1.2,1.04-1.75,1.59c-0.55,0.55-1.09,1.14-1.59,1.75c-0.49,0.61-0.96,1.24-1.39,1.9
						c-0.44,0.65-0.84,1.33-1.21,2.02c-0.37,0.68-0.7,1.4-1,2.12c-0.3,0.72-0.57,1.46-0.79,2.21c-0.23,0.75-0.43,1.52-0.58,2.28
						c-0.15,0.77-0.27,1.55-0.35,2.33c-0.08,0.78-0.12,1.58-0.12,2.36c0,0.78,0.04,1.58,0.12,2.36c0.08,0.78,0.2,1.56,0.35,2.33
						c0.15,0.76,0.35,1.53,0.58,2.28c0.22,0.74,0.49,1.49,0.79,2.21c0.3,0.72,0.63,1.43,1,2.12s0.77,1.37,1.21,2.02
						c0.43,0.65,0.9,1.29,1.39,1.9c0.5,0.61,1.04,1.2,1.59,1.75c0.55,0.55,1.14,1.09,1.75,1.59c0.61,0.49,1.24,0.96,1.9,1.39
						c0.65,0.44,1.33,0.84,2.02,1.21c0.68,0.36,1.4,0.7,2.12,1c0.72,0.3,1.47,0.57,2.21,0.79c0.75,0.23,1.52,0.42,2.28,0.58
						c0.77,0.15,1.55,0.27,2.33,0.35c0.78,0.08,1.58,0.12,2.36,0.12s1.58-0.04,2.36-0.12c0.78-0.08,1.56-0.2,2.33-0.35
						c0.76-0.16,1.53-0.35,2.28-0.58c0.74-0.22,1.49-0.49,2.21-0.79c0.72-0.3,1.43-0.64,2.12-1c0.69-0.37,1.37-0.77,2.02-1.21
						c0.65-0.43,1.29-0.9,1.9-1.39c0.61-0.5,1.2-1.04,1.75-1.59c0.55-0.55,1.09-1.14,1.59-1.75c0.49-0.61,0.96-1.25,1.39-1.9
						c0.44-0.65,0.84-1.33,1.21-2.02c0.37-0.69,0.7-1.4,1-2.12c0.3-0.72,0.57-1.47,0.8-2.21c0.22-0.75,0.42-1.52,0.57-2.28
						c0.16-0.77,0.27-1.55,0.35-2.33C403.16,1272.78,403.2,1271.98,403.2,1271.2z"/>
				</g>
				<g>
					<rect x="280" y="428" style="fill:#9FE8FF;" width="1488" height="744"/>
				</g>
				<g>
					<path style="fill:#212121;" d="M700.68,1268.84c0.08,0.78,0.12,1.58,0.12,2.36c0,0.78-0.04,1.58-0.12,2.36
						c-0.08,0.78-0.19,1.56-0.35,2.33c-0.15,0.76-0.35,1.53-0.58,2.28c-0.22,0.74-0.49,1.49-0.79,2.21c-0.3,0.72-0.63,1.43-1,2.12
						s-0.77,1.37-1.21,2.02c-0.43,0.65-0.9,1.29-1.39,1.9c-0.5,0.61-1.04,1.2-1.59,1.75c-0.55,0.55-1.14,1.09-1.75,1.59
						c-0.61,0.49-1.25,0.96-1.9,1.39c-0.65,0.44-1.33,0.84-2.02,1.21c-0.69,0.36-1.4,0.7-2.12,1c-0.72,0.3-1.47,0.57-2.21,0.79
						c-0.75,0.23-1.52,0.42-2.28,0.58c-0.77,0.15-1.55,0.27-2.33,0.35c-0.78,0.08-1.58,0.12-2.36,0.12c-0.78,0-1.58-0.04-2.36-0.12
						c-0.78-0.08-1.56-0.2-2.33-0.35c-0.76-0.16-1.53-0.35-2.28-0.58c-0.74-0.22-1.49-0.49-2.21-0.79c-0.72-0.3-1.43-0.64-2.12-1
						c-0.69-0.37-1.37-0.77-2.02-1.21c-0.65-0.43-1.29-0.9-1.9-1.39c-0.61-0.5-1.2-1.04-1.75-1.59c-0.55-0.55-1.09-1.14-1.59-1.75
						c-0.49-0.61-0.96-1.25-1.39-1.9c-0.44-0.65-0.84-1.33-1.21-2.02s-0.7-1.4-1-2.12s-0.57-1.47-0.8-2.21
						c-0.22-0.75-0.42-1.52-0.57-2.28c-0.16-0.77-0.27-1.55-0.35-2.33c-0.08-0.78-0.12-1.58-0.12-2.36c0-0.78,0.04-1.58,0.12-2.36
						c0.08-0.78,0.19-1.56,0.35-2.33c0.15-0.76,0.35-1.53,0.57-2.28c0.23-0.75,0.5-1.49,0.8-2.21s0.63-1.44,1-2.12
						c0.37-0.69,0.77-1.37,1.2-2.02c0.44-0.66,0.91-1.29,1.4-1.9c0.5-0.61,1.03-1.2,1.59-1.75c0.55-0.55,1.14-1.09,1.75-1.59
						c0.61-0.49,1.24-0.96,1.9-1.39c0.65-0.44,1.33-0.84,2.02-1.21c0.69-0.36,1.4-0.7,2.12-1c0.72-0.3,1.47-0.57,2.21-0.79
						c0.75-0.23,1.52-0.43,2.28-0.58c0.77-0.15,1.55-0.27,2.33-0.35c1.56-0.16,3.15-0.16,4.72,0c0.78,0.08,1.56,0.2,2.33,0.35
						c0.76,0.15,1.53,0.35,2.28,0.58c0.75,0.22,1.49,0.49,2.21,0.79c0.72,0.3,1.44,0.64,2.12,1c0.69,0.37,1.37,0.77,2.02,1.21
						c0.66,0.43,1.29,0.9,1.9,1.39c0.61,0.5,1.2,1.04,1.75,1.59c0.55,0.55,1.09,1.14,1.59,1.75c0.49,0.61,0.96,1.24,1.39,1.9
						c0.44,0.65,0.84,1.33,1.21,2.02c0.37,0.68,0.7,1.4,1,2.12c0.3,0.72,0.57,1.46,0.79,2.21c0.23,0.75,0.43,1.52,0.58,2.28
						C700.49,1267.28,700.6,1268.06,700.68,1268.84z"/>
				</g>
				<g>
					<path style="fill:#212121;" d="M601.48,1268.84c0.08,0.78,0.12,1.58,0.12,2.36c0,0.78-0.04,1.58-0.12,2.36
						c-0.08,0.78-0.19,1.56-0.35,2.33c-0.15,0.76-0.35,1.53-0.58,2.28c-0.22,0.74-0.49,1.49-0.79,2.21s-0.63,1.43-1,2.12
						s-0.77,1.37-1.21,2.02c-0.43,0.65-0.9,1.29-1.39,1.9c-0.5,0.61-1.04,1.2-1.59,1.75c-0.55,0.55-1.14,1.09-1.75,1.59
						c-0.61,0.49-1.24,0.96-1.9,1.39c-0.65,0.44-1.33,0.84-2.02,1.21c-0.69,0.36-1.4,0.7-2.12,1c-0.72,0.3-1.47,0.57-2.21,0.79
						c-0.75,0.23-1.52,0.42-2.28,0.58c-0.77,0.15-1.55,0.27-2.33,0.35c-0.78,0.08-1.58,0.12-2.36,0.12c-0.78,0-1.58-0.04-2.36-0.12
						c-0.78-0.08-1.56-0.2-2.33-0.35c-0.76-0.16-1.53-0.35-2.28-0.58c-0.74-0.22-1.49-0.49-2.21-0.79c-0.72-0.3-1.43-0.64-2.12-1
						c-0.69-0.37-1.37-0.77-2.02-1.21c-0.65-0.43-1.29-0.9-1.9-1.39c-0.61-0.5-1.2-1.04-1.75-1.59c-0.55-0.55-1.09-1.14-1.59-1.75
						c-0.49-0.61-0.96-1.25-1.39-1.9c-0.44-0.65-0.84-1.33-1.21-2.02s-0.7-1.4-1-2.12s-0.57-1.47-0.79-2.21
						c-0.23-0.75-0.43-1.52-0.58-2.28c-0.16-0.77-0.27-1.55-0.35-2.33c-0.08-0.78-0.12-1.58-0.12-2.36c0-0.78,0.04-1.58,0.12-2.36
						c0.08-0.78,0.19-1.56,0.35-2.33c0.15-0.76,0.35-1.53,0.58-2.28c0.22-0.75,0.49-1.49,0.79-2.21s0.63-1.44,1-2.12
						c0.37-0.69,0.77-1.37,1.21-2.02c0.43-0.66,0.9-1.29,1.39-1.9c0.5-0.61,1.03-1.2,1.59-1.75c0.55-0.55,1.14-1.09,1.75-1.59
						c0.61-0.49,1.24-0.96,1.9-1.39c0.65-0.44,1.33-0.84,2.02-1.21c0.68-0.36,1.4-0.7,2.12-1c0.72-0.3,1.47-0.57,2.21-0.79
						c0.75-0.23,1.52-0.43,2.28-0.58c0.77-0.15,1.55-0.27,2.33-0.35c1.57-0.16,3.15-0.16,4.72,0c0.78,0.08,1.56,0.2,2.33,0.35
						c0.76,0.15,1.53,0.35,2.28,0.58c0.75,0.22,1.49,0.49,2.21,0.79c0.72,0.3,1.44,0.64,2.12,1c0.69,0.37,1.37,0.77,2.02,1.21
						c0.66,0.43,1.29,0.9,1.9,1.39c0.61,0.5,1.2,1.04,1.75,1.59c0.55,0.55,1.09,1.14,1.59,1.75c0.49,0.61,0.96,1.24,1.39,1.9
						c0.44,0.65,0.84,1.33,1.21,2.02c0.37,0.68,0.7,1.4,1,2.12s0.57,1.46,0.79,2.21c0.23,0.75,0.43,1.52,0.58,2.28
						C601.29,1267.28,601.4,1268.06,601.48,1268.84z"/>
				</g>
				<g>
					<path style="fill:#212121;" d="M502.28,1268.84c0.08,0.78,0.12,1.58,0.12,2.36c0,0.78-0.04,1.58-0.12,2.36
						c-0.08,0.78-0.19,1.56-0.35,2.33c-0.15,0.76-0.35,1.53-0.58,2.28c-0.22,0.74-0.49,1.49-0.79,2.21s-0.63,1.43-1,2.12
						s-0.77,1.37-1.21,2.02c-0.43,0.65-0.9,1.29-1.39,1.9c-0.5,0.61-1.04,1.2-1.59,1.75c-0.55,0.55-1.14,1.09-1.75,1.59
						c-0.61,0.49-1.25,0.96-1.9,1.39c-0.65,0.44-1.33,0.84-2.02,1.21c-0.69,0.36-1.4,0.7-2.12,1c-0.72,0.3-1.47,0.57-2.21,0.79
						c-0.75,0.23-1.52,0.42-2.28,0.58c-0.77,0.15-1.55,0.27-2.33,0.35c-0.78,0.08-1.58,0.12-2.36,0.12s-1.58-0.04-2.36-0.12
						c-0.78-0.08-1.56-0.2-2.33-0.35c-0.76-0.16-1.53-0.35-2.28-0.58c-0.74-0.22-1.49-0.49-2.21-0.79c-0.72-0.3-1.43-0.64-2.12-1
						c-0.69-0.37-1.37-0.77-2.02-1.21c-0.66-0.43-1.29-0.9-1.9-1.39c-0.61-0.5-1.2-1.04-1.75-1.59c-0.56-0.55-1.09-1.14-1.59-1.75
						c-0.49-0.61-0.96-1.25-1.39-1.9c-0.44-0.65-0.84-1.33-1.21-2.02s-0.7-1.4-1-2.12c-0.3-0.72-0.57-1.47-0.79-2.21
						c-0.23-0.75-0.43-1.52-0.58-2.28c-0.16-0.77-0.27-1.55-0.35-2.33c-0.08-0.78-0.12-1.58-0.12-2.36c0-0.78,0.04-1.58,0.12-2.36
						c0.08-0.78,0.19-1.56,0.35-2.33c0.15-0.76,0.35-1.53,0.58-2.28c0.22-0.75,0.49-1.49,0.79-2.21c0.3-0.72,0.63-1.44,1-2.12
						c0.37-0.69,0.77-1.37,1.21-2.02c0.43-0.66,0.9-1.29,1.39-1.9c0.5-0.61,1.03-1.2,1.59-1.75c0.55-0.55,1.14-1.09,1.75-1.59
						c0.61-0.49,1.24-0.96,1.9-1.39c0.65-0.44,1.33-0.84,2.02-1.21c0.68-0.36,1.4-0.7,2.12-1c0.72-0.3,1.47-0.57,2.21-0.79
						c0.75-0.23,1.52-0.43,2.28-0.58c0.77-0.15,1.55-0.27,2.33-0.35c1.57-0.16,3.15-0.16,4.72,0c0.78,0.08,1.56,0.2,2.33,0.35
						c0.76,0.15,1.53,0.35,2.28,0.58c0.74,0.22,1.49,0.49,2.21,0.79c0.72,0.3,1.44,0.64,2.12,1c0.69,0.37,1.37,0.77,2.02,1.21
						c0.66,0.43,1.29,0.9,1.9,1.39c0.61,0.5,1.2,1.04,1.75,1.59c0.56,0.55,1.09,1.14,1.59,1.75c0.49,0.61,0.96,1.24,1.39,1.9
						c0.44,0.65,0.84,1.33,1.21,2.02c0.37,0.68,0.7,1.4,1,2.12s0.57,1.46,0.79,2.21c0.23,0.75,0.43,1.52,0.58,2.28
						C502.09,1267.28,502.2,1268.06,502.28,1268.84z"/>
				</g>
				<g>
					<path style="fill:#212121;" d="M403.08,1268.84c0.08,0.78,0.12,1.58,0.12,2.36c0,0.78-0.04,1.58-0.12,2.36
						c-0.08,0.78-0.19,1.56-0.35,2.33c-0.15,0.76-0.35,1.53-0.57,2.28c-0.23,0.74-0.5,1.49-0.8,2.21c-0.3,0.72-0.63,1.43-1,2.12
						c-0.37,0.69-0.77,1.37-1.21,2.02c-0.43,0.65-0.9,1.29-1.39,1.9c-0.5,0.61-1.04,1.2-1.59,1.75c-0.55,0.55-1.14,1.09-1.75,1.59
						c-0.61,0.49-1.25,0.96-1.9,1.39c-0.65,0.44-1.33,0.84-2.02,1.21c-0.69,0.36-1.4,0.7-2.12,1c-0.72,0.3-1.47,0.57-2.21,0.79
						c-0.75,0.23-1.52,0.42-2.28,0.58c-0.77,0.15-1.55,0.27-2.33,0.35c-0.78,0.08-1.58,0.12-2.36,0.12s-1.58-0.04-2.36-0.12
						c-0.78-0.08-1.56-0.2-2.33-0.35c-0.76-0.16-1.53-0.35-2.28-0.58c-0.74-0.22-1.49-0.49-2.21-0.79c-0.72-0.3-1.44-0.64-2.12-1
						c-0.69-0.37-1.37-0.77-2.02-1.21c-0.66-0.43-1.29-0.9-1.9-1.39c-0.61-0.5-1.2-1.04-1.75-1.59c-0.55-0.55-1.09-1.14-1.59-1.75
						c-0.49-0.61-0.96-1.25-1.39-1.9c-0.44-0.65-0.84-1.33-1.21-2.02s-0.7-1.4-1-2.12c-0.3-0.72-0.57-1.47-0.79-2.21
						c-0.23-0.75-0.43-1.52-0.58-2.28c-0.15-0.77-0.27-1.55-0.35-2.33c-0.08-0.78-0.12-1.58-0.12-2.36c0-0.78,0.04-1.58,0.12-2.36
						c0.08-0.78,0.2-1.56,0.35-2.33c0.15-0.76,0.35-1.53,0.58-2.28c0.22-0.75,0.49-1.49,0.79-2.21c0.3-0.72,0.63-1.44,1-2.12
						c0.37-0.69,0.77-1.37,1.21-2.02c0.43-0.66,0.9-1.29,1.39-1.9c0.5-0.61,1.04-1.2,1.59-1.75c0.55-0.55,1.14-1.09,1.75-1.59
						c0.61-0.49,1.24-0.96,1.9-1.39c0.65-0.44,1.33-0.84,2.02-1.21c0.68-0.36,1.4-0.7,2.12-1c0.72-0.3,1.47-0.57,2.21-0.79
						c0.75-0.23,1.52-0.43,2.28-0.58c0.77-0.15,1.55-0.27,2.33-0.35c1.57-0.16,3.15-0.16,4.72,0c0.78,0.08,1.56,0.2,2.33,0.35
						c0.76,0.15,1.53,0.35,2.28,0.58c0.74,0.22,1.49,0.49,2.21,0.79c0.72,0.3,1.44,0.64,2.12,1c0.69,0.37,1.37,0.77,2.02,1.21
						c0.66,0.43,1.29,0.9,1.9,1.39c0.61,0.5,1.2,1.04,1.75,1.59c0.56,0.55,1.09,1.14,1.59,1.75c0.49,0.61,0.96,1.24,1.4,1.9
						c0.43,0.65,0.83,1.33,1.2,2.02c0.37,0.68,0.7,1.4,1,2.12c0.3,0.72,0.57,1.46,0.8,2.21c0.22,0.75,0.42,1.52,0.57,2.28
						C402.89,1267.28,403,1268.06,403.08,1268.84z"/>
				</g>
			</g>
			<g>
				<g>
					<path style="fill:#212121;" d="M1768,1394.4h-620c-13.255,0-24-10.745-24-24s10.745-24,24-24h596V452H304v894.4h596
						c13.255,0,24,10.745,24,24s-10.745,24-24,24H280c-13.255,0-24-10.745-24-24V428c0-13.255,10.745-24,24-24h1488
						c13.255,0,24,10.745,24,24v942.4C1792,1383.655,1781.255,1394.4,1768,1394.4z"/>
				</g>
				<g>
					<path style="fill:#212121;" d="M1148,1592.8c-13.255,0-24-10.745-24-24V1394.4H924V1568.8c0,13.255-10.745,24-24,24
						s-24-10.745-24-24V1370.4c0-13.255,10.745-24,24-24h248c13.255,0,24,10.745,24,24V1568.8
						C1172,1582.055,1161.255,1592.8,1148,1592.8z"/>
				</g>
				<g>
					<path style="fill:#212121;" d="M1222.4,1692H825.6c-13.255,0-24-10.745-24-24v-99.2c0-13.255,10.745-24,24-24h396.8
						c13.255,0,24,10.745,24,24v99.2C1246.4,1681.255,1235.655,1692,1222.4,1692z M849.6,1644h348.8v-51.2H849.6V1644z"/>
				</g>
				<g>
					<path style="fill:#212121;" d="M1768,1196H280c-13.255,0-24-10.745-24-24s10.745-24,24-24h1488c13.255,0,24,10.745,24,24
						S1781.255,1196,1768,1196z"/>
				</g>
				<g>
					<path style="fill:#212121;" d="M1768,1295.2h-644.8c-13.255,0-24-10.745-24-24s10.745-24,24-24H1768c13.255,0,24,10.745,24,24
						S1781.255,1295.2,1768,1295.2z"/>
				</g>
				<g>
					<path style="fill:#212121;" d="M1259.608,1096.8c-0.555,0-1.111-0.019-1.671-0.058c-10.185-0.707-18.806-7.779-21.492-17.627
						l-129.652-475.394L959.568,982.299c-3.44,8.847-11.773,14.835-21.255,15.275c-9.488,0.447-18.334-4.75-22.579-13.241
						l-79.648-159.295l-51.906,86.511c-4.338,7.229-12.15,11.652-20.58,11.652h-34.767l-67.767,135.533
						c-4.378,8.755-13.638,13.973-23.394,13.189c-9.758-0.786-18.061-7.42-20.98-16.764L512.821,722.77l-74.137,185.344
						c-3.645,9.112-12.47,15.086-22.284,15.086h-62c-13.255,0-24-10.745-24-24s10.745-24,24-24h45.751l93.166-232.914
						c3.772-9.428,13.062-15.459,23.215-15.068c10.147,0.394,18.948,7.131,21.977,16.823l106.246,339.986l47.78-95.561
						C696.599,880.336,704.91,875.2,714,875.2h36.011l67.409-112.348c4.507-7.511,12.759-11.968,21.5-11.634
						c8.753,0.336,16.628,5.415,20.545,13.25l74.988,149.976l153.977-395.942c3.755-9.655,13.309-15.805,23.623-15.269
						c10.345,0.542,19.174,7.659,21.899,17.652l130.693,479.21l47.293-110.349c3.782-8.825,12.459-14.546,22.06-14.546h60.812
						l67.408-112.348c4.637-7.729,13.209-12.213,22.205-11.597c8.992,0.61,16.884,6.207,20.435,14.491l63.034,147.08l50.394-33.595
						c3.942-2.628,8.574-4.031,13.312-4.031h62c13.255,0,24,10.745,24,24s-10.745,24-24,24h-54.733l-68.354,45.569
						c-5.932,3.956-13.316,5.067-20.151,3.036s-12.412-6.997-15.221-13.551l-55.91-130.457l-50.25,83.75
						c-4.338,7.229-12.149,11.652-20.58,11.652h-58.575l-68.166,159.054C1277.858,1091.121,1269.149,1096.8,1259.608,1096.8z"/>
				</g>
			</g>
		</g>
	</g>
</g>
<g id="Layer_1">
</g>
</svg>
