<?xml version="1.0" encoding="iso-8859-1"?>
<!-- Generator: Adobe Illustrator 25.2.0, SVG Export Plug-In . SVG Version: 6.00 Build 0)  -->
<svg version="1.1" xmlns="http://www.w3.org/2000/svg" xmlns:xlink="http://www.w3.org/1999/xlink" x="0px" y="0px"
	 viewBox="0 0 2048 2048" style="enable-background:new 0 0 2048 2048;" xml:space="preserve">
<g id="_x32_663.S2_-_Person">
	<g>
		<g id="XMLID_41_">
			<g>
				<g>
					<g>
						<path style="fill:#FF4B58;" d="M1346.4,1420.8V1768H701.6v-347.2l1.77-1.77c46.5-46.5,72.63-109.58,72.63-175.35v-138.47
							l99.2-35.21v102.8c0,41.09,16.66,78.29,43.59,105.21c26.92,26.93,64.12,43.59,105.21,43.59c82.18,0,148.8-66.62,148.8-148.8
							V1070l99.2,35.21v138.47c0,65.77,26.13,128.85,72.63,175.35L1346.4,1420.8z"/>
					</g>
				</g>
				<g>
					<path style="fill:#898890;" d="M1244.28,348.79c44.96,59.57,52.38,142.25,13.4,210.48l-10.48,18.33v-24.8l-28.19-42.28
						c-12.48-18.72-36.36-26.14-57.25-17.78l-57.12,22.85c-10.26,4.1-20.85,7.2-31.64,9.28c-10.8,2.08-21.78,3.13-32.83,3.13
						c-26.94,0-53.52-6.27-77.62-18.32l-26.11-13.06c-21.76-10.88-48.04-6.62-65.25,10.59L800.8,577.6l-37.96-94.91
						c-7.4-18.5-6.54-39.29,2.37-57.12c17.1-34.18,51.83-54.84,88.71-54.84c7.98,0,16.06,0.96,24.08,2.97l22,5.5
						c0-27.4,11.1-52.2,29.05-70.15C947,291.1,971.8,280,999.2,280H1272C1272,306.72,1261.45,330.96,1244.28,348.79z"/>
				</g>
				<g>
					<path style="fill:#F5D3A6;" d="M1172.8,1070v102.8c0,82.18-66.62,148.8-148.8,148.8c-41.09,0-78.29-16.66-105.21-43.59
						c-26.93-26.92-43.59-64.12-43.59-105.21V1070l24.8-8.8l24.8-122.4c29.88,14.85,63.56,23.2,99.2,23.2s69.32-8.35,99.2-23.2
						l24.8,122.4L1172.8,1070z"/>
				</g>
				<g>
					<path style="fill:#F0C894;" d="M1495.2,1350.41V1768h-148.8v-347.2l-1.77-1.77c-46.5-46.5-72.63-109.58-72.63-175.35v-138.47
						l67.75,24.05C1433.02,1162.82,1495.2,1251.29,1495.2,1350.41z"/>
				</g>
				<g>
					<path style="fill:#F0C894;" d="M776,1105.21v138.47c0,65.77-26.13,128.85-72.63,175.35l-1.77,1.77V1768H552.8v-417.59
						c0-99.12,62.18-187.59,155.45-221.15L776,1105.21z"/>
				</g>
				<g>
					<path style="fill:#F0C894;" d="M1123.2,938.8c-29.88,14.85-63.56,23.2-99.2,23.2s-69.32-8.35-99.2-23.2
						c-21.81-10.83-41.59-25.13-58.63-42.17c-40.39-40.39-65.37-96.19-65.37-157.83V577.6l70.39-70.39
						c17.21-17.21,43.49-21.47,65.25-10.59l26.11,13.06c24.1,12.05,50.68,18.32,77.62,18.32c11.05,0,22.03-1.05,32.83-3.13
						c10.79-2.08,21.38-5.18,31.64-9.28l57.12-22.85c20.89-8.36,44.77-0.94,57.25,17.78l28.19,42.28v24.8v161.2
						C1247.2,826.44,1196.69,902.28,1123.2,938.8z"/>
				</g>
			</g>
			<g>
				<g>
					<path style="fill:#212121;" d="M1024,986c-38.588,0-75.557-8.649-109.881-25.708c-24.022-11.928-45.867-27.639-64.919-46.691
						C802.512,866.914,776.8,804.834,776.8,738.8V582.222l-36.244-90.619c-9.938-24.845-8.777-52.824,3.185-76.761
						c10.339-20.666,26.204-37.946,45.884-49.983c19.39-11.86,41.623-18.128,64.295-18.128c8.629,0,17.246,0.91,25.677,2.708
						c5.314-21.53,16.402-41.277,32.482-57.358C935.346,268.813,966.286,256,999.2,256H1272c13.255,0,24,10.745,24,24
						c0,32.038-12.229,62.38-34.433,85.438c-0.517,0.54-1.079,1.116-1.656,1.692c-23.257,23.257-54.197,36.07-87.111,36.07H1098.4
						c-13.255,0-24-10.745-24-24s10.745-24,24-24h74.399c20.093,0,38.979-7.82,53.18-22.021c0.333-0.333,0.649-0.657,0.966-0.988
						c7.845-8.146,13.647-17.76,17.152-28.191H999.2c-20.093,0-38.979,7.82-53.18,22.021c-14.2,14.2-22.02,33.086-22.02,53.18
						c0,7.39-3.405,14.369-9.23,18.917c-5.824,4.548-13.418,6.159-20.591,4.366l-22-5.5c-5.971-1.497-12.109-2.253-18.259-2.253
						c-28.648,0-54.416,15.932-67.247,41.578c-5.835,11.678-6.402,25.338-1.55,37.469l24.443,61.115l44.652-44.653
						c24.548-24.548,61.904-30.612,92.954-15.085l26.113,13.062C993.938,498.542,1017.067,504,1040.17,504
						c9.481,0,19-0.907,28.291-2.697c9.299-1.792,18.476-4.484,27.272-8l57.112-22.847c31.242-12.503,67.466-1.253,86.134,26.75
						l28.189,42.278c2.629,3.942,4.031,8.575,4.031,13.314v186c0,46.896-13.195,92.542-38.159,132.001
						c-24.276,38.373-58.565,69.318-99.16,89.491C1099.558,977.351,1062.588,986,1024,986z M824.8,587.541V738.8
						c0,53.213,20.719,103.238,58.341,140.859c15.366,15.366,32.973,28.032,52.333,37.645C963.108,931.038,992.891,938,1024,938
						c31.11,0,60.892-6.962,88.519-20.692C1180.79,883.381,1223.2,814.981,1223.2,738.8V560.067l-24.159-36.233
						c-6.149-9.224-18.077-12.928-28.364-8.812l-57.123,22.851c-11.619,4.643-23.732,8.196-36.011,10.563
						c-12.279,2.365-24.852,3.563-37.373,3.563c-30.516,0-61.067-7.211-88.353-20.854l-26.113-13.062
						c-12.539-6.267-27.627-3.82-37.543,6.096L824.8,587.541z"/>
				</g>
				<g>
					<path style="fill:#212121;" d="M1495.2,1792H552.8c-13.255,0-24-10.745-24-24v-417.59c0-53.601,16.292-105.11,47.114-148.961
						c30.824-43.853,73.775-76.624,124.211-94.771c0.032-0.012,0.064-0.023,0.097-0.035l178.954-63.519l22.013-108.646
						c2.035-11.193,11.833-19.683,23.612-19.683c13.255,0,24,10.74,24,23.995v0.01c0,1.601-0.16,3.197-0.478,4.766l-24.8,122.4
						c-1.673,8.259-7.555,15.035-15.496,17.853l-191.713,68.047C632.862,1181.922,576.8,1261.702,576.8,1350.41V1744h894.4v-393.59
						c0-88.714-56.066-168.497-139.525-198.55l-191.7-68.042c-7.941-2.818-13.823-9.594-15.497-17.853l-24.8-122.4
						c-0.317-1.568-0.478-3.165-0.478-4.766c0-13.255,10.745-24.005,24-24.005c11.81,0,21.626,8.524,23.627,19.757l21.998,108.571
						l178.953,63.519c0.033,0.012,0.065,0.023,0.098,0.035c50.436,18.147,93.387,50.919,124.21,94.771
						c30.822,43.851,47.114,95.36,47.114,148.961V1768C1519.2,1781.255,1508.455,1792,1495.2,1792z"/>
				</g>
				<g>
					<path style="fill:#212121;" d="M1024,861.947c-25.2,0-50.393-9.586-69.578-28.764c-9.374-9.371-9.377-24.567-0.006-33.941
						c9.372-9.374,24.568-9.375,33.941-0.006c19.654,19.646,51.631,19.646,71.285,0c9.375-9.371,24.57-9.369,33.941,0.006
						c9.371,9.374,9.368,24.57-0.006,33.941C1074.397,852.357,1049.194,861.947,1024,861.947z"/>
				</g>
				<g>
					<path style="fill:#212121;" d="M949.6,688.4H900c-13.255,0-24-10.745-24-24s10.745-24,24-24h49.6c13.255,0,24,10.745,24,24
						S962.855,688.4,949.6,688.4z"/>
				</g>
				<g>
					<path style="fill:#212121;" d="M1148,688.4h-49.6c-13.255,0-24-10.745-24-24s10.745-24,24-24h49.6c13.255,0,24,10.745,24,24
						S1161.255,688.4,1148,688.4z"/>
				</g>
				<g>
					<path style="fill:#212121;" d="M1346.4,1792c-13.255,0-24-10.745-24-24v-337.403c-22.878-24.162-40.923-51.992-53.696-82.831
						c-13.738-33.168-20.704-68.188-20.704-104.086v-138.79c0-13.255,10.745-24,24-24s24,10.745,24,24v138.79
						c0,59.83,23.297,116.077,65.601,158.38l1.766,1.765c4.504,4.502,7.034,10.608,7.034,16.976V1768
						C1370.4,1781.255,1359.655,1792,1346.4,1792z"/>
				</g>
				<g>
					<path style="fill:#212121;" d="M701.6,1792c-13.255,0-24-10.745-24-24v-347.2c0-6.366,2.529-12.472,7.032-16.973l1.77-1.77
						C728.703,1359.757,752,1303.51,752,1243.68v-138.79c0-13.255,10.745-24,24-24s24,10.745,24,24v138.79
						c0,35.898-6.966,70.918-20.704,104.086c-12.775,30.841-30.82,58.671-53.696,82.83V1768C725.6,1781.255,714.855,1792,701.6,1792
						z"/>
				</g>
				<g>
					<path style="fill:#212121;" d="M1024,1345.6c-46.16,0-89.552-17.979-122.184-50.623
						c-32.638-32.625-50.616-76.018-50.616-122.177V1070c0-13.255,10.745-24,24-24s24,10.745,24,24v102.8
						c0,33.335,12.983,64.671,36.557,88.236c23.571,23.581,54.908,36.563,88.243,36.563c68.814,0,124.8-55.985,124.8-124.8V1070
						c0-13.255,10.745-24,24-24s24,10.745,24,24v102.8C1196.8,1268.082,1119.282,1345.6,1024,1345.6z"/>
				</g>
				<g>
					<path style="fill:#212121;" d="M1247.178,601.604c-4.039,0-8.132-1.021-11.89-3.168c-11.507-6.579-15.502-21.24-8.923-32.747
						l10.479-18.33c33.246-58.193,28.715-130.324-11.527-183.854c-3.163-4.067-5.048-9.177-5.048-14.725c0-13.255,10.745-24,24-24
						c6.336,0,12.1,2.456,16.39,6.467c1.005,0.938,1.935,1.969,2.777,3.085c51.999,68.896,57.919,161.863,15.082,236.843
						l-10.483,18.336C1263.605,597.261,1255.508,601.604,1247.178,601.604z M1268.27,348.78h0.01H1268.27z"/>
				</g>
			</g>
		</g>
	</g>
</g>
<g id="Layer_1">
</g>
</svg>
