<?xml version="1.0" encoding="iso-8859-1"?>
<!-- Generator: Adobe Illustrator 25.2.0, SVG Export Plug-In . SVG Version: 6.00 Build 0)  -->
<svg version="1.1" xmlns="http://www.w3.org/2000/svg" xmlns:xlink="http://www.w3.org/1999/xlink" x="0px" y="0px"
	 viewBox="0 0 2048 2048" style="enable-background:new 0 0 2048 2048;" xml:space="preserve">
<g id="_x32_664.S2_-_Muscular_Person">
	<g>
		<g id="XMLID_42_">
			<g>
				<g>
					<path style="fill:#F0C894;" d="M673.91,1210.72c0,0-24.59,59.81-73.57,141.45c0,0,10.75,162.73-33.65,258.72
						c-82.78-64.59-151.03-145.91-200.28-238.65c1.74-83.18,19.62-210.06,96.8-333.55c0,0-86.55-161.63-11.43-308.57
						C526.91,583.18,681.99,548.9,681.99,548.9s70.21-91.43,174.71-158.37v-91.64c110.12-25.19,224.51-25.19,334.63,0v91.64
						c104.49,66.94,174.7,158.37,174.7,158.37s155.12,34.28,230.2,181.22c75.09,146.94-11.43,308.57-11.43,308.57
						c77.18,123.49,95.07,250.39,96.79,333.55c-49.26,92.75-117.52,174.06-200.33,238.65c-44.4-95.99-33.64-258.72-33.64-258.72
						c-48.98-81.64-73.53-141.45-73.53-141.45s1.24,84.73-14.63,126.75c-15.37,40.68-15.67,94.02-4.74,137.02
						c6.94,27.36,12.43,55.06,16.45,83c1.71,11.97,2.52,24.04,2.43,36.13l-0.68,87.59c-218.24,115.72-479.65,115.72-697.88,0
						l-0.68-87.59c-0.1-12.09,0.71-24.16,2.42-36.13c4.02-27.94,9.51-55.64,16.45-83c10.91-43,11.41-96.98-4.73-137.02
						C671.7,1295.81,673.91,1210.72,673.91,1210.72z"/>
				</g>
			</g>
			<g>
				<g>
					<path style="fill:#212121;" d="M1023.977,1792c-125.106,0-249.654-30.979-360.18-89.587c-7.79-4.131-12.687-12.2-12.756-21.017
						l-0.68-87.59c-0.109-13.223,0.786-26.587,2.661-39.711c4.126-28.681,9.827-57.441,16.946-85.507
						c10.68-42.092,9.217-90.037-3.726-122.146c-4.931-12.228-8.404-27.196-10.844-42.706c-8.793,16.44-19.025,34.763-30.698,54.445
						c1.591,34.263,5.124,173.388-36.227,262.783c-3.075,6.648-9.018,11.528-16.137,13.251c-7.12,1.723-14.635,0.103-20.41-4.404
						c-42.521-33.178-81.661-70.948-116.333-112.262c-34.674-41.317-65.083-86.419-90.378-134.053
						c-1.921-3.617-2.884-7.665-2.798-11.759c1.772-84.749,19.63-210.498,93.498-334.394c-7.79-17.158-21.241-50.504-30.084-92.941
						c-7.558-36.272-10.216-71.84-7.899-105.717c2.932-42.866,13.859-83.068,32.479-119.491
						c32.885-64.315,85.768-118.167,152.933-155.734c37.657-21.062,70.02-31.595,84.862-35.771
						c17.764-21.808,78.607-92.54,164.495-150.123V298.89c0-11.193,7.737-20.9,18.648-23.396
						c56.555-12.937,114.648-19.497,172.666-19.497s116.111,6.56,172.667,19.497c10.911,2.496,18.648,12.203,18.648,23.396v78.677
						c85.874,57.58,146.716,128.309,164.485,150.122c14.845,4.176,47.215,14.709,84.875,35.771
						c67.172,37.568,120.048,91.421,152.912,155.739c18.611,36.421,29.534,76.623,32.465,119.488
						c2.315,33.875-0.342,69.443-7.897,105.715c-8.841,42.436-22.287,75.783-30.074,92.94
						c73.895,123.938,91.737,249.675,93.489,334.401c0.084,4.093-0.879,8.139-2.799,11.753
						c-25.302,47.64-55.716,92.743-90.397,134.059c-34.679,41.311-73.831,79.08-116.368,112.258
						c-5.774,4.505-13.288,6.126-20.409,4.402c-7.118-1.724-13.06-6.604-16.135-13.251c-41.35-89.396-37.81-228.521-36.216-262.784
						c-11.813-19.922-22.148-38.446-31.01-55.041c-2.375,15.512-5.698,30.521-10.339,42.81
						c-12.748,33.74-14.291,81.874-3.932,122.629c7.122,28.076,12.822,56.837,16.944,85.494c1.875,13.123,2.773,26.481,2.674,39.729
						l-0.68,87.596c-0.068,8.817-4.966,16.887-12.756,21.018C1273.632,1761.021,1149.082,1792,1023.977,1792z M698.927,1666.553
						c204.593,103.404,445.502,103.404,650.106,0l0.567-73.119c0.081-10.856-0.655-21.81-2.189-32.549
						c-3.88-26.97-9.249-54.059-15.955-80.493c-12.812-50.407-10.686-108.426,5.553-151.404
						c11.667-30.891,13.4-95.597,13.083-117.922c-0.163-11.527,7.893-21.545,19.187-23.855c11.292-2.311,22.63,3.728,27.011,14.388
						l0,0c0,0.001,0,0.001,0,0.001l0,0c0.27,0.655,24.605,59.376,71.911,138.224c2.516,4.192,3.69,9.053,3.367,13.932
						c-0.092,1.399-7.896,127.229,20.26,217.538c67.519-57.657,123.118-126.396,165.609-204.797
						c-2.444-81.199-20.916-199.768-92.989-315.085c-4.557-7.292-4.865-16.465-0.807-24.047c0.188-0.353,20.559-39.081,31.82-94.119
						c14.726-71.969,7.794-136.636-20.602-192.203c-69.134-135.302-212.567-168.388-214.008-168.707
						c-5.512-1.218-10.418-4.34-13.856-8.817c-0.671-0.872-69.129-89.047-168.611-152.779c-6.888-4.412-11.054-12.029-11.054-20.208
						v-72.247c-94.155-18.9-192.474-18.899-286.63,0v72.248c0,8.18-4.167,15.797-11.055,20.209
						c-99.812,63.938-167.943,151.897-168.62,152.778c-3.438,4.477-8.344,7.599-13.855,8.817
						c-0.318,0.072-37.052,8.528-81.797,33.808c-59.016,33.342-103.503,78.73-132.225,134.904
						c-28.406,55.564-35.341,120.229-20.611,192.197c11.265,55.037,31.643,93.765,31.847,94.15
						c4.024,7.571,3.722,16.747-0.823,24.017c-72.046,115.276-90.534,233.864-92.997,315.088
						c42.483,78.394,98.068,147.131,165.56,204.788c28.157-90.311,20.359-216.135,20.267-217.541
						c-0.319-4.873,0.855-9.735,3.368-13.923c47.338-78.902,71.716-137.652,71.957-138.237c4.41-10.701,15.831-16.736,27.157-14.342
						c11.326,2.396,19.329,12.528,19.028,24.1c-0.567,22.305,0.636,86.846,12.856,117.151c20.034,49.7,16.098,111.053,5.734,151.898
						c-6.705,26.434-12.074,53.522-15.958,80.516c-1.533,10.728-2.266,21.675-2.176,32.514L698.927,1666.553z M1372.92,1681.21h0.01
						H1372.92z"/>
				</g>
				<g>
					<path style="fill:#212121;" d="M977.342,744.592c-7.756,0-15.366-3.752-19.991-10.69
						c-38.884-58.326-142.397-59.329-143.438-59.333c-13.24-0.042-23.964-10.798-23.942-24.038
						c0.021-13.24,10.741-23.962,23.98-23.962c5.289,0,130.146,0.917,183.339,80.707c7.353,11.029,4.372,25.93-6.656,33.282
						C986.541,743.287,981.916,744.592,977.342,744.592z"/>
				</g>
				<g>
					<path style="fill:#212121;" d="M1070.657,744.592c-4.574,0-9.198-1.305-13.29-4.033c-11.029-7.353-14.009-22.253-6.656-33.282
						c53.193-79.79,178.05-80.707,183.339-80.707c13.255,0,24,10.745,24,24c0,13.247-10.731,23.987-23.975,24
						c-1.685,0.01-104.665,1.192-143.427,59.333C1086.024,740.839,1078.413,744.592,1070.657,744.592z"/>
				</g>
				<g>
					<path style="fill:#212121;" d="M1024.012,931.3c-0.21,0-0.42-0.002-0.631-0.008c-13.25-0.342-23.715-11.361-23.373-24.611
						l3.01-116.69c0.343-13.25,11.388-23.708,24.611-23.374c13.25,0.342,23.715,11.36,23.373,24.611l-3.01,116.69
						C1047.655,920.958,1036.979,931.3,1024.012,931.3z"/>
				</g>
				<g>
					<path style="fill:#212121;" d="M810.187,1102.847c-27.356,0-52.987-4.715-76.833-14.163
						c-100.242-39.716-128.263-147.647-129.406-152.223c-3.215-12.859,4.603-25.89,17.462-29.104
						c12.84-3.207,25.844,4.577,29.087,17.396l0,0c0.059,0.229,6.041,23.16,21.935,49.492c20.444,33.869,47.021,57.41,78.995,69.969
						c66.083,25.959,153.424,4.513,259.595-63.741c11.148-7.167,25.998-3.94,33.167,7.209c7.167,11.15,3.939,25.999-7.21,33.167
						C952.064,1075.438,876.128,1102.847,810.187,1102.847z"/>
				</g>
				<g>
					<path style="fill:#212121;" d="M1237.813,1102.847c-65.946,0-141.87-27.404-226.792-81.999
						c-11.149-7.167-14.377-22.017-7.21-33.167c7.168-11.149,22.017-14.377,33.167-7.209
						c106.388,68.394,193.859,89.786,259.988,63.586c77.586-30.741,100.299-118.358,100.52-119.239
						c3.214-12.86,16.249-20.676,29.104-17.463c12.859,3.215,20.678,16.246,17.463,29.104
						c-1.144,4.575-29.164,112.506-129.405,152.223C1290.805,1098.13,1265.163,1102.847,1237.813,1102.847z"/>
				</g>
				<g>
					<path style="fill:#212121;" d="M860.62,1281.39c-13.255,0-24-10.745-24-24c0-26.729,12.425-64.802,71.618-94.396
						c31.685-15.841,63.055-22.224,64.375-22.488c13-2.601,25.642,5.83,28.241,18.827c2.598,12.986-5.814,25.62-18.793,28.234l0,0
						c-25.279,5.132-97.44,28.976-97.44,69.822C884.62,1270.645,873.875,1281.39,860.62,1281.39z"/>
				</g>
				<g>
					<path style="fill:#212121;" d="M1187.38,1281.39c-13.255,0-24-10.745-24-24c0-19.191-15.168-36.506-45.082-51.462
						c-26-12.999-52.064-18.302-52.325-18.354c-12.997-2.6-21.427-15.243-18.827-28.241c2.6-12.997,15.244-21.423,28.241-18.827
						c1.319,0.265,32.69,6.647,64.375,22.488c59.193,29.594,71.618,67.667,71.618,94.396
						C1211.38,1270.645,1200.635,1281.39,1187.38,1281.39z"/>
				</g>
				<g>
					<path style="fill:#212121;" d="M977.32,1561.47c-81.922,0-134.472-77.411-136.669-80.707
						c-7.353-11.028-4.372-25.93,6.656-33.281c11.011-7.342,25.881-4.382,33.246,6.602c0.561,0.826,40.869,59.387,96.767,59.387
						c13.255,0,24,10.745,24,24S990.575,1561.47,977.32,1561.47z"/>
				</g>
				<g>
					<path style="fill:#212121;" d="M1070.68,1561.47c-13.255,0-24-10.745-24-24s10.745-24,24-24
						c56.011,0,96.369-58.797,96.771-59.392c7.353-11.026,22.234-13.979,33.262-6.627c11.029,7.353,13.989,22.283,6.637,33.312
						C1205.152,1484.059,1152.603,1561.47,1070.68,1561.47z"/>
				</g>
				<g>
					<path style="fill:#212121;" d="M950.747,1405.926c-13.183,0-26.885-1.912-41.009-5.764
						c-36.098-9.845-62.415-29.385-63.518-30.212c-10.604-7.953-12.753-22.996-4.8-33.601c7.939-10.587,22.948-12.747,33.55-4.837
						c0.57,0.418,21.321,15.509,48.622,22.668c33.606,8.811,60.897,2.138,83.437-20.401c9.372-9.371,24.569-9.372,33.941,0
						c9.372,9.373,9.372,24.568,0,33.941C1015.653,1393.038,984.961,1405.926,950.747,1405.926z"/>
				</g>
				<g>
					<path style="fill:#212121;" d="M1097.253,1405.926c-34.218,0-64.904-12.886-90.224-38.205c-9.372-9.373-9.372-24.568,0-33.941
						c9.373-9.373,24.568-9.373,33.941,0c22.54,22.54,49.83,29.213,83.437,20.401c27.547-7.224,48.426-22.522,48.633-22.676
						c10.604-7.952,25.617-5.78,33.57,4.822c7.952,10.604,5.773,25.67-4.83,33.623c-1.104,0.827-27.421,20.367-63.519,30.212
						C1124.142,1404.013,1110.433,1405.926,1097.253,1405.926z"/>
				</g>
				<g>
					<path style="fill:#212121;" d="M767.27,1281.39c-24.18,0-50.253-9.207-77.496-27.364
						c-19.261-12.838-32.288-25.788-32.833-26.333c-9.374-9.372-9.375-24.568-0.003-33.941c9.36-9.364,24.531-9.375,33.908-0.037
						l0,0c11.126,11.036,46.544,39.676,76.424,39.676c13.255,0,24,10.745,24,24S780.525,1281.39,767.27,1281.39z"/>
				</g>
				<g>
					<path style="fill:#212121;" d="M1280.73,1281.39c-13.255,0-24-10.745-24-24s10.745-24,24-24
						c29.99,0,66.104-29.357,76.391-39.643c9.373-9.372,24.568-9.369,33.941,0.004c9.371,9.373,9.37,24.569-0.004,33.941
						c-0.545,0.545-13.572,13.495-32.833,26.333C1330.983,1272.183,1304.91,1281.39,1280.73,1281.39z"/>
				</g>
			</g>
		</g>
	</g>
</g>
<g id="Layer_1">
</g>
</svg>
