<?xml version="1.0" encoding="iso-8859-1"?>
<!-- Generator: Adobe Illustrator 25.2.0, SVG Export Plug-In . SVG Version: 6.00 Build 0)  -->
<svg version="1.1" xmlns="http://www.w3.org/2000/svg" xmlns:xlink="http://www.w3.org/1999/xlink" x="0px" y="0px"
	 viewBox="0 0 2048 2048" style="enable-background:new 0 0 2048 2048;" xml:space="preserve">
<g id="_x32_665.S2_-_Yoga_Pose_I">
	<g>
		<g id="XMLID_43_">
			<g>
				<g>
					<path style="fill:#898890;" d="M1101.58,1458.51v228.84c-62.9,0-113.88-50.99-113.88-113.88v-215.85l3.61-12.92
						c30.01,0.92,57.1,13.47,76.91,33.28C1088.83,1398.59,1101.58,1427.06,1101.58,1458.51z"/>
				</g>
				<g>
					<path style="fill:#898890;" d="M994.95,1331.67l-3.64,13.03l-3.61,12.92l-17.95,64.23c-22.57,61.81-89.16,95.58-152.36,77.25
						c-14.24-4.14-27.58-10.92-39.32-19.98c-12.97-10.02-23.77-22.56-31.75-36.88c-13.66-24.68-18.41-53.15-13.73-80.7h0.01
						l134.01,27.14L994.95,1331.67z"/>
				</g>
				<g>
					<path style="fill:#F0C894;" d="M1036.11,1104.22l44.43,1.65c-5.53,17.85-13.18,35.06-22.83,51.25l-26.3,44.09l-36.46,130.46
						l-128.34,57.01l-134.01-27.14h-0.01c0.74-4.34,1.71-8.66,2.92-12.94l4.75-17.03l-19.43-82.86l48-19.31l17.1-61.09
						c3.88-14.32,18.58-22.84,32.93-19.08l62.95,7.92l9.84-58.3h0.01l112.28,4.17h0.01c5.98,1.65,12.23,2.52,18.65,2.52
						c4.55,0,9.06-0.44,13.5-1.32H1036.11z"/>
				</g>
				<g>
					<path style="fill:#F0C894;" d="M691.77,1707.13c12.14,7.3,18.22,21.56,15.1,35.37c-3.72,15.13-17.38,25.7-32.97,25.5H519.54
						c-32.97,0-58.95-28.08-56.38-60.95l49.24-631.74c0-33.38-24.24-78.67-33.96-110.22c-20.11-65.31-42.19-131.26-61.62-197.87
						l184.32,26.45l33.85,281.64l-17.64,333.52l-37.95,230.89L691.77,1707.13z"/>
				</g>
				<g>
					<path style="fill:#F0C894;" d="M1679.42,606.47v71.3l-126.11,47.53l-252.22,166.36l-212.74,180.41l-18.46,15.65
						c-10,8.48-21.59,14.11-33.78,16.5h-0.01l-32.15-1.2h-0.01c-14.27-3.91-27.02-12.22-37.07-23.58
						c-14.27-16.13-23.09-38.41-23.09-63.02v-1.75c0-31.98,15.16-61.51,39.72-77.38l92.14-59.54l162.4-104.92l273.24-142.59
						l63.05-95.06h63.05L1679.42,606.47z"/>
				</g>
				<g>
					<path style="fill:#F0C894;" d="M1004.33,667.71L783.3,759.67v-120.5l-81.06-57.26l157.65-130.73
						c44.77,62.72,100.16,127.85,132.34,191.74C996.38,651.18,1000.42,659.44,1004.33,667.71z"/>
				</g>
				<g>
					<path style="fill:#FFDC4A;" d="M1075.64,877.75l-92.14,59.54c-24.56,15.87-39.72,45.4-39.72,77.38v1.75
						c0,24.61,8.82,46.89,23.09,63.02c10.05,11.36,22.8,19.67,37.07,23.58l-112.28-4.17h-0.01l0.01-0.08l-37.46-32.22l-34.7-20.84
						c-64.96-38.99-88.96-121.41-55.09-189.18l18.89-37.77v-59.09l221.03-91.96h0.01c0.44,0.93,0.88,1.86,1.32,2.79
						c20.02,42.12,36.92,85.65,50.58,130.23c1.47,4.85,2.88,9.69,4.26,14.53C1066.39,835.9,1071.44,856.74,1075.64,877.75z"/>
				</g>
				<g>
					<path style="fill:#FFDC4A;" d="M859.89,451.18L702.24,581.91l-48.39-34.19l-77.45,40.14l24.74,205.81l-184.32-26.45
						c-12.36-42.41-23.66-85.08-32.68-128.05c-5.87-27.96-10.59-56.09-13.7-84.4c-11.61-105.09,31.37-193.6,125.51-243.98
						C533.73,290.57,575.92,280,618.77,280c81.17,0,142.77,22.8,198.89,107.01c3.44,5.1,6.8,10.43,10.17,16.01
						C837.41,418.87,848.29,434.94,859.89,451.18z"/>
				</g>
			</g>
			<g>
				<g>
					<path style="fill:#212121;" d="M1075.614,901.755c-11.207,0-21.229-7.891-23.509-19.301
						c-4.051-20.266-8.991-40.657-14.685-60.608c-1.498-5.254-2.854-9.882-4.149-14.155
						c-13.263-43.282-29.853-85.997-49.288-126.887l-1.335-2.822c-5.672-11.979-0.559-26.29,11.421-31.962
						c11.98-5.673,26.29-0.559,31.962,11.421l1.32,2.79c20.422,42.967,37.867,87.883,51.836,133.469
						c1.394,4.599,2.823,9.476,4.393,14.98c6.045,21.182,11.292,42.84,15.594,64.367c2.599,12.998-5.833,25.64-18.83,28.238
						C1078.756,901.602,1077.173,901.755,1075.614,901.755z"/>
				</g>
				<g>
					<path style="fill:#212121;" d="M674.353,1792.003c-0.19,0-0.38-0.001-0.57-0.003H519.54c-22.387,0-43.943-9.425-59.142-25.858
						c-15.195-16.43-22.91-38.649-21.165-60.963l49.159-630.708c-0.314-18.163-10.692-44.181-19.865-67.178
						c-4.967-12.453-9.659-24.215-13.023-35.137c-7.647-24.834-15.744-50.278-23.575-74.884
						c-12.811-40.253-26.057-81.876-38.149-123.332c-14.324-49.149-24.85-90.405-33.128-129.841
						c-6.412-30.543-11.014-58.906-14.068-86.709c-6.353-57.503,2.242-109.986,25.547-155.976
						c23.799-46.964,61.648-84.574,112.495-111.786c41.106-22,87.493-33.629,134.144-33.629c48.09,0,86.076,7.768,119.543,24.446
						c37.428,18.651,69.902,49.135,99.272,93.185c3.438,5.099,6.967,10.654,10.789,16.982c8.338,13.795,18.494,29.046,31.046,46.618
						c12.506,17.52,26.213,35.71,39.47,53.302c34.778,46.151,70.74,93.874,94.775,141.591c4.368,8.695,8.523,17.209,12.362,25.328
						c5.665,11.983,0.544,26.29-11.438,31.956c-11.985,5.666-26.291,0.543-31.956-11.438c-3.676-7.774-7.662-15.941-11.849-24.274
						c-22.083-43.845-56.727-89.817-90.229-134.275c-13.439-17.835-27.337-36.277-40.199-54.296
						c-13.266-18.573-24.083-34.828-33.065-49.689c-3.418-5.66-6.533-10.565-9.528-15.004c-0.024-0.037-0.049-0.074-0.074-0.111
						C744.415,320.38,687.634,304,618.77,304c-38.776,0-77.331,9.665-111.495,27.95c-83.601,44.74-123.724,122.936-112.98,220.185
						c2.883,26.251,7.245,53.103,13.333,82.104c8.02,38.207,18.262,78.329,32.233,126.266
						c11.928,40.89,25.084,82.231,37.807,122.211c7.865,24.711,15.997,50.265,23.709,75.311c2.793,9.067,7.136,19.956,11.734,31.483
						c10.916,27.367,23.288,58.386,23.288,85.799c0,0.623-0.024,1.245-0.073,1.865l-49.239,631.74
						c-0.716,9.153,2.32,17.9,8.55,24.636c6.232,6.738,14.721,10.449,23.902,10.449H673.9c0.145,0,0.292,0.003,0.434,0.003
						c4.317,0,8.045-2.854,9.172-7.009c0.732-3.655-0.898-7.369-4.104-9.296l-112.349-67.397
						c-8.439-5.062-12.932-14.764-11.336-24.474l37.736-229.585l17.46-330.128l-33.603-279.58l-24.74-205.81
						c-1.194-9.935,3.901-19.568,12.785-24.172l77.45-40.14c7.965-4.128,17.565-3.47,24.893,1.707l129.448,91.448
						c6.367,4.498,10.153,11.807,10.153,19.603v179.59c0,3.727-0.868,7.402-2.535,10.735l-18.89,37.77
						c-28.083,56.19-7.89,125.537,45.976,157.867l34.706,20.843c1.163,0.699,2.265,1.495,3.293,2.379l37.46,32.22
						c6.116,5.26,9.18,13.242,8.155,21.243c-0.041,0.316-0.098,0.712-0.15,1.026l-9.84,58.301
						c-2.14,12.684-13.903,21.422-26.661,19.818l-62.95-7.92c-1.041-0.131-2.073-0.33-3.088-0.597
						c-1.596-0.418-3.247,0.542-3.681,2.14c-0.017,0.064-0.035,0.129-0.053,0.193l-17.1,61.09
						c-2.009,7.179-7.239,13.016-14.155,15.797l-28.888,11.621l14.727,62.804c0.922,3.934,0.837,8.036-0.249,11.928l-4.75,17.029
						c-0.984,3.481-1.777,6.996-2.379,10.527c-3.774,22.219,0.157,45.324,11.07,65.043c6.396,11.477,14.961,21.426,25.425,29.51
						c9.396,7.251,19.946,12.611,31.347,15.926c50.575,14.667,104.345-12.37,122.811-61.611l61.396-219.692
						c0.572-2.047,1.414-4.01,2.503-5.835l26.3-44.09c8.63-14.479,15.534-29.978,20.517-46.058
						c3.079-9.948,5.44-20.166,7.016-30.363c2.024-13.099,14.283-22.076,27.384-20.053c13.1,2.025,22.078,14.285,20.054,27.384
						c-1.934,12.512-4.828,25.038-8.602,37.23c-6.106,19.71-14.564,38.698-25.142,56.442l-24.663,41.347l-60.798,217.555
						c-0.167,0.598-0.357,1.188-0.57,1.771c-13.01,35.63-38.805,64.699-72.634,81.852c-33.832,17.153-72.527,20.781-108.955,10.217
						c-17.207-5.002-33.115-13.085-47.297-24.029c-15.644-12.086-28.443-26.953-38.052-44.196
						c-16.197-29.266-22.019-63.48-16.427-96.403c0.891-5.222,2.062-10.414,3.486-15.449l3.073-11.018l-18.024-76.864
						c-2.706-11.538,3.415-23.322,14.409-27.745l37.032-14.897l13.9-49.657c7.197-26.261,33.994-42.227,60.371-36.306l38.799,4.882
						l3.769-22.331l-25.648-22.061l-32.952-19.79c-36.611-21.975-63.353-56.66-75.293-97.662
						c-11.939-41.002-8-84.621,11.091-122.822l16.358-32.708V651.601l-107.372-75.853l-49.714,25.765l22.755,189.292l33.85,281.641
						c0.165,1.371,0.211,2.753,0.138,4.131l-17.64,333.52c-0.046,0.88-0.141,1.756-0.284,2.625l-35.306,214.803l98.39,59.023
						c21.072,12.671,31.578,37.276,26.164,61.24c-0.034,0.147-0.068,0.295-0.104,0.441
						C723.815,1774.099,700.923,1792.002,674.353,1792.003z"/>
				</g>
				<g>
					<path style="fill:#212121;" d="M1036.084,1128.225c-6.356,0-12.327-2.537-16.723-6.812c-5.829,4.879-13.874,6.915-21.762,4.755
						c-18.508-5.07-35.35-15.729-48.705-30.824c-18.775-21.223-29.115-49.251-29.115-78.923v-1.75
						c0-39.958,19.425-77.332,50.695-97.538l92.14-59.54l162.402-104.921c0.622-0.402,1.263-0.775,1.92-1.118l267.76-139.73
						l59.633-89.908c4.447-6.704,11.956-10.734,20.001-10.734h63.05c8.495,0,16.357,4.491,20.673,11.809l42.04,71.29
						c2.179,3.693,3.327,7.903,3.327,12.191v71.3c0,9.99-6.188,18.935-15.536,22.458l-123.6,46.583L1315.51,910.899l-230.1,195.127
						c-13.029,11.049-28.481,18.569-44.683,21.745C1039.169,1128.077,1037.614,1128.225,1036.084,1128.225z M1250.13,793.593
						l-161.467,104.316l-92.138,59.539c-17.731,11.458-28.746,33.384-28.746,57.222v1.75c0,17.945,6.061,34.678,17.065,47.118
						c7.156,8.088,15.951,13.736,25.436,16.335c4.062,1.112,7.593,3.205,10.408,5.951c3.007-2.525,6.677-4.347,10.804-5.156
						c8.173-1.602,16.083-5.493,22.874-11.252l231.2-196.06c0.734-0.623,1.505-1.2,2.308-1.73l252.22-166.36
						c1.489-0.982,3.082-1.795,4.751-2.424l110.574-41.674V613.02l-31.749-53.839h-36.46l-55.93,84.326
						c-2.241,3.379-5.303,6.135-8.897,8.011L1250.13,793.593z"/>
				</g>
				<g>
					<path style="fill:#212121;" d="M1022.6,1129.54c-8.473,0-16.896-1.139-25.035-3.386c-12.777-3.526-20.276-16.743-16.749-29.521
						c3.526-12.777,16.744-20.274,29.521-16.749c6.826,1.884,14.175,2.165,21.098,0.793c13.005-2.575,25.631,5.875,28.208,18.876
						c2.577,13.002-5.874,25.631-18.876,28.208C1034.812,1128.941,1028.7,1129.54,1022.6,1129.54z"/>
				</g>
				<g>
					<path style="fill:#212121;" d="M783.31,783.676c-9.405,0-18.331-5.562-22.168-14.787c-5.092-12.238,0.702-26.286,12.939-31.378
						l221.031-91.96c2.921-1.215,6.055-1.841,9.219-1.841c13.255,0,24.005,10.745,24.005,24c0,10.231-6.4,18.968-15.416,22.421
						l-220.4,91.698C789.506,783.082,786.381,783.676,783.31,783.676z"/>
				</g>
				<g>
					<path style="fill:#212121;" d="M702.253,605.911c-6.896,0-13.741-2.957-18.488-8.681c-8.461-10.203-7.048-25.333,3.155-33.794
						l157.65-130.73c10.204-8.46,25.333-7.048,33.794,3.155c8.46,10.203,7.048,25.333-3.155,33.794l-157.65,130.73
						C713.081,604.099,707.651,605.911,702.253,605.911z"/>
				</g>
				<g>
					<path style="fill:#212121;" d="M866.609,1412.68c-1.591,0-3.187-0.158-4.763-0.478l-134.01-27.14
						c-12.991-2.631-21.39-15.295-18.759-28.286s15.296-21.393,28.286-18.759l126.503,25.619l121.34-53.9
						c3.067-1.362,6.387-2.066,9.743-2.066c13.255,0,24.005,10.745,24.005,24c0,10.03-6.149,18.623-14.886,22.211l-127.716,56.732
						C873.27,1411.982,869.948,1412.68,866.609,1412.68z"/>
				</g>
				<g>
					<path style="fill:#212121;" d="M1101.58,1711.35c-76.027,0-137.88-61.853-137.88-137.88v-215.85
						c0-4.649,1.322-8.99,3.611-12.666c-0.003-0.328,0-0.658,0.01-0.989c0.406-13.249,11.488-23.677,24.724-23.253
						c35.158,1.077,68.237,15.389,93.145,40.299c26.046,26.044,40.39,60.67,40.39,97.499v228.84
						C1125.58,1700.604,1114.835,1711.35,1101.58,1711.35z M1011.7,1371.87v201.6c0,41.251,27.936,76.101,65.88,86.627V1458.51
						c0-24.008-9.351-46.58-26.33-63.559C1040.134,1383.835,1026.525,1375.957,1011.7,1371.87z"/>
				</g>
				<g>
					<path style="fill:#212121;" d="M601.17,817.673c-1.135,0-2.283-0.081-3.439-0.246l-184.32-26.45
						c-13.12-1.883-22.23-14.045-20.348-27.166s14.048-22.229,27.166-20.348l184.32,26.45c13.12,1.883,22.23,14.045,20.348,27.166
						C623.18,809.043,612.915,817.673,601.17,817.673z"/>
				</g>
				<g>
					<path style="fill:#212121;" d="M1104.37,1109.99c0.14-5.86-1.84-11.3-5.27-15.57c-4.11-5.15-10.33-8.58-17.43-8.97l-20.15-1.08
						l-24.25-1.31c-0.04,0-0.09,0-0.13-0.01l-32-1.72c-0.04-0.01-0.08-0.01-0.13-0.01l-68.95-3.72l-34.35-1.85l-8.78-0.47
						c-13.22-0.71-24.54,9.44-25.25,22.68c-0.67,12.3,8.06,22.93,19.91,24.94c0.9,0.16,1.82,0.26,2.76,0.31l21.34,1.15l90.86,4.9
						c0.04,0,0.08,0,0.12,0l32.01,1.73c0.04,0,0.09,0.01,0.13,0.01l9.59,0.52l25.91,1.39l8.78,0.47c0.3,0.02,0.6,0.03,0.9,0.03
						c8.27,0.14,15.69-3.94,20.11-10.32L1104.37,1109.99z"/>
				</g>
			</g>
		</g>
	</g>
</g>
<g id="Layer_1">
</g>
</svg>
