<?xml version="1.0" encoding="iso-8859-1"?>
<!-- Generator: Adobe Illustrator 25.2.0, SVG Export Plug-In . SVG Version: 6.00 Build 0)  -->
<svg version="1.1" xmlns="http://www.w3.org/2000/svg" xmlns:xlink="http://www.w3.org/1999/xlink" x="0px" y="0px"
	 viewBox="0 0 2048 2048" style="enable-background:new 0 0 2048 2048;" xml:space="preserve">
<g id="_x32_666.S2_-_Yoga_Pose_II">
	<g id="XMLID_44_">
		<g>
			<g>
				<polygon style="fill:#F0C894;" points="988.84,1316.68 988.84,1716.63 937.53,1767.94 860.57,1767.94 860.57,1742.28 
					904.01,1665.33 862.37,1316.68 				"/>
			</g>
			<g>
				<polygon style="fill:#F0C894;" points="1117.11,1742.28 1117.11,1767.94 1040.15,1767.94 988.84,1716.63 988.84,1316.68 
					1114.81,1316.68 1071.99,1665.33 				"/>
			</g>
			<g>
				<path style="fill:#898890;" d="M1185.59,373.11v98.93h-2.94c-50.59,0-91.75-40.37-93.02-90.65v-1.05
					c0-53.8-42.32-97.72-95.49-100.28h98.4C1143.93,280.06,1185.59,321.72,1185.59,373.11z"/>
			</g>
			<g>
				<path style="fill:#898890;" d="M1089.63,381.39v63.26c-45.29-25.68-83.79-79.02-83.79-79.02c-33.07,43.71-88.7,56-117.15,58.07
					v-43.36c0-53.82,42.34-97.74,95.53-100.28h9.92c53.17,2.56,95.49,46.48,95.49,100.28V381.39z"/>
			</g>
			<g>
				<polygon style="fill:#F0C894;" points="1113.39,1000 988.84,1000 864.29,1000 899.06,907.32 886.55,830.05 886.55,830.04 
					1091.77,830.04 1078.62,907.32 				"/>
			</g>
			<g>
				<path style="fill:#F0C894;" d="M1054.9,625.14l-4.49,26.61c-5.45,29.18-31.11,50.35-60.93,50.35s-55.47-21.17-60.92-50.35
					l-5.14-26.61h0.01l12.84-69.81c15.34,9.52,33.44,15.01,52.82,15.01h0.14c19.14,0,37.03-5.35,52.24-14.65l12.78,69.45H1054.9z"/>
			</g>
			<g>
				<path style="fill:#F5D3A6;" d="M936.27,555.33c-28.56-17.7-47.58-49.33-47.58-85.4V423.7c28.45-2.07,84.08-14.36,117.15-58.07
					c0,0,38.5,53.34,83.79,79.02v25.28c0,36.31-19.28,68.13-48.16,85.76c-15.21,9.3-33.1,14.65-52.24,14.65h-0.14
					C969.71,570.34,951.61,564.85,936.27,555.33z"/>
			</g>
			<g>
				<path style="fill:#F5D3A6;" d="M901.3,625.14l-22.13,91.07l-5.26,8.26l-0.03,0.06l-1.44,2.26c-2.28,3.5-4.25,7.13-5.91,10.84
					c0,0.01-0.01,0.02-0.01,0.03c-14.1,25.18-25.62,51.71-34.4,79.2l-48.1,150.64l-48.5,173.91l-31,56.51
					c-12.65,23.06-42.33,30.35-64.22,15.75c-12.95-8.62-19.99-22.84-19.99-37.36c0-4.06,0.55-8.16,1.68-12.15
					c1.13-4,2.84-7.91,5.15-11.6c25.31-51.02,46.12-104.13,62.18-158.77l32.99-112.12l38.8-194.64
					c7.06-35.92,38.81-61.89,75.35-61.89H901.3z"/>
			</g>
			<g>
				<path style="fill:#F5D3A6;" d="M1350.54,1152.56c4.62,7.39,6.83,15.62,6.83,23.75c0,14.52-7.04,28.74-19.99,37.36
					c-21.89,14.6-51.57,7.31-64.22-15.75l-31-56.51l-48.5-173.91l-48.1-150.64c-4.39-13.74-9.47-27.25-15.21-40.47
					c-5.08-11.7-10.68-23.18-16.8-34.39c-1.98-5.23-4.53-10.33-7.67-15.21l-6.73-10.58l-22.13-91.07h64.2
					c36.54,0,68.29,25.97,75.35,61.89l38.8,194.64l32.99,112.12c8.04,27.32,17.25,54.26,27.62,80.75
					C1326.35,1101.01,1337.89,1127.05,1350.54,1152.56z"/>
			</g>
			<g>
				<path style="fill:#FFDC4A;" d="M988.84,1000v316.68H862.37l-17.83-149.3c-1.6-14.43-2.57-28.54-2.57-42.97
					c0-38.79,6.42-77.6,18.6-114.48l3.72-9.93H988.84z"/>
			</g>
			<g>
				<path style="fill:#FFDC4A;" d="M1117.11,1009.93c16.99,50.67,22.44,104.54,16.03,157.45l-18.33,149.3H988.84V1000h124.55
					L1117.11,1009.93z"/>
			</g>
			<g>
				<path style="fill:#FFDC4A;" d="M1113.55,742c11.53,30.53,3.41,65.6-21.78,88.04H886.55c-26.36-23.49-34.04-61.08-20.03-92.38
					c0-0.01,0.01-0.02,0.01-0.03l7.35-13.1l0.03-0.06l5.26-8.26l22.13-91.07h22.12l5.14,26.61c5.45,29.18,31.1,50.35,60.92,50.35
					s55.48-21.17,60.93-50.35l4.49-26.61h22.12l22.13,91.07l6.73,10.58C1109.02,731.67,1111.57,736.77,1113.55,742z"/>
			</g>
		</g>
		<g>
			<g>
				<path style="fill:#212121;" d="M923.43,649.14c-13.255,0-24.005-10.745-24.005-24c0-1.724,0.182-3.407,0.527-5.027
					l12.714-69.124c0.188-1.024,0.443-2.036,0.763-3.027c4.068-12.614,17.597-19.558,30.214-15.488
					c11.786,3.802,18.612,15.846,16.139,27.7l-12.748,69.307C944.939,640.871,935.011,649.14,923.43,649.14z"/>
			</g>
			<g>
				<path style="fill:#212121;" d="M665.244,1245.199c-13.499,0.001-26.864-3.962-38.261-11.562
					c-19.2-12.78-30.673-34.216-30.673-57.327c0-6.338,0.871-12.627,2.589-18.69c1.647-5.833,4.071-11.438,7.208-16.669
					c24.431-49.386,44.68-101.17,60.187-153.928l32.689-111.096l38.59-193.588c9.242-47.022,50.835-81.198,98.887-81.198h64.84
					c13.255,0,24,10.745,24,24s-10.745,24-24,24h-64.84c-25.173,0-46.958,17.881-51.801,42.518l-38.812,194.704
					c-0.14,0.702-0.311,1.396-0.513,2.083l-32.99,112.12c-16.39,55.763-37.824,110.492-63.704,162.661
					c-0.351,0.708-0.737,1.398-1.156,2.068c-1.057,1.688-1.863,3.502-2.397,5.391c-0.517,1.824-0.776,3.711-0.776,5.625
					c0,7.013,3.472,13.51,9.289,17.382c4.939,3.294,10.812,4.328,16.554,2.918c5.747-1.408,10.479-5.042,13.326-10.232
					l29.668-54.082l47.756-171.242c0.08-0.286,0.165-0.57,0.255-0.853l48.1-150.64c9.254-28.976,21.475-57.111,36.322-83.625
					c6.476-11.564,21.101-15.691,32.667-9.214c11.565,6.476,15.69,21.102,9.214,32.667c-13.275,23.707-24.203,48.865-32.478,74.775
					l-47.964,150.214l-48.381,173.482c-0.494,1.772-1.191,3.482-2.076,5.096l-31,56.51c-9.257,16.876-25.287,29.184-43.979,33.766
					C676.198,1244.549,670.708,1245.199,665.244,1245.199z"/>
			</g>
			<g>
				<path style="fill:#212121;" d="M866.508,761.634c-3.977,0-8.007-0.99-11.722-3.074c-11.56-6.486-15.673-21.115-9.187-32.674
					l7.35-13.1c6.486-11.56,21.114-15.673,32.674-9.187c11.56,6.486,15.673,21.115,9.187,32.674l-7.35,13.1
					C883.059,757.218,874.906,761.634,866.508,761.634z"/>
			</g>
			<g>
				<path style="fill:#212121;" d="M1312.439,1245.199c-5.468,0-10.954-0.649-16.342-1.971
					c-18.692-4.583-34.723-16.89-43.979-33.767l-31-56.509c-0.885-1.613-1.581-3.323-2.076-5.096l-48.381-173.484l-47.964-150.213
					c-4.121-12.898-8.954-25.756-14.362-38.211c-4.807-11.071-10.14-21.988-15.851-32.449c-0.023-0.043-0.047-0.086-0.069-0.129
					c-0.71-1.32-1.438-2.639-2.175-3.95l-7.376-13.157c-0.159-0.284-0.312-0.572-0.46-0.862
					c-6.005-11.816-1.31-26.293,10.507-32.298c11.641-5.914,25.809-1.464,31.974,9.957l7.211,12.864
					c0.854,1.521,1.714,3.079,2.554,4.637c6.386,11.702,12.346,23.904,17.715,36.27c6.045,13.923,11.447,28.297,16.057,42.724
					l48.102,150.644c0.091,0.283,0.176,0.567,0.256,0.853l47.756,171.242l29.668,54.082c2.847,5.19,7.579,8.824,13.325,10.232
					c5.74,1.408,11.614,0.377,16.535-2.906c5.835-3.884,9.308-10.381,9.308-17.394c0-3.886-1.1-7.699-3.181-11.028
					c-0.417-0.667-0.801-1.354-1.15-2.06c-12.933-26.078-24.845-52.97-35.405-79.928c-10.562-26.979-20.082-54.812-28.297-82.728
					l-32.991-112.122c-0.201-0.686-0.373-1.381-0.513-2.083l-38.8-194.64c-4.854-24.7-26.641-42.582-51.813-42.582h-64.2
					c-13.255,0-24-10.745-24-24s10.745-24,24-24h64.2c48.051,0,89.645,34.175,98.9,81.261l38.577,193.525l32.688,111.09
					c7.824,26.586,16.89,53.091,26.944,78.775c9.926,25.339,21.109,50.623,33.247,75.167c6.411,10.701,9.794,22.895,9.794,35.352
					c0,23.111-11.474,44.547-30.691,57.339C1339.298,1241.239,1325.934,1245.199,1312.439,1245.199z"/>
			</g>
			<g>
				<path style="fill:#212121;" d="M1054.9,649.14h-0.65c-11.579,0-21.508-8.268-23.604-19.656l-12.72-69.118
					c-2.349-11.747,4.396-23.672,16.061-27.497c12.593-4.13,26.149,2.718,30.278,15.313l0.01,0.03
					c0.336,1.025,0.603,2.072,0.798,3.133l11.801,64.127c1.303,2.958,2.026,6.228,2.026,9.667
					C1078.9,638.395,1068.155,649.14,1054.9,649.14z"/>
			</g>
			<g>
				<path style="fill:#212121;" d="M1091.77,854.04H886.55c-5.888,0-11.571-2.165-15.967-6.082
					c-16.704-14.886-27.998-34.311-32.659-56.175c-4.598-21.567-2.344-43.529,6.519-63.543c0.059-0.138,0.119-0.275,0.18-0.413
					c2.169-4.847,4.738-9.566,7.637-14.029l1.13-1.774c0.091-0.151,0.183-0.3,0.275-0.444l3.122-4.903l21.19-87.203
					c2.614-10.759,12.25-18.333,23.321-18.333h22.12c11.5,0,21.383,8.157,23.564,19.448l5.14,26.61
					c0.009,0.048,0.019,0.097,0.028,0.146c3.328,17.822,19.027,30.756,37.328,30.756c18.246,0,33.905-12.85,37.304-30.579
					l4.451-26.375c1.948-11.551,11.951-20.007,23.665-20.007h22.119c11.072,0,20.707,7.574,23.321,18.333l21.192,87.209l4.574,7.191
					c3.972,6.184,7.298,12.788,9.889,19.632c7.417,19.639,8.714,40.801,3.756,61.214c-5.013,20.637-16.084,39.048-32.019,53.243
					C1103.338,851.876,1097.656,854.04,1091.77,854.04z M896.625,806.04h185.079c12.888-15.407,16.632-36.397,9.395-55.561
					c-1.406-3.715-3.226-7.322-5.401-10.704c-0.022-0.035-0.045-0.07-0.067-0.105l-6.729-10.58c-1.412-2.22-2.449-4.657-3.07-7.213
					l-10.142-41.734c-14.509,27.641-43.533,45.957-76.208,45.957c-33.003,0-62.286-18.696-76.64-46.811l-10.349,42.587
					c-0.622,2.561-1.662,5.001-3.077,7.224l-5.012,7.872c-0.093,0.154-0.187,0.305-0.281,0.453l-1.44,2.26
					c-0.043,0.068-0.087,0.136-0.131,0.204c-1.506,2.312-2.846,4.752-3.983,7.255c-0.046,0.107-0.093,0.214-0.141,0.321
					C879.612,767.154,883.011,789.738,896.625,806.04z M1050.41,651.75h0.01H1050.41z"/>
			</g>
			<g>
				<path style="fill:#212121;" d="M1117.11,1791.94h-76.96c-6.365,0-12.47-2.528-16.971-7.029l-34.34-34.34l-34.339,34.34
					c-4.501,4.501-10.605,7.029-16.971,7.029h-76.96c-13.255,0-24-10.745-24-24v-25.66c0-4.134,1.068-8.198,3.1-11.799
					l39.577-70.107l-58.538-490.148c-0.008-0.066-0.016-0.134-0.023-0.2c-1.828-16.481-2.716-31.402-2.716-45.615
					c0-41.154,6.665-82.203,19.81-122.006c0.099-0.3,0.204-0.598,0.315-0.894l36.254-96.649l-11.491-70.975
					c-2.119-13.084,6.771-25.409,19.856-27.527c13.082-2.119,25.408,6.771,27.527,19.855l12.51,77.27
					c0.668,4.125,0.247,8.354-1.221,12.266l-38.318,102.151c-11.442,34.8-17.243,70.63-17.243,106.509
					c0,12.398,0.789,25.556,2.412,40.221l59.458,497.853c0.605,5.069-0.421,10.199-2.931,14.645l-37.717,66.812h40.396
					l44.281-44.281c4.501-4.501,10.605-7.029,16.971-7.029s12.47,2.528,16.971,7.029l44.281,44.281h40.17l-38.975-66.471
					c-2.664-4.544-3.76-9.838-3.118-15.065l42.819-348.65l18.33-149.299c5.936-48.995,0.809-99.66-14.832-146.503l-38.337-102.202
					c-1.491-3.974-1.901-8.272-1.189-12.456l13.149-77.28c2.225-13.067,14.629-21.855,27.686-19.634
					c13.067,2.224,21.858,14.619,19.635,27.686l-12.062,70.892l36.218,96.552c0.098,0.262,0.191,0.526,0.28,0.792
					c17.997,53.675,23.91,111.757,17.101,167.966l-18.335,149.338l-41.83,340.591l41.013,69.945
					c2.159,3.682,3.297,7.872,3.297,12.14v25.66C1141.11,1781.195,1130.365,1791.94,1117.11,1791.94z"/>
			</g>
			<g>
				<path style="fill:#212121;" d="M1113.39,1024h-249.1c-13.255,0-24-10.745-24-24s10.745-24,24-24h249.1c13.255,0,24,10.745,24,24
					S1126.645,1024,1113.39,1024z"/>
			</g>
			<g>
				<path style="fill:#212121;" d="M988.84,1740.63c-13.255,0-24-10.745-24-24V1000c0-13.255,10.745-24,24-24s24,10.745,24,24
					v716.63C1012.84,1729.885,1002.095,1740.63,988.84,1740.63z"/>
			</g>
			<g>
				<path style="fill:#212121;" d="M989.23,594.34h-0.14c-23.209,0-45.85-6.438-65.475-18.618
					c-36.892-22.864-58.925-62.415-58.925-105.792v-89.59c0-66.504,52.001-121.083,118.386-124.252
					c1.95-0.097,3.989-0.147,6.014-0.147h0.14c2.026,0,4.075,0.05,6.087,0.149c66.333,3.194,118.312,57.772,118.312,124.251v89.59
					c0,21.706-5.682,43.084-16.432,61.826c-10.409,18.148-25.351,33.504-43.209,44.41h0.001
					C1034.545,588.055,1012.151,594.34,989.23,594.34z M989.09,303.94c-1.233,0-2.47,0.03-3.677,0.09
					c-40.8,1.949-72.723,35.467-72.723,76.31v89.59c0,26.644,13.542,50.943,36.223,65c12.032,7.467,25.92,11.41,40.177,11.41h0.14
					c14.082,0,27.817-3.847,39.72-11.125c0.005-0.003,0.01-0.006,0.015-0.009c22.958-14.015,36.665-38.417,36.665-65.275v-89.59
					c0-40.828-31.909-74.346-72.645-76.308c-1.272-0.062-2.493-0.092-3.755-0.092H989.09z"/>
			</g>
			<g>
				<path style="fill:#212121;" d="M1089.607,468.654c-4.012,0-8.076-1.007-11.815-3.127c-29.928-16.969-56.592-44.122-73.3-63.358
					c-42.177,37.206-96.388,44.182-114.061,45.468c-13.226,0.974-24.716-8.975-25.678-22.195
					c-0.962-13.22,8.975-24.716,22.195-25.678c11.128-0.81,68.237-6.959,99.752-48.614c4.539-6,11.626-9.52,19.139-9.52
					c0.091,0,0.181,0,0.271,0.001c7.614,0.086,14.735,3.779,19.19,9.952c0.345,0.476,36.113,49.478,76.168,72.189
					c11.53,6.538,15.577,21.185,9.04,32.715C1106.09,464.279,1097.967,468.653,1089.607,468.654z"/>
			</g>
			<g>
				<path style="fill:#212121;" d="M1185.59,496.04h-2.939c-30.741,0-59.782-11.826-81.772-33.298
					c-21.951-21.434-34.466-50.11-35.24-80.745c-0.025-1.017-0.038-2.011-0.038-3.006c0-13.255,10.745-24,24-24s24,10.745,24,24
					c0,0.604,0.009,1.209,0.023,1.814c0.752,29.755,20.858,55.068,47.967,63.895V373.11c0-38.074-30.976-69.05-69.05-69.05H984.22
					c-13.255,0-24-10.745-24-24s10.745-24,24-24h108.32c64.541,0,117.05,52.508,117.05,117.05v98.93
					C1209.59,485.295,1198.845,496.04,1185.59,496.04z"/>
			</g>
			<g>
				<path style="fill:#212121;" d="M1114.81,1340.68H862.37c-13.255,0-24-10.745-24-24s10.745-24,24-24h252.439
					c13.255,0,24,10.745,24,24S1128.064,1340.68,1114.81,1340.68z"/>
			</g>
		</g>
	</g>
</g>
<g id="Layer_1">
</g>
</svg>
