<?xml version="1.0" encoding="iso-8859-1"?>
<!-- Generator: Adobe Illustrator 25.2.0, SVG Export Plug-In . SVG Version: 6.00 Build 0)  -->
<svg version="1.1" xmlns="http://www.w3.org/2000/svg" xmlns:xlink="http://www.w3.org/1999/xlink" x="0px" y="0px"
	 viewBox="0 0 2048 2048" style="enable-background:new 0 0 2048 2048;" xml:space="preserve">
<g id="_x32_667.S2_-_Yoga_Pose_III">
	<g>
		<g id="XMLID_45_">
			<g>
				<g>
					<path style="fill:#F5D3A6;" d="M1572.77,1326.72c26.43,73.95-12.09,155.33-86.05,181.76l-228.91,81.75l-87.22,31.17
						l-58.63,87.93v14.69c-0.01,24.26-19.68,43.93-43.95,43.95c-24.29,0.02-43.99-19.66-44.01-43.95v-150.59l87.96-29.34l92.84-46.4
						l52.34-26.17c2.55-1.27,5.47-2.58,8.62-3.88c54.17-22.35,106.97-47.88,157.68-77.25l11.04-6.39l-229.64-82.16L1332,1194.48
						l148.69,44.18C1523.55,1251.85,1557.68,1284.49,1572.77,1326.72z"/>
				</g>
				<g>
					<path style="fill:#F5D3A6;" d="M1024,1573.43v150.59c0,24.54-20.1,44.39-44.73,43.97c-24.12-0.4-43.23-20.58-43.23-44.7v-13.96
						l-58.63-87.93l-87.22-31.17l-228.91-81.75c-42.23-15.09-74.87-49.22-88.06-92.08c-23.1-75.06,19.03-154.64,94.09-177.74
						L709.89,1196l126.42,106.74L613.52,1384l11.04,6.39c50.71,29.37,103.51,54.9,157.68,77.25c3.15,1.3,6.07,2.61,8.62,3.88
						l52.34,26.17l92.84,46.4L1024,1573.43z"/>
				</g>
				<g>
					<path style="fill:#F5D3A6;" d="M1076.51,603.93l22.88,60.58l-5.78,30.35c-6.37,33.42-35.59,57.6-69.61,57.61
						c-34.03,0-63.25-24.18-69.62-57.61l-5.77-30.35l22.88-60.58c15.86,7.73,33.68,12.07,52.51,12.07
						C1042.83,616,1060.65,611.66,1076.51,603.93z"/>
				</g>
				<g>
					<path style="fill:#F0C894;" d="M1154.36,1096H893.02c35.62-58.99,41.08-131.64,14.29-195.51l-0.59-1.42h234.56
						C1113.66,963.09,1118.62,1036.38,1154.36,1096z"/>
				</g>
				<g>
					<path style="fill:#F0C894;" d="M1610.41,1065.3l29.31,62.31c-21.39,24.05-51.44,36.77-81.93,36.77
						c-18.32,0-36.81-4.6-53.67-14.08l-40.33-22.69l-234.55-111.27l-57.46-178.73c0.01-0.01,0-0.02,0-0.02
						c1.51-19.36-3.12-39.27-14.29-56.65l-7.83-12.18l-25.13-104.25h61.93c41.92,0.01,78.02,29.6,86.23,70.71l44.51,193.15
						l175.93,111.28L1610.41,1065.3z"/>
				</g>
				<g>
					<path style="fill:#F0C894;" d="M923.47,664.51l-23.84,98.92l-0.03,0.1l-2.08,6.5v0.01l-7.01,10.9
						c-11.02,17.14-15.67,36.74-14.35,55.86c0,0,0,0.01,0,0.02l-57.4,179.52l-234.55,114.93l-41.21,21.9
						c-44.64,23.71-99.7,13.82-133.29-23.95l-1.43-1.61l29.31-62.31l117.28-25.65L730.8,928.37l44.51-193.15
						c8.21-41.11,44.31-70.7,86.23-70.71H923.47z"/>
				</g>
				<g>
					<path style="fill:#F0C894;" d="M1144,424v72c0,47.44-27.53,88.45-67.49,107.93c-15.86,7.73-33.68,12.07-52.51,12.07
						c-18.83,0-36.65-4.34-52.51-12.07C931.53,584.45,904,543.44,904,496v-72h72c26.51,0,48-21.49,48-48c0,26.51,21.49,48,48,48
						H1144z"/>
				</g>
				<g>
					<path style="fill:#898890;" d="M1240,376v120c-26.51,0-50.51-10.74-67.88-28.12C1154.74,450.51,1144,426.51,1144,400
						c0-33.14-13.43-63.14-35.15-84.85C1087.14,293.43,1057.14,280,1024,280h120C1197.02,280,1240,322.98,1240,376z"/>
				</g>
				<g>
					<path style="fill:#898890;" d="M1144,400v24h-72c-26.51,0-48-21.49-48-48c0,26.51-21.49,48-48,48h-72v-24
						c0-66.27,53.73-120,120-120c33.14,0,63.14,13.43,84.85,35.15C1130.57,336.86,1144,366.86,1144,400z"/>
				</g>
				<g>
					<path style="fill:#FFDC4A;" d="M1157.49,780.94c11.17,17.38,15.8,37.29,14.29,56.65c0,0,0.01,0.01,0,0.02
						c-1.78,22.97-12.19,45.18-30.5,61.45h-29.32H936.04h-29.32c-18.52-16.46-28.96-38.98-30.56-62.24c0-0.01,0-0.02,0-0.02
						c-1.32-19.12,3.33-38.72,14.35-55.86l7.01-10.9v-0.01l0.82-1.27l1.26-5.23l0.03-0.1l23.84-98.92h25.14l5.77,30.35
						c6.37,33.43,35.59,57.61,69.62,57.61c34.02-0.01,63.24-24.19,69.61-57.61l5.78-30.35h25.14l25.13,104.25L1157.49,780.94z"/>
				</g>
				<g>
					<path style="fill:#FFDC4A;" d="M1332,1194.48l-127.16,107.36l-184.8-66.12l-183.73,67.02L709.89,1196l90.11-26.96
						c36.22-10.84,67.49-34.06,88.33-65.61c1.62-2.45,3.18-4.93,4.69-7.43h261.34c0.92,1.54,1.86,3.07,2.82,4.59l0.4,0.63
						c20.86,32.91,52.93,57.16,90.28,68.26L1332,1194.48z"/>
				</g>
			</g>
			<g>
				<g>
					<path style="fill:#212121;" d="M1024,1748.02c-13.255,0-24-10.745-24-24v-150.59c0-13.255,10.745-24,24-24s24,10.745,24,24
						v150.59C1048,1737.274,1037.255,1748.02,1024,1748.02z"/>
				</g>
				<g>
					<path style="fill:#212121;" d="M948.606,688.516c-2.818,0-5.683-0.5-8.476-1.554c-12.4-4.684-18.655-18.532-13.972-30.932
						l22.88-60.58c4.684-12.399,18.532-18.654,30.932-13.972c12.4,4.684,18.656,18.532,13.972,30.932l-22.88,60.58
						C967.433,682.597,958.301,688.516,948.606,688.516z"/>
				</g>
				<g>
					<path style="fill:#212121;" d="M491.5,1190.06c-37.145,0.002-73.626-15.545-99.724-44.891l-1.436-1.616
						c-6.379-7.179-7.865-17.468-3.777-26.158l29.31-62.311c3.174-6.748,9.305-11.637,16.589-13.23l113.151-24.747l164.016-103.744
						l42.219-183.208c10.554-51.956,56.624-89.632,109.686-89.646h61.936c13.255,0,24,10.745,24,24s-10.745,24-24,24h-61.93
						c-30.377,0.007-56.747,21.629-62.695,51.411c-0.046,0.23-0.095,0.46-0.148,0.689l-44.51,193.15
						c-1.42,6.161-5.214,11.514-10.558,14.894l-175.93,111.28c-2.363,1.495-4.97,2.565-7.702,3.163l-105.726,23.123l-17.064,36.278
						c26.365,21.772,63.525,25.947,94.534,9.479l41.205-21.898c0.232-0.123,0.466-0.243,0.702-0.358l225.365-110.429L853.3,829.511
						c4.037-12.625,17.543-19.588,30.169-15.551c12.625,4.037,19.587,17.544,15.55,30.169l-57.4,179.521
						c-1.99,6.224-6.432,11.367-12.299,14.242l-234.197,114.757l-40.861,21.715C534.355,1184.937,512.816,1190.059,491.5,1190.06z"
						/>
				</g>
				<g>
					<path style="fill:#212121;" d="M897.526,794.036c-2.424,0-4.888-0.37-7.321-1.148c-12.624-4.04-19.583-17.549-15.543-30.173
						l2.08-6.5c4.04-12.624,17.548-19.585,30.173-15.543c12.624,4.04,19.583,17.549,15.543,30.173l-2.08,6.5
						C917.117,787.536,907.682,794.036,897.526,794.036z"/>
				</g>
				<g>
					<path style="fill:#212121;" d="M1099.394,688.516c-9.696,0-18.827-5.918-22.456-15.526l-22.88-60.58
						c-4.684-12.4,1.572-26.249,13.973-30.932c12.4-4.682,26.249,1.573,30.932,13.972l22.88,60.58
						c4.684,12.4-1.572,26.249-13.973,30.932C1105.077,688.016,1102.211,688.516,1099.394,688.516z"/>
				</g>
				<g>
					<path style="fill:#212121;" d="M1557.79,1188.38c-22.841,0-45.468-5.934-65.433-17.16l-39.607-22.283l-233.797-110.913
						c-5.986-2.84-10.533-8.029-12.562-14.338l-57.46-178.73c-4.057-12.619,2.885-26.137,15.503-30.194
						c12.615-4.056,26.137,2.882,30.194,15.502l54.281,168.843l225.167,106.819c0.502,0.238,0.996,0.494,1.48,0.767l40.33,22.689
						c12.793,7.193,27.284,10.997,41.902,10.997c19.284,0,37.876-6.518,52.836-18.235l-16.898-35.926l-105.726-23.123
						c-2.731-0.598-5.338-1.668-7.701-3.163l-175.93-111.28c-5.344-3.38-9.138-8.732-10.558-14.894l-44.51-193.15
						c-0.053-0.229-0.103-0.458-0.148-0.689c-5.948-29.782-32.317-51.403-62.701-51.411h-61.924c-13.255,0-24-10.745-24-24
						s10.745-24,24-24h61.93c53.068,0.013,99.138,37.69,109.692,89.646l42.219,183.208l164.016,103.744l113.151,24.747
						c7.285,1.593,13.415,6.482,16.59,13.23l29.31,62.31c4.089,8.693,2.6,18.987-3.784,26.166
						C1632.32,1172.044,1595.921,1188.38,1557.79,1188.38z"/>
				</g>
				<g>
					<path style="fill:#212121;" d="M1141.28,923.06H906.72c-5.877,0-11.55-2.157-15.943-6.061
						c-22.775-20.242-36.47-48.132-38.56-78.533c-0.006-0.09-0.012-0.18-0.017-0.27c-1.667-24.917,4.598-49.198,18.122-70.235
						l5.635-8.761l0.312-1.293c0.041-0.168,0.083-0.337,0.127-0.505l23.743-98.516c2.598-10.78,12.243-18.377,23.332-18.377h25.14
						c11.526,0,21.425,8.194,23.578,19.518l5.77,30.35c4.205,22.068,23.57,38.093,46.042,38.093
						c22.464-0.007,41.828-16.032,46.035-38.104l5.778-30.346c2.155-11.32,12.053-19.511,23.576-19.511h25.141
						c11.089,0,20.733,7.596,23.332,18.376l24.179,100.307l5.638,8.769c13.728,21.36,19.966,45.994,18.048,71.254
						c-0.006,0.083-0.012,0.165-0.019,0.249h0.001c-2.326,30.013-15.995,57.549-38.487,77.536
						C1152.829,920.904,1147.157,923.06,1141.28,923.06z M916.642,875.06h214.715c9.521-10.871,15.298-24.472,16.478-39.086
						c0.006-0.083,0.012-0.167,0.018-0.25c1.155-14.812-2.493-29.269-10.552-41.808l-7.829-12.178
						c-1.451-2.258-2.514-4.744-3.144-7.354l-14.016-58.144c-14.021,35.731-48.788,60.219-88.306,60.23
						c-39.523,0-74.294-24.482-88.322-60.208l-12.723,52.791c-0.041,0.168-0.083,0.337-0.127,0.504l-1.163,4.824
						c-0.632,2.625-1.704,5.125-3.168,7.394l-0.545,0.844c-0.083,0.135-0.167,0.269-0.253,0.402l-7.01,10.9
						c-7.938,12.348-11.602,26.604-10.592,41.224c0.005,0.077,0.01,0.153,0.015,0.229
						C901.182,850.221,906.977,864.031,916.642,875.06z"/>
				</g>
				<g>
					<path style="fill:#212121;" d="M1024,1597.43c-2.564,0-5.13-0.411-7.594-1.233l-87.96-29.34
						c-1.074-0.358-2.122-0.792-3.135-1.299l-92.84-46.399l-52.344-26.173c-1.964-0.978-4.348-2.048-7.047-3.163
						c-57.038-23.532-111.056-50-160.548-78.664l-11.034-6.387c-8.066-4.668-12.7-13.584-11.886-22.868
						c0.814-9.283,6.929-17.257,15.685-20.45l222.79-81.26l183.729-67.021c5.265-1.92,11.035-1.936,16.31-0.051l184.8,66.121v-0.001
						l229.641,82.16c8.8,3.148,14.972,11.12,15.816,20.428c0.846,9.308-3.79,18.26-11.879,22.941l-11.04,6.39
						c-49.483,28.66-103.502,55.128-160.55,78.664c-2.691,1.112-5.076,2.183-7.08,3.181l-52.3,26.15l-92.844,46.401
						c-1.014,0.507-2.061,0.94-3.136,1.299l-87.96,29.34C1029.13,1597.019,1026.564,1597.43,1024,1597.43z M945.248,1521.861
						L1024,1548.13l78.752-26.269l91.318-45.639l52.336-26.169c3.044-1.516,6.46-3.055,10.191-4.597
						c42.04-17.345,82.334-36.313,120.238-56.591l-180.081-64.429l0,0l-176.636-63.199l-175.584,64.049l-173.753,63.374
						c38.019,20.356,78.439,39.393,120.612,56.793c3.742,1.545,7.159,3.086,10.163,4.581l52.377,26.189L945.248,1521.861z"/>
				</g>
				<g>
					<path style="fill:#212121;" d="M980.055,1791.997c-0.398,0-0.795-0.004-1.194-0.01c-36.84-0.612-66.821-31.43-66.821-68.697
						v-6.692l-50.189-75.271l-79.737-28.495l-228.905-81.749c-49.112-17.55-87.588-57.782-102.926-107.622
						c-13.058-42.43-8.81-87.406,11.962-126.644c20.771-39.237,55.577-68.037,98.007-81.095c0.06-0.019,0.12-0.036,0.18-0.055
						l232.69-69.62c30.78-9.212,57.482-29.045,75.184-55.845c1.372-2.073,2.772-4.293,4.173-6.612
						c31.631-52.384,36.38-117.364,12.701-173.817l-0.623-1.5c-3.075-7.406-2.249-15.859,2.204-22.529
						c4.453-6.67,11.942-10.675,19.961-10.675h234.56c8.078,0,15.613,4.063,20.052,10.812s5.185,15.278,1.985,22.695
						c-24.457,56.688-20.11,122.139,11.628,175.083c0.842,1.41,1.685,2.782,2.524,4.111l0.364,0.573
						c17.777,28.046,45.068,48.681,76.863,58.13l232.829,69.18c0.074,0.022,0.148,0.045,0.223,0.067
						c49.841,15.338,90.073,53.813,107.621,102.922c14.94,41.802,12.708,86.921-6.287,127.045
						c-18.995,40.126-52.48,70.452-94.287,85.393l-228.914,81.751l-79.732,28.494l-50.189,75.271v7.422
						c-0.015,37.442-30.489,67.92-67.931,67.95c-0.019,0-0.041,0-0.06,0c-16.279,0.001-31.685-5.686-43.952-16.12
						C1011.729,1786.317,996.33,1791.996,980.055,1791.997z M574.28,1261.626c-30.136,9.3-54.855,29.77-69.613,57.647
						c-14.773,27.906-17.794,59.893-8.508,90.067c10.908,35.446,38.272,64.059,73.197,76.539l228.906,81.749l87.225,31.171
						c4.859,1.737,9.029,4.993,11.892,9.286l58.63,87.93c2.629,3.942,4.032,8.575,4.032,13.314v13.96
						c0,11.236,8.805,20.523,19.628,20.703c5.401,0.117,10.509-1.939,14.356-5.722c3.854-3.788,5.976-8.85,5.976-14.252
						c0-13.251,10.739-23.995,23.99-24c0.003,0,0.007,0,0.01,0c13.248,0,23.989,10.732,24,23.98
						c0.004,5.34,2.087,10.357,5.863,14.13c3.771,3.767,8.781,5.84,14.109,5.84c0.006,0,0.011,0,0.017,0
						c11.008-0.009,19.966-8.963,19.971-19.96v-14.68c0-4.739,1.403-9.372,4.032-13.314l58.63-87.93
						c2.862-4.293,7.032-7.549,11.891-9.286l87.221-31.17l228.915-81.751c29.728-10.624,53.541-32.191,67.051-60.729
						c13.509-28.535,15.096-60.623,4.471-90.354c-12.47-34.897-41.043-62.243-76.446-73.17l-232.699-69.141
						c-42.913-12.754-79.746-40.603-103.715-78.418l-0.384-0.604c-1.089-1.723-2.143-3.438-3.169-5.157
						c-33.517-55.91-42.576-123.022-26.104-185.238H940.24c16.308,62.279,7.025,129.525-26.675,185.335
						c-0.001,0.002-0.001,0.003-0.002,0.005c-1.738,2.877-3.493,5.656-5.215,8.261c-23.884,36.16-59.922,62.929-101.466,75.361
						L574.28,1261.626z M893.02,1096h0.01H893.02z"/>
				</g>
				<g>
					<path style="fill:#212121;" d="M1024,640c-22.085,0-43.29-4.877-63.025-14.496c-23.91-11.655-44.12-29.687-58.448-52.146
						C887.79,550.258,880,523.508,880,496v-96c0-79.402,64.598-144,144-144c38.473,0,74.634,14.981,101.824,42.183
						C1153.019,325.364,1168,361.526,1168,400v96c0,27.508-7.79,54.258-22.527,77.358c-14.328,22.458-34.538,40.49-58.446,52.145
						l-0.001,0C1067.29,635.123,1046.086,640,1024,640z M1076.51,603.93h0.01H1076.51z M1024,304c-52.935,0-96,43.065-96,96v96
						c0,37.028,20.694,70.118,54.007,86.357C995.135,588.755,1009.264,592,1024,592s28.865-3.245,41.993-9.643l0,0
						C1099.306,566.118,1120,533.027,1120,496v-96c0-25.647-9.985-49.753-28.117-67.875C1073.752,313.985,1049.646,304,1024,304z"/>
				</g>
				<g>
					<path style="fill:#212121;" d="M976,448h-72c-13.255,0-24-10.745-24-24s10.745-24,24-24h72c13.233,0,24-10.767,24-24
						c0-13.255,10.745-24,24-24s24,10.745,24,24C1048,415.701,1015.701,448,976,448z"/>
				</g>
				<g>
					<path style="fill:#212121;" d="M1144,448h-72c-39.701,0-72-32.299-72-72c0-13.255,10.745-24,24-24s24,10.745,24,24
						c0,13.233,10.767,24,24,24h72c13.255,0,24,10.745,24,24S1157.255,448,1144,448z"/>
				</g>
				<g>
					<path style="fill:#212121;" d="M1154.36,1120H893.02c-13.255,0-24-10.745-24-24s10.745-24,24-24h261.34
						c13.255,0,24,10.745,24,24S1167.615,1120,1154.36,1120z"/>
				</g>
				<g>
					<path style="fill:#212121;" d="M1240,520c-32.062,0-62.198-12.485-84.855-35.154C1132.484,462.198,1120,432.063,1120,400
						c0-13.255,10.745-24,24-24s24,10.745,24,24c0,19.236,7.488,37.315,21.086,50.905c7.729,7.732,16.902,13.489,26.914,17.018V376
						c0-39.701-32.299-72-72-72c-13.255,0-24-10.745-24-24s10.745-24,24-24c66.168,0,120,53.832,120,120v120
						C1264,509.255,1253.255,520,1240,520z"/>
				</g>
				<g>
					<path style="fill:#212121;" d="M1144,304h-120c-13.255,0-24-10.745-24-24s10.745-24,24-24h120c13.255,0,24,10.745,24,24
						S1157.255,304,1144,304z"/>
				</g>
				<g>
					<path style="fill:#212121;" d="M836.298,1326.741c-5.469,0-10.965-1.859-15.471-5.663l-126.42-106.74
						c-10.128-8.551-11.406-23.693-2.855-33.821c8.552-10.128,23.694-11.404,33.821-2.854l126.42,106.74
						c10.128,8.551,11.406,23.693,2.855,33.821C849.901,1323.846,843.122,1326.741,836.298,1326.741z"/>
				</g>
				<g>
					<path style="fill:#212121;" d="M1204.852,1325.841c-6.824,0-13.603-2.896-18.35-8.519c-8.551-10.128-7.272-25.27,2.855-33.82
						l127.16-107.359c10.127-8.55,25.269-7.274,33.82,2.855c8.551,10.128,7.272,25.27-2.855,33.82l-127.16,107.359
						C1215.817,1323.981,1210.32,1325.841,1204.852,1325.841z"/>
				</g>
			</g>
		</g>
	</g>
</g>
<g id="Layer_1">
</g>
</svg>
