<?xml version="1.0" encoding="iso-8859-1"?>
<!-- Generator: Adobe Illustrator 25.2.0, SVG Export Plug-In . SVG Version: 6.00 Build 0)  -->
<svg version="1.1" xmlns="http://www.w3.org/2000/svg" xmlns:xlink="http://www.w3.org/1999/xlink" x="0px" y="0px"
	 viewBox="0 0 2048 2048" style="enable-background:new 0 0 2048 2048;" xml:space="preserve">
<g id="_x32_668.S2_-_Yoga_Pose_IV">
	<g>
		<g id="XMLID_46_">
			<g>
				<g>
					<path style="fill:#57565C;" d="M1066.1,306.17c-19.15,49.64-19.16,49.64-118.48,89.07c-1.15-6.83-2.38-13.65-3.69-20.45
						c-1.22-6.33-1.86-9.76-1.86-9.76c-0.62-3.06-0.97-6.13-1.06-9.21c-1.07-33.15,27.08-66.46,59.98-73.19
						C1026.22,277.5,1051.01,287.39,1066.1,306.17z"/>
				</g>
				<g>
					<path style="fill:#57565C;" d="M948.56,400.95l-15.14,6.58c-31.11,15.56-50.77,47.37-50.77,82.16
						c-0.01,42.14-28.69,78.88-69.58,89.11l-33.22,8.3l25.69-51.39v-88.03c0-50.73,41.14-91.86,91.88-91.86h43.59
						c0.09,3.08,0.44,6.15,1.06,9.21c0,0,0.64,3.43,1.86,9.76c1.31,6.8,2.54,13.62,3.69,20.45
						C947.94,397.14,948.25,399.04,948.56,400.95z"/>
				</g>
				<g>
					<polygon style="fill:#F5D3A6;" points="1116.09,1729.67 1113.94,1769.28 934.05,1769.28 934.05,1486.59 937.7,1460.89 
						1057.4,1460.89 1036.84,1563.69 1036.84,1666.49 					"/>
				</g>
				<g>
					<path style="fill:#F5D3A6;" d="M1081.88,374.88l28.26,38.06l-15.03,20.04v47.08h-45.07v55.65l6.95,8.35l-97.25-8.35
						c-0.15-27-1.55-53.98-4.19-80.82c-1.77-18.04-4.1-36.04-6.99-53.94c-0.31-1.91-0.62-3.81-0.94-5.71
						c99.32-39.43,99.33-39.43,118.48-89.07c6.42,7.99,11.09,17.58,13.28,28.31L1081.88,374.88z"/>
				</g>
				<g>
					<path style="fill:#F5D3A6;" d="M1088.24,787.05V946.9H912.39v-0.01c2.54-10.43,6.25-20.57,11.05-30.19l36.3-72.6L946.25,767
						l-6.58-37.74c-1.06-7.39-1.79-14.81-2.2-22.25h0.07c0.92,14.36,8.68,27.94,21.8,35.81L1088.24,787.05z"/>
				</g>
				<g>
					<path style="fill:#F0C894;" d="M1278.63,546.84v233.08c0,14.29-5.79,27.23-15.16,36.59c-9.36,9.37-22.3,15.16-36.59,15.16
						c-5.71,0-11.39-0.95-16.79-2.81l-121.85-41.81l-128.9-44.23c-13.12-7.87-20.88-21.45-21.8-35.81
						c-0.48-7.48,0.9-15.17,4.35-22.36c11.65-24.28,41.85-33,64.65-18.66l123.26,40.51l69.57,22.87l2.16-103.3l-8.03-73.89
						l16.06-54.61h19.8C1256.57,497.57,1278.63,519.63,1278.63,546.84z"/>
				</g>
				<g>
					<path style="fill:#FFE577;" d="M1088.24,1306.69l-30.84,154.2H937.7l22.04-154.2V1101.1l-27.37-41.06
						c-21.99-33-29.31-73.64-20.2-112.24c0.06-0.3,0.13-0.6,0.22-0.9h175.85V1306.69z"/>
				</g>
				<g>
					<path style="fill:#FFE577;" d="M941.89,684.65c-3.45,7.19-4.83,14.88-4.35,22.36h-0.07c-1.03-18.81,0.02-37.7,3.13-56.33
						l2.92-17.57l16.22-97.4l97.25,8.35l19.15,23l41.62,49.57c5.67,5.68,10.39,12.22,13.99,19.4c11.6,23.18,10,49.52-1.95,70.47
						l-123.26-40.51C983.74,651.65,953.54,660.37,941.89,684.65z"/>
				</g>
			</g>
			<g>
				<g>
					<path style="fill:#212121;" d="M1088.24,970.9c-13.255,0-24-10.745-24-24V787.05c0-13.255,10.745-24,24-24s24,10.745,24,24
						V946.9C1112.24,960.155,1101.495,970.9,1088.24,970.9z"/>
				</g>
				<g>
					<path style="fill:#212121;" d="M1113.94,1793.28H934.05c-13.255,0-24-10.745-24-24v-282.69c0-1.129,0.08-2.257,0.238-3.375
						l3.65-25.7c1.864-13.123,14.009-22.245,27.137-20.387c13.123,1.864,22.25,14.014,20.387,27.137l-3.412,24.021v256.994h133.157
						l0.248-4.557l-69.576-55.467c-5.712-4.554-9.039-11.462-9.039-18.767v-102.8c0-1.58,0.156-3.157,0.466-4.707l20.561-102.801
						c2.601-12.997,15.242-21.421,28.241-18.827c12.997,2.6,21.427,15.243,18.827,28.241l-20.095,100.471v88.862l70.211,55.974
						c6.07,4.84,9.425,12.315,9.004,20.067l-2.149,39.61C1137.214,1783.312,1126.69,1793.28,1113.94,1793.28z"/>
				</g>
				<g>
					<path style="fill:#212121;" d="M912.39,970.895c-13.255,0-24-10.74-24-23.995c0-1.913,0.229-3.83,0.682-5.688
						c2.963-12.167,7.301-24.019,12.893-35.227l32.771-65.542l-12.127-69.307l-6.583-37.755c-0.041-0.237-0.079-0.476-0.113-0.714
						c-1.148-8.007-1.958-16.195-2.407-24.339c-1.125-20.54,0.026-41.263,3.421-61.601l18.799-112.922
						c-0.204-25.482-1.569-51.229-4.062-76.566c-1.719-17.524-4.006-35.173-6.798-52.464c-0.3-1.844-0.602-3.698-0.914-5.552
						c-1.118-6.641-2.326-13.334-3.589-19.894c-1.081-5.607-1.713-8.972-1.855-9.732c-0.859-4.298-1.36-8.696-1.488-13.075
						c-1.435-44.456,34.076-88.184,79.161-97.407c33.355-6.784,67.309,5.489,88.628,32.021
						c8.964,11.156,15.218,24.485,18.087,38.544c0.223,1.094,0.369,2.202,0.438,3.316l2.061,33.292l24.014,32.342
						c6.334,8.53,6.306,20.208-0.068,28.707l-10.229,13.64v39.081c0,13.255-10.745,24-24,24h-21.07v22.969l20.544,24.675
						l40.938,48.756c7.151,7.325,13.098,15.668,17.683,24.813c14.798,29.57,13.838,64.374-2.558,93.118
						c-6.567,11.513-21.225,15.523-32.738,8.956c-11.514-6.567-15.522-21.225-8.955-32.738c8.43-14.778,8.929-32.662,1.334-47.838
						c-2.439-4.866-5.644-9.308-9.514-13.185c-0.486-0.487-0.951-0.995-1.394-1.522l-41.62-49.57l-26.166-31.429
						c-3.589-4.312-5.554-9.744-5.554-15.354v-55.65c0-13.255,10.745-24,24-24h21.07v-23.08c0-5.193,1.685-10.245,4.8-14.399
						l4.284-5.712l-17.584-23.681c-2.771-3.731-4.397-8.187-4.685-12.825l-2.386-38.544c-1.467-6.123-4.205-11.706-8.149-16.616
						c-10.019-12.468-25.966-18.234-41.618-15.054c-22.008,4.502-41.456,27.811-40.775,48.897c0.053,1.795,0.252,3.528,0.595,5.221
						c0.024,0.12,0.048,0.24,0.07,0.36c0.008,0.042,0.639,3.42,1.834,9.621c1.335,6.93,2.61,13.997,3.791,21.008
						c0.328,1.946,0.646,3.893,0.963,5.849c2.953,18.29,5.37,36.937,7.185,55.441c2.703,27.473,4.151,55.41,4.305,83.03
						c0.008,1.366-0.101,2.729-0.326,4.076l-19.139,114.962c-2.818,16.883-3.773,34.064-2.841,51.083
						c0.365,6.626,1.019,13.289,1.943,19.805l6.516,37.376l13.488,77.086c0.885,5.062,0.123,10.273-2.175,14.87l-36.3,72.6
						c-3.917,7.851-6.978,16.164-9.09,24.696C933.427,962.866,923.846,970.895,912.39,970.895z"/>
				</g>
				<g>
					<path style="fill:#212121;" d="M1057.4,1484.89H937.7c-6.958,0-13.573-3.02-18.131-8.275
						c-4.559-5.257-6.612-12.232-5.627-19.12l21.799-152.511v-196.618l-23.34-35.013c-25.528-38.31-34.145-85.945-23.663-130.75
						c0.194-0.907,0.414-1.767,0.67-2.616c3.051-10.143,12.391-17.086,22.982-17.086h175.85c13.255,0,24,10.745,24,24v359.791
						c0,1.58-0.156,3.157-0.466,4.707l-30.84,154.199C1078.69,1476.814,1068.841,1484.89,1057.4,1484.89z M965.375,1436.89h72.351
						l26.515-132.576V970.9H932.758c-2.156,26.562,4.659,53.434,19.584,75.832l27.368,41.056c2.628,3.943,4.03,8.574,4.03,13.312
						v205.591c0,1.136-0.081,2.271-0.242,3.396L965.375,1436.89z M935.702,952.514c-0.001,0.008-0.003,0.015-0.004,0.022
						C935.699,952.529,935.701,952.521,935.702,952.514z"/>
				</g>
				<g>
					<path style="fill:#212121;" d="M779.85,611.101c-7.177,0-14.102-3.226-18.721-8.984c-5.864-7.311-6.937-17.366-2.746-25.749
						l23.157-46.324V447.68c0-63.886,51.983-115.86,115.88-115.86h43.59c13.255,0,24,10.745,24,24
						c0,9.314-5.307,17.389-13.061,21.368c7.97,1.144,15.177,6.271,18.622,14.197c5.283,12.157-0.289,26.294-12.446,31.577
						l-14.504,6.304c-22.82,11.661-36.971,34.758-36.971,60.425c-0.012,53.253-36.099,99.469-87.755,112.392l-33.227,8.302
						C783.738,610.867,781.784,611.101,779.85,611.101z M897.42,379.82c-37.429,0-67.88,30.442-67.88,67.86v88.03
						c0,3.725-0.867,7.399-2.533,10.731l-0.471,0.942c19.575-12.109,32.108-33.684,32.114-57.699
						c0-21.524,5.983-42.585,17.303-60.902c11.318-18.316,27.478-33.087,46.731-42.717c0.385-0.192,0.775-0.375,1.17-0.546
						l13.113-5.699H897.42z"/>
				</g>
				<g>
					<path style="fill:#212121;" d="M1226.88,855.67c-8.395,0-16.674-1.386-24.606-4.119L951.55,765.521
						c-1.588-0.545-3.116-1.255-4.556-2.12c-19.465-11.675-31.953-32.183-33.405-54.857c-0.755-11.766,1.549-23.62,6.663-34.277
						c8.509-17.734,24.229-31.034,43.127-36.488c17.855-5.153,37.04-2.869,53.146,6.231l120.767,39.69c0.001,0,0.001,0,0.002,0
						l38.759,12.741l1.449-69.321l-7.862-72.347c-0.342-3.146-0.059-6.329,0.834-9.364l16.06-54.61
						c3.004-10.214,12.379-17.229,23.025-17.229h19.801c40.401,0,73.27,32.869,73.27,73.27v233.08
						c0,20.246-7.884,39.27-22.199,53.57C1266.151,847.786,1247.126,855.67,1226.88,855.67z M969.975,721.096l247.904,85.063
						c2.92,1.006,5.938,1.511,9.001,1.511c7.414,0,14.379-2.884,19.609-8.121c5.257-5.25,8.141-12.215,8.141-19.629V546.84
						c0-13.934-11.336-25.27-25.27-25.27h-1.843l-9.641,32.783l7.513,69.125c0.111,1.027,0.157,2.061,0.136,3.095l-2.16,103.3
						c-0.159,7.607-3.916,14.688-10.126,19.085c-6.209,4.397-14.136,5.59-21.364,3.213l-69.57-22.87l0.002,0l-123.26-40.51
						c-1.856-0.61-3.631-1.444-5.285-2.484c-5.156-3.243-11.217-4.101-17.071-2.41c-5.853,1.689-10.527,5.644-13.163,11.136
						c-1.585,3.303-2.27,6.815-2.038,10.441C961.891,711.718,965.021,717.421,969.975,721.096z"/>
				</g>
				<g>
					<path style="fill:#212121;" d="M947.649,419.236c-9.551,0-18.584-5.732-22.321-15.146
						c-4.891-12.319,1.117-26.266,13.437-31.157l0.027-0.011c46.09-18.298,71.479-28.377,83.714-37.575
						c8.854-6.656,11.931-13.792,20.998-37.288c3.326-9.266,12.187-15.895,22.596-15.895c13.255,0,24,10.74,24,23.995
						c0,2.954-0.545,5.892-1.608,8.647c-10.138,26.279-16.834,43.64-37.141,58.906c-17.382,13.068-43.271,23.346-94.847,43.822
						C953.597,418.689,950.598,419.236,947.649,419.236z"/>
				</g>
				<g>
					<path style="fill:#212121;" d="M1057.018,568.062c-0.688,0-1.382-0.029-2.08-0.089l-97.25-8.35
						c-13.206-1.134-22.993-12.759-21.859-25.965s12.767-22.993,25.965-21.859l97.25,8.35c13.207,1.134,22.993,12.759,21.859,25.965
						C1079.828,558.621,1069.343,568.062,1057.018,568.062z"/>
				</g>
			</g>
		</g>
	</g>
</g>
<g id="Layer_1">
</g>
</svg>
