<?xml version="1.0" encoding="iso-8859-1"?>
<!-- Generator: Adobe Illustrator 25.2.0, SVG Export Plug-In . SVG Version: 6.00 Build 0)  -->
<svg version="1.1" xmlns="http://www.w3.org/2000/svg" xmlns:xlink="http://www.w3.org/1999/xlink" x="0px" y="0px"
	 viewBox="0 0 2048 2048" style="enable-background:new 0 0 2048 2048;" xml:space="preserve">
<g id="_x32_669.S2_-_Yoga_Pose_V">
	<g>
		<g id="XMLID_47_">
			<g>
				<g>
					<path style="fill:#898890;" d="M1087.76,649.45L1002.59,689v-37c0-46.39,37.61-84,84-84h0.19c46.39,0,84,37.61,84,84v36
						l-83.01-38.55H1087.76z"/>
				</g>
				<g>
					<path style="fill:#F0C894;" d="M1170.78,688v33.27c0,8.09-1.14,15.92-3.29,23.32c-0.4,1.43-0.85,2.83-1.34,4.22v0.01
						c-2.65,7.66-6.39,14.82-11.03,21.29c-15.23,21.29-40.17,35.16-68.34,35.16h-0.19c-27.74,0-52.34-13.45-67.63-34.18
						c-5.71-7.72-10.11-16.46-12.9-25.89c-2.26-7.58-3.47-15.62-3.47-23.93V689l85.17-39.55h0.01L1170.78,688z"/>
				</g>
				<g>
					<path style="fill:#F0C894;" d="M1365.22,638.48c0,15.57-2.82,30.87-8.21,45.2c-5.39,14.34-13.33,27.71-23.59,39.42L1208.38,866
						h-0.01c-0.05-0.27-0.12-0.53-0.18-0.8c-1.64-6.73-4.34-13.28-8.02-19.47l-20.64-34.69l-24.41-40.93
						c4.64-6.47,8.38-13.63,11.03-21.29v-0.01c0.49-1.39,0.94-2.79,1.34-4.22l2.05,0.61l99.58-106.49l-154.15-237.63
						c0.22,0.02,0.44,0.02,0.66,0.02h20.25c18.03,0,32.65-14.62,32.65-32.65v-55.81c0-1.47-0.1-2.92-0.29-4.35l165.7,246.18
						C1354.12,577.81,1365.22,607.64,1365.22,638.48z"/>
				</g>
				<g>
					<path style="fill:#4CAF50;" d="M1230.13,1095.22c12.71,59.94,14.68,121.73,5.75,182.49l-25.77,175.43l-12.73,128.42H1087.8
						v-102.74v-128.41v-154.1l-244.63,102.73l103.51,21.74l-42.36,81l-0.72,2.37l-143.26-36.09
						c-52.02-13.12-81.52-59.16-65.91-102.85c6.04-16.91,18.37-31.73,35.18-42.32l231.3-127.67H1230.13z"/>
				</g>
				<g>
					<path style="fill:#F0C894;" d="M1229.88,1094.03c0.08,0.4,0.17,0.79,0.25,1.19H960.91v-1.66l43.77-81.68l-8.62-72.42h183.47
						v51.37c9.5,11.97,17.94,24.45,25.29,37.33c0.07,0.13,0.15,0.26,0.22,0.39C1216.64,1048.95,1224.96,1071.08,1229.88,1094.03z"/>
				</g>
				<g>
					<polygon style="fill:#F0C894;" points="1226.85,1716.63 1226.85,1768 1087.8,1768 1087.8,1581.56 1197.38,1581.56 
						1196.28,1689.27 					"/>
				</g>
				<g>
					<path style="fill:#4CAF50;" d="M1210.11,881.05c0.01,20.96-9.91,41.05-27.55,55.87l-3.03,2.54H996.06l-3.03-2.55
						c-17.64-14.81-27.55-34.91-27.55-55.87c0-5.06,0.59-10.1,1.73-15.04c1.62-7.01,4.37-13.83,8.21-20.27l20.64-34.69l22.9-39.95
						c15.29,20.73,39.89,34.18,67.63,34.18h0.19c28.17,0,53.11-13.87,68.34-35.16l24.41,40.93l20.64,34.69
						c3.68,6.19,6.38,12.74,8.02,19.47c0.06,0.27,0.13,0.53,0.18,0.8C1209.52,870.94,1210.11,875.98,1210.11,881.05z"/>
				</g>
				<g>
					<path style="fill:#F0C894;" d="M1168.24,308.29c0.19,1.43,0.29,2.88,0.29,4.35v55.81c0,18.03-14.62,32.65-32.65,32.65h-20.25
						c-0.22,0-0.44,0-0.66-0.02c-15.07-0.34-27.17-12.67-27.17-27.82v-65.42c0-15.38,12.46-27.84,27.83-27.84h20.25
						C1152.44,280,1166.12,292.33,1168.24,308.29z"/>
				</g>
				<g>
					<polygon style="fill:#F0C894;" points="1087.8,1350.41 1087.8,1478.82 996.06,1427.46 903.6,1404.15 904.32,1401.78 
						946.68,1320.78 946.68,1320.77 					"/>
				</g>
				<g>
					<path style="fill:#F0C894;" d="M1007.36,308.29c2.12-15.96,15.79-28.29,32.35-28.29h20.25c15.38,0,27.84,12.46,27.84,27.84
						v65.42c0,15.14-12.1,27.47-27.17,27.82c-0.22,0.02-0.44,0.02-0.67,0.02h-20.25c-18.03,0-32.64-14.62-32.64-32.65v-55.81
						C1007.07,311.17,1007.17,309.72,1007.36,308.29z"/>
				</g>
				<g>
					<path style="fill:#F0C894;" d="M1060.63,401.08L906.48,638.71l99.58,106.49c2.79,9.43,7.19,18.17,12.9,25.89l-22.9,39.95
						l-20.64,34.69c-3.84,6.44-6.59,13.26-8.21,20.27L842.17,723.1c-10.25-11.71-18.2-25.08-23.58-39.42
						c-5.39-14.33-8.21-29.63-8.21-45.2c0-30.84,11.1-60.67,31.27-84.01l165.71-246.18c-0.19,1.43-0.29,2.88-0.29,4.35v55.81
						c0,18.03,14.61,32.65,32.64,32.65h20.25C1060.19,401.1,1060.41,401.1,1060.63,401.08z"/>
				</g>
			</g>
			<g>
				<g>
					<path style="fill:#212121;" d="M1087.824,1374.415c-1.635,0-3.294-0.168-4.958-0.518l-141.119-29.641
						c-12.972-2.725-21.279-15.449-18.554-28.421c2.724-12.971,15.449-21.281,28.42-18.554l141.12,29.641
						c12.972,2.725,21.278,15.449,18.554,28.421C1108.912,1366.651,1098.938,1374.415,1087.824,1374.415z"/>
				</g>
				<g>
					<path style="fill:#212121;" d="M1226.85,1792H1087.8c-13.255,0-24-10.745-24-24v-186.44c0-13.255,10.745-24,24-24
						s24,10.745,24,24V1744h91.05v-16.642l-22.575-20.206c-5.15-4.609-8.063-11.216-7.993-18.128l1.1-107.71
						c0.135-13.17,10.854-23.755,23.994-23.755c0.084,0,0.166,0,0.25,0.001c13.254,0.136,23.889,10.99,23.754,24.244l-0.989,96.835
						l22.466,20.107c5.087,4.553,7.994,11.056,7.994,17.883V1768C1250.85,1781.255,1240.104,1792,1226.85,1792z"/>
				</g>
				<g>
					<path style="fill:#212121;" d="M1087.778,1502.824c-3.97,0.001-7.993-0.985-11.702-3.062l-88.967-49.808l-89.376-22.532
						c-12.853-3.24-20.645-16.286-17.405-29.139s16.287-20.648,29.139-17.404l92.46,23.31c2.046,0.516,4.016,1.299,5.856,2.33
						l91.74,51.36c11.566,6.475,15.693,21.1,9.218,32.665C1104.343,1498.4,1096.184,1502.824,1087.778,1502.824z"/>
				</g>
				<g>
					<path style="fill:#212121;" d="M960.889,1117.564c-3.826,0-7.707-0.917-11.315-2.851c-11.683-6.261-16.079-20.807-9.818-32.49
						l40.198-75.015l-7.727-64.912c-1.566-13.162,7.833-25.102,20.995-26.668c13.168-1.569,25.102,7.833,26.669,20.995l8.62,72.42
						c0.581,4.887-0.354,9.834-2.678,14.172l-43.77,81.68C977.737,1112.971,969.452,1117.564,960.889,1117.564z"/>
				</g>
				<g>
					<path style="fill:#212121;" d="M967.22,890c-6.681,0-13.326-2.773-18.071-8.196l-125.04-142.9
						c-12.114-13.839-21.532-29.584-27.989-46.793c-6.46-17.177-9.74-35.228-9.74-53.631c0-36.099,12.82-71.037,36.131-98.557
						l164.746-244.746c6.513-10.013,19.621-13.838,30.631-8.467c11.913,5.812,16.864,20.17,11.053,32.083
						c-0.486,0.997-1.051,1.979-1.671,2.9l-165.71,246.18c-0.537,0.798-1.122,1.563-1.751,2.291
						c-16.398,18.976-25.429,43.237-25.429,68.317c0,12.612,2.246,24.978,6.674,36.751c4.427,11.799,10.876,22.58,19.175,32.061
						l125.042,142.903c8.729,9.975,7.718,25.137-2.257,33.866C978.462,888.045,972.828,890,967.22,890z"/>
				</g>
				<g>
					<path style="fill:#212121;" d="M1006.064,769.2c-6.412,0-12.81-2.554-17.535-7.608l-99.58-106.49
						c-7.531-8.054-8.605-20.203-2.605-29.454l154.15-237.629c7.216-11.121,22.077-14.285,33.196-7.074
						c11.12,7.214,14.287,22.076,7.073,33.196L936.829,636.026l86.761,92.782c9.053,9.681,8.543,24.869-1.138,33.922
						C1017.824,767.058,1011.938,769.2,1006.064,769.2z"/>
				</g>
				<g>
					<path style="fill:#212121;" d="M1208.37,890c-5.609,0-11.241-1.955-15.795-5.939c-9.975-8.729-10.985-23.891-2.257-33.866
						l125.04-142.9c8.296-9.469,14.748-20.251,19.186-32.06c4.431-11.777,6.676-24.142,6.676-36.756
						c0-25.082-9.033-49.343-25.435-68.313c-0.631-0.729-1.217-1.496-1.755-2.296l-165.7-246.18c-0.619-0.92-1.174-1.882-1.66-2.879
						c-5.812-11.913-0.87-26.291,11.043-32.103c11.057-5.394,24.228-1.528,30.709,8.583l164.655,244.627
						c23.319,27.517,36.143,62.455,36.143,98.56c0,18.407-3.279,36.458-9.747,53.65c-6.475,17.227-15.896,32.97-28.001,46.786
						l-125.03,142.888C1221.697,887.227,1215.051,890,1208.37,890z"/>
				</g>
				<g>
					<path style="fill:#212121;" d="M1169.535,769.2c-5.874,0-11.759-2.142-16.388-6.47c-9.681-9.053-10.19-24.241-1.138-33.922
						l86.762-92.782l-143.937-221.885c-7.214-11.12-4.047-25.982,7.073-33.196c11.119-7.212,25.983-4.046,33.196,7.073
						l154.15,237.63c6.001,9.25,4.926,21.4-2.604,29.454l-99.581,106.49C1182.345,766.646,1175.947,769.2,1169.535,769.2z"/>
				</g>
				<g>
					<path style="fill:#212121;" d="M1179.53,963.46H996.06c-5.655,0-11.128-1.997-15.455-5.639l-3.029-2.55
						c-22.931-19.251-36.095-46.315-36.095-74.231c0-6.82,0.789-13.696,2.345-20.438c2.191-9.48,5.885-18.617,10.981-27.164
						l20.529-34.504l22.803-39.78c6.592-11.5,21.257-15.478,32.757-8.886c11.499,6.592,15.478,21.258,8.886,32.757l-22.9,39.95
						c-0.064,0.112-0.13,0.225-0.196,0.336l-20.64,34.69c-2.555,4.285-4.385,8.788-5.451,13.403
						c-0.739,3.199-1.114,6.443-1.114,9.636c0,12.552,5.499,24.628,15.582,34.42h165.477c10.078-9.792,15.578-21.864,15.572-34.399
						c0-3.207-0.375-6.44-1.116-9.622c-0.04-0.174-0.078-0.348-0.115-0.523c-0.015-0.061-0.028-0.12-0.041-0.177
						c-1.079-4.358-2.86-8.645-5.298-12.745l-20.635-34.682l-24.397-40.909c-6.79-11.384-3.064-26.116,8.319-32.906
						c11.382-6.79,26.116-3.065,32.905,8.32l24.41,40.93l20.652,34.711c4.906,8.252,8.509,17.017,10.713,26.058
						c0.032,0.133,0.063,0.266,0.094,0.399c0.08,0.338,0.153,0.66,0.221,0.977c1.519,6.638,2.288,13.418,2.288,20.158
						c0.013,27.889-13.149,54.955-36.113,74.246l-3.047,2.555C1190.629,961.474,1185.17,963.46,1179.53,963.46z M1184.769,870.354
						c0.001,0.004,0.001,0.009,0.002,0.013l0,0C1184.77,870.362,1184.77,870.358,1184.769,870.354z"/>
				</g>
				<g>
					<path style="fill:#212121;" d="M1197.38,1605.56H1087.8c-13.255,0-24-10.745-24-24v-349.141l-140.382,58.952l28.195,5.922
						c7.356,1.545,13.563,6.446,16.771,13.244c3.208,6.797,3.046,14.705-0.437,21.365l-41.317,79.006l-0.066,0.216
						c-3.721,12.254-16.412,19.429-28.828,16.299l-143.26-36.091c-33.922-8.555-61.907-29.446-76.785-57.319
						c-12.875-24.121-14.957-51.424-5.862-76.878c7.902-22.123,23.458-40.987,44.987-54.551c0.392-0.247,0.791-0.482,1.196-0.706
						l231.3-127.67c3.551-1.96,7.542-2.988,11.598-2.988h237.501c-3.896-10.69-8.651-20.988-14.234-30.807
						c-0.027-0.048-0.055-0.097-0.082-0.146c-0.066-0.116-0.131-0.229-0.194-0.342c-6.746-11.806-14.541-23.304-23.169-34.174
						c-3.368-4.244-5.201-9.502-5.201-14.92v-51.37c0-13.255,10.745-24,24-24s24,10.745,24,24v43.183
						c8.121,10.802,15.548,22.08,22.135,33.622c0.042,0.073,0.083,0.147,0.124,0.221c0.061,0.104,0.118,0.207,0.176,0.309
						c12.688,22.34,21.899,46.632,27.382,72.205c0.022,0.104,0.044,0.208,0.064,0.313l0.058,0.266
						c0.055,0.255,0.108,0.51,0.161,0.766c13.337,62.959,15.354,127.173,5.995,190.855l-25.688,174.87l-12.675,127.857
						C1220.046,1596.205,1209.718,1605.56,1197.38,1605.56z M1111.8,1557.56h63.842l10.586-106.787
						c0.037-0.375,0.083-0.748,0.138-1.121l25.77-175.43c7.594-51.668,6.97-103.718-1.834-155.002H967.094l-225.234,124.321
						c-11.894,7.642-20.699,18.183-24.828,29.742c-5.749,16.089-1.539,29.613,3.005,38.127c8.52,15.961,25.348,28.127,46.171,33.378
						l124.438,31.349l20.075-38.386l-72.484-15.224c-10.278-2.158-17.959-10.749-18.958-21.204s4.916-20.345,14.599-24.411
						l244.629-102.73c7.41-3.112,15.884-2.308,22.578,2.14c6.692,4.449,10.715,11.952,10.715,19.988V1557.56z M1183.978,1040.055
						c0,0,0,0.001,0.001,0.001C1183.978,1040.056,1183.978,1040.055,1183.978,1040.055L1183.978,1040.055z"/>
				</g>
				<g>
					<path style="fill:#212121;" d="M1086.78,829.27h-0.19c-34.15,0-66.653-16.424-86.944-43.934
						c-7.447-10.068-13.038-21.289-16.6-33.327c-2.952-9.902-4.456-20.26-4.456-30.739V652c0-59.551,48.448-108,108-108h0.19
						c59.552,0,108,48.449,108,108v69.27c0,10.183-1.416,20.241-4.209,29.897c-0.479,1.702-1.016,3.407-1.638,5.196
						c-0.033,0.102-0.067,0.203-0.103,0.304c-3.376,9.757-8.151,18.979-14.191,27.406l0,0
						C1154.394,812.374,1121.55,829.27,1086.78,829.27z M1086.59,592c-33.084,0-60,26.916-60,60v69.27
						c0,5.833,0.831,11.577,2.47,17.074c1.981,6.697,5.07,12.897,9.195,18.474c11.469,15.549,29.079,24.452,48.335,24.452h0.19
						c19.315,0,37.566-9.392,48.82-25.124c0.006-0.007,0.011-0.015,0.017-0.022c3.283-4.579,5.889-9.572,7.746-14.846
						c0.048-0.146,0.098-0.291,0.148-0.436c0.346-0.981,0.629-1.872,0.867-2.723c0.021-0.075,0.042-0.149,0.063-0.224
						c1.552-5.34,2.338-10.934,2.338-16.625V652c0-33.084-26.916-60-60-60H1086.59z"/>
				</g>
				<g>
					<path style="fill:#212121;" d="M1059.96,425.1h-20.25c-31.231,0-56.64-25.413-56.64-56.65v-55.81
						c0-2.497,0.168-5.026,0.5-7.518c3.72-28.001,27.854-49.123,56.14-49.123h20.25c28.585,0,51.84,23.255,51.84,51.84
						c0,13.255-10.745,24-24,24s-24-10.745-24-24c0-2.117-1.723-3.84-3.84-3.84h-20.25c-4.315,0-7.994,3.203-8.559,7.45
						c-0.055,0.412-0.081,0.799-0.081,1.19v55.81c0,4.77,3.876,8.65,8.64,8.65h19.939c0.142-0.006,0.282-0.01,0.423-0.014
						c2.056-0.048,3.728-1.764,3.728-3.827c0-13.255,10.745-24,24-24s24,10.745,24,24c0,13.626-5.247,26.496-14.775,36.238
						c-9.388,9.597-21.9,15.11-35.288,15.561C1060.938,425.1,1060.313,425.1,1059.96,425.1z M1058.469,377.178
						c-0.006,0-0.011,0.001-0.017,0.001C1058.458,377.179,1058.463,377.178,1058.469,377.178z"/>
				</g>
				<g>
					<path style="fill:#212121;" d="M1135.88,425.1h-20.25c-0.35,0-0.967,0-1.758-0.042c-13.391-0.443-25.906-5.954-35.296-15.553
						c-9.528-9.742-14.776-22.614-14.776-36.246v-65.42c0-28.584,23.251-51.84,51.83-51.84h20.25
						c28.291,0,52.431,21.121,56.151,49.13c0,0.003,0.001,0.005,0.001,0.008c0.33,2.494,0.498,5.018,0.498,7.502v55.81
						C1192.53,399.687,1167.117,425.1,1135.88,425.1z M1117.118,377.176c0.007,0.001,0.013,0.001,0.02,0.002
						C1117.131,377.178,1117.125,377.177,1117.118,377.176z M1115.95,377.1h19.93c4.77,0,8.65-3.88,8.65-8.65v-55.81
						c0-0.387-0.026-0.777-0.082-1.193c-0.565-4.246-4.248-7.447-8.568-7.447h-20.25c-2.112,0-3.83,1.723-3.83,3.84v65.42
						c0,2.064,1.665,3.78,3.711,3.827C1115.657,377.089,1115.804,377.094,1115.95,377.1z"/>
				</g>
				<g>
					<path style="fill:#212121;" d="M1087.803,673.446c-8.806,0-17.285-4.859-21.489-13.268
						c-5.928-11.855-1.133-26.267,10.723-32.194l0.021-0.01c11.855-5.927,26.271-1.123,32.199,10.733
						c5.928,11.855,1.123,26.271-10.732,32.199C1095.077,672.629,1091.412,673.446,1087.803,673.446z"/>
				</g>
				<g>
					<path style="fill:#212121;" d="M1002.605,713.006c-9.053,0-17.72-5.147-21.783-13.898c-5.583-12.022-0.362-26.293,11.66-31.875
						l85.169-39.55c12.022-5.584,26.293-0.363,31.876,11.66c5.583,12.022,0.362,26.293-11.659,31.875l-85.17,39.55
						C1009.427,712.287,1005.989,713.006,1002.605,713.006z"/>
				</g>
				<g>
					<path style="fill:#212121;" d="M1170.765,712.006c-3.385,0-6.821-0.719-10.093-2.239l-82.627-38.372
						c-0.487-0.215-0.968-0.447-1.441-0.696c-11.735-6.161-16.265-20.675-10.104-32.411c5.816-11.08,19.064-15.731,30.4-11.034
						c0.329,0.135,0.655,0.278,0.978,0.428l83.011,38.55c12.021,5.583,17.242,19.854,11.659,31.876
						C1188.484,706.858,1179.816,712.006,1170.765,712.006z"/>
				</g>
			</g>
		</g>
	</g>
</g>
<g id="Layer_1">
</g>
</svg>
