<?xml version="1.0" encoding="iso-8859-1"?>
<!-- Generator: Adobe Illustrator 25.2.0, SVG Export Plug-In . SVG Version: 6.00 Build 0)  -->
<svg version="1.1" xmlns="http://www.w3.org/2000/svg" xmlns:xlink="http://www.w3.org/1999/xlink" x="0px" y="0px"
	 viewBox="0 0 2048 2048" style="enable-background:new 0 0 2048 2048;" xml:space="preserve">
<g id="_x32_670.S2_-_Person_Exercising">
	<g>
		<g id="XMLID_48_">
			<g>
				<g>
					<path style="fill:#898890;" d="M1535.2,650.69v68.05c0,40.7-32.99,73.68-73.68,73.68h-22.32V722.1
						c0-40.69,32.99-73.68,73.68-73.68h22.17C1535.09,649.17,1535.14,649.93,1535.2,650.69z"/>
				</g>
				<g>
					<path style="fill:#898890;" d="M1535.05,648.42c-1.37-26.26,11.23-49.72,30.26-66.7c9.33-8.33,20.21-15.11,31.75-19.89
						c34.45-14.27,75.02-10.26,100.88,13.14c2.14,1.93,4.18,4,6.09,6.2L1671,630.73c-14.67,22.01-37.8,36.96-63.89,41.31
						l-64.18,10.69c-3.41-8.89-5.97-17.83-7.11-26.39c-0.26-1.86-0.46-3.75-0.62-5.65C1535.14,649.93,1535.09,649.17,1535.05,648.42
						z"/>
				</g>
				<g>
					<path style="fill:#E2B481;" d="M1542.93,682.73l64.18-10.69c26.09-4.35,49.22-19.3,63.89-41.31l33.03-49.56
						c7.05,8.03,12.58,17.83,16.05,29.44l4.9,45.05l43.01,34.47l-19.37,23.09l5.58,64.92l-63.18,7.08l-10.67,99.7
						c-1.86-2.41-3.87-4.69-6.02-6.84c-12.88-12.88-30.67-20.86-50.33-20.86c-32.15,0.01-60.15,21.54-68.61,52.25l24.71-112.8
						c4.98-22.75,0.72-46.58-11.97-66.1C1559.32,717.01,1549.53,699.98,1542.93,682.73z"/>
				</g>
				<g>
					<path style="fill:#F0C894;" d="M310.63,1491.15c-3.25,2.15-7.05,3.3-10.94,3.3c-10.87-0.01-19.68-8.82-19.69-19.69v-15
						c0-27.36,9.31-53.91,26.41-75.27l61.52-76.9c8.31-10.39,23.18-12.7,34.25-5.33l20.97,13.98c23.4,15.6,51.87,21.71,79.62,17.09
						l110.74-18.46l153.93-25.66h128.28l152.28-45.68v159.29l-434.49,26.34l-230.89,13.98L310.63,1491.15z"/>
				</g>
				<g>
					<path style="fill:#F0C894;" d="M1518.94,1075.88l36.45-166.41c8.46-30.71,36.46-52.24,68.61-52.25
						c19.66,0,37.45,7.98,50.33,20.86c2.15,2.15,4.16,4.43,6.02,6.84c0.01,0.01,0.02,0.02,0.03,0.04l4.14,5.98
						c6.76,10.88,10.66,23.73,10.66,37.48c0,20.84-3.16,41.56-9.38,61.45l-79.98,261.28l-43.07,140.69l88.44,44.22
						c8.69,4.34,14.18,13.22,14.18,22.94v35.46h-153.93c-30.64-15.32-48.04-48.53-43.2-82.45l12.41-86.88l30.79-215.5l7.44-33.48
						L1518.94,1075.88z"/>
				</g>
				<g>
					<path style="fill:#4CAF50;" d="M1715.91,1144.33l-24.89,16.61l-13.47,26.94c-7.98,15.97-20,29.58-34.86,39.48l-36.06,24.04
						l-0.81-0.25l79.98-261.28c6.22-19.89,9.38-40.61,9.38-61.45c0-13.75-3.9-26.6-10.66-37.48l68.65,99.14
						C1782.89,1043.34,1766.66,1110.5,1715.91,1144.33z"/>
				</g>
				<g>
					<path style="fill:#4CAF50;" d="M1511.44,1109.63l-30.79,215.5l-123.14,41.05l-128.28,25.65L1048,1402.82v-159.29l104.27-31.28
						c42.13-70.22,126.42-103.05,204.95-79.82c4.04,1.22,8.08,2.56,12.09,4.07l65.16,24.44L1511.44,1109.63z"/>
				</g>
			</g>
			<g>
				<g>
					<path style="fill:#212121;" d="M299.69,1518.45c-24.079-0.021-43.668-19.611-43.69-43.669v-15.021
						c0-32.697,11.249-64.756,31.675-90.269l61.515-76.894c16.2-20.256,44.7-24.689,66.291-10.315l20.982,13.989
						c18.397,12.264,40.545,17.017,62.366,13.385l264.665-44.119c1.304-0.218,2.624-0.327,3.946-0.327h124.758l244.588-73.372
						c49.237-74.028,141.277-107.85,227.241-82.423c0.045,0.014,0.09,0.027,0.134,0.04c4.875,1.474,9.325,2.973,13.605,4.584
						l53.62,20.112l58.717-39.142l5.348-24.066c2.875-12.939,15.698-21.096,28.635-18.223c12.939,2.875,21.098,15.695,18.223,28.635
						l-7.439,33.48c-1.343,6.041-4.967,11.331-10.116,14.764l-76.971,51.311c-6.424,4.281-14.513,5.213-21.741,2.502l-65.16-24.44
						c-3.282-1.236-6.721-2.394-10.539-3.549c-68.019-20.082-141.001,8.354-177.492,69.175c-3.076,5.128-7.956,8.922-13.684,10.641
						l-256.55,76.96c-2.237,0.671-4.561,1.012-6.896,1.012H769.427l-262.71,43.793c-33.896,5.646-68.3-1.74-96.879-20.793
						l-20.97-13.981c-0.706-0.468-1.656-0.322-2.195,0.353l-61.521,76.902C311.51,1416.522,304,1437.927,304,1459.76v6.965
						l65.304-43.552c3.533-2.356,7.627-3.732,11.866-3.989l230.889-13.979l434.489-26.34l179.588-10.891l125.202-25.035
						l121.723-40.577c12.573-4.19,26.166,2.604,30.358,15.179c4.191,12.574-2.604,26.166-15.179,30.358l-123.141,41.05
						c-0.944,0.314-1.907,0.57-2.884,0.766l-128.279,25.65c-1.073,0.215-2.16,0.355-3.253,0.422l-181.23,10.99l-434.491,26.34
						l-224.42,13.588l-66.596,44.413C316.666,1515.933,308.305,1518.45,299.69,1518.45z"/>
				</g>
				<g>
					<path style="fill:#212121;" d="M1518.964,1099.885c-1.701,0-3.429-0.182-5.158-0.561c-12.948-2.836-21.146-15.631-18.31-28.58
						l61.159-279.21c3.6-16.44,0.448-33.894-8.646-47.883c-12.053-18.551-21.302-36.16-27.494-52.344
						c-4.305-11.222-7.157-21.897-8.473-31.711c-0.3-2.15-0.548-4.405-0.757-6.89c-0.003-0.037-0.006-0.073-0.009-0.109
						c-0.078-0.97-0.142-1.94-0.192-2.897c-1.665-31.902,11.919-62.394,38.247-85.886c11.193-9.995,24.524-18.349,38.545-24.156
						c20.986-8.693,43.718-11.877,65.733-9.208c23.342,2.83,44.239,12.072,60.435,26.726c2.843,2.564,5.571,5.342,8.082,8.23
						c9.56,10.909,16.607,23.806,20.949,38.333c0.417,1.396,0.706,2.828,0.864,4.277l3.823,35.147l35.236,28.24
						c5.04,4.039,8.239,9.938,8.875,16.365c0.636,6.427-1.346,12.839-5.497,17.787l-12.996,15.492l4.731,55.039
						c1.114,12.965-8.308,24.457-21.239,25.906l-44.039,4.935l-8.621,80.548c-1.41,13.18-13.225,22.725-26.417,21.31
						c-13.18-1.411-22.721-13.238-21.31-26.417l10.67-99.7c1.197-11.189,10.008-20.044,21.19-21.297l39.938-4.476l-3.577-41.619
						c-0.544-6.328,1.443-12.614,5.525-17.48l3.596-4.287l-23.857-19.121c-4.977-3.988-8.161-9.792-8.851-16.132l-4.645-42.695
						c-2.371-7.093-5.892-13.328-10.482-18.557c-0.028-0.033-0.057-0.065-0.085-0.098c-1.243-1.431-2.603-2.815-4.042-4.113
						c-18.202-16.471-48.582-19.991-75.623-8.79c-9.099,3.769-17.726,9.17-24.95,15.62c-8.838,7.886-23.477,24.543-22.276,47.546
						c0.026,0.499,0.061,1.032,0.103,1.565c0.136,1.601,0.289,2.999,0.468,4.273c0.008,0.055,0.016,0.11,0.022,0.165
						c0.816,6.129,2.743,13.182,5.728,20.962c4.926,12.874,12.849,27.861,22.918,43.36c16.042,24.675,21.615,55.407,15.288,84.308
						l-61.159,279.213C1539.928,1092.233,1529.994,1099.885,1518.964,1099.885z"/>
				</g>
				<g>
					<path style="fill:#212121;" d="M1606.652,1275.403c-7.756,0-15.367-3.753-19.992-10.69c-7.352-11.028-4.372-25.93,6.657-33.282
						l36.061-24.04c11.372-7.576,20.604-18.031,26.703-30.238l13.473-26.945c1.865-3.732,4.673-6.913,8.144-9.229l24.891-16.61
						c39.769-26.51,52.883-79.742,30.152-121.633l-72.094-104.114c-7.544-10.898-4.825-25.849,6.073-33.393
						s25.849-4.825,33.394,6.073l72.788,105.117c0.44,0.636,0.85,1.293,1.227,1.968c17.324,31.047,22.267,67.179,13.917,101.742
						c-8.349,34.56-29.239,64.452-58.823,84.173l-19.584,13.069l-10.622,21.244c-9.827,19.669-24.704,36.518-43.018,48.72
						l-36.056,24.037C1615.852,1274.098,1611.226,1275.403,1606.652,1275.403z"/>
				</g>
				<g>
					<path style="fill:#212121;" d="M1518.902,1100.155c-1.74,0-3.506-0.19-5.273-0.587c-12.934-2.9-21.067-15.736-18.168-28.669
						l0.061-0.27l26.689-120.134c2.875-12.939,15.7-21.1,28.634-18.224c12.939,2.875,21.099,15.694,18.224,28.634l-26.77,120.496
						C1539.795,1092.566,1529.886,1100.155,1518.902,1100.155z"/>
				</g>
				<g>
					<path style="fill:#212121;" d="M1665.37,1518.46h-153.93c-3.726,0-7.4-0.867-10.733-2.533
						c-39.939-19.97-62.535-63.094-56.227-107.307l43.201-302.385c0.084-0.584,0.188-1.164,0.314-1.741l43.079-196.669
						c0.357-1.615,0.754-3.208,1.189-4.776c11.317-41.081,49.042-69.815,91.729-69.828c25.422,0,49.322,9.905,67.308,27.889
						c2.877,2.876,5.587,5.956,8.051,9.151c0.025,0.033,0.051,0.065,0.076,0.098c1.94,2.512,3.793,5.19,5.507,7.963
						c9.309,14.98,14.245,32.32,14.245,50.098c0,23.278-3.516,46.335-10.45,68.538l-79.96,261.217l-37.128,121.278l70.282,35.141
						c16.927,8.455,27.446,25.473,27.446,44.406v35.46C1689.37,1507.715,1678.625,1518.46,1665.37,1518.46z M1517.643,1470.46
						h123.728V1459c0-0.628-0.347-1.191-0.905-1.471l-88.448-44.224c-10.481-5.24-15.646-17.285-12.215-28.491l43.07-140.689
						l79.979-261.28c0.015-0.046,0.028-0.092,0.043-0.138c5.498-17.583,8.286-35.848,8.286-54.287
						c0-8.815-2.437-17.396-7.045-24.813c-0.881-1.425-1.787-2.736-2.725-3.945c-0.042-0.054-0.083-0.108-0.124-0.162
						c-1.198-1.545-2.518-3.041-3.925-4.447c-8.921-8.921-20.768-13.833-33.361-13.833c-21.156,0.006-39.858,14.244-45.473,34.624
						c-0.224,0.807-0.406,1.541-0.573,2.293l-42.88,195.763l-43.075,301.503C1488.86,1437.403,1499.057,1458.903,1517.643,1470.46z"
						/>
				</g>
				<g>
					<path style="fill:#212121;" d="M1542.9,706.734c-11.521,0-21.689-8.32-23.645-20.061c-2.178-13.075,6.656-25.439,19.73-27.617
						l64.181-10.69c19.472-3.247,36.918-14.526,47.862-30.947l33.03-49.56c7.351-11.029,22.249-14.014,33.281-6.661
						c11.029,7.351,14.012,22.251,6.66,33.281l-33.03,49.56c-18.274,27.418-47.401,46.252-79.913,51.673l-64.185,10.69
						C1545.538,706.626,1544.21,706.734,1542.9,706.734z"/>
				</g>
				<g>
					<path style="fill:#212121;" d="M1461.52,816.42H1439.2c-13.255,0-24-10.745-24-24V722.1c0-53.861,43.819-97.68,97.68-97.68
						h22.17c13.097,0,23.744,10.491,23.995,23.528c0.103,0.9,0.155,1.815,0.155,2.742v68.05
						C1559.2,772.601,1515.381,816.42,1461.52,816.42z M1511.2,672.448c-26.619,0.889-48,22.82-48,49.652v46.292
						c26.62-0.889,48-22.82,48-49.652V672.448z"/>
				</g>
				<g>
					<path style="fill:#212121;" d="M1048,1426.82c-13.255,0-24-10.745-24-24v-159.29c0-13.255,10.745-24,24-24s24,10.745,24,24
						v159.29C1072,1416.075,1061.255,1426.82,1048,1426.82z"/>
				</g>
			</g>
		</g>
	</g>
</g>
<g id="Layer_1">
</g>
</svg>
