<?xml version="1.0" encoding="iso-8859-1"?>
<!-- Generator: Adobe Illustrator 25.2.0, SVG Export Plug-In . SVG Version: 6.00 Build 0)  -->
<svg version="1.1" xmlns="http://www.w3.org/2000/svg" xmlns:xlink="http://www.w3.org/1999/xlink" x="0px" y="0px"
	 viewBox="0 0 2048 2048" style="enable-background:new 0 0 2048 2048;" xml:space="preserve">
<g id="_x32_671.S2_-_Person_Climbing_Stairs">
	<g>
		<g id="XMLID_49_">
			<g>
				<g>
					<polygon style="fill:#C9CFD1;" points="1768,1070.8 1768,1170 1445.6,1170 1445.6,1418 1197.6,1418 1197.6,1666 776,1666 
						776,1566.8 825.6,1566.8 972.69,1566.8 1098.4,1566.8 1098.4,1318.8 1346.4,1318.8 1346.4,1070.8 					"/>
				</g>
				<g>
					<polygon style="fill:#E1E6E9;" points="1768,1170 1768,1765.2 776,1765.2 776,1666 1197.6,1666 1197.6,1418 1445.6,1418 
						1445.6,1170 					"/>
				</g>
				<g>
					<path style="fill:#898890;" d="M518.49,462.94h20.58c-8.08,12.62-12.78,27.64-12.78,43.72v33.7
						c-2.7,46.81-41.52,83.94-89.02,83.94h-7.95v-72.19C429.32,502.86,469.24,462.94,518.49,462.94z"/>
				</g>
				<g>
					<path style="fill:#898890;" d="M526.29,558.55v-18.19v-33.7c0-16.08,4.7-31.1,12.78-43.72c14.83-23.16,41.06-38.23,70.53-36.85
						c42.17,1.97,75.76,36.78,75.76,79.44h-53.02c-16.98,0-33.26,6.74-45.27,18.75l-15.52,15.52
						C559.55,551.8,543.27,558.55,526.29,558.55z"/>
				</g>
				<g>
					<path style="fill:#F5D3A6;" d="M685.36,505.53v78.4c0,45.58-37.78,82.7-83.31,80.57c-42.17-1.97-75.76-36.78-75.76-79.44
						v-26.51c16.98,0,33.26-6.75,45.26-18.75l15.52-15.52c12.01-12.01,28.29-18.75,45.27-18.75H685.36z"/>
				</g>
				<g>
					<path style="fill:#F5D3A6;" d="M436.27,739.52l72.3-0.01c-1.12,5.75-1.7,11.69-1.7,17.77v92.78l-25.2-9.85
						c-23.59-9.22-50.19,2.31-59.6,25.82l-25.6,64c-6.89,17.22-10.43,35.61-10.43,54.16v0.02c0,28.4-23.02,51.43-51.43,51.43h-2.28
						c-28.72,0.19-52.14-22.94-52.33-51.66c0-0.08,0-0.16,0-0.24v-1.14c0-17.58,2.45-35.07,7.28-51.98l62.21-135.45
						C365.07,761.27,398.96,739.53,436.27,739.52z"/>
				</g>
				<g>
					<path style="fill:#F5D3A6;" d="M1018.26,722.95c1.13,17.64-7.35,33.38-20.71,42.5c-10.66,7.27-21.14,14.81-30.98,23.17
						l-54.68,46.53c-17.81,17.81-130.98,86.75-156.17,86.75c-23.41,0-45.92-8.65-63.28-24.16c-1.32-1.18-2.61-2.4-3.87-3.66
						l-72.14-72.13c-11.56-11.57-18.06-27.25-18.06-43.6c0-29.63,24.24-53.59,53.97-53.13c14.97,0.22,29.03,6.99,39.02,18.05
						c0.75,0.83,1.48,1.68,2.18,2.56l42.41,53.01c11.29,14.11,31.33,17.6,46.73,8.12l87.04-53.6
						c24.16-14.88,45.95-33.55,63.16-56.11c9.28-12.18,24.3-19.74,41.03-18.66C997.59,680.13,1016.73,699.28,1018.26,722.95z"/>
				</g>
				<g>
					<path style="fill:#8BC34A;" d="M692.44,897.74l-18.39,183.39H506.87V850.06v-92.78c0-6.08,0.58-12.02,1.7-17.77
						c3.59-18.49,12.66-35.03,25.47-47.84c16.8-16.79,39.98-27.17,65.61-27.17c46.47,0,84.97,34.16,91.74,78.75l-0.03,0.02
						c-9.99-11.06-24.05-17.83-39.02-18.05c-29.73-0.46-53.97,23.5-53.97,53.13c0,16.35,6.5,32.03,18.06,43.6l72.14,72.13
						C689.83,895.34,691.12,896.56,692.44,897.74z"/>
				</g>
				<g>
					<polygon style="fill:#6ABFD3;" points="999.2,1513.78 972.69,1566.8 825.6,1566.8 825.6,1506.08 922.85,1454.1 					"/>
				</g>
				<g>
					<polygon style="fill:#6ABFD3;" points="652,1740.4 652,1790 503.2,1790 506.87,1690.8 612.91,1690.8 					"/>
				</g>
				<g>
					<polygon style="fill:#898890;" points="506.87,1191.49 506.87,1081.13 674.05,1081.13 670.8,1113.56 658.19,1239.26 
						612.91,1690.8 506.87,1690.8 					"/>
				</g>
				<g>
					<path style="fill:#898890;" d="M868.67,1201.32l56.13,251.74l-1.95,1.04l-1.33-1.04l-95.92,53.02l-67.31-241.23
						c-4.16-16-18.75-27.05-35.28-26.71l-64.68,1.13l-0.14-0.01l12.61-125.7h89.95C812.97,1113.56,858.03,1150.2,868.67,1201.32z"/>
				</g>
			</g>
			<g>
				<g>
					<path style="fill:#212121;" d="M1768,1789.2H776c-13.255,0-24-10.745-24-24v-198.4c0-13.255,10.745-24,24-24h49.6
						c13.255,0,24,10.745,24,24s-10.745,24-24,24H800v150.4h944v-646.4h-373.6v224c0,13.255-10.745,24-24,24h-224v224
						c0,13.255-10.745,24-24,24H972.69c-13.255,0-24-10.745-24-24s10.745-24,24-24h101.71v-224c0-13.255,10.745-24,24-24h224v-224
						c0-13.255,10.745-24,24-24H1768c13.255,0,24,10.745,24,24v694.4C1792,1778.455,1781.255,1789.2,1768,1789.2z"/>
				</g>
				<g>
					<path style="fill:#212121;" d="M605.847,688.589c-1.636,0-3.273-0.038-4.919-0.115c-55.311-2.584-98.638-48.009-98.638-103.414
						v-78.4c0-20.138,5.729-39.731,16.567-56.661c20.012-31.252,55.217-49.598,91.865-47.883
						c55.31,2.584,98.637,48.009,98.637,103.414v78.4c0,28.594-11.862,56.314-32.545,76.052
						C657.375,678.533,632.334,688.589,605.847,688.589z M605.854,450.002c-18.848,0-36.109,9.539-46.573,25.88
						c-5.882,9.188-8.991,19.831-8.991,30.778v78.4c0,29.717,23.228,54.081,52.88,55.466c15.064,0.706,29.45-4.718,40.506-15.269
						c11.403-10.883,17.684-25.56,17.684-41.327v-78.4c0-29.717-23.228-54.081-52.88-55.466
						C607.603,450.022,606.725,450.002,605.854,450.002z"/>
				</g>
				<g>
					<path style="fill:#212121;" d="M506.87,1714.8c-13.255,0-24-10.745-24-24V757.28c0-7.535,0.721-15.057,2.142-22.357
						c4.439-22.863,15.525-43.692,32.057-60.224c22.068-22.055,51.395-34.199,82.581-34.199c28.104,0,55.265,10.128,76.479,28.52
						c20.99,18.198,34.837,43.28,38.989,70.628c1.99,13.104-7.021,25.341-20.125,27.331c-13.103,1.994-25.341-7.021-27.331-20.125
						c-5.051-33.266-34.29-58.353-68.012-58.353c-18.37,0-35.646,7.154-48.644,20.146c-9.736,9.736-16.265,21.992-18.876,35.439
						c-0.837,4.297-1.26,8.732-1.26,13.195v933.52C530.87,1704.055,520.125,1714.8,506.87,1714.8z"/>
				</g>
				<g>
					<path style="fill:#212121;" d="M612.939,1714.802c-0.802,0-1.609-0.04-2.423-0.122c-13.189-1.322-22.808-13.086-21.486-26.274
						l45.28-451.54l34.25-341.52c1.322-13.188,13.091-22.807,26.275-21.486c13.189,1.323,22.808,13.086,21.486,26.275l-79.53,793.06
						C635.55,1705.568,625.116,1714.802,612.939,1714.802z"/>
				</g>
				<g>
					<path style="fill:#212121;" d="M972.69,1590.8H825.6c-13.255,0-24-10.745-24-24v-60.72c0-8.734,4.745-16.779,12.39-21.005
						l95.92-53.021c8.424-4.654,18.812-3.83,26.394,2.099l77.677,60.718c8.996,7.032,11.793,19.43,6.686,29.643l-26.51,53.02
						C990.091,1585.664,981.78,1590.8,972.69,1590.8z M849.6,1542.8h108.257l11.099-22.198l-49.715-38.86l-69.642,38.495V1542.8z"/>
				</g>
				<g>
					<path style="fill:#212121;" d="M650.21,1215.49H506.87c-13.255,0-24-10.745-24-24s10.745-24,24-24h143.34
						c13.255,0,24,10.745,24,24S663.465,1215.49,650.21,1215.49z"/>
				</g>
				<g>
					<path style="fill:#212121;" d="M652,1814H503.2c-6.519,0-12.758-2.652-17.281-7.346c-4.524-4.694-6.943-11.027-6.702-17.542
						l3.67-99.2c0.477-12.9,11.074-23.112,23.983-23.112h106.04c7.353,0,14.299,3.37,18.85,9.145l39.09,49.601
						c3.336,4.233,5.15,9.466,5.15,14.855v49.6C676,1803.255,665.255,1814,652,1814z M528.104,1766H628v-17.279l-26.733-33.921
						h-71.269L528.104,1766z"/>
				</g>
				<g>
					<path style="fill:#212121;" d="M526.29,582.55c-13.255,0-24-10.745-24-24s10.745-24,24-24c10.685,0,20.731-4.163,28.289-11.721
						l15.52-15.52c16.625-16.624,38.729-25.779,62.241-25.779h53.02c13.255,0,24,10.745,24,24s-10.745,24-24,24h-53.02
						c-10.691,0-20.741,4.163-28.3,11.721l-15.52,15.52C571.896,573.395,549.796,582.55,526.29,582.55z"/>
				</g>
				<g>
					<path style="fill:#212121;" d="M331.979,1059.641c-41.669,0.002-75.702-33.763-75.978-75.502c0-0.053,0-0.106,0-0.159v-1.38
						c0-19.808,2.76-39.514,8.203-58.571c0.335-1.172,0.758-2.317,1.268-3.426l62.21-135.45
						c19.436-42.29,62.056-69.621,108.583-69.633l72.303-0.01c13.255-0.002,24.001,10.742,24.003,23.997
						s-10.742,24.001-23.997,24.003l-72.3,0.01c-27.839,0.007-53.345,16.365-64.976,41.672L309.88,938.916
						c-3.902,14.238-5.88,28.925-5.88,43.684v1.285c0.065,7.459,3.022,14.449,8.328,19.688c5.319,5.252,12.339,8.102,19.843,8.068
						c0.053,0,0.106,0,0.159,0h2.28c15.125,0,27.43-12.305,27.43-27.43c0-21.729,4.087-42.95,12.147-63.096l25.599-63.998
						c14.253-35.609,54.905-53.221,90.62-39.26l25.201,9.851c12.345,4.825,18.441,18.745,13.616,31.09s-18.746,18.441-31.09,13.616
						l-25.2-9.85c-11.262-4.402-24.085,1.153-28.582,12.385l-25.598,63.995c-5.782,14.452-8.713,29.674-8.713,45.247
						c0,41.612-33.838,75.45-75.43,75.45h-2.204C332.266,1059.641,332.119,1059.641,331.979,1059.641z"/>
				</g>
				<g>
					<path style="fill:#212121;" d="M755.72,945.9c-29.275,0-57.428-10.748-79.271-30.262c-0.002-0.002-0.005-0.004-0.007-0.007
						c-1.643-1.468-3.271-3.008-4.84-4.577l-72.142-72.132c-16.183-16.197-25.091-37.706-25.091-60.572
						c0-20.833,8.174-40.355,23.018-54.971c14.839-14.61,34.479-22.474,55.323-22.156c21.254,0.312,41.839,9.774,56.459,25.96
						c1.143,1.265,2.174,2.477,3.149,3.703l42.371,52.961c3.717,4.645,10.342,5.795,15.409,2.675l87.037-53.598
						c22.959-14.141,42.024-31.041,56.663-50.23c14.563-19.114,37.609-29.606,61.658-28.054
						c35.751,2.325,64.445,31.027,66.753,66.763c1.638,25.574-9.999,49.446-31.129,63.869c-8.273,5.643-19.034,13.195-28.972,21.638
						l-54.053,45.997c-12.943,12.382-49.959,36.015-79.472,53.075C779.526,945.9,762.231,945.9,755.72,945.9z M755.044,897.928
						C755.043,897.928,755.043,897.928,755.044,897.928C755.043,897.928,755.043,897.928,755.044,897.928z M708.43,879.843
						c12.921,11.544,29.539,17.946,46.839,18.056c6.401-0.923,30.5-10.88,71.843-34.953c35.989-20.955,62.504-39.462,67.807-44.766
						c0.455-0.455,0.927-0.891,1.417-1.307l54.68-46.53c11.667-9.913,23.77-18.417,33.011-24.72
						c6.978-4.763,10.824-12.667,10.281-21.138c-0.746-11.548-10.391-21.193-21.956-21.945c-7.945-0.507-15.575,2.947-20.382,9.256
						c-18.233,23.901-41.669,44.757-69.664,62l-87.042,53.601c-9.708,5.976-20.548,8.858-31.288,8.858
						c-17.66,0.001-35.058-7.787-46.766-22.42l-42.411-53.011c-0.384-0.483-0.78-0.946-1.247-1.463
						c-5.717-6.329-13.576-10.025-21.564-10.142c-7.889-0.106-15.32,2.849-20.922,8.365c-5.607,5.521-8.695,12.896-8.695,20.768
						c0,10.053,3.92,19.513,11.038,26.637l72.131,72.121C706.478,878.046,707.451,878.967,708.43,879.843L708.43,879.843z"/>
				</g>
				<g>
					<path style="fill:#212121;" d="M437.27,648.3h-7.95c-13.255,0-24-10.745-24-24v-72.19c0-62.402,50.768-113.17,113.17-113.17
						h20.58c13.255,0,24.01,10.745,24.01,24s-10.735,24-23.99,24h-20.6c-35.935,0-65.17,29.235-65.17,65.17v46.193
						c26.927-6.832,47.345-30.453,49.01-59.325c0.003-0.046,0.006-0.093,0.009-0.139c0.074-1.169,0.112-2.42,0.112-3.719
						c0-13.255,10.745-24,24-24s24,10.745,24,24c0,2.284-0.069,4.535-0.204,6.692C546.767,601.533,497.155,648.3,437.27,648.3z"/>
				</g>
				<g>
					<path style="fill:#212121;" d="M1197.6,1690H776c-13.255,0-24-10.745-24-24s10.745-24,24-24h397.6v-224
						c0-13.255,10.745-24,24-24h224v-224c0-13.255,10.745-24,24-24H1768c13.255,0,24,10.745,24,24s-10.745,24-24,24h-298.4v224
						c0,13.255-10.745,24-24,24h-224v224C1221.6,1679.255,1210.854,1690,1197.6,1690z"/>
				</g>
				<g>
					<path style="fill:#212121;" d="M674.05,1105.13H506.87c-13.255,0-24-10.745-24-24s10.745-24,24-24h167.18
						c13.255,0,24,10.745,24,24S687.305,1105.13,674.05,1105.13z"/>
				</g>
				<g>
					<path style="fill:#212121;" d="M825.6,1530.08c-3.203,0-6.413-0.641-9.432-1.932c-6.694-2.86-11.728-8.605-13.684-15.618
						l-67.311-241.23c-0.038-0.137-0.075-0.273-0.11-0.411c-1.369-5.266-6.092-8.905-11.56-8.754l-64.753,1.131
						c-0.143,0.003-0.286,0.004-0.428,0.004c-13.06,0.001-23.759-10.471-23.988-23.581c-0.231-13.253,10.325-24.184,23.578-24.415
						l64.68-1.13c27.613-0.565,51.799,17.691,58.865,44.431l59.219,212.235l56.731-30.324l-52.162-233.942
						c-0.024-0.11-0.048-0.221-0.072-0.332c-8.279-39.779-43.785-68.651-84.423-68.651H670.8c-13.255,0-24.03-10.745-24.03-24
						s10.715-24,23.97-24h90.01c30.755,0,60.833,10.687,84.694,30.09c23.816,19.367,40.391,46.568,46.686,76.606l56.095,251.581
						c2.347,10.524-2.615,21.323-12.129,26.398l-1.95,1.04l-97.232,51.971C833.389,1529.13,829.499,1530.08,825.6,1530.08z"/>
				</g>
			</g>
		</g>
	</g>
</g>
<g id="Layer_1">
</g>
</svg>
