<?xml version="1.0" encoding="iso-8859-1"?>
<!-- Generator: Adobe Illustrator 25.2.0, SVG Export Plug-In . SVG Version: 6.00 Build 0)  -->
<svg version="1.1" xmlns="http://www.w3.org/2000/svg" xmlns:xlink="http://www.w3.org/1999/xlink" x="0px" y="0px"
	 viewBox="0 0 2048 2048" style="enable-background:new 0 0 2048 2048;" xml:space="preserve">
<g id="_x32_672.S2_-_Fitness">
	<g>
		<g id="XMLID_50_">
			<g>
				<g>
					<polygon style="fill:#C6C5CB;" points="1668.8,838 1668.8,1061.2 1520,1061.2 1520,416.4 1668.8,416.4 1668.8,639.6 					"/>
				</g>
				<g>
					<path style="fill:#C6C5CB;" d="M1371.2,639.6V838H1272V735.95c0-12.12-9.83-21.95-21.95-21.95h-12.25
						c5.94-8.87,9.4-19.53,9.4-31v-43.4H1371.2z"/>
				</g>
				<g>
					<path style="fill:#C6C5CB;" d="M1042.16,819.84c11.22,11.22,26.72,18.16,43.84,18.16H776h-99.2V639.6h124v45.2
						c0,29.82,24.18,54,54,54h3.6c29.82,0,54-24.18,54-54c0,29.82,24.18,54,54,54h3.6c29.82,0,54-24.18,54-54V683
						c0,18.46,8.96,34.82,22.77,44.98v0.01c-13.9,11.37-22.77,28.65-22.77,48.01C1024,793.12,1030.94,808.62,1042.16,819.84z"/>
				</g>
				<g>
					<polygon style="fill:#C6C5CB;" points="528,416.4 528,1061.2 379.2,1061.2 379.2,838 379.2,639.6 379.2,416.4 					"/>
				</g>
				<g>
					<rect x="1668.8" y="639.6" style="fill:#898890;" width="99.2" height="198.4"/>
				</g>
				<g>
					<polygon style="fill:#898890;" points="1520,416.4 1520,1061.2 1520,1135.6 1371.2,1135.6 1371.2,838 1371.2,639.6 1371.2,342 
						1520,342 					"/>
				</g>
				<g>
					<rect x="280" y="639.6" style="fill:#898890;" width="99.2" height="198.4"/>
				</g>
				<g>
					<polygon style="fill:#898890;" points="676.8,838 676.8,1135.6 528,1135.6 528,1061.2 528,416.4 528,342 676.8,342 
						676.8,639.6 					"/>
				</g>
				<g>
					<rect x="875.2" y="1185.2" style="fill:#8BC34A;" width="347.2" height="520.8"/>
				</g>
				<g>
					<path style="fill:#F0C894;" d="M1247.2,639.6V683c0,11.47-3.46,22.13-9.4,31H1145c-5.94-8.87-9.4-19.53-9.4-31v-86.8
						c0-30.81,24.99-55.8,55.8-55.8c15.41,0,29.36,6.24,39.45,16.35c10.11,10.09,16.35,24.04,16.35,39.45V639.6z"/>
				</g>
				<g>
					<path style="fill:#F0C894;" d="M1135.6,596.2V683c0,11.47-3.46,22.13-9.4,31H1086c-14.88,0-28.54,5.24-39.23,13.99v-0.01
						C1032.96,717.82,1024,701.46,1024,683v-86.8c0-30.81,24.99-55.8,55.8-55.8c15.41,0,29.36,6.24,39.45,16.35
						C1129.36,566.84,1135.6,580.79,1135.6,596.2z"/>
				</g>
				<g>
					<path style="fill:#F0C894;" d="M1024,683v1.8c0,29.82-24.18,54-54,54h-3.6c-29.82,0-54-24.18-54-54v-90.4
						c0-29.82,24.18-54,54-54h3.6c29.82,0,54,24.18,54,54v1.8V683z"/>
				</g>
				<g>
					<path style="fill:#F0C894;" d="M912.4,594.4v90.4c0,29.82-24.18,54-54,54h-3.6c-29.82,0-54-24.18-54-54v-45.2v-45.2
						c0-29.82,24.18-54,54-54h3.6C888.22,540.4,912.4,564.58,912.4,594.4z"/>
				</g>
				<g>
					<path style="fill:#F0C894;" d="M1086,838c-17.12,0-32.62-6.94-43.84-18.16C1030.94,808.62,1024,793.12,1024,776
						c0-19.36,8.87-36.64,22.77-48.01c10.69-8.75,24.35-13.99,39.23-13.99h40.2h18.8h92.8h12.25c12.12,0,21.95,9.83,21.95,21.95V838
						v123.18c0,49.82-8.03,99.32-23.79,146.58l-25.81,77.44H875.2l-32.41-40.51c-43.24-54.05-66.79-121.2-66.79-190.41V838H1086z"/>
				</g>
			</g>
			<g>
				<g>
					<path style="fill:#212121;" d="M528,1085.2H379.2c-13.255,0-24-10.745-24-24V416.4c0-13.255,10.745-24,24-24H528
						c13.255,0,24,10.745,24,24s-10.745,24-24,24H403.2v596.8H528c13.255,0,24,10.745,24,24S541.255,1085.2,528,1085.2z"/>
				</g>
				<g>
					<path style="fill:#212121;" d="M676.8,1159.6H528c-13.255,0-24-10.745-24-24V342c0-13.255,10.745-24,24-24h148.8
						c13.255,0,24,10.745,24,24v793.6C700.8,1148.854,690.055,1159.6,676.8,1159.6z M552,1111.6h100.8V366H552V1111.6z"/>
				</g>
				<g>
					<path style="fill:#212121;" d="M1668.8,1085.2H1520c-13.255,0-24-10.745-24-24s10.745-24,24-24h124.8V440.4H1520
						c-13.255,0-24-10.745-24-24s10.745-24,24-24h148.8c13.255,0,24,10.745,24,24v644.8
						C1692.8,1074.455,1682.055,1085.2,1668.8,1085.2z"/>
				</g>
				<g>
					<path style="fill:#212121;" d="M1520,1159.6h-148.8c-13.255,0-24-10.745-24-24V342c0-13.255,10.745-24,24-24H1520
						c13.255,0,24,10.745,24,24v793.6C1544,1148.854,1533.255,1159.6,1520,1159.6z M1395.2,1111.6H1496V366h-100.8V1111.6z"/>
				</g>
				<g>
					<path style="fill:#212121;" d="M379.2,862H280c-13.255,0-24-10.745-24-24V639.6c0-13.255,10.745-24,24-24h99.2
						c13.255,0,24,10.745,24,24s-10.745,24-24,24H304V814h75.2c13.255,0,24,10.745,24,24S392.455,862,379.2,862z"/>
				</g>
				<g>
					<path style="fill:#212121;" d="M1768,862h-99.2c-13.255,0-24-10.745-24-24s10.745-24,24-24h75.2V663.6h-75.2
						c-13.255,0-24-10.745-24-24s10.745-24,24-24h99.2c13.255,0,24,10.745,24,24V838C1792,851.255,1781.255,862,1768,862z"/>
				</g>
				<g>
					<path style="fill:#212121;" d="M800.8,663.6h-124c-13.255,0-24-10.745-24-24s10.745-24,24-24h124c13.255,0,24,10.745,24,24
						S814.055,663.6,800.8,663.6z"/>
				</g>
				<g>
					<path style="fill:#212121;" d="M1371.2,663.6h-124c-13.255,0-24-10.745-24-24s10.745-24,24-24h124c13.255,0,24,10.745,24,24
						S1384.455,663.6,1371.2,663.6z"/>
				</g>
				<g>
					<path style="fill:#212121;" d="M1086,862H676.8c-13.255,0-24-10.745-24-24s10.745-24,24-24H1086c13.255,0,24,10.745,24,24
						S1099.255,862,1086,862z"/>
				</g>
				<g>
					<path style="fill:#212121;" d="M1371.2,862H1272c-13.255,0-24-10.745-24-24s10.745-24,24-24h99.2c13.255,0,24,10.745,24,24
						S1384.455,862,1371.2,862z"/>
				</g>
				<g>
					<path style="fill:#212121;" d="M858.4,762.8h-3.6c-43.009,0-78-34.991-78-78v-90.4c0-43.009,34.991-78,78-78h3.6
						c43.009,0,78,34.991,78,78c0,13.255-10.745,24-24,24s-24-10.745-24-24c0-16.542-13.458-30-30-30h-3.6
						c-16.542,0-30,13.458-30,30v90.4c0,16.542,13.458,30,30,30h3.6c16.542,0,30-13.458,30-30c0-13.255,10.745-24,24-24
						s24,10.745,24,24C936.4,727.809,901.409,762.8,858.4,762.8z"/>
				</g>
				<g>
					<path style="fill:#212121;" d="M970,762.8h-3.6c-43.009,0-78-34.991-78-78v-90.4c0-43.009,34.991-78,78-78h3.6
						c43.01,0,78,34.991,78,78v1.8c0,13.255-10.745,24-24,24s-24-10.745-24-24v-1.8c0-16.542-13.458-30-30-30h-3.6
						c-16.542,0-30,13.458-30,30v90.4c0,16.542,13.458,30,30,30h3.6c16.542,0,30-13.458,30-30V683c0-13.255,10.745-24,24-24
						s24,10.745,24,24v1.8C1048,727.809,1013.01,762.8,970,762.8z"/>
				</g>
				<g>
					<path style="fill:#212121;" d="M1046.75,751.981c-4.938,0-9.92-1.519-14.203-4.67C1012.167,732.317,1000,708.276,1000,683
						v-86.8c0-44.002,35.798-79.8,79.8-79.8c21.337,0,41.38,8.309,56.438,23.396c15.054,15.022,23.362,35.066,23.362,56.404
						c0,13.255-10.745,24-24,24s-24-10.745-24-24c0-8.498-3.304-16.476-9.303-22.462c-6.022-6.034-13.999-9.338-22.497-9.338
						c-17.534,0-31.8,14.266-31.8,31.8V683c0,10.225,4.735,19.574,12.992,25.648c10.677,7.855,12.964,22.878,5.109,33.554
						C1061.397,748.596,1054.122,751.981,1046.75,751.981z"/>
				</g>
				<g>
					<path style="fill:#212121;" d="M1126.178,738.002c-4.591,0-9.229-1.314-13.331-4.061c-11.014-7.375-13.964-22.281-6.589-33.295
						c3.495-5.219,5.342-11.321,5.342-17.646c0-13.255,10.745-24,24-24s24,10.745,24,24c0,15.868-4.653,31.206-13.457,44.354
						C1141.514,734.266,1133.916,738.002,1126.178,738.002z"/>
				</g>
				<g>
					<path style="fill:#212121;" d="M1237.778,738.002c-4.592,0-9.232-1.315-13.333-4.062c-11.014-7.375-13.962-22.283-6.587-33.296
						c3.495-5.218,5.342-11.319,5.342-17.645v-86.8c0-8.498-3.305-16.475-9.304-22.462c-6.022-6.034-13.999-9.338-22.496-9.338
						c-17.535,0-31.801,14.266-31.801,31.8V683c0,6.326,1.847,12.427,5.342,17.645c7.375,11.013,4.427,25.92-6.587,33.296
						c-11.011,7.375-25.919,4.427-33.296-6.586c-8.805-13.148-13.459-28.485-13.459-44.355v-86.8c0-44.002,35.799-79.8,79.801-79.8
						c21.336,0,41.379,8.309,56.437,23.396c15.054,15.023,23.363,35.066,23.363,56.404V683c0,15.87-4.654,31.207-13.459,44.355
						C1253.112,734.267,1245.516,738.002,1237.778,738.002z"/>
				</g>
				<g>
					<path style="fill:#212121;" d="M1222.4,1730H875.2c-13.255,0-24-10.745-24-24v-512.381l-27.15-33.936
						C777.587,1101.605,752,1028.659,752,954.28V838c0-13.255,10.745-24,24-24s24,10.745,24,24v116.28
						c0,63.521,21.852,125.819,61.531,175.418l32.41,40.509c3.405,4.256,5.26,9.543,5.26,14.993V1682h299.2v-496.8
						c0-2.579,0.416-5.142,1.231-7.588l25.81-77.441C1240.41,1055.282,1248,1008.52,1248,961.18V738h-162
						c-8.876,0-17.186,2.961-24.029,8.562C1053.09,753.827,1048,764.555,1048,776c0,10.149,3.953,19.691,11.131,26.869
						S1075.851,814,1086,814h37.2c13.255,0,24,10.745,24,24s-10.745,24-24,24H1086c-22.971,0-44.567-8.946-60.811-25.19
						C1008.946,820.567,1000,798.97,1000,776c0-25.903,11.508-50.173,31.574-66.586C1046.867,696.896,1066.198,690,1086,690h164.05
						c25.337,0,45.95,20.613,45.95,45.95v225.23c0,52.51-8.419,104.381-25.022,154.171l-24.577,73.742V1706
						C1246.4,1719.255,1235.655,1730,1222.4,1730z"/>
				</g>
				<g>
					<path style="fill:#212121;" d="M1222.4,1209.2H875.2c-13.255,0-24-10.745-24-24s10.745-24,24-24h347.2
						c13.255,0,24,10.745,24,24S1235.655,1209.2,1222.4,1209.2z"/>
				</g>
			</g>
		</g>
	</g>
</g>
<g id="Layer_1">
</g>
</svg>
