<svg id="Layer_3" data-name="Layer 3" xmlns="http://www.w3.org/2000/svg" viewBox="0 0 128 128"><title>Artboard 103</title><rect x="33.406" y="27.718" width="14.931" height="11.147" style="fill:#dedddb"/><polygon points="50.28 38.864 46.394 38.864 46.394 29.661 35.349 29.661 35.349 38.864 31.463 38.864 31.463 25.775 50.28 25.775 50.28 38.864"/><path d="M56.565,100.282v-54.1c0-3.352-2.742-7.314-6.094-7.314h-19.2c-3.352,0-6.094,3.962-6.094,7.314v54.1Z" style="fill:#68d1e5"/><path d="M56.088,43.593a4.16,4.16,0,0,1-4.159,4.16H29.815a4.16,4.16,0,0,1-4.159-4.16h0a4.16,4.16,0,0,1,4.159-4.16H51.929a4.16,4.16,0,0,1,4.159,4.16Z" style="fill:#dedddb"/><path d="M58.507,102.225H23.236V46.178c0-4.281,3.511-9.257,8.037-9.257h19.2c4.526,0,8.037,4.976,8.037,9.257ZM27.122,98.339h27.5V46.178c0-2.345-2.014-5.371-4.151-5.371h-19.2c-2.138,0-4.152,3.026-4.152,5.371Z"/><rect x="33.406" y="30.955" width="14.931" height="3.886"/><rect x="25.179" y="47.105" width="31.386" height="3.886"/><path d="M94.837,77.247V94.188a6.112,6.112,0,0,1-6.094,6.094H71.068a6.112,6.112,0,0,1-6.095-6.094V77.247Z" style="fill:#beb8b5"/><rect x="64.398" y="81.908" width="32.381" height="3.142" style="fill:#dedddb"/><path d="M88.742,102.225H71.068a8.046,8.046,0,0,1-8.037-8.037V75.3H96.78V94.188A8.046,8.046,0,0,1,88.742,102.225ZM66.917,79.189v15a4.156,4.156,0,0,0,4.152,4.151H88.742a4.156,4.156,0,0,0,4.152-4.151v-15Z"/><path d="M100.709,95.026H94.837V91.141h5.872a.176.176,0,0,0,.17-.169V84.847a.176.176,0,0,0-.17-.168H94.837V80.793h5.872a4.059,4.059,0,0,1,4.055,4.054v6.124A4.06,4.06,0,0,1,100.709,95.026Z"/><path d="M75.907,71.841a1.943,1.943,0,0,1-1.28-3.405c.24-.233,1.5-1.672-.3-4.382-2.741-4.12-1.085-7.71.172-9.032a1.943,1.943,0,0,1,2.837,2.655c-.254.292-1.379,1.811.226,4.225,3.034,4.565,1.079,8.184-.38,9.459A1.933,1.933,0,0,1,75.907,71.841Z"/><path d="M84.648,71.841a1.943,1.943,0,0,1-1.281-3.405c.24-.233,1.5-1.672-.3-4.382-2.739-4.121-1.083-7.71.175-9.032a1.943,1.943,0,0,1,2.837,2.655c-.253.291-1.38,1.811.224,4.226,3.035,4.565,1.08,8.182-.376,9.458A1.936,1.936,0,0,1,84.648,71.841Z"/></svg>