<svg id="Layer_3" data-name="Layer 3" xmlns="http://www.w3.org/2000/svg" viewBox="0 0 128 128"><title>Artboard 104</title><path d="M29.9,98V85.656c0-2.987,3.1-8.187,6.891-8.187H91.214c3.79,0,6.889,5.2,6.889,8.187V98Z" style="fill:#6c5c4a"/><path d="M46.048,77.411S49.934,83.347,49.61,87.9,45.281,98,45.281,98H29.9V83.3S29.695,74.979,46.048,77.411Z" style="fill:#d5b88d"/><path d="M100.046,99.943H27.954V85.656c0-3.985,3.794-10.13,8.834-10.13H91.214c5.04,0,8.832,6.145,8.832,10.13ZM31.84,96.057H96.16v-10.4c0-2.183-2.543-6.244-4.946-6.244H36.789c-2.4,0-4.948,4.06-4.948,6.244Z"/><path d="M46.658,99.374,43.91,96.626c8.266-8.269.266-17.479-.078-17.867l2.9-2.581C50.5,80.412,55.32,90.709,46.658,99.374Z"/><rect x="84.783" y="88.617" width="13.32" height="3.886"/><rect x="49.296" y="83.713" width="16.657" height="3.886"/><path d="M65.95,77.469c8.67,0,17.886-8.326,13.085-19.745C74.294,46.449,65.95,31.957,65.953,31.957S57.609,46.449,52.868,57.724C48.067,69.142,57.283,77.469,65.95,77.469Z" style="fill:#fdc11a"/><path d="M65.95,79.412A17.046,17.046,0,0,1,52.069,72.03c-2.893-4.353-3.245-9.7-.992-15.06,4.733-11.256,13.107-25.836,13.192-25.983l0-.006,1.684-2.925L67.645,31A282.293,282.293,0,0,1,80.826,56.97c2.253,5.358,1.9,10.706-.992,15.059A17.05,17.05,0,0,1,65.95,79.412Zm0-43.492c-2.674,4.819-7.934,14.566-11.293,22.557-2.22,5.279-.874,9.115.645,11.4a12.862,12.862,0,0,0,21.294,0c1.519-2.288,2.865-6.124.645-11.4C73.878,50.471,68.713,40.888,65.953,35.92Z"/><path d="M65.95,75.552c3.972,0,8.192-3.813,5.993-9.041a132.209,132.209,0,0,0-5.991-11.8,131.205,131.205,0,0,0-5.993,11.8C57.761,71.74,61.984,75.552,65.95,75.552Z" style="fill:#f15021"/><path d="M65.95,77.5a8.889,8.889,0,0,1-7.234-3.851,8.147,8.147,0,0,1-.548-7.886,131.393,131.393,0,0,1,6.1-12.014h0l0-.008,1.684-2.912,1.693,2.94a130.961,130.961,0,0,1,6.086,11.992,8.15,8.15,0,0,1-.548,7.888A8.889,8.889,0,0,1,65.95,77.5Zm0-18.772c-1.275,2.362-3.005,5.7-4.2,8.542a4.327,4.327,0,0,0,.2,4.229,4.837,4.837,0,0,0,8,0,4.326,4.326,0,0,0,.2-4.23C68.965,64.442,67.241,61.112,65.952,58.724Z"/><line x1="54.692" y1="39.851" x2="46.708" y2="31.21"/><rect x="48.757" y="29.648" width="3.886" height="11.765" transform="translate(-10.65 43.843) rotate(-42.739)"/><line x1="46.708" y1="59.598" x2="35.736" y2="62.788"/><rect x="35.509" y="59.25" width="11.426" height="3.886" transform="translate(-15.45 13.947) rotate(-16.217)"/><line x1="49.37" y1="49.548" x2="37.112" y2="42.469"/><rect x="41.298" y="38.931" width="3.885" height="14.154" transform="translate(-18.225 60.445) rotate(-59.994)"/><line x1="77.072" y1="39.851" x2="85.059" y2="31.21"/><rect x="75.182" y="33.587" width="11.767" height="3.886" transform="translate(-0.049 70.948) rotate(-47.256)"/><line x1="85.059" y1="59.598" x2="96.031" y2="62.788"/><rect x="88.602" y="55.48" width="3.886" height="11.426" transform="matrix(0.279, -0.96, 0.96, 0.279, 6.51, 131.057)"/><line x1="82.397" y1="49.548" x2="94.65" y2="42.469"/><rect x="81.448" y="44.066" width="14.15" height="3.885" transform="translate(-11.144 50.434) rotate(-30.005)"/></svg>