<svg id="Layer_3" data-name="Layer 3" xmlns="http://www.w3.org/2000/svg" viewBox="0 0 128 128"><title>Artboard 105</title><circle cx="64" cy="71.166" r="33.473" style="fill:#68d1e5"/><path d="M64,106.581A35.416,35.416,0,1,1,99.416,71.167,35.455,35.455,0,0,1,64,106.581Zm0-66.946A31.53,31.53,0,1,0,95.53,71.167,31.567,31.567,0,0,0,64,39.635Z"/><circle cx="64" cy="71.166" r="21.753" style="fill:#beb8b5"/><path d="M64,94.862A23.7,23.7,0,1,1,87.7,71.167,23.722,23.722,0,0,1,64,94.862Zm0-43.506A19.81,19.81,0,1,0,83.81,71.167,19.833,19.833,0,0,0,64,51.356Z"/><polygon points="75.32 59.846 58.49 65.655 52.679 82.486 69.51 76.677 75.32 59.846" style="fill:#e4201e"/><path d="M49.54,85.624l7.422-21.5,21.5-7.419-7.421,21.5ZM60.018,67.183l-4.2,12.165,12.164-4.2,4.2-12.165Z"/><circle cx="64" cy="49.413" r="4.245"/><circle cx="64" cy="71.167" r="3.648"/><circle cx="42.247" cy="71.167" r="4.245"/><circle cx="85.753" cy="71.167" r="4.245"/><circle cx="64" cy="92.918" r="4.244"/><path d="M74.589,27.9a4.539,4.539,0,0,1-4.537,4.541h-12.1A4.54,4.54,0,0,1,53.41,27.9h0a4.538,4.538,0,0,1,4.539-4.536h12.1A4.536,4.536,0,0,1,74.589,27.9Z" style="fill:#68d1e5"/><path d="M70.052,34.383h-12.1a6.482,6.482,0,1,1,0-12.963h12.1a6.482,6.482,0,0,1,0,12.963Zm-12.1-9.077a2.6,2.6,0,1,0,0,5.191h12.1a2.6,2.6,0,0,0,0-5.191Z"/><rect x="62.057" y="32.44" width="3.886" height="5.252"/></svg>