<svg id="Layer_3" data-name="Layer 3" xmlns="http://www.w3.org/2000/svg" viewBox="0 0 128 128"><title>Artboard 110</title><polygon points="24.874 70.272 46.946 40.674 82.559 40.674 103.628 70.272 103.628 87.326 24.874 87.326 24.874 70.272" style="fill:#fdc11a"/><polygon points="48.889 44.132 67.637 70.9 67.637 87.326 24.874 87.326 24.874 71.333 46.946 40.674 48.889 44.132" style="fill:#f15021"/><path d="M105.571,89.269H22.931V69.627l23.04-30.9h37.59l22.01,30.919ZM26.817,85.383h74.868V70.893L81.557,42.617H47.921l-21.1,28.3Z"/><polygon points="69.204 87.326 65.318 87.326 65.318 70.874 45.344 41.774 48.548 39.575 69.204 69.669 69.204 87.326"/><path d="M115.166,89.269a1.939,1.939,0,0,1-1.611-.854L102.6,72.215H67.261a1.943,1.943,0,0,1,0-3.886h36.367a1.943,1.943,0,0,1,1.609.854l11.536,17.054a1.944,1.944,0,0,1-1.607,3.032Z"/><rect x="45.003" y="40.674" width="3.886" height="46.651"/><path d="M12.834,89.269A1.943,1.943,0,0,1,11.248,86.2L23.286,69.151a1.943,1.943,0,0,1,3.175,2.242L14.423,88.446A1.941,1.941,0,0,1,12.834,89.269Z"/></svg>