<svg id="Layer_3" data-name="Layer 3" xmlns="http://www.w3.org/2000/svg" viewBox="0 0 128 128"><title>Artboard 98</title><path d="M75.23,60.466l27.189-27.187-6.4-6.4h0a9.058,9.058,0,0,0-12.809,0L62.422,47.657Z" style="fill:#beb8b5"/><polygon points="73.981 53.591 99.073 28.156 102.418 33.278 75.3 60.395 73.981 53.591" style="fill:#ddddda"/><path d="M76.6,61.84l-2.747-2.748L99.67,33.278l-5.03-5.031a7.123,7.123,0,0,0-10.061,0L63.8,49.031l-2.747-2.748L81.831,25.5a11.012,11.012,0,0,1,15.556,0l7.779,7.778Z"/><rect x="67.952" y="38.479" width="34.471" height="3.885" transform="translate(-3.632 72.074) rotate(-44.999)"/><path d="M28.2,94.687h0a11.713,11.713,0,0,1,0-16.563L55.075,51.249a11.711,11.711,0,0,1,16.563,0h0a11.711,11.711,0,0,1,0,16.563L36.481,102.969Z" style="fill:#e4201e"/><path d="M43.806,95.644s-9.606-9.822-10.9-13.708,0-8.516,0-8.516l-7.59,9.471v7.034l11.165,13.045Z" style="fill:#fff"/><path d="M36.481,105.717l-9.655-9.655a13.672,13.672,0,0,1,0-19.311L53.7,49.876A13.655,13.655,0,1,1,73.012,69.186ZM63.357,49.762a9.706,9.706,0,0,0-6.908,2.861L29.574,79.5a9.781,9.781,0,0,0,0,13.816l6.907,6.908L70.265,66.439a9.769,9.769,0,0,0-6.908-16.677Z"/><circle cx="61.833" cy="60.309" r="5.181" style="fill:#fff"/><path d="M42.764,96.686,34.482,88.4a13.672,13.672,0,0,1,0-19.311l2.749,2.748a9.782,9.782,0,0,0,0,13.816l8.281,8.282Z"/><path d="M61.561,67.2a6.806,6.806,0,1,1,4.812-1.993A6.759,6.759,0,0,1,61.561,67.2Zm0-9.724A2.918,2.918,0,0,0,59.5,62.459a2.989,2.989,0,0,0,4.127,0,2.919,2.919,0,0,0-2.064-4.983Z"/></svg>