<svg id="Layer_3" data-name="Layer 3" xmlns="http://www.w3.org/2000/svg" viewBox="0 0 128 128"><title>Artboard 108</title><polygon points="72.348 87.842 101.746 57.756 90.536 57.756 72.348 72.505 72.348 87.842" style="fill:#6c5c4a"/><polygon points="73.739 89.199 70.958 86.484 97.131 59.699 91.225 59.699 73.572 74.015 71.125 70.996 89.846 55.813 106.36 55.813 73.739 89.199"/><path d="M30.059,51.27H65.872a6.477,6.477,0,0,1,6.477,6.477V90.017a6.477,6.477,0,0,1-6.477,6.477H30.059a6.476,6.476,0,0,1-6.476-6.476V57.746A6.476,6.476,0,0,1,30.059,51.27Z" style="fill:#6c5c4a"/><rect x="24.878" y="52.373" width="47.376" height="9.082" style="fill:#beb8b5"/><path d="M65.872,98.437H30.059a8.429,8.429,0,0,1-8.42-8.419V57.746a8.429,8.429,0,0,1,8.42-8.419H65.872a8.429,8.429,0,0,1,8.419,8.42V90.017A8.429,8.429,0,0,1,65.872,98.437ZM30.059,53.213a4.539,4.539,0,0,0-4.534,4.534V90.017a4.539,4.539,0,0,0,4.534,4.534H65.872a4.539,4.539,0,0,0,4.534-4.534V57.746a4.539,4.539,0,0,0-4.534-4.534Z"/><path d="M74.291,60.413H70.406V37.406a3.959,3.959,0,0,0-3.954-3.957H29.482a3.961,3.961,0,0,0-3.957,3.957V60.413H21.639V37.406a7.851,7.851,0,0,1,7.843-7.843H66.451a7.85,7.85,0,0,1,7.84,7.843Z"/><rect x="23.582" y="58.47" width="48.766" height="3.886"/><path d="M51.652,49.5a3.687,3.687,0,0,0-7.375,0Z"/></svg>