<svg id="Layer_3" data-name="Layer 3" xmlns="http://www.w3.org/2000/svg" viewBox="0 0 128 128"><title>Artboard 109</title><polygon points="64 95.04 89.176 95.04 77.16 71.295 89.176 71.295 71.439 46.118 82.882 46.118 64 22.086 45.118 46.118 56.561 46.118 38.824 71.295 50.84 71.295 38.824 95.04 64 95.04" style="fill:#94c533"/><path d="M92.337,96.983H35.663L47.679,73.238h-12.6L52.815,48.061H41.12L64,18.941,86.88,48.061H75.185L92.922,73.238h-12.6ZM41.984,93.1H86.016L74,69.352H85.431L67.694,44.175h11.19L64,25.231,49.116,44.175h11.19L42.569,69.352H54Z"/><rect x="62.057" y="22.086" width="3.886" height="86.972"/></svg>