<svg id="Layer_3" data-name="Layer 3" xmlns="http://www.w3.org/2000/svg" viewBox="0 0 128 128"><title>Artboard 106</title><rect x="49.151" y="36.132" width="29.698" height="19.318" style="fill:#dedddb"/><polygon points="80.792 55.45 76.906 55.45 76.906 38.075 51.094 38.075 51.094 55.45 47.208 55.45 47.208 34.189 80.792 34.189 80.792 55.45"/><path d="M78.849,110.812V52.566c0-3.172-2.594-6.919-5.767-6.919H54.918c-3.173,0-5.767,3.747-5.767,6.919v58.246Z" style="fill:#beb8b5"/><path d="M80.792,112.755H47.208V52.566c0-4.1,3.368-8.862,7.71-8.862H73.082c4.342,0,7.71,4.764,7.71,8.862Zm-29.7-3.886H76.906v-56.3c0-2.173-1.854-4.976-3.824-4.976H54.918c-1.969,0-3.824,2.8-3.824,4.976Z"/><rect x="49.151" y="53.507" width="29.698" height="3.886"/><rect x="58.165" y="36.132" width="3.886" height="9.515"/><path d="M54.661,32.507c8.169-8.169,0-14.764,0-14.764S46.491,24.338,54.661,32.507Z" style="fill:#fdc11a"/><path d="M54.661,35.254,53.287,33.88c-2.951-2.95-4.36-6.1-4.186-9.355a12.491,12.491,0,0,1,4.339-8.294l1.221-.985,1.221.985a12.491,12.491,0,0,1,4.339,8.294c.173,3.257-1.235,6.406-4.186,9.355Zm0-14.685a7.626,7.626,0,0,0-1.681,4.192,7.427,7.427,0,0,0,1.681,4.794,7.417,7.417,0,0,0,1.679-4.824A7.65,7.65,0,0,0,54.661,20.57Z"/></svg>