<svg id="Layer_3" data-name="Layer 3" xmlns="http://www.w3.org/2000/svg" viewBox="0 0 128 128"><title>Artboard 100</title><line x1="35.164" y1="92.837" x2="75.159" y2="52.842" style="fill:#e4201e"/><rect x="26.881" y="70.897" width="56.562" height="3.885" transform="translate(-35.349 60.34) rotate(-45)"/><path d="M84.469,62.153,99.125,47.5a13.168,13.168,0,0,0,0-18.624h0a13.168,13.168,0,0,0-18.623,0L65.847,43.529Z" style="fill:#ceb188"/><path d="M84.469,64.9,63.1,43.529,79.129,27.5A15.111,15.111,0,1,1,100.5,48.873ZM68.594,43.529,84.469,59.406,97.751,46.125A11.226,11.226,0,0,0,81.876,30.249Z"/><path d="M38.673,96.349a3.884,3.884,0,0,1,0,5.495h0a3.884,3.884,0,0,1-5.495,0l-7.023-7.022a3.886,3.886,0,0,1,0-5.5h0a3.887,3.887,0,0,1,5.5,0Z" style="fill:#a28b6d"/><path d="M35.926,104.925a5.788,5.788,0,0,1-4.121-1.708L24.782,96.2a5.83,5.83,0,0,1,8.245-8.244l7.02,7.023a5.829,5.829,0,0,1-4.121,9.95ZM28.9,90.13a1.944,1.944,0,0,0-1.375,3.318l7.023,7.022a1.99,1.99,0,0,0,2.747,0,1.942,1.942,0,0,0,0-2.747L30.279,90.7A1.931,1.931,0,0,0,28.9,90.13Z"/></svg>