<svg id="Layer_3" data-name="Layer 3" xmlns="http://www.w3.org/2000/svg" viewBox="0 0 128 128"><title>Artboard 97</title><path d="M69.922,60.046,31.365,98.666a5.538,5.538,0,0,1-7.832.006h0a5.538,5.538,0,0,1-.008-7.833L62.837,51.462Z" style="fill:#d7b791"/><path d="M88.25,41.688l2.537-2.541a5.54,5.54,0,0,0-.008-7.832h0a5.539,5.539,0,0,0-7.833.005l-3.582,3.586Z" style="fill:#d7b791"/><path d="M27.446,102.235a7.483,7.483,0,0,1-5.3-12.768L61.462,50.09l2.75,2.745L24.9,92.212a3.6,3.6,0,0,0,2.546,6.137h0a3.571,3.571,0,0,0,2.542-1.056L68.547,58.674l2.75,2.745L32.74,100.039a7.431,7.431,0,0,1-5.289,2.2Z"/><path d="M89.625,43.061l-2.75-2.746,2.537-2.541a3.6,3.6,0,0,0-5.09-5.081L80.739,36.28l-2.749-2.746,3.582-3.586A7.482,7.482,0,0,1,92.163,40.52Z"/><polygon points="55.966 43.135 70.761 28.341 105.088 54.534 83.331 76.291 55.966 43.135" style="fill:#e51f1f"/><polygon points="77.991 70.952 99.631 50.09 105.088 54.534 82.894 76.291 77.991 70.952" style="fill:#dcdddb"/><path d="M83.193,79.177,53.343,43.01,70.589,25.766l37.443,28.572ZM58.589,43.26l24.88,30.146,18.674-18.675L70.933,30.916Z"/><rect x="74.293" y="59.087" width="30.054" height="3.886" transform="translate(-16.993 81.034) rotate(-45)"/></svg>