<svg id="Layer_3" data-name="Layer 3" xmlns="http://www.w3.org/2000/svg" viewBox="0 0 128 128"><title>Artboard 101</title><polygon points="103.593 91.218 77.783 96.163 77.783 36.78 103.593 31.837 103.593 91.218" style="fill:#ddddda"/><path d="M75.84,97.768V35.175l29.7-5.688V92.824l-25.81,4.3Zm3.886-59.382V93.812l21.924-4.2V34.187Z"/><path d="M89.9,42.3A3.03,3.03,0,0,0,87.052,46.6,62.352,62.352,0,0,0,89.9,52.2a62.388,62.388,0,0,0,2.846-5.6A3.031,3.031,0,0,0,89.9,42.3Z" style="fill:#e51f1f"/><polygon points="51.974 91.219 26.166 96.163 26.166 36.781 51.974 31.837 51.974 91.219" style="fill:#ddddda"/><path d="M24.223,98.513V35.175l25.809-4.944,3.885.647V92.825Zm3.886-60.126V93.813l21.923-4.2V34.188Z"/><polygon points="51.974 91.219 77.783 96.163 77.783 36.781 51.974 31.837 51.974 91.219" style="fill:#c4c4c4"/><path d="M79.726,97.121l-3.886.648L50.031,92.825V30.231h0l3.885.647,25.809,4.3V97.121ZM53.917,89.613l21.923,4.2V38.387l-21.923-4.2Z"/><rect x="45.806" y="61.862" width="3.886" height="6.477" transform="translate(-32.46 74.295) rotate(-60.281)"/><polygon points="62.896 75.987 56.257 72.197 58.183 68.822 62.794 71.454 67.284 68.62 69.358 71.907 62.896 75.987"/><rect x="70.972" y="64.227" width="7.668" height="3.885" transform="translate(-23.775 50.166) rotate(-32.273)"/><rect x="80.789" y="58.404" width="6.477" height="3.886" transform="translate(-19.24 54.169) rotate(-32.261)"/><circle cx="37.279" cy="59.438" r="4.057"/></svg>