<svg id="Layer_3" data-name="Layer 3" xmlns="http://www.w3.org/2000/svg" viewBox="0 0 128 128"><title>Artboard 111</title><path d="M68.974,31.058V27.812h0c0-1.794-1.123-3.246-2.512-3.246H61.538c-1.389,0-2.512,1.452-2.512,3.246h0v3.246Z" style="fill:#beb8b5"/><path d="M70.917,31.058H67.031V27.812c0-.869-.46-1.3-.569-1.3H61.538c-.109,0-.569.434-.569,1.3v3.246H57.083V27.812c0-2.909,1.957-5.189,4.455-5.189h4.923c2.5,0,4.455,2.279,4.455,5.189Z"/><path d="M45.638,47.738v-7.6h0c0-4.194,2.78-7.595,6.211-7.595h24.3c3.431,0,6.211,3.4,6.211,7.595h0v7.6Z" style="fill:#beb8b5"/><path d="M84.3,47.738H80.419v-7.6c0-3.117-1.915-5.652-4.268-5.652h-24.3c-2.353,0-4.268,2.535-4.268,5.652v7.6H43.7v-7.6c0-5.26,3.658-9.538,8.154-9.538h24.3c4.5,0,8.154,4.278,8.154,9.538Z"/><polygon points="82.256 47.738 45.744 47.738 45.638 49.83 45.638 103.433 82.362 103.433 82.362 49.83 82.256 47.738" style="fill:#68d1e5"/><path d="M84.3,105.376H43.7V49.83l.2-4.035H84.1l.2,3.936ZM47.581,101.49H80.419l-.008-51.809H47.591l-.013.248Z"/><rect x="45.638" y="94.872" width="36.724" height="3.886"/></svg>