<svg id="Layer_3" data-name="Layer 3" xmlns="http://www.w3.org/2000/svg" viewBox="0 0 128 128"><title>Artboard 99</title><path d="M61.518,81.693,43.7,99.508c-3.623,3.623-9.193,3.927-12.442.678h0c-3.248-3.248-2.945-8.819.678-12.442L49.754,69.929Z" style="fill:#ceb188"/><path d="M36.86,104.372a9.758,9.758,0,0,1-6.972-2.813c-4-4-3.7-10.815.678-15.189L48.381,68.556,51.128,71.3,33.313,89.117c-2.86,2.86-3.164,7.209-.678,9.695s6.834,2.181,9.694-.678L60.145,80.32l2.747,2.747L45.077,100.881A11.686,11.686,0,0,1,36.86,104.372Z"/><path d="M70.292,74.438,95.249,49.479c10.077-10.075-3.435-23.127-3.435-23.127l-34.8,34.8Z" style="fill:#beb8b5"/><polygon points="61.518 64.819 95.254 30.563 91.814 26.352 57.01 61.157 61.518 64.819" style="fill:#d5d4d2"/><path d="M71.666,75.811l-2.747-2.748L93.876,48.105a9.8,9.8,0,0,0,3.164-7.249c-.036-4.81-3.383-9.443-5.288-11.694L58.384,62.531l-2.747-2.747L91.79,23.628l1.374,1.326c.314.3,7.69,7.523,7.762,15.855a13.671,13.671,0,0,1-4.3,10.044Z"/><line x1="95.254" y1="31.083" x2="61.096" y2="65.242" style="fill:#e4201e"/><rect x="55.317" y="46.867" width="48.307" height="3.885" transform="translate(-11.237 70.49) rotate(-45)"/><line x1="44.793" y1="74.89" x2="56.557" y2="86.654" style="fill:#e4201e"/><rect x="48.733" y="72.454" width="3.885" height="16.637" transform="translate(-42.272 59.491) rotate(-45)"/><line x1="39.296" y1="80.387" x2="51.062" y2="92.151" style="fill:#e4201e"/><rect x="43.236" y="77.949" width="3.885" height="16.639" transform="translate(-47.771 57.223) rotate(-45.006)"/><line x1="33.801" y1="85.882" x2="45.565" y2="97.645" style="fill:#e4201e"/><rect x="37.74" y="83.445" width="3.885" height="16.637" transform="translate(-53.264 54.937) rotate(-45)"/><path d="M74.527,86.687c-2.214,2.213-6.029,1.986-9.652-1.637L46.4,66.572c-3.623-3.623-3.851-7.439-1.637-9.652h0c2.211-2.212,6.029-1.986,9.652,1.638L72.89,77.036c3.623,3.624,3.85,7.439,1.637,9.651Z" style="fill:#a28b6d"/><path d="M71.032,90.057c-2.55,0-5.153-1.256-7.53-3.633L45.023,67.946a11.641,11.641,0,0,1-3.558-6.462,6.865,6.865,0,0,1,1.921-5.937,6.737,6.737,0,0,1,4.867-1.995c2.551,0,5.156,1.257,7.531,3.634L74.264,75.662a11.648,11.648,0,0,1,3.558,6.463A6.865,6.865,0,0,1,75.9,88.062,6.743,6.743,0,0,1,71.032,90.057ZM48.254,57.437a2.89,2.89,0,0,0-2.12.857,3.027,3.027,0,0,0-.82,2.656A7.667,7.667,0,0,0,47.771,65.2L66.249,83.677c2.523,2.523,5.334,3.205,6.9,1.637a3.027,3.027,0,0,0,.82-2.656,7.669,7.669,0,0,0-2.456-4.248L53.038,59.933A7.269,7.269,0,0,0,48.254,57.437Z"/></svg>