<svg id="Layer_3" data-name="Layer 3" xmlns="http://www.w3.org/2000/svg" viewBox="0 0 128 128"><title>Artboard 112</title><rect x="62.057" y="51.611" width="3.886" height="24.778"/><path d="M89.165,60.291l1.429,26.683c0,10.289-7.714,12.356-20.158,12.356H57.564c-12.444,0-20.158-2.067-20.158-12.288l1.432-26.819Z" style="fill:#68d1e5"/><path d="M70.436,101.273H57.564c-11.479,0-22.1-1.724-22.1-14.231L36.9,60.119l3.881.207L39.346,87.146c0,7.63,4.6,10.241,18.218,10.241H70.436c13.618,0,18.215-2.627,18.215-10.413L87.224,60.395l3.881-.207L92.535,86.87C92.537,99.541,81.915,101.273,70.436,101.273Z"/><path d="M60.691,73.9c-6.464,0-10.805,2.856-10.805,5.525v6.934c0,2.674,4.544,4.615,10.805,4.615h7.263c6.261,0,10.805-1.94,10.805-4.615V79.422c0-2.669-4.341-5.525-10.805-5.525Z" style="fill:#d5b88d"/><path d="M67.954,92.914H60.691c-7.625,0-12.748-2.635-12.748-6.558V79.422c0-4.188,5.6-7.468,12.748-7.468h7.263c7.148,0,12.748,3.28,12.748,7.468v6.934C80.7,90.279,75.579,92.914,67.954,92.914ZM60.691,75.84c-5.847,0-8.862,2.511-8.862,3.582v6.934c0,.76,2.636,2.671,8.862,2.671h7.263c6.226,0,8.862-1.911,8.862-2.671V79.422c0-1.072-3.016-3.582-8.862-3.582Z"/><path d="M72.948,61.159H88.682a12.234,12.234,0,0,0,12.234-12.235h0A12.236,12.236,0,0,0,88.682,36.69H39.318A12.236,12.236,0,0,0,27.084,48.924h0A12.234,12.234,0,0,0,39.318,61.159h33.63Z" style="fill:#d5b88d"/><path d="M88.682,63.1H72.948V59.216H88.682a10.292,10.292,0,1,0,0-20.583H39.318a10.292,10.292,0,1,0,0,20.583H55.7V63.1H39.318a14.177,14.177,0,1,1,0-28.355H88.682a14.177,14.177,0,1,1,0,28.355Z"/><path d="M80.348,35.794H76.462a5.186,5.186,0,0,0-5.181-5.181H56.719a5.186,5.186,0,0,0-5.181,5.181H47.652a9.078,9.078,0,0,1,9.067-9.067H71.281A9.078,9.078,0,0,1,80.348,35.794Z"/><rect x="81.808" y="36.69" width="3.886" height="24.778"/><path d="M72.541,61.159a3.848,3.848,0,0,1-3.848,3.848H59.95A3.848,3.848,0,0,1,56.1,61.159h0a3.848,3.848,0,0,1,3.848-3.848h8.743a3.848,3.848,0,0,1,3.848,3.848Z" style="fill:#68d1e5"/><path d="M68.693,66.95H59.95a5.791,5.791,0,0,1,0-11.582h8.743a5.791,5.791,0,0,1,0,11.582Zm-8.743-7.7a1.905,1.905,0,0,0,0,3.81h8.743a1.905,1.905,0,0,0,0-3.81Z"/><rect x="49.886" y="78.774" width="28.874" height="3.886"/></svg>