<svg id="Layer_3" data-name="Layer 3" xmlns="http://www.w3.org/2000/svg" viewBox="0 0 128 128"><title>Artboard 102</title><line x1="88.962" y1="62.146" x2="97.972" y2="57.323"/><rect x="88.358" y="57.792" width="10.22" height="3.886" transform="translate(-17.129 51.196) rotate(-28.168)"/><line x1="89.906" y1="80.622" x2="98.007" y2="86.357"/><rect x="92.014" y="78.527" width="3.886" height="9.925" transform="translate(-28.475 111.93) rotate(-54.702)"/><line x1="90.468" y1="71.556" x2="102.759" y2="71.53"/><rect x="90.468" y="69.6" width="12.291" height="3.886" transform="matrix(1, -0.002, 0.002, 1, -0.138, 0.187)"/><line x1="39.038" y1="62.146" x2="30.027" y2="57.323"/><rect x="32.59" y="54.625" width="3.886" height="10.22" transform="translate(-34.429 61.989) rotate(-61.84)"/><line x1="38.094" y1="80.622" x2="29.993" y2="86.357"/><rect x="29.081" y="81.547" width="9.925" height="3.886" transform="translate(-41.985 35.022) rotate(-35.3)"/><line x1="37.532" y1="71.556" x2="25.241" y2="71.53"/><rect x="29.444" y="65.397" width="3.886" height="12.291" transform="translate(-40.222 102.778) rotate(-89.879)"/><path d="M80.209,94.6V55.609A15.78,15.78,0,0,0,64.43,39.831h0A15.779,15.779,0,0,0,48.65,55.609V94.6Z" style="fill:#fdc11a"/><path d="M82.152,94.6H78.266V55.609a13.837,13.837,0,0,0-27.673,0V94.6H46.707V55.609a17.723,17.723,0,0,1,35.445,0Z"/><path d="M86.923,53.5h-44.3V39.626a22.15,22.15,0,0,1,44.3,0ZM46.508,49.615H83.037V39.626a18.264,18.264,0,0,0-36.529,0Z"/><rect x="49.289" y="87.186" width="30.966" height="3.886"/><path d="M41.213,108.581v-8.4c0-2.033,2.11-5.574,4.69-5.574H82.956c2.578,0,4.688,3.541,4.688,5.574v8.4Z" style="fill:#beb8b5"/><path d="M89.587,110.524H39.27V100.177c0-2.957,2.849-7.517,6.633-7.517H82.956c3.783,0,6.631,4.56,6.631,7.517Zm-46.431-3.886H85.7v-6.461c0-1.2-1.51-3.631-2.745-3.631H45.9c-1.236,0-2.747,2.431-2.747,3.631Z"/><circle cx="76.63" cy="101.437" r="3.633"/></svg>