<svg id="Layer_3" data-name="Layer 3" xmlns="http://www.w3.org/2000/svg" viewBox="0 0 128 128"><title>Artboard 107</title><path d="M72.346,101.275c.908-11.377-7.524-19.141-7.524-19.141S56.388,89.9,57.3,101.273Z" style="fill:#fdc11a"/><path d="M74.283,101.43l-3.873-.309c.6-7.583-3.418-13.513-5.587-16.119-2.168,2.6-6.194,8.533-5.587,16.115l-3.873.311C54.386,89.25,63.133,81.048,63.507,80.7l1.315-1.212L66.138,80.7C66.511,81.048,75.255,89.25,74.283,101.43Z"/><path d="M53.671,41.841h22.3a6.476,6.476,0,0,1,6.476,6.476V68.06a6.477,6.477,0,0,1-6.477,6.477H53.67a6.476,6.476,0,0,1-6.476-6.476V48.317A6.477,6.477,0,0,1,53.671,41.841Z" style="fill:#6c5c4a"/><polygon points="47.196 48.988 82.45 48.988 78.592 42.187 49.139 42.187 47.196 48.988" style="fill:#beb8b5"/><path d="M75.974,76.48H53.67a8.429,8.429,0,0,1-8.419-8.419V48.317A8.429,8.429,0,0,1,53.67,39.9h22.3a8.429,8.429,0,0,1,8.419,8.42V68.061A8.429,8.429,0,0,1,75.974,76.48Zm-22.3-32.7a4.539,4.539,0,0,0-4.533,4.534V68.061a4.539,4.539,0,0,0,4.533,4.534h22.3a4.539,4.539,0,0,0,4.533-4.534V48.317a4.539,4.539,0,0,0-4.533-4.534Z"/><path d="M84.393,48.451H80.507V31.817A2.326,2.326,0,0,0,78.185,29.5H51.459a2.326,2.326,0,0,0-2.322,2.322V48.451H45.251V31.817a6.216,6.216,0,0,1,6.208-6.208H78.185a6.216,6.216,0,0,1,6.208,6.208Z"/><rect x="47.194" y="46.508" width="35.256" height="3.886"/><path d="M67.486,40.563a2.665,2.665,0,1,0-5.33,0Z"/><path d="M106.57,35.4H21.43a1.943,1.943,0,1,1,0-3.886H106.57a1.943,1.943,0,1,1,0,3.886Z"/><path d="M31.228,109.983a1.943,1.943,0,0,1-1.943-1.943V19.96a1.943,1.943,0,0,1,3.886,0V108.04A1.943,1.943,0,0,1,31.228,109.983Z"/><path d="M97.718,109.983a1.943,1.943,0,0,1-1.943-1.943V19.96a1.943,1.943,0,0,1,3.886,0V108.04A1.943,1.943,0,0,1,97.718,109.983Z"/><path d="M81.1,104.372a3.668,3.668,0,0,1-3.671,3.668H52.81a3.67,3.67,0,0,1-3.671-3.668h0A3.67,3.67,0,0,1,52.81,100.7H77.429a3.669,3.669,0,0,1,3.671,3.671Z" style="fill:#6c5c4a"/><path d="M77.429,109.983H52.81a5.613,5.613,0,1,1,0-11.225H77.429a5.613,5.613,0,1,1,0,11.225ZM52.81,102.644a1.727,1.727,0,1,0,0,3.453H77.429a1.727,1.727,0,1,0,0-3.453Z"/></svg>