<svg id="Layer_3" data-name="Layer 3" xmlns="http://www.w3.org/2000/svg" viewBox="0 0 128 128"><title>Artboard 109</title><path d="M49.346,74.277S61.741,55.654,77.485,49.571v6.62s-9.84,14.855-25.4,22.187Z" style="fill:#d3d3d3"/><circle cx="42.268" cy="85.734" r="15.441" transform="translate(-48.243 55) rotate(-45.001)" style="fill:#f55557"/><circle cx="85.733" cy="42.266" r="15.442" transform="translate(-4.776 73.002) rotate(-45)" style="fill:#f55557"/><path d="M85.733,25.395A16.857,16.857,0,0,0,71.4,51.136c-9.562,4.918-18.386,16.237-21.015,19.808a16.9,16.9,0,1,0,6.61,6.566c9.925-5.164,19.03-17.169,21.2-20.158a16.87,16.87,0,1,0,7.543-31.957ZM52.174,95.639a14.009,14.009,0,1,1,0-19.811,14.141,14.141,0,0,1,1.381,1.631c.008.022,0,.044.014.066a1.4,1.4,0,0,0,.4.513,14.008,14.008,0,0,1-1.8,17.6Zm3.208-20.516a16.107,16.107,0,0,0-2.612-2.584c2.659-3.572,11.407-14.682,20.371-19.075.219.246.427.5.663.734a17.042,17.042,0,0,0,1.939,1.646C73.445,58.966,64.556,70.5,55.382,75.123Zm40.257-22.95a14.008,14.008,0,1,1,0-19.814A13.915,13.915,0,0,1,95.639,52.173Z" style="fill:#252345"/></svg>