<svg id="Layer_3" data-name="Layer 3" xmlns="http://www.w3.org/2000/svg" viewBox="0 0 128 128"><title>Artboard 100</title><rect x="31.305" y="28.815" width="65.39" height="77.765" rx="7.156" ry="7.156" style="fill:#74cad3"/><path d="M81.152,36.21a5.067,5.067,0,0,1,4.808,5.264V92.845a5.067,5.067,0,0,1-4.808,5.264H46.844a5.064,5.064,0,0,1-4.805-5.264V41.474a5.064,5.064,0,0,1,4.805-5.264Z" style="fill:#f3faff"/><path d="M78.536,28.815a7.394,7.394,0,0,1-7.394,7.4H58.261a7.4,7.4,0,0,1-7.4-7.4h0a7.4,7.4,0,0,1,7.4-7.4H71.142a7.394,7.394,0,0,1,7.394,7.4Z" style="fill:#d3d3d3"/><path d="M38.461,108.012H89.539a8.6,8.6,0,0,0,8.587-8.587V35.971a8.6,8.6,0,0,0-8.587-8.587h-9.7a8.832,8.832,0,0,0-8.7-7.4H58.261a8.834,8.834,0,0,0-8.7,7.4h-11.1a8.6,8.6,0,0,0-8.587,8.587V99.424A8.6,8.6,0,0,0,38.461,108.012Zm19.8-85.16H71.142a5.96,5.96,0,0,1,5.77,4.533H52.489A5.962,5.962,0,0,1,58.261,22.851Zm18.651,7.4a5.96,5.96,0,0,1-5.77,4.533H58.261a5.962,5.962,0,0,1-5.772-4.533ZM32.736,35.971a5.731,5.731,0,0,1,5.725-5.725h11.1a8.834,8.834,0,0,0,8.7,7.4H71.142a8.832,8.832,0,0,0,8.7-7.4h9.7a5.731,5.731,0,0,1,5.725,5.725V99.424a5.731,5.731,0,0,1-5.725,5.725H38.461a5.731,5.731,0,0,1-5.725-5.725Z" style="fill:#252345"/><path d="M46.844,99.54H81.152a6.487,6.487,0,0,0,6.239-6.695V41.474a6.487,6.487,0,0,0-6.239-6.695,1.431,1.431,0,0,0,0,2.862,3.631,3.631,0,0,1,3.377,3.832V92.845a3.631,3.631,0,0,1-3.377,3.832H46.844a3.629,3.629,0,0,1-3.374-3.832V41.474a3.629,3.629,0,0,1,3.374-3.832,1.431,1.431,0,1,0,0-2.862,6.486,6.486,0,0,0-6.236,6.695V92.845A6.486,6.486,0,0,0,46.844,99.54Z" style="fill:#252345"/><path d="M47.7,50l2.773,3.4a1.429,1.429,0,0,0,1.02.523c.029,0,.059,0,.088,0a1.43,1.43,0,0,0,.99-.4l6.172-5.9a1.431,1.431,0,1,0-1.979-2.069l-5.053,4.833-1.795-2.2A1.431,1.431,0,1,0,47.7,50Z" style="fill:#252345"/><path d="M62.815,51.955H78.486a1.431,1.431,0,0,0,0-2.863H62.815a1.431,1.431,0,1,0,0,2.863Z" style="fill:#252345"/><path d="M58.789,58.636a1.434,1.434,0,0,0-2.024-.045l-5.053,4.833-1.795-2.2a1.431,1.431,0,1,0-2.217,1.81l2.773,3.4a1.429,1.429,0,0,0,1.02.523c.029,0,.059,0,.088,0a1.43,1.43,0,0,0,.99-.4l6.172-5.9A1.432,1.432,0,0,0,58.789,58.636Z" style="fill:#252345"/><path d="M79.187,61.147H63.516a1.431,1.431,0,0,0,0,2.863H79.187a1.431,1.431,0,0,0,0-2.863Z" style="fill:#252345"/><path d="M56.765,71.631l-5.053,4.833-1.795-2.2a1.431,1.431,0,0,0-2.217,1.81l2.773,3.4a1.429,1.429,0,0,0,1.02.523c.029,0,.059,0,.088,0a1.43,1.43,0,0,0,.99-.4l6.172-5.9a1.431,1.431,0,1,0-1.979-2.069Z" style="fill:#252345"/><path d="M79.187,74.186H63.516a1.431,1.431,0,0,0,0,2.862H79.187a1.431,1.431,0,0,0,0-2.862Z" style="fill:#252345"/></svg>