<svg id="Layer_3" data-name="Layer 3" xmlns="http://www.w3.org/2000/svg" viewBox="0 0 128 128"><title>Artboard 97</title><rect x="27.265" y="27.265" width="73.47" height="73.47" rx="7.156" ry="7.156" style="fill:#d3d3d3"/><circle cx="64" cy="51.834" r="16.22" style="fill:#fff"/><path d="M34.421,102.166H93.579a8.6,8.6,0,0,0,8.587-8.588V34.421a8.6,8.6,0,0,0-8.587-8.587H34.421a8.6,8.6,0,0,0-8.587,8.587V93.579A8.6,8.6,0,0,0,34.421,102.166ZM28.7,93.579V75.688H62.569V99.3H34.421A5.731,5.731,0,0,1,28.7,93.579ZM93.579,99.3H65.431V75.688H99.3V93.579A5.732,5.732,0,0,1,93.579,99.3ZM34.421,28.7H93.579A5.731,5.731,0,0,1,99.3,34.421v38.4H28.7v-38.4A5.731,5.731,0,0,1,34.421,28.7Z" style="fill:#252345"/><path d="M64,69.485A17.651,17.651,0,1,0,46.349,51.834,17.67,17.67,0,0,0,64,69.485Zm0-32.439A14.788,14.788,0,1,1,49.212,51.834,14.8,14.8,0,0,1,64,37.046Z" style="fill:#252345"/><path d="M61.591,51.5a2.414,2.414,0,0,0-.034.336,2.478,2.478,0,1,0,2.017-2.4L57.325,43.4a1.431,1.431,0,0,0-1.987,2.06Z" style="fill:#252345"/><path d="M92.623,79.147h-19.8a1.431,1.431,0,0,0,0,2.862h19.8a1.431,1.431,0,1,0,0-2.862Z" style="fill:#252345"/><path d="M92.623,83.759h-19.8a1.431,1.431,0,0,0,0,2.862h19.8a1.431,1.431,0,1,0,0-2.862Z" style="fill:#252345"/><path d="M92.623,88.37h-19.8a1.431,1.431,0,0,0,0,2.862h19.8a1.431,1.431,0,1,0,0-2.862Z" style="fill:#252345"/><path d="M92.623,92.982h-19.8a1.431,1.431,0,0,0,0,2.862h19.8a1.431,1.431,0,1,0,0-2.862Z" style="fill:#252345"/><path d="M35.766,82.009h19.8a1.431,1.431,0,0,0,0-2.862h-19.8a1.431,1.431,0,0,0,0,2.862Z" style="fill:#252345"/><path d="M55.564,83.759h-19.8a1.431,1.431,0,0,0,0,2.862h19.8a1.431,1.431,0,0,0,0-2.862Z" style="fill:#252345"/><path d="M55.564,88.37h-19.8a1.431,1.431,0,0,0,0,2.862h19.8a1.431,1.431,0,0,0,0-2.862Z" style="fill:#252345"/><path d="M55.564,92.982h-19.8a1.431,1.431,0,0,0,0,2.862h19.8a1.431,1.431,0,0,0,0-2.862Z" style="fill:#252345"/></svg>