<svg id="Layer_3" data-name="Layer 3" xmlns="http://www.w3.org/2000/svg" viewBox="0 0 128 128"><title>Artboard 105</title><path d="M96.91,36.511H31.09a7.177,7.177,0,0,0-7.156,7.156v7.41h80.132v-7.41A7.177,7.177,0,0,0,96.91,36.511Z" style="fill:#f55557"/><path d="M31.09,100.993H96.91a7.177,7.177,0,0,0,7.156-7.156V50.391H23.934V93.837A7.177,7.177,0,0,0,31.09,100.993Z" style="fill:#f3faff"/><circle cx="64" cy="74.21" r="13.723" style="fill:#f55557"/><path d="M44.32,41.521a4.056,4.056,0,0,1-4.055,4.056h0a4.056,4.056,0,0,1-4.055-4.056V31.5a4.054,4.054,0,0,1,4.055-4.053h0A4.054,4.054,0,0,1,44.32,31.5Z" style="fill:#d3d3d3"/><path d="M91.79,41.521a4.056,4.056,0,0,1-4.055,4.056h0a4.056,4.056,0,0,1-4.055-4.056V31.5a4.054,4.054,0,0,1,4.055-4.053h0A4.054,4.054,0,0,1,91.79,31.5Z" style="fill:#d3d3d3"/><path d="M96.91,35.08H93.221V31.5a5.486,5.486,0,0,0-10.973,0V35.08h-36.5V31.5a5.486,5.486,0,0,0-10.973,0V35.08H31.09A8.6,8.6,0,0,0,22.5,43.668V93.4a8.6,8.6,0,0,0,8.587,8.588H96.91A8.6,8.6,0,0,0,105.5,93.4V43.668A8.6,8.6,0,0,0,96.91,35.08ZM85.111,31.5a2.624,2.624,0,0,1,5.248,0V41.521a2.624,2.624,0,1,1-5.248,0Zm-47.47,0a2.624,2.624,0,0,1,5.248,0V41.521a2.624,2.624,0,1,1-5.248,0Zm-6.55,6.441h3.688v3.578a5.486,5.486,0,1,0,10.973,0V37.943h36.5v3.578a5.486,5.486,0,1,0,10.973,0V37.943H96.91a5.731,5.731,0,0,1,5.725,5.725v5.292H25.365V43.668A5.731,5.731,0,0,1,31.09,37.943ZM96.91,99.12H31.09A5.731,5.731,0,0,1,25.365,93.4V51.822h77.269V93.4A5.731,5.731,0,0,1,96.91,99.12Z" style="fill:#252345"/><path d="M64,59.056A15.154,15.154,0,1,0,79.155,74.21,15.172,15.172,0,0,0,64,59.056ZM64,86.5A12.291,12.291,0,1,1,76.292,74.21,12.306,12.306,0,0,1,64,86.5Z" style="fill:#252345"/><path d="M70.825,69.134,60.556,77.073,57.3,71.8a1.431,1.431,0,0,0-2.436,1.5l4.091,6.625a1.431,1.431,0,0,0,2.094.38L72.576,71.4a1.431,1.431,0,0,0-1.751-2.264Z" style="fill:#252345"/></svg>