<svg id="Layer_3" data-name="Layer 3" xmlns="http://www.w3.org/2000/svg" viewBox="0 0 128 128"><title>Artboard 103</title><path d="M90.273,37.723a15.428,15.428,0,0,1,0,21.821L59.538,90.278a15.43,15.43,0,0,1-21.821,0h0a15.433,15.433,0,0,1,0-21.821L68.452,37.723a15.429,15.429,0,0,1,21.821,0Z" style="fill:#f3faff"/><path d="M53.045,53.129,37.717,68.457A15.43,15.43,0,0,0,59.538,90.278L74.823,74.993Z" style="fill:#f55557"/><path d="M96.224,48.633A16.861,16.861,0,0,0,67.44,36.711L36.7,67.445A16.861,16.861,0,0,0,60.549,91.29L75.913,75.927l.005,0,0-.005L91.285,60.555A16.746,16.746,0,0,0,96.224,48.633Zm-37.7,40.633a14,14,0,0,1-19.8-19.8l14.4-14.4a1.373,1.373,0,0,0,.173.261L72.882,74.91Zm16.38-16.38L55.325,53.308a1.374,1.374,0,0,0-.261-.173l14.4-14.4a14,14,0,1,1,19.8,19.8Z" style="fill:#252345"/><path d="M70.163,42.648a1.431,1.431,0,1,0,2.024,2.024,9.628,9.628,0,0,1,13.6,0,1.431,1.431,0,0,0,2.024-2.024A12.492,12.492,0,0,0,70.163,42.648Z" style="fill:#252345"/></svg>