<svg id="Layer_3" data-name="Layer 3" xmlns="http://www.w3.org/2000/svg" viewBox="0 0 128 128"><title>Artboard 106</title><path d="M69.018,41.641V32.676H57.692v9.078a32.033,32.033,0,1,0,11.326-.113Z" style="fill:#f3faff"/><path d="M76.688,27.714a4.962,4.962,0,0,1-4.963,4.962H55.935a4.964,4.964,0,0,1-4.963-4.962h0a4.965,4.965,0,0,1,4.963-4.965h15.79a4.963,4.963,0,0,1,4.963,4.965Z" style="fill:#d3d3d3"/><path d="M52.726,60.253A1.431,1.431,0,1,0,50.7,62.277L61.646,73.218,51.005,83.863a1.431,1.431,0,1,0,2.024,2.024L64.682,74.23a1.43,1.43,0,0,0,0-2.024Z" style="fill:#252345"/><path d="M95.349,49.323A1.431,1.431,0,1,0,97.373,47.3l-7.952-7.953A1.431,1.431,0,0,0,87.4,41.37l3.049,3.05-4.161,4.161a33.4,33.4,0,0,0-15.836-8.133V34.107h1.276a6.395,6.395,0,0,0,0-12.789H55.935a6.395,6.395,0,0,0,0,12.789h.936v6.345a33.431,33.431,0,0,0-16.789,9.056c-.023.02-.053.027-.075.049s-.029.052-.05.075a33.4,33.4,0,0,0,0,47.171c.021.024.029.055.051.078s.054.031.078.052a33.4,33.4,0,0,0,47.17,0c.024-.021.054-.028.077-.051s.03-.053.051-.077a33.4,33.4,0,0,0,.926-46.2l4.16-4.161ZM52.4,27.714a3.537,3.537,0,0,1,3.532-3.533h15.79a3.532,3.532,0,0,1,0,7.064H55.935A3.535,3.535,0,0,1,52.4,27.714Zm7.331,6.393h7.852v5.886a32.5,32.5,0,0,0-7.852,0ZM94.2,71.787h-8.27a1.431,1.431,0,0,0,0,2.862H94.2a30.435,30.435,0,0,1-7.938,19.138L80.42,87.95A1.431,1.431,0,1,0,78.4,89.973l5.841,5.837A30.434,30.434,0,0,1,65.1,103.747V95.478a1.431,1.431,0,0,0-2.862,0v8.269A30.432,30.432,0,0,1,43.1,95.81l5.838-5.837a1.431,1.431,0,0,0-2.024-2.024l-5.838,5.836a30.435,30.435,0,0,1-7.937-19.137h8.269a1.431,1.431,0,0,0,0-2.862H33.143a30.431,30.431,0,0,1,7.936-19.135l5.842,5.843a1.431,1.431,0,1,0,2.024-2.024L43.1,50.628a30.434,30.434,0,0,1,19.136-7.936v8.269a1.431,1.431,0,0,0,2.862,0V42.692a30.436,30.436,0,0,1,19.137,7.936L78.4,56.471a1.431,1.431,0,1,0,2.024,2.024l5.842-5.843A30.431,30.431,0,0,1,94.2,71.787Z" style="fill:#252345"/></svg>