<svg id="Layer_3" data-name="Layer 3" xmlns="http://www.w3.org/2000/svg" viewBox="0 0 128 128"><title>Artboard 108</title><polygon points="48.595 73.305 72.82 48.9 79.132 55.212 55.091 79.269 48.595 73.305" style="fill:#d3d3d3"/><path d="M89.152,29.445s5.127-3.034,8.609-.686,1.864,9.135.79,10.084Z" style="fill:#d3d3d3"/><path d="M29.276,89.449s-3.034,5.127-.686,8.608,9.135,1.865,10.084.79Z" style="fill:#d3d3d3"/><path d="M61.124,84.779a7.231,7.231,0,0,1,0,10.225h0a7.233,7.233,0,0,1-10.231,0l-17.9-17.9a7.235,7.235,0,0,1,0-10.228h0a7.235,7.235,0,0,1,10.228,0Z" style="fill:#d3d3d3"/><path d="M49.073,93.185a5.514,5.514,0,0,1,0,7.8h0a5.514,5.514,0,0,1-7.8,0L27.017,86.725a5.517,5.517,0,0,1,0-7.8h0a5.517,5.517,0,0,1,7.8,0Z" style="fill:#d3d3d3"/><path d="M84.776,61.124a7.235,7.235,0,0,0,10.228,0h0A7.235,7.235,0,0,0,95,50.9l-17.9-17.9a7.235,7.235,0,0,0-10.228,0h0a7.229,7.229,0,0,0,0,10.228Z" style="fill:#d3d3d3"/><path d="M91.9,47.8c2.152,2.153,6.924,3.433,9.079,1.275h0a5.514,5.514,0,0,0,0-7.8L86.724,27.018a5.514,5.514,0,0,0-7.8,0h0a5.514,5.514,0,0,0,0,7.8Z" style="fill:#d3d3d3"/><path d="M27.586,89.318A7.97,7.97,0,0,0,38.679,100.41l1.583,1.583a6.908,6.908,0,0,0,11.8-4.389,8.662,8.662,0,0,0,10.07-13.837l-4.783-4.783L78.981,57.353l4.783,4.783a8.647,8.647,0,0,0,13.541-10.55c.183.012.367.03.547.03A5.693,5.693,0,0,0,102,50.082a6.95,6.95,0,0,0,0-9.82l-1.58-1.58a7.972,7.972,0,0,0-11.1-11.1l-1.58-1.58a6.91,6.91,0,0,0-11.8,4.39A8.662,8.662,0,0,0,65.865,44.234l4.781,4.782L49.017,70.648l-4.783-4.783a8.639,8.639,0,0,0-13.8,10.063A6.875,6.875,0,0,0,26,77.913a6.958,6.958,0,0,0,0,9.823Zm2.936,8.161a5.057,5.057,0,0,1-.851-6.076L36.6,98.328A5.116,5.116,0,0,1,30.522,97.479ZM97.475,30.523a5.056,5.056,0,0,1,.852,6.074l-6.912-6.912A5.246,5.246,0,0,1,97.475,30.523ZM79.94,28.029a4.083,4.083,0,0,1,5.773,0l2.493,2.493h0l9.269,9.269h0l2.493,2.493a4.086,4.086,0,0,1,0,5.773,3.007,3.007,0,0,1-2.118.695,7.631,7.631,0,0,1-4.934-1.967l-9.372-9.374L79.94,33.8a4.083,4.083,0,0,1,0-5.775ZM66.189,38.11a5.8,5.8,0,0,1,9.9-4.1l8.18,8.181,6.619,6.621,0,0,3.1,3.1a5.8,5.8,0,0,1-8.2,8.2l-17.9-17.9A5.756,5.756,0,0,1,66.189,38.11ZM72.67,51.041l4.288,4.288L55.329,76.96l-4.288-4.288ZM34.006,67.889a5.8,5.8,0,0,1,8.2,0L48,73.684h0L54.317,80h0l5.795,5.795a5.8,5.8,0,0,1-8.207,8.2l-1.819-1.819h0L35.828,77.916h0l-1.822-1.822A5.809,5.809,0,0,1,34.006,67.889ZM28.029,79.937a4.086,4.086,0,0,1,5.775,0L48.061,94.2a4.085,4.085,0,0,1,0,5.772,4.181,4.181,0,0,1-5.775,0L28.029,85.713A4.092,4.092,0,0,1,28.029,79.937Z" style="fill:#252345"/></svg>