<svg id="Layer_3" data-name="Layer 3" xmlns="http://www.w3.org/2000/svg" viewBox="0 0 128 128"><title>Artboard 110</title><path d="M101.95,100.1c-28.925,14.318-54.127,8.017-54.127,8.017s-21.478-2.289-21.765-17.469,8.019-44.676,13.46-58.136S59.565,18.76,65.292,18.475s12.6,9.736,12.887,12.887-6.014,7.159-9.451,7.159-8.019-6.3-14.033-5.44S48.4,48.83,50.114,55.419,54.7,77.757,54.7,77.757c13.461-14.321,28.352-1.431,28.352-1.431,7.16-8.02,18.9-10.6,18.9-10.6Z" style="fill:#ffbf44"/><polygon points="65.393 89.651 65.393 101.744 72.783 101.744 72.783 89.651 78.322 89.651 69.255 78.906 60.187 89.651 65.393 89.651" style="fill:#74cad3"/><path d="M101.315,98.812c-28.074,13.9-52.9,7.974-53.146,7.911a1.5,1.5,0,0,0-.194-.034c-.2-.022-20.227-2.343-20.486-16.072-.275-14.524,7.594-43.32,13.356-57.573,4.935-12.208,17.8-12.82,23.978-13.115l.541-.025c.061,0,.122-.006.183-.006,4.778,0,10.989,9.2,11.207,11.592a3.1,3.1,0,0,1-1.031,1.99C74,35.37,70.665,37.089,68.729,37.089c-.969,0-2.438-.965-3.992-1.985a33.336,33.336,0,0,0-3.825-2.25c-.01-.006-.015-.016-.025-.022l-7.281-4.081a1.431,1.431,0,1,0-1.4,2.5l1.234.692a6.144,6.144,0,0,0-2.969,2.489c-3.254,4.892-3.208,15.733-1.742,21.35,1.685,6.459,4.53,22.077,4.559,22.233a1.431,1.431,0,0,0,2.451.724c12.34-13.124,25.807-1.816,26.375-1.328a1.431,1.431,0,0,0,2-.13c6.755-7.567,18.029-10.128,18.141-10.153a1.431,1.431,0,0,0-.614-2.8c-.478.1-11.356,2.563-18.757,10.077-3.645-2.584-15.745-9.659-27.268.464C54.725,70.091,52.8,60.058,51.5,55.058c-1.268-4.864-1.375-14.939,1.355-19.044A3.023,3.023,0,0,1,54.9,34.5c3.034-.436,5.814,1.391,8.267,3,2.006,1.317,3.738,2.455,5.563,2.455,2.736,0,6.822-2.037,9.108-4.54a5.621,5.621,0,0,0,1.769-4.181C79.253,27.363,72,17.038,65.522,17.038c-.1,0-.2,0-.3.007l-.534.026c-6.247.3-20.875.992-26.5,14.9-5.03,12.445-13.866,42.7-13.564,58.7.3,15.679,21.254,18.641,22.939,18.852a66.479,66.479,0,0,0,14.686,1.44,90.977,90.977,0,0,0,40.333-9.584,1.432,1.432,0,0,0-1.27-2.566Z" style="fill:#252345"/><path d="M65.393,103.176h7.39a1.431,1.431,0,0,0,1.431-1.431V91.083h4.122a1.432,1.432,0,0,0,.931-2.531L70.349,77.983a1.43,1.43,0,0,0-2.187,0L59.093,88.729a1.431,1.431,0,0,0,1.094,2.354h3.775v10.662A1.431,1.431,0,0,0,65.393,103.176ZM63.267,88.22l5.988-7.095,5.987,7.095H72.783a1.431,1.431,0,0,0-1.431,1.431v10.662H66.824V89.651a1.431,1.431,0,0,0-1.431-1.431Z" style="fill:#252345"/></svg>