<svg id="Layer_3" data-name="Layer 3" xmlns="http://www.w3.org/2000/svg" viewBox="0 0 128 128"><title>Artboard 101</title><circle cx="64" cy="64" r="39.12" transform="translate(-26.51 64) rotate(-45)" style="fill:#74cad3"/><path d="M64,104.552A40.552,40.552,0,1,0,35.325,92.674,40.285,40.285,0,0,0,64,104.552ZM93.562,86.8a32.668,32.668,0,0,0-4.007-8.758c-4.009-6.594-10.329-14.337-17.8-21.8C60.02,44.5,48.272,36.188,41.219,34.443a22.192,22.192,0,0,1,11.06-2.723c9.982,0,21.186,5.245,29.97,14.03,7.184,7.184,11.987,15.864,13.523,24.441C96.916,76.579,96.122,82.308,93.562,86.8ZM38.731,36.951c4.817,0,17.013,7.321,31,21.314,7.311,7.311,13.481,14.863,17.374,21.268,4.376,7.2,4.285,10.374,3.543,11.117a1.931,1.931,0,0,1-1.38.4c-4.815,0-17.011-7.321-31.006-21.314C42,53.467,35.013,39.688,37.351,37.35A1.927,1.927,0,0,1,38.731,36.951ZM34.452,41.2C36.3,48.826,45.571,61.088,56.241,71.759c11.741,11.741,23.49,20.053,30.543,21.8a22.192,22.192,0,0,1-11.059,2.722c-9.982,0-21.188-5.244-29.974-14.029C32.743,69.239,28.319,51.973,34.452,41.2ZM64,26.311A37.713,37.713,0,0,1,99.075,77.82a33.229,33.229,0,0,0-.486-8.132c-1.638-9.148-6.722-18.367-14.317-25.961C74.964,34.416,63,28.858,52.279,28.858c-.731,0-1.445.038-2.153.089A37.641,37.641,0,0,1,64,26.311ZM28.977,50.046c-.794,10.875,4.393,23.87,14.75,34.228,9.311,9.309,21.273,14.867,32,14.867.732,0,1.446-.038,2.154-.089a37.714,37.714,0,0,1-48.9-49.006Z" style="fill:#252345"/><ellipse cx="58.456" cy="37.22" rx="3.578" ry="1.879" transform="translate(-10.804 39.565) rotate(-34.425)" style="fill:#252345"/></svg>