<svg id="Layer_3" data-name="Layer 3" xmlns="http://www.w3.org/2000/svg" viewBox="0 0 128 128"><title>Artboard 104</title><path d="M44.182,33.216H83.818a7.928,7.928,0,0,1,7.928,7.928V98.617a7.926,7.926,0,0,1-7.926,7.926H44.182a7.928,7.928,0,0,1-7.928-7.928V41.143A7.928,7.928,0,0,1,44.182,33.216Z" style="fill:#74cad3"/><rect x="36.254" y="51.25" width="55.492" height="37.258" style="fill:#f3faff"/><path d="M83.818,33.216V28.13c0-3.67-3.567-6.673-7.928-6.673H53.166c-4.358,0-7.928,3-7.928,6.673v5.086Z" style="fill:#f3faff"/><path d="M75.89,20.026H53.166c-5.16,0-9.359,3.636-9.359,8.1V31.8a9.362,9.362,0,0,0-8.984,9.339V98.616a9.37,9.37,0,0,0,9.359,9.359H83.818a9.37,9.37,0,0,0,9.359-9.359V41.142a9.365,9.365,0,0,0-7.928-9.236V28.129C85.249,23.661,81.051,20.026,75.89,20.026ZM46.67,31.784V29.561H82.387v2.224Zm6.5-8.9H75.89c2.963,0,5.442,1.618,6.219,3.81H46.947C47.725,24.506,50.2,22.888,53.166,22.888ZM90.314,87.078H37.685v-34.4H90.314Zm-6.5,18.034H44.182a6.5,6.5,0,0,1-6.5-6.5V89.94H90.314v8.676A6.5,6.5,0,0,1,83.818,105.112Zm6.5-63.97v8.677H37.685V41.142a6.5,6.5,0,0,1,6.5-6.5H83.818A6.5,6.5,0,0,1,90.314,41.142Z" style="fill:#252345"/></svg>