<svg id="Layer_3" data-name="Layer 3" xmlns="http://www.w3.org/2000/svg" viewBox="0 0 128 128"><title>Artboard 98</title><path d="M64.5,96.223S43.992,84.015,33.311,68.54C27.07,59.5,26.216,51.72,27.978,45.679,30.547,36.887,40.47,28.185,54.257,33.3A39.854,39.854,0,0,1,64.5,38.6a39.824,39.824,0,0,1,10.239-5.3c13.787-5.113,23.709,3.589,26.278,12.381,1.763,6.041.909,13.82-5.332,22.861C85,84.015,64.5,96.224,64.5,96.223Z" style="fill:#f55557"/><path d="M108.466,62.568h-7.773c3.262-7.376,2.86-13.3,1.7-17.291-2.1-7.192-9.146-14.932-19.648-14.932a24.466,24.466,0,0,0-8.5,1.61A45.441,45.441,0,0,0,64.5,36.833a45.462,45.462,0,0,0-9.743-4.877,24.467,24.467,0,0,0-8.5-1.61c-10.5,0-17.547,7.74-19.648,14.932C25.36,49.542,24.981,56.008,29.018,64.1H19.534a1.431,1.431,0,1,0,0,2.862H30.6c.474.785.975,1.58,1.536,2.391C41.192,82.477,60.926,96.681,64.5,97.563v.091a.613.613,0,0,0,.192-.055.54.54,0,0,0,.234-.01l-.025-.082c3.1-1.466,21.987-13.7,31.963-28.155a44.78,44.78,0,0,0,2.426-3.922h9.179a1.431,1.431,0,1,0,0-2.862ZM29.352,46.08c1.811-6.2,7.873-12.871,16.9-12.871a21.628,21.628,0,0,1,7.506,1.431,39.144,39.144,0,0,1,9.846,5.079,1.435,1.435,0,0,0,1.785,0,39.114,39.114,0,0,1,9.845-5.079,21.629,21.629,0,0,1,7.506-1.431c9.027,0,15.089,6.672,16.9,12.871,1.473,5.051.736,10.672-2.1,16.489H88.967l-3.581-6.091a1.432,1.432,0,0,0-1.184-.705,1.4,1.4,0,0,0-1.23.621l-2.989,4.352-4.792-15.62a1.431,1.431,0,0,0-2.743.021L64.3,73.209,55.5,50.687a1.431,1.431,0,0,0-1.261-.909,1.4,1.4,0,0,0-1.346.777L45.967,64.1H32.25C28.761,57.739,27.75,51.572,29.352,46.08ZM94.505,67.727C85.174,81.245,68.206,92.238,64.5,94.544c-3.714-2.315-20.714-13.35-30.009-26.817-.177-.256-.339-.511-.507-.766H46.843a1.431,1.431,0,0,0,1.274-.779L54,54.692l9.168,23.483a1.432,1.432,0,0,0,1.333.91h.065a1.431,1.431,0,0,0,1.31-1.031l7.989-27.506L78.117,64.42a1.431,1.431,0,0,0,2.548.39l3.394-4.942,2.856,4.858a1.43,1.43,0,0,0,1.233.706h7.83C95.52,66.195,95.035,66.96,94.505,67.727Z" style="fill:#252345"/></svg>