<svg id="Layer_3" data-name="Layer 3" xmlns="http://www.w3.org/2000/svg" viewBox="0 0 128 128"><title>Artboard 99</title><path d="M89.173,59.01h.07a27.193,27.193,0,1,0-50.488,0h.074a27.775,27.775,0,0,0-6.674,17.962c0,16.2,14.257,29.341,31.845,29.341S95.845,93.175,95.845,76.971A27.776,27.776,0,0,0,89.173,59.01ZM64,28.614a20.28,20.28,0,0,1,19.643,25.27h0a33.967,33.967,0,0,0-39.277,0h-.008A20.279,20.279,0,0,1,64,28.614Z" style="fill:#d3d3d3"/><path d="M64,107.743c18.349,0,33.276-13.8,33.276-30.772A29.1,29.1,0,0,0,90.83,58.8a28.624,28.624,0,1,0-53.662,0,29.1,29.1,0,0,0-6.445,18.173C30.723,93.938,45.651,107.743,64,107.743Zm0-2.863c-16.771,0-30.414-12.52-30.414-27.909S47.229,49.061,64,49.061s30.414,12.52,30.414,27.909S80.771,104.88,64,104.88Zm-18.838-56a18.837,18.837,0,1,1,37.479,2.615,35.463,35.463,0,0,0-37.282,0A18.926,18.926,0,0,1,45.162,48.878Zm-6.924,0a25.762,25.762,0,1,1,50.422,7.453A32.61,32.61,0,0,0,85.237,53.3a21.7,21.7,0,1,0-42.476,0,32.59,32.59,0,0,0-3.422,3.031A25.7,25.7,0,0,1,38.238,48.878Z" style="fill:#252345"/><path d="M64,54.5c-13.378,0-24.261,10.079-24.261,22.467a1.431,1.431,0,0,0,2.862,0c0-10.81,9.6-19.6,21.4-19.6A1.431,1.431,0,0,0,64,54.5Z" style="fill:#252345"/></svg>