<svg id="Layer_3" data-name="Layer 3" xmlns="http://www.w3.org/2000/svg" viewBox="0 0 128 128"><title>Artboard 112</title><path d="M30.245,45.738a4.412,4.412,0,0,1-4.411,4.414h0a4.414,4.414,0,0,1-4.414-4.414v-19.8a4.412,4.412,0,0,1,4.414-4.411h0a4.409,4.409,0,0,1,4.411,4.411Z" style="fill:#d3d3d3"/><path d="M21.42,44.4A3.815,3.815,0,0,1,17.6,48.214h0A3.815,3.815,0,0,1,13.789,44.4V27.277A3.815,3.815,0,0,1,17.6,23.461h0a3.815,3.815,0,0,1,3.816,3.816Z" style="fill:#d3d3d3"/><path d="M97.872,25.938a4.412,4.412,0,0,1,4.414-4.411h0a4.409,4.409,0,0,1,4.411,4.411v19.8a4.412,4.412,0,0,1-4.411,4.414h0a4.414,4.414,0,0,1-4.414-4.414Z" style="fill:#d3d3d3"/><path d="M106.7,27.277a3.815,3.815,0,0,1,3.816-3.816h0a3.815,3.815,0,0,1,3.816,3.816V44.4a3.815,3.815,0,0,1-3.816,3.816h0A3.815,3.815,0,0,1,106.7,44.4Z" style="fill:#d3d3d3"/><path d="M69.429,59.958a5.73,5.73,0,0,1,5.294,4.173l5.809,24.211a3.237,3.237,0,0,1-3.293,4.176H50.881a3.235,3.235,0,0,1-3.29-4.176L53.4,64.131a5.736,5.736,0,0,1,5.3-4.173Z" style="fill:#74cad3"/><path d="M117.909,34.408h-2.15V27.277a5.253,5.253,0,0,0-5.247-5.247,5.2,5.2,0,0,0-3.148,1.076,5.824,5.824,0,0,0-10.924,2.832v8.47H31.677v-8.47a5.824,5.824,0,0,0-10.923-2.831A5.2,5.2,0,0,0,17.6,22.03a5.253,5.253,0,0,0-5.247,5.247v7.131H10.091a1.431,1.431,0,1,0,0,2.863h2.267V44.4A5.253,5.253,0,0,0,17.6,49.646a5.2,5.2,0,0,0,3.148-1.076,5.823,5.823,0,0,0,10.924-2.832V37.27H41.1V75.2H36.328a1.431,1.431,0,0,0,0,2.862H48.584L46.2,88.008a5.3,5.3,0,0,0-.11,1.616,1.342,1.342,0,0,0-.035.174v16.675a1.431,1.431,0,1,0,2.863,0V93.559a5.24,5.24,0,0,0,1.965.391H77.239a5.241,5.241,0,0,0,1.976-.394v12.918a1.431,1.431,0,1,0,2.863,0V89.8a1.347,1.347,0,0,0-.041-.2,5.3,5.3,0,0,0-.113-1.586l-2.158-8.994H92.5a1.431,1.431,0,0,0,0-2.862H86.9V37.27h9.541v8.467a5.824,5.824,0,0,0,10.924,2.832,5.2,5.2,0,0,0,3.148,1.076A5.253,5.253,0,0,0,115.76,44.4V37.27h2.15a1.431,1.431,0,1,0,0-2.863ZM17.6,46.783A2.386,2.386,0,0,1,15.22,44.4V27.277a2.384,2.384,0,0,1,4.769,0V44.4A2.387,2.387,0,0,1,17.6,46.783Zm11.21-1.045a2.981,2.981,0,1,1-5.963,0v-19.8a2.981,2.981,0,0,1,5.963,0ZM78.853,90.405a1.987,1.987,0,0,1-1.614.682H50.881a1.814,1.814,0,0,1-1.9-2.411l5.8-24.209a4.343,4.343,0,0,1,3.907-3.078H69.429a4.333,4.333,0,0,1,3.9,3.076L79.14,88.676A1.988,1.988,0,0,1,78.853,90.405Zm5.184-14.254H79.079L76.115,63.8a7.125,7.125,0,0,0-6.686-5.271H58.694A7.133,7.133,0,0,0,52,63.8L49.271,75.2H43.963V37.27H84.037Zm21.228-30.414a2.981,2.981,0,1,1-5.963,0V35.854l0-.014,0-.014V25.938a2.981,2.981,0,0,1,5.963,0v19.8ZM112.9,44.4a2.384,2.384,0,1,1-4.769,0V27.277a2.384,2.384,0,0,1,4.769,0Z" style="fill:#252345"/></svg>