<svg id="Layer_3" data-name="Layer 3" xmlns="http://www.w3.org/2000/svg" viewBox="0 0 128 128"><title>Artboard 111</title><path d="M99.651,80.16c0,10.276-7.771,18.6-17.359,18.6h-36.9c-9.588,0-17.362-8.325-17.362-18.6h0c0-10.276,7.774-18.6,17.362-18.6h36.9c9.588,0,17.359,8.325,17.359,18.6Z" style="fill:#74cad3"/><circle cx="49.428" cy="80.16" r="12.092" style="fill:#d3d3d3"/><path d="M54.9,37.648a3.6,3.6,0,0,1-3.606,3.6H34.319a3.6,3.6,0,0,1-3.6-3.6h0a3.6,3.6,0,0,1,3.6-3.6H51.293a3.6,3.6,0,0,1,3.606,3.6Z" style="fill:#5ecbc8"/><path d="M71.283,90.819H67.845l-6.467-4.349a13.562,13.562,0,1,0-1.6,2.374l2.937,1.975H61.672a1.431,1.431,0,0,0,0,2.862h9.611a1.431,1.431,0,1,0,0-2.862Zm-21.854,0a10.7,10.7,0,1,1,9.553-5.96l-8.755-5.887a1.431,1.431,0,1,0-1.6,2.376l8.751,5.884A10.624,10.624,0,0,1,49.429,90.819Z" style="fill:#252345"/><path d="M112.9,21.918H81.282a1.431,1.431,0,1,0,0,2.863h29.465c-.421.8-1.075,1.968-2.091,3.637-3.032,4.984-6.6,4.678-6.733,4.671a1.562,1.562,0,0,0-.182-.011H92.906a1.432,1.432,0,0,0-1.386,1.074L84.771,60.324a17.639,17.639,0,0,0-2.479-.2H51.313l-7.18-17.446h7.16a5.035,5.035,0,1,0,0-10.069H34.319a5.035,5.035,0,0,0,0,10.069h6.717l7.18,17.446H45.4C35.032,60.129,26.6,69.114,26.6,80.16s8.431,20.032,18.794,20.032h36.9c10.361,0,18.791-8.986,18.791-20.032,0-9.092-5.716-16.775-13.514-19.214L94.014,35.94h7.665c.834.071,5.668.145,9.423-6.035,3.445-5.662,3.3-6.372,3.2-6.842A1.431,1.431,0,0,0,112.9,21.918ZM32.147,37.648a2.174,2.174,0,0,1,2.172-2.172H51.293a2.172,2.172,0,1,1,0,4.344H34.319A2.174,2.174,0,0,1,32.147,37.648ZM98.22,80.16c0,9.467-7.145,17.169-15.928,17.169H45.4c-8.785,0-15.931-7.7-15.931-17.169S36.61,62.991,45.4,62.991h36.9C91.075,62.991,98.22,70.694,98.22,80.16Z" style="fill:#252345"/><path d="M112.9,103.22H15.09a1.431,1.431,0,0,0,0,2.862H112.9a1.431,1.431,0,0,0,0-2.862Z" style="fill:#252345"/><path d="M68.633,68.067A1.43,1.43,0,0,0,70.064,69.5H83.3a1.431,1.431,0,0,0,0-2.863H70.064A1.43,1.43,0,0,0,68.633,68.067Z" style="fill:#252345"/></svg>