<svg id="Layer_3" data-name="Layer 3" xmlns="http://www.w3.org/2000/svg" viewBox="0 0 128 128"><title>Artboard 107</title><path d="M70.234,31.163c9.482,0,13.641,19.6,13.641,19.6V97.377a10.875,10.875,0,0,1-10.843,10.844H54.965a10.874,10.874,0,0,1-10.84-10.844V50.767s5.057-19.6,13.644-19.6Z" style="fill:#f3faff"/><path d="M55.874,19.78H72.132a4.336,4.336,0,0,1,4.336,4.336v2.712a4.336,4.336,0,0,1-4.336,4.336H55.871a4.336,4.336,0,0,1-4.336-4.336V24.118A4.338,4.338,0,0,1,55.874,19.78Z" style="fill:#74cad3"/><path d="M42.738,50.409a1.476,1.476,0,0,0-.045.358V97.377a12.288,12.288,0,0,0,12.272,12.275H73.032A12.289,12.289,0,0,0,85.307,97.377V50.767a1.419,1.419,0,0,0-.031-.3c-.147-.689-3.059-14.028-9.827-18.94a5.759,5.759,0,0,0,2.45-4.705V24.115a5.774,5.774,0,0,0-5.767-5.767H55.871A5.774,5.774,0,0,0,50.1,24.115v2.709a5.765,5.765,0,0,0,2.6,4.813C46.526,36.422,43.177,48.71,42.738,50.409Zm39.706.51v9.254H70.234a1.431,1.431,0,0,0,0,2.862h12.21V70.65H70.231a1.431,1.431,0,1,0,0,2.862H82.444v7.62H70.234a1.431,1.431,0,0,0,0,2.863h12.21V97.377a9.423,9.423,0,0,1-9.412,9.412H54.965a9.422,9.422,0,0,1-9.409-9.412V84H57.769a1.431,1.431,0,1,0,0-2.863H45.556v-7.62h12.21a1.431,1.431,0,0,0,0-2.862H45.556V63.036H57.769a1.431,1.431,0,1,0,0-2.862H45.556V50.951c1.393-5.275,6.154-18.357,12.213-18.357H70.234C76.987,32.594,81.3,45.68,82.444,50.919ZM68.8,29.731H65.434v-8.52H68.8Zm-6.231,0H59.2v-8.52h3.371Zm12.465-5.616v2.709a2.909,2.909,0,0,1-2.9,2.907h-.467v-8.52h.467A2.907,2.907,0,0,1,75.036,24.115Zm-22.07,0a2.907,2.907,0,0,1,2.9-2.9h.467v8.52h-.467a2.909,2.909,0,0,1-2.9-2.907Z" style="fill:#252345"/></svg>